<?xml version="1.0" encoding="utf-8"?>
<!-- Generator: Adobe Illustrator 23.1.0, SVG Export Plug-In . SVG Version: 6.00 Build 0)  -->
<svg version="1.1" xmlns="http://www.w3.org/2000/svg" xmlns:xlink="http://www.w3.org/1999/xlink" x="0px" y="0px"
	 viewBox="0 0 47.25 47.28" style="enable-background:new 0 0 47.25 47.28;" xml:space="preserve">
<style type="text/css">
	.st0{filter:url(#Adobe_OpacityMaskFilter);}
	.st1{fill:#0E1033;}
	.st2{fill:#FFFFFF;}
	.st3{mask:url(#Layer_6_1_);}
	.st4{fill:url(#SVGID_1_);}
	.st5{fill:#040504;}
	.st6{fill:#232323;}
	.st7{fill:#1D1D1D;}
	.st8{fill:#EE2E30;}
	.st9{fill:#2C2C2C;}
	.st10{fill:#A6A6A6;}
	.st11{fill:#434242;}
	.st12{fill:#181818;}
	.st13{fill:#009A4D;}
	.st14{fill:#7C7C7C;}
	.st15{fill:#212121;}
	.st16{fill:#3D3D3D;}
	.st17{fill:#B1B3B6;}
	.st18{opacity:0.9;fill:#00AFB9;}
	.st19{opacity:0.12;fill:#FFFFFF;}
	.st20{opacity:0.15;fill:#FFFFFF;}
	.st21{opacity:0.75;fill:#FFFFFF;}
	.st22{fill:#FFC906;}
	.st23{fill:#EE2D2F;}
	.st24{fill:#434DA1;}
	.st25{fill:#F26640;}
	.st26{clip-path:url(#SVGID_3_);}
	.st27{clip-path:url(#SVGID_5_);}
	.st28{fill:none;stroke:#EE2D2F;stroke-width:7.3893;stroke-linecap:round;stroke-linejoin:round;stroke-miterlimit:10;}
	.st29{fill:none;stroke:#B1B3B6;stroke-width:10.2686;stroke-linecap:round;stroke-linejoin:round;stroke-miterlimit:10;}
	.st30{clip-path:url(#SVGID_13_);}
	.st31{clip-path:url(#SVGID_15_);}
	.st32{opacity:0.08;}
	.st33{fill:none;stroke:#F57F37;stroke-width:1.7585;stroke-linecap:round;stroke-miterlimit:10;stroke-dasharray:8.7923,17.5846;}
	.st34{fill:none;stroke:#848484;stroke-width:1.7585;stroke-linecap:round;stroke-miterlimit:10;stroke-dasharray:8.7923,17.5846;}
	.st35{fill:none;stroke:#F57F37;stroke-linecap:round;stroke-miterlimit:10;}
	.st36{fill:#F57F37;}
	.st37{fill:#404FA2;stroke:#40403F;stroke-width:2.2819;stroke-linejoin:round;stroke-miterlimit:10;}
	.st38{fill:#EE2B33;stroke:#40403F;stroke-width:2.2819;stroke-linejoin:round;stroke-miterlimit:10;}
	.st39{fill:#FFCC0A;stroke:#40403F;stroke-width:2.2819;stroke-linejoin:round;stroke-miterlimit:10;}
	.st40{fill:#F0EFEF;stroke:#40403F;stroke-width:2.2819;stroke-linejoin:round;stroke-miterlimit:10;}
	.st41{fill:#F16640;stroke:#40403F;stroke-width:2.2819;stroke-linejoin:round;stroke-miterlimit:10;}
	.st42{fill:#404FA2;stroke:#40403F;stroke-width:2.2896;stroke-linejoin:round;stroke-miterlimit:10;}
	.st43{opacity:0.9;}
	.st44{fill:#404FA2;stroke:#484847;stroke-width:2.2896;stroke-linejoin:round;stroke-miterlimit:10;}
	.st45{opacity:0.7;}
	.st46{fill:#404FA2;stroke:#383838;stroke-width:2.2896;stroke-linejoin:round;stroke-miterlimit:10;}
	.st47{opacity:0.6;}
	.st48{opacity:0.5;}
	.st49{fill:#404FA2;stroke:#666766;stroke-width:2.2896;stroke-linejoin:round;stroke-miterlimit:10;}
	.st50{opacity:0.4;}
	.st51{fill:#404FA2;stroke:#727373;stroke-width:2.2896;stroke-linejoin:round;stroke-miterlimit:10;}
	.st52{fill:#404FA2;stroke:#7D7D7D;stroke-width:2.2896;stroke-linejoin:round;stroke-miterlimit:10;}
	.st53{fill:none;stroke:#434DA1;stroke-width:7;stroke-linecap:round;stroke-linejoin:round;stroke-miterlimit:10;}
	.st54{fill:#151723;}
	.st55{fill:#24283A;}
	.st56{fill:none;stroke:#FFC906;stroke-width:5.1381;stroke-linecap:round;stroke-linejoin:round;stroke-miterlimit:10;}
	.st57{fill:none;stroke:#FFC906;stroke-width:16;stroke-linejoin:round;stroke-miterlimit:10;}
	.st58{fill:url(#SVGID_20_);}
	.st59{opacity:0.22;}
	.st60{opacity:0.25;}
	.st61{opacity:0.85;fill:#FFFFFF;}
	.st62{opacity:0.91;clip-path:url(#SVGID_22_);}
	.st63{fill:#8E8E8E;}
	.st64{clip-path:url(#SVGID_24_);}
	.st65{opacity:0.91;clip-path:url(#SVGID_26_);}
	.st66{clip-path:url(#SVGID_28_);}
</style>
<defs>
	<filter id="Adobe_OpacityMaskFilter" filterUnits="userSpaceOnUse">
		<feColorMatrix  type="matrix" values="1 0 0 0 0  0 1 0 0 0  0 0 1 0 0  0 0 0 1 0"/>
	</filter>
</defs>
<mask maskUnits="userSpaceOnUse" id="Layer_6_1_">
</mask>
<g id="Layer_6" class="st3">
</g>
<g id="Layer_14">
</g>
<g id="Extra_shit">
</g>
<g id="Layer_10">
</g>
<g id="section5">
</g>
<g id="Section4">
</g>
<g id="Section3">
</g>
<g id="Scnd_x5F_Section_x5F_Background">
</g>
<g id="Second_Section_Graphics">
</g>
<g id="First_Section">
</g>
<g id="Export">
	<g class="st50">
		<path class="st51" d="M12.68,16.13H4.6c-1.91,0-3.46-1.55-3.46-3.46V4.6c0-1.91,1.55-3.46,3.46-3.46h8.08
			c1.91,0,3.46,1.55,3.46,3.46v8.08C16.13,14.58,14.58,16.13,12.68,16.13z"/>
		<path class="st51" d="M27.66,16.13h-8.08c-1.91,0-3.46-1.55-3.46-3.46V4.6c0-1.91,1.55-3.46,3.46-3.46h8.08
			c1.91,0,3.46,1.55,3.46,3.46v8.08C31.12,14.58,29.57,16.13,27.66,16.13z"/>
		<path class="st51" d="M42.65,16.13h-8.08c-1.91,0-3.46-1.55-3.46-3.46V4.6c0-1.91,1.55-3.46,3.46-3.46h8.08
			c1.91,0,3.46,1.55,3.46,3.46v8.08C46.1,14.58,44.56,16.13,42.65,16.13z"/>
		<path class="st51" d="M12.68,31.12H4.6c-1.91,0-3.46-1.55-3.46-3.46v-8.08c0-1.91,1.55-3.46,3.46-3.46h8.08
			c1.91,0,3.46,1.55,3.46,3.46v8.08C16.13,29.57,14.58,31.12,12.68,31.12z"/>
		<path class="st51" d="M27.66,31.12h-8.08c-1.91,0-3.46-1.55-3.46-3.46v-8.08c0-1.91,1.55-3.46,3.46-3.46h8.08
			c1.91,0,3.46,1.55,3.46,3.46v8.08C31.12,29.57,29.57,31.12,27.66,31.12z"/>
		<path class="st51" d="M42.65,31.12h-8.08c-1.91,0-3.46-1.55-3.46-3.46v-8.08c0-1.91,1.55-3.46,3.46-3.46h8.08
			c1.91,0,3.46,1.55,3.46,3.46v8.08C46.1,29.57,44.56,31.12,42.65,31.12z"/>
		<path class="st51" d="M12.68,46.13H4.6c-1.91,0-3.46-1.55-3.46-3.46V34.6c0-1.91,1.55-3.46,3.46-3.46h8.08
			c1.91,0,3.46,1.55,3.46,3.46v8.08C16.13,44.58,14.58,46.13,12.68,46.13z"/>
		<path class="st51" d="M27.66,46.13h-8.08c-1.91,0-3.46-1.55-3.46-3.46V34.6c0-1.91,1.55-3.46,3.46-3.46h8.08
			c1.91,0,3.46,1.55,3.46,3.46v8.08C31.12,44.58,29.57,46.13,27.66,46.13z"/>
		<path class="st51" d="M42.65,46.13h-8.08c-1.91,0-3.46-1.55-3.46-3.46V34.6c0-1.91,1.55-3.46,3.46-3.46h8.08
			c1.91,0,3.46,1.55,3.46,3.46v8.08C46.1,44.58,44.56,46.13,42.65,46.13z"/>
	</g>
</g>
</svg>
