<svg xmlns="http://www.w3.org/2000/svg" xmlns:xlink="http://www.w3.org/1999/xlink" viewBox="0 0 72.51 76.84">
  <defs>
    <style>
      .e33c1ca9-e370-4798-a649-16ed0465ebb2 {
        mask: url(#b8397de8-33fc-4940-868b-2e9b3d3678df);
      }

      .b5cac6e7-2cb4-46ca-a123-e64952f93126 {
        fill: #232323;
      }

      .bbfe4fbb-111c-4d07-8065-c52a4347600c {
        fill: #7c7c7c;
      }

      .b6ebcd83-ffc2-48ed-82c6-0ddb8c61ada5 {
        fill: #1d1d1d;
      }

      .acabcc8a-8bd6-48f2-bcf6-f2328305c004 {
        fill: #181818;
      }

      .f31a506e-9a8a-4310-9483-49f4d86f39e4 {
        fill: #2c2c2c;
      }

      .e9c5b644-982e-492b-9135-fdc3b5999b9b {
        fill: #ee2d2f;
      }

      .bfaee579-1051-4108-bc01-ab5b94bbfefd {
        fill: #009a4d;
      }

      .ea6a1684-347e-4ee3-b012-718849a40388 {
        fill: #a6a6a6;
      }

      .e739dfd2-3779-45db-823e-3bda8ce1944f {
        fill: #f26640;
      }

      .b12c39bc-5d73-4d8d-85af-3960bbc5b9db {
        fill: #434da1;
      }

      .f02ed7cb-55f9-4079-95aa-977ca746a8d6 {
        fill: #ffc906;
      }
    </style>
    <mask id="b8397de8-33fc-4940-868b-2e9b3d3678df" x="-4311.95" y="880.68" width="2152.71" height="1542.6" maskUnits="userSpaceOnUse"/>
  </defs>
  <title>-</title>
  <g id="a173583a-1248-4a33-93cc-a1eea159ae53" data-name="Layer 10">
    <g>
      <path class="b5cac6e7-2cb4-46ca-a123-e64952f93126" d="M65.42,16.25l-.18.13c1.43-1.13,3,.34,3.3,2.54l-.07-.52a7.17,7.17,0,0,0-2.86-4.85C66.45,14.28,66.63,15.21,65.42,16.25Z"/>
      <path d="M40.9,74.3v0c.12,1.87-.93,2.55-2.34,2.31a7.51,7.51,0,0,0,2.49.24,7.31,7.31,0,0,0,2.65-.9C42.41,76.49,41.24,76.11,40.9,74.3Z"/>
      <path class="bbfe4fbb-111c-4d07-8065-c52a4347600c" d="M38.18,36.69a4.71,4.71,0,0,0-1.56,4.41,4.49,4.49,0,0,0-2.92-3.84A3.87,3.87,0,0,0,38.18,36.69Z"/>
      <path d="M2.75,20.61c-1.57,1.39-1.67,3.62.07,4.2C1.1,24-.06,25.91.18,28.14l-.12-1a7.19,7.19,0,0,1,1.44-5.3A6.78,6.78,0,0,1,2.75,20.61Z"/>
      <path class="b6ebcd83-ffc2-48ed-82c6-0ddb8c61ada5" d="M65.4,16.25l-.15.15h-.08L39.2,36l-1,.72a3.85,3.85,0,0,1-4.48.58l-1.21-.48L4.84,25.62l-2-.81c-1.74-.58-1.64-2.81-.07-4.2a.14.14,0,0,1,.07-.06l0,0,1.28-1,3.53-2.67s0,0,0-.05L27.91,1.42A6.38,6.38,0,0,1,29.55.53a4.42,4.42,0,0,1,.56-.21C30.53.23,31,.08,31.4,0a4.22,4.22,0,0,1,.72,0,8.68,8.68,0,0,1,1,0c.35.08.7.16,1.1.28A5.2,5.2,0,0,1,35,.5L64.13,12.67a8.71,8.71,0,0,1,1.48.87C66.47,14.28,66.63,15.2,65.4,16.25Z"/>
      <path class="acabcc8a-8bd6-48f2-bcf6-f2328305c004" d="M36.62,41.11l4.29,33.18c.12,1.86-.94,2.55-2.34,2.3-.36-.12-.7-.16-1-.29l-4.09-1.68L8.6,64.24l-.18-.06c-.27-.14-.51-.32-.79-.5a6.1,6.1,0,0,1-.92-.56A5.91,5.91,0,0,1,6,62.36c-.15-.19-.38-.33-.54-.52A6.84,6.84,0,0,1,5,61.08a7.62,7.62,0,0,1-.94-2.65L.18,28.14c-.24-2.23.92-4.13,2.64-3.33l2,.81L32.49,36.78l1.21.48A4.49,4.49,0,0,1,36.62,41.11Z"/>
      <path class="f31a506e-9a8a-4310-9483-49f4d86f39e4" d="M68.56,18.91l3.62,28.37.3,2.31a8.64,8.64,0,0,1-.23,2.8c-.1.27-.14.57-.23.88l-.31.55a9.33,9.33,0,0,1-.59,1c-.19.23-.45.48-.68.72a4.72,4.72,0,0,1-.72.69l-10,7.59L48.16,72.71l-3.53,2.67a7.92,7.92,0,0,1-1,.56c-1.29.54-2.44.18-2.77-1.65v0L36.62,41.1a4.71,4.71,0,0,1,1.56-4.41l1-.73L65.25,16.4C66.68,15.24,68.23,16.74,68.56,18.91Z"/>
      <g>
        <path class="e9c5b644-982e-492b-9135-fdc3b5999b9b" d="M68.8,38.9l1.52,11.82a3.47,3.47,0,0,1-1,2.89l-10,7.59c-.68.59-1.36.17-1.49-.88L56.27,48.51a3.56,3.56,0,0,1,1-2.9L67.3,38C68,37.44,68.66,37.85,68.8,38.9Z"/>
        <path class="bfaee579-1051-4108-bc01-ab5b94bbfefd" d="M66.49,21,68,32.9a3.33,3.33,0,0,1-1,2.84L57,43.39c-.69.52-1.37.11-1.5-.88L54,30.63a3.35,3.35,0,0,1,1-2.83l10-7.65C65.68,19.62,66.36,20,66.49,21Z"/>
        <path class="ea6a1684-347e-4ee3-b012-718849a40388" d="M52.74,48.87l-10,7.61a3.41,3.41,0,0,0-1,2.87L43.24,71.2c.13,1,.82,1.43,1.54.88l10-7.62a3.36,3.36,0,0,0,1.05-2.86L54.28,49.75C54.15,48.71,53.46,48.32,52.74,48.87Z"/>
        <path class="e739dfd2-3779-45db-823e-3bda8ce1944f" d="M52,31.9l1.54,11.87a3.3,3.3,0,0,1-1.08,2.84l-9.95,7.64c-.75.54-1.44.12-1.56-.86L39.39,41.51a3.24,3.24,0,0,1,1.08-2.84l10-7.64C51.17,30.49,51.85,30.85,52,31.9Z"/>
      </g>
      <g>
        <path class="e9c5b644-982e-492b-9135-fdc3b5999b9b" d="M5.15,47.13,6.68,59a3.45,3.45,0,0,0,1.71,2.54L20,66.28c.81.39,1.36-.18,1.23-1.23L19.71,53.24A3.6,3.6,0,0,0,18,50.69L6.38,45.9C5.57,45.51,5,46.08,5.15,47.13Z"/>
        <path class="bfaee579-1051-4108-bc01-ab5b94bbfefd" d="M2.84,29.26,4.37,41.13a3.38,3.38,0,0,0,1.71,2.49l11.63,4.84c.8.34,1.35-.23,1.22-1.22L17.4,35.36a3.36,3.36,0,0,0-1.7-2.48L4.06,28C3.27,27.69,2.71,28.27,2.84,29.26Z"/>
        <path class="b12c39bc-5d73-4d8d-85af-3960bbc5b9db" d="M23.21,52.68,34.8,57.51A3.4,3.4,0,0,1,36.55,60l1.53,11.85c.14,1-.43,1.59-1.27,1.24L25.23,68.28a3.4,3.4,0,0,1-1.75-2.5L22,53.93C21.81,52.89,22.38,52.34,23.21,52.68Z"/>
        <path class="bfaee579-1051-4108-bc01-ab5b94bbfefd" d="M19.63,36.08,21.17,48a3.31,3.31,0,0,0,1.76,2.48L34.5,55.28c.86.33,1.42-.24,1.29-1.23L34.25,42.17a3.21,3.21,0,0,0-1.76-2.47L20.92,34.84C20.06,34.52,19.49,35,19.63,36.08Z"/>
      </g>
      <g>
        <path class="f02ed7cb-55f9-4079-95aa-977ca746a8d6" d="M23,30.19,34,34.7a3.47,3.47,0,0,0,3-.22l9.86-7.67c.75-.5.52-1.26-.45-1.66l-11-4.51a3.55,3.55,0,0,0-3,.22l-9.86,7.67C21.83,29,22.05,29.79,23,30.19Z"/>
        <path class="ea6a1684-347e-4ee3-b012-718849a40388" d="M6.46,23.36l11,4.54a3.36,3.36,0,0,0,3-.25L30.37,20c.68-.52.46-1.29-.46-1.66l-11-4.54a3.34,3.34,0,0,0-3,.25L6,21.7C5.32,22.22,5.54,23,6.46,23.36Z"/>
        <path class="e9c5b644-982e-492b-9135-fdc3b5999b9b" d="M36.88,17.39l9.95-7.66a3.41,3.41,0,0,1,3-.28L60.92,14c1,.4,1.16,1.17.45,1.72l-9.95,7.66a3.38,3.38,0,0,1-3,.28L37.33,19.11C36.37,18.71,36.17,17.94,36.88,17.39Z"/>
        <path class="ea6a1684-347e-4ee3-b012-718849a40388" d="M20.63,12.24l11,4.54a3.34,3.34,0,0,0,3-.31l9.9-7.58c.71-.58.48-1.35-.43-1.72l-11-4.54a3.21,3.21,0,0,0-3,.31l-9.9,7.58C19.49,11.1,19.66,11.84,20.63,12.24Z"/>
      </g>
    </g>
  </g>
</svg>
