<svg xmlns="http://www.w3.org/2000/svg" xmlns:xlink="http://www.w3.org/1999/xlink" viewBox="0 0 128.11 129.98">
  <defs>
    <style>
      .e8c090db-167f-49f9-a8af-4d2e27d84987 {
        mask: url(#fcfeb64b-bdb9-4ef7-8e4d-d75888c05a22);
      }

      .af5bee8e-401f-43f6-b81f-34332bdf0c70 {
        fill: #232323;
      }

      .b820507a-5358-48af-a643-0fdf10a8aa55 {
        fill: #7c7c7c;
      }

      .a14a6bdc-3498-45ad-ab84-5c16ce6af7b9 {
        fill: #1d1d1d;
      }

      .f6a7118f-c0a7-4a08-847a-c5cfb64eac21 {
        fill: #181818;
      }

      .bda72075-c7de-452e-8ebb-76a6bd74a562 {
        fill: #009a4d;
      }

      .b936b763-a8db-49cc-aea6-4810b540a962 {
        fill: #ee2d2f;
      }

      .ae93e1b3-0f46-42d7-81e9-e69b8f513add {
        fill: #b1b3b6;
      }

      .bd17b81e-3f6f-470e-990e-ab840ac014dc {
        fill: #434da1;
      }

      .b5ee8004-cc8d-499c-b482-b19d08dcc2c6 {
        fill: #ffc906;
      }

      .a1f50f2f-1057-4010-8f9d-ad9614b91fac {
        fill: #2c2c2c;
      }

      .fdc8d3ba-e60e-4932-939c-5c49f5bc2546 {
        fill: #f26640;
      }
    </style>
    <mask id="fcfeb64b-bdb9-4ef7-8e4d-d75888c05a22" x="-4311.95" y="778.84" width="2152.71" height="1542.6" maskUnits="userSpaceOnUse"/>
  </defs>
  <title>-</title>
  <g id="b33a6473-a88b-450d-ad41-bbb821f891e2" data-name="Export">
    <g>
      <path class="af5bee8e-401f-43f6-b81f-34332bdf0c70" d="M110.05,22.14l-.29.26c2.24-2.18,5.15.06,6.08,3.76l-.21-.88a12.35,12.35,0,0,0-5.73-7.79C111.46,18.6,111.93,20.16,110.05,22.14Z"/>
      <path d="M78.2,125.52v0c.52,3.16-1.15,4.51-3.6,4.33a12.06,12.06,0,0,0,4.28,0,12.25,12.25,0,0,0,4.37-2C81.16,129,79.1,128.55,78.2,125.52Z"/>
      <path class="b820507a-5358-48af-a643-0fdf10a8aa55" d="M67.06,61.75a8.11,8.11,0,0,0-1.9,7.81c-.82-3.53-2.63-4.89-5.65-6.05C62.61,64.35,64.51,64.2,67.06,61.75Z"/>
      <path d="M3.77,40.41c-2.43,2.65-2.21,6.47.86,7.17C1.55,46.51-.11,50,.7,53.71L.32,52.09a12.33,12.33,0,0,1,1.55-9.3A11.9,11.9,0,0,1,3.77,40.41Z"/>
      <path class="a14a6bdc-3498-45ad-ab84-5c16ce6af7b9" d="M109.9,17.49a14.54,14.54,0,0,0-2.68-1.24L55.37.51A8.87,8.87,0,0,0,54.05.29C53.35.16,52.74.08,52.12,0a14.24,14.24,0,0,0-1.74.18,8.84,8.84,0,0,0-1.24.14c-.7.17-1.45.49-2.14.73a6.32,6.32,0,0,0-.93.44A11.58,11.58,0,0,0,43.43,3.3L11.59,33.07c-.07,0-.07,0-.05.09L6,38.33,4,40.22l-.05.09c-.07,0-.13.1-.13.1-2.43,2.65-2.21,6.47.86,7.17l3.59,1L57.35,62.9l2.16.61c3.1.84,5,.69,7.55-1.76l1.61-1.42,41-37.87.14,0,.24-.28C111.93,20.14,111.5,18.6,109.9,17.49ZM71.23,8.79l14,4.48c1,.28,1.12,1.3.2,2.11l-10.11,10a4.09,4.09,0,0,1-3.43.95l-14-4.48c-1-.29-1.11-1.23-.2-2.11L67.82,9.81A3.89,3.89,0,0,1,71.23,8.79ZM70.3,29.71,60.11,39.32a3.89,3.89,0,0,1-3.41,1l-14-4.27c-1-.28-1.11-1.23-.18-2l10.18-9.67a3.86,3.86,0,0,1,3.41-1l14,4.27C71.07,27.89,71.22,28.83,70.3,29.71ZM37.79,13.55l10.11-10a4.09,4.09,0,0,1,3.42-.95l14,4.48c1,.3,1.1,1.23.19,2.11L55.4,19.12a3.89,3.89,0,0,1-3.42,1L38,15.66C37,15.38,36.86,14.36,37.79,13.55ZM22.66,27.88l10.18-9.67a4.08,4.08,0,0,1,3.43-.95L50.2,21.45c1,.35,1.11,1.23.27,2.1L40.29,33.22a3.65,3.65,0,0,1-3.42,1L22.93,30C21.9,29.7,21.82,28.75,22.66,27.88ZM21,48.68,8.94,45,7,44.42c-1-.28-1.11-1.23-.18-2.05l3.41-3.25L17,32.7a3.87,3.87,0,0,1,3.41-1l14,4.26c1,.3,1.1,1.23.19,2.12l-10.19,9.6A3.89,3.89,0,0,1,21,48.68Zm20.6,5.62L27.61,50c-1-.28-1.1-1.23-.26-2.1l10.19-9.6a3.89,3.89,0,0,1,3.41-1L54.9,41.57c1,.28,1.11,1.23.25,2L45,53.28A3.92,3.92,0,0,1,41.57,54.3Zm33.3-5L64.7,59a4.12,4.12,0,0,1-3.43.95L47.33,55.7c-1-.35-1.1-1.23-.19-2.11l10.17-9.67a3.66,3.66,0,0,1,3.43-1l13.94,4.19C75.64,47.46,75.78,48.39,74.87,49.27ZM90.11,35.44,79.93,45.11a3.86,3.86,0,0,1-3.41,1L62.57,41.87c-1-.3-1.11-1.23-.2-2.11l10.2-9.61a3.89,3.89,0,0,1,3.41-1l14,4.26C91,33.67,91,34.63,90.11,35.44ZM105.47,21.5,95.34,31.39a3.91,3.91,0,0,1-3.41,1l-14-4.48c-1.05-.35-1.12-1.3-.28-2.17l10.13-9.88a3.78,3.78,0,0,1,3.49-1l14,4.4C106.24,19.68,106.31,20.63,105.47,21.5Z"/>
      <path class="f6a7118f-c0a7-4a08-847a-c5cfb64eac21" d="M59.51,63.51l-2.16-.61L8.22,48.6l-3.59-1C1.55,46.51-.11,50,.7,53.71l11.92,51.06a12.89,12.89,0,0,0,2.06,4.36,10.31,10.31,0,0,0,.81,1.22c.29.31.71.51,1,.81a11,11,0,0,0,1.38,1.17,12.33,12.33,0,0,0,1.68.8,15.63,15.63,0,0,0,1.43.7l.32.08,44.24,13.42,7.28,2.17c.56.17,1.16.18,1.79.33,2.43.18,4.12-1.18,3.6-4.34L65.16,69.56C64.34,66,62.53,64.67,59.51,63.51Zm-15.12,1.3c-.28-1.21.38-1.88,1.35-1.58l13.95,4.26A3.78,3.78,0,0,1,62,70.15L65.19,83.7c.26,1.13-.31,1.86-1.34,1.58L49.89,81a4,4,0,0,1-2.33-2.66Zm4.77,20.4c-.28-1.2.36-1.94,1.34-1.58l13.94,4.2a3.9,3.9,0,0,1,2.35,2.72L69.94,104c.28,1.2-.29,1.93-1.34,1.58l-13.94-4.19a4.23,4.23,0,0,1-2.35-2.73ZM34.08,112.49c.28,1.2-.29,1.93-1.34,1.58L18.8,109.88a3.91,3.91,0,0,1-2.35-2.73L13.3,93.66c-.28-1.2.3-1.93,1.35-1.58l13.93,4.19A4,4,0,0,1,30.93,99ZM29.33,92.15C29.6,93.28,29,94,28,93.73L14,89.47a3.88,3.88,0,0,1-2.34-2.66L8.54,73.25c-.28-1.2.31-1.86,1.34-1.58l13.95,4.27a3.75,3.75,0,0,1,2.34,2.65ZM24.57,71.74c.28,1.2-.3,1.93-1.35,1.58L9.29,69.13A4,4,0,0,1,6.94,66.4L3.79,52.92c-.28-1.2.29-1.93,1.34-1.58l2.4.7,11.54,3.49a3.91,3.91,0,0,1,2.35,2.73Zm29.75,46.75c.28,1.2-.31,1.86-1.27,1.56L39,115.8a3.87,3.87,0,0,1-2.27-2.67L33.6,99.57c-.27-1.13.31-1.86,1.27-1.56l14,4.24a4,4,0,0,1,2.27,2.68Zm-4.6-20.37c.28,1.2-.37,1.94-1.35,1.58L34.43,95.5a3.92,3.92,0,0,1-2.35-2.72L28.94,79.29c-.29-1.2.29-1.93,1.34-1.58L44.22,81.9a4.23,4.23,0,0,1,2.35,2.73ZM45,77.78c.28,1.2-.39,1.87-1.35,1.58L29.67,75.09a3.76,3.76,0,0,1-2.33-2.65L24.17,58.88c-.26-1.13.31-1.86,1.34-1.58l14,4.26a4.08,4.08,0,0,1,2.33,2.66ZM73.36,126l-1-.3-13-4a4,4,0,0,1-2.33-2.66l-3.17-13.56c-.26-1.13.38-1.88,1.34-1.58l14,4.26a3.78,3.78,0,0,1,2.33,2.66l3.16,13.56a1.52,1.52,0,0,1-.11.77A.89.89,0,0,1,73.36,126Z"/>
      <g>
        <path class="bda72075-c7de-452e-8ebb-76a6bd74a562" d="M90.11,35.44,79.93,45.11a3.86,3.86,0,0,1-3.41,1L62.57,41.87c-1-.3-1.11-1.23-.2-2.11l10.2-9.61a3.89,3.89,0,0,1,3.41-1l14,4.26C91,33.67,91,34.63,90.11,35.44Z"/>
        <path class="b936b763-a8db-49cc-aea6-4810b540a962" d="M55.15,43.6,45,53.28a3.92,3.92,0,0,1-3.41,1L27.61,50c-1-.28-1.1-1.23-.26-2.1l10.19-9.6a3.89,3.89,0,0,1,3.41-1L54.9,41.57C55.94,41.85,56,42.8,55.15,43.6Z"/>
        <path class="ae93e1b3-0f46-42d7-81e9-e69b8f513add" d="M70.3,29.71,60.11,39.32a3.89,3.89,0,0,1-3.41,1l-14-4.27c-1-.28-1.11-1.23-.18-2l10.18-9.67a3.86,3.86,0,0,1,3.41-1l14,4.27C71.07,27.89,71.22,28.83,70.3,29.71Z"/>
        <path class="bd17b81e-3f6f-470e-990e-ab840ac014dc" d="M85.43,15.38l-10.11,10a4.09,4.09,0,0,1-3.43.95l-14-4.48c-1-.29-1.11-1.23-.2-2.11L67.82,9.81a3.89,3.89,0,0,1,3.41-1l14,4.48C86.26,13.55,86.35,14.57,85.43,15.38Z"/>
        <path class="bda72075-c7de-452e-8ebb-76a6bd74a562" d="M74.87,49.27,64.7,59a4.12,4.12,0,0,1-3.43.95L47.33,55.7c-1-.35-1.1-1.23-.19-2.11l10.17-9.67a3.66,3.66,0,0,1,3.43-1l13.94,4.19C75.64,47.46,75.78,48.39,74.87,49.27Z"/>
        <path class="b936b763-a8db-49cc-aea6-4810b540a962" d="M77.91,27.92l14,4.46a3.82,3.82,0,0,0,3.43-1l10.13-9.89c.88-.87.78-1.83-.23-2.15l-14-4.45a3.82,3.82,0,0,0-3.43,1L77.69,25.78C76.8,26.64,76.9,27.6,77.91,27.92Z"/>
        <path class="b5ee8004-cc8d-499c-b482-b19d08dcc2c6" d="M34.57,38.06l-10.19,9.6a3.89,3.89,0,0,1-3.41,1L8.94,45,7,44.42c-1-.28-1.11-1.23-.18-2.05l3.41-3.25L17,32.7a3.87,3.87,0,0,1,3.41-1l14,4.26C35.34,36.24,35.48,37.17,34.57,38.06Z"/>
        <path class="ae93e1b3-0f46-42d7-81e9-e69b8f513add" d="M50.47,23.55,40.29,33.22a3.65,3.65,0,0,1-3.42,1L22.93,30c-1-.28-1.11-1.23-.27-2.1l10.18-9.67a4.08,4.08,0,0,1,3.43-.95L50.2,21.45C51.25,21.8,51.31,22.68,50.47,23.55Z"/>
        <path class="b5ee8004-cc8d-499c-b482-b19d08dcc2c6" d="M65.52,9.23,55.4,19.12a3.89,3.89,0,0,1-3.42,1L38,15.66c-1-.28-1.12-1.3-.19-2.11l10.11-10a4.09,4.09,0,0,1,3.42-.95l14,4.48C66.29,7.42,66.43,8.35,65.52,9.23Z"/>
      </g>
      <g>
        <path class="bda72075-c7de-452e-8ebb-76a6bd74a562" d="M14.64,92.06c-1-.31-1.6.4-1.32,1.58l3.15,13.53a4,4,0,0,0,2.32,2.69l14,4.23c1,.31,1.6-.4,1.32-1.58L30.92,99a3.91,3.91,0,0,0-2.32-2.69Z"/>
        <path class="bd17b81e-3f6f-470e-990e-ab840ac014dc" d="M9.88,71.68c-1-.31-1.6.4-1.32,1.58l3.16,13.53A3.92,3.92,0,0,0,14,89.48l14,4.23c1,.31,1.6-.4,1.32-1.58L26.16,78.6a3.92,3.92,0,0,0-2.31-2.69Z"/>
        <path class="bda72075-c7de-452e-8ebb-76a6bd74a562" d="M21.43,58.23l3.15,13.51c.28,1.18-.34,1.93-1.32,1.59l-14-4.21a4,4,0,0,1-2.32-2.7L3.78,52.91c-.27-1.18.35-1.93,1.33-1.59L7.53,52l11.57,3.5A4,4,0,0,1,21.43,58.23Z"/>
        <path class="b936b763-a8db-49cc-aea6-4810b540a962" d="M34.91,98c-1-.3-1.6.41-1.32,1.59l3.16,13.53a3.93,3.93,0,0,0,2.32,2.69l14,4.23c1,.3,1.59-.41,1.32-1.59L51.2,104.94a4,4,0,0,0-2.32-2.69Z"/>
        <path class="bda72075-c7de-452e-8ebb-76a6bd74a562" d="M30.24,77.7c-1-.31-1.6.4-1.32,1.58l3.16,13.53A3.94,3.94,0,0,0,34.4,95.5l14,4.23c1,.31,1.59-.4,1.32-1.58L46.53,84.62a4,4,0,0,0-2.32-2.69Z"/>
        <path class="bda72075-c7de-452e-8ebb-76a6bd74a562" d="M25.48,57.32c-1-.3-1.59.41-1.32,1.59l3.16,13.53a4,4,0,0,0,2.32,2.69l14,4.23c1,.31,1.6-.4,1.32-1.59L41.77,64.25a3.89,3.89,0,0,0-2.32-2.69Z"/>
        <path class="b5ee8004-cc8d-499c-b482-b19d08dcc2c6" d="M71.54,110.89l3.16,13.56a1.52,1.52,0,0,1-.11.77.89.89,0,0,1-1.23.81l-1-.3-13-4a4,4,0,0,1-2.33-2.66l-3.17-13.56c-.26-1.13.38-1.88,1.34-1.58l14,4.26A3.78,3.78,0,0,1,71.54,110.89Z"/>
        <path class="b5ee8004-cc8d-499c-b482-b19d08dcc2c6" d="M68.63,105.64c1,.3,1.59-.41,1.32-1.59L66.79,90.52a4,4,0,0,0-2.32-2.69l-14-4.23c-1-.31-1.6.4-1.32,1.59l3.16,13.52a3.89,3.89,0,0,0,2.32,2.69Z"/>
        <path class="ae93e1b3-0f46-42d7-81e9-e69b8f513add" d="M62,70.15,65.19,83.7c.26,1.13-.31,1.86-1.34,1.58L49.89,81a4,4,0,0,1-2.33-2.66L44.39,64.81c-.28-1.21.38-1.88,1.35-1.58l13.95,4.26A3.78,3.78,0,0,1,62,70.15Z"/>
      </g>
      <path class="a1f50f2f-1057-4010-8f9d-ad9614b91fac" d="M109.78,22.43,68.67,60.33l-1.61,1.42a8.11,8.11,0,0,0-1.9,7.81l13,55.86v.07c.87,3.07,2.91,3.49,5,2.33a12.42,12.42,0,0,0,1.53-1.1l5.57-5.18L108.6,104.4l15.7-14.69a10.54,10.54,0,0,0,1.12-1.3c.34-.46.75-.92,1-1.36a13.18,13.18,0,0,0,.84-1.83c.14-.34.29-.67.43-1,.1-.54.13-1.07.24-1.54a14.29,14.29,0,0,0-.08-4.83L127,74,115.87,26.15C114.94,22.49,112,20.19,109.78,22.43ZM83.72,54a3.91,3.91,0,0,1,.84-3.4l10.69-10c.74-.7,1.57-.3,1.84.83L100.25,55a3.87,3.87,0,0,1-.84,3.4l-10.69,10c-.73.69-1.57.29-1.84-.84Zm10.54,56a3.76,3.76,0,0,1-.91,3.41l-10.5,9.9-.12.11a1,1,0,0,1-1.22.21,1.92,1.92,0,0,1-.69-1L77.65,109a3.79,3.79,0,0,1,.92-3.42l10.62-10c.8-.71,1.63-.38,1.91.82ZM89.5,89.57a4,4,0,0,1-.9,3.49L78,103c-.8.71-1.63.38-1.91-.82L72.89,88.61a3.87,3.87,0,0,1,.91-3.42l10.63-10c.8-.71,1.64-.31,1.92.89ZM84.75,69.23a3.9,3.9,0,0,1-.92,3.42l-10.62,10c-.8.71-1.64.31-1.9-.82L68.14,68.27a3.78,3.78,0,0,1,.91-3.42l10.63-10c.8-.71,1.62-.38,1.9.82Zm3.73,5.16a4.19,4.19,0,0,1,.83-3.47L100,61c.72-.76,1.55-.36,1.83.84L105,75.3a4,4,0,0,1-.82,3.47l-10.71,10c-.72.76-1.56.36-1.84-.84Zm21.34,21.23A3.9,3.9,0,0,1,109,99L98.29,109c-.73.69-1.56.36-1.84-.84L93.29,94.64a4,4,0,0,1,.84-3.4l10.69-10c.74-.7,1.57-.3,1.84.83Zm15.57-14.36a4,4,0,0,1-.9,3.49l-10.64,9.93c-.79.78-1.63.38-1.91-.82l-3.15-13.49a3.89,3.89,0,0,1,.9-3.48L120.33,67c.79-.77,1.63-.37,1.91.83Zm-4.75-20.33a3.88,3.88,0,0,1-.92,3.41l-10.62,10c-.8.71-1.64.31-1.9-.82L104,60a3.76,3.76,0,0,1,.91-3.41l10.63-10c.8-.71,1.62-.38,1.9.82Zm-4.77-20.41A4,4,0,0,1,115,44l-10.64,9.94c-.8.7-1.62.37-1.9-.83L99.26,39.56a3.9,3.9,0,0,1,.92-3.42l10.62-10c.8-.71,1.64-.31,1.92.89Z"/>
      <g>
        <path class="ae93e1b3-0f46-42d7-81e9-e69b8f513add" d="M120.34,66.92l-10.65,10a4,4,0,0,0-.88,3.44L112,93.87c.27,1.18,1.12,1.55,1.88.84l10.65-10a3.9,3.9,0,0,0,.89-3.43l-3.16-13.53C122,66.58,121.11,66.2,120.34,66.92Z"/>
        <path class="ae93e1b3-0f46-42d7-81e9-e69b8f513add" d="M117.47,47.37l3.17,13.56a3.88,3.88,0,0,1-.92,3.41l-10.62,10c-.8.71-1.64.31-1.9-.82L104,60a3.76,3.76,0,0,1,.91-3.41l10.63-10C116.37,45.84,117.19,46.17,117.47,47.37Z"/>
        <path class="b5ee8004-cc8d-499c-b482-b19d08dcc2c6" d="M112.72,27l3.15,13.49A4,4,0,0,1,115,44l-10.64,9.94c-.8.7-1.62.37-1.9-.83L99.26,39.56a3.9,3.9,0,0,1,.92-3.42l10.62-10C111.6,25.43,112.44,25.83,112.72,27Z"/>
        <path class="b5ee8004-cc8d-499c-b482-b19d08dcc2c6" d="M104.81,81.24l-10.65,10a3.93,3.93,0,0,0-.89,3.43l3.16,13.53c.28,1.18,1.12,1.56,1.89.84l10.65-10a4,4,0,0,0,.89-3.44L106.7,82.08C106.42,80.9,105.58,80.53,104.81,81.24Z"/>
        <path class="b936b763-a8db-49cc-aea6-4810b540a962" d="M101.85,61.81,105,75.3a4,4,0,0,1-.82,3.47l-10.71,10c-.72.76-1.56.36-1.84-.84L88.48,74.39a4.19,4.19,0,0,1,.83-3.47L100,61C100.74,60.21,101.57,60.61,101.85,61.81Z"/>
        <path class="b5ee8004-cc8d-499c-b482-b19d08dcc2c6" d="M97.09,41.4,100.25,55a3.87,3.87,0,0,1-.84,3.4l-10.69,10c-.73.69-1.57.29-1.84-.84L83.72,54a3.91,3.91,0,0,1,.84-3.4l10.69-10C96,39.87,96.82,40.27,97.09,41.4Z"/>
        <path class="bd17b81e-3f6f-470e-990e-ab840ac014dc" d="M91.1,96.42,94.26,110a3.76,3.76,0,0,1-.91,3.41l-10.5,9.9-.12.11a1,1,0,0,1-1.22.21,1.92,1.92,0,0,1-.69-1L77.65,109a3.79,3.79,0,0,1,.92-3.42l10.62-10C90,94.89,90.82,95.22,91.1,96.42Z"/>
        <path class="bd17b81e-3f6f-470e-990e-ab840ac014dc" d="M84.44,75.22l-10.65,10a4,4,0,0,0-.88,3.44l3.16,13.53c.27,1.18,1.12,1.55,1.88.84L88.6,93a3.9,3.9,0,0,0,.89-3.43L86.33,76.06C86.06,74.88,85.21,74.5,84.44,75.22Z"/>
        <path class="fdc8d3ba-e60e-4932-939c-5c49f5bc2546" d="M81.58,55.67l3.17,13.56a3.9,3.9,0,0,1-.92,3.42l-10.62,10c-.8.71-1.64.31-1.9-.82L68.14,68.27a3.78,3.78,0,0,1,.91-3.42l10.63-10C80.48,54.14,81.3,54.47,81.58,55.67Z"/>
      </g>
    </g>
  </g>
</svg>
