<svg xmlns="http://www.w3.org/2000/svg" xmlns:xlink="http://www.w3.org/1999/xlink" viewBox="0 0 77.14 71.52">
  <defs>
    <style>
      .fba7853c-5bd9-4faf-94b4-662a48dc8f52 {
        mask: url(#ead552ae-f511-4b5e-b05c-c1c78419ee4b);
      }

      .bda22c30-f146-45b6-9ec7-3d09b70044b4 {
        fill: #232323;
      }

      .f9e56d6c-3773-4859-8bfa-1eba98f1f1c8 {
        fill: #7c7c7c;
      }

      .f6ca851f-e59d-49ca-add8-cc1e4872e601 {
        fill: #1d1d1d;
      }

      .f5cfdced-ec9e-4025-ac22-af514535348c {
        fill: #181818;
      }

      .e2f23711-8e31-4fbc-a3ee-8698528c4c28 {
        fill: #2c2c2c;
      }

      .b99e4eb3-1af4-45e3-a907-9c0e9d5cc0ca {
        fill: #ee2d2f;
      }

      .f721f6ee-cdb1-4346-8e70-21b084499662 {
        fill: #009a4d;
      }

      .baec866b-9879-436f-88a8-8bcf79f4dc3b {
        fill: #a6a6a6;
      }

      .bb4d074b-d865-4ee6-b22e-a3888a2782ed {
        fill: #f26640;
      }

      .e1ff9c0a-f42f-4219-b4b5-b702f7ded798 {
        fill: #434da1;
      }

      .f262645c-be04-4efd-a2c2-534123275dfe {
        fill: #ffc906;
      }
    </style>
    <mask id="ead552ae-f511-4b5e-b05c-c1c78419ee4b" x="-3980.82" y="-1397.07" width="2152.71" height="1542.6" maskUnits="userSpaceOnUse"/>
  </defs>
  <title>-</title>
  <g id="e66ba01c-be69-495c-b92f-9571093ffc2d" data-name="Export">
    <g>
      <path class="bda22c30-f146-45b6-9ec7-3d09b70044b4" d="M54.08,2.58,54,2.79c.73-1.67,2.79-1.09,4.1.71l-.31-.43A7.15,7.15,0,0,0,53,.11C54.08.36,54.67,1.1,54.08,2.58Z"/>
      <path d="M59.36,65.39l0,0c1,1.6.37,2.69-1,3.13a7.34,7.34,0,0,0,2.31-.94,7.18,7.18,0,0,0,1.93-2C61.71,66.62,60.51,66.83,59.36,65.39Z"/>
      <path class="f9e56d6c-3773-4859-8bfa-1eba98f1f1c8" d="M39.47,33.34A4.71,4.71,0,0,0,40.14,38a4.48,4.48,0,0,0-4.37-2A3.86,3.86,0,0,0,39.47,33.34Z"/>
      <path d="M.62,35.58c-.74,2,.21,4,2,3.69-1.9.09-2,2.31-.79,4.17l-.56-.79A7.24,7.24,0,0,1,.11,37.28,6.67,6.67,0,0,1,.62,35.58Z"/>
      <path class="f6ca851f-e59d-49ca-add8-cc1e4872e601" d="M54.07,2.6,54,2.8l-.07.05L40,32.23l-.56,1.11a3.86,3.86,0,0,1-3.7,2.6l-1.3.14L4.81,39l-2.17.23c-1.81.29-2.76-1.73-2-3.69a.14.14,0,0,1,0-.08v-.06L1.35,34l1.89-4s0,0,0,0L14,6.89a7.09,7.09,0,0,1,1-1.55,4.5,4.5,0,0,1,.41-.44c.32-.27.65-.61,1-.86a4.19,4.19,0,0,1,.64-.34,8.55,8.55,0,0,1,.9-.48c.35-.09.7-.18,1.11-.26a5.86,5.86,0,0,1,.75-.17L51.28,0A8.84,8.84,0,0,1,53,.1C54.1.36,54.67,1.09,54.07,2.6Z"/>
      <path class="f5cfdced-ec9e-4025-ac22-af514535348c" d="M40.14,38,59.37,65.37c1,1.59.35,2.7-1,3.13-.38,0-.7.18-1,.21l-4.41.41L26.09,71.49l-.19,0a7.71,7.71,0,0,1-.93-.07,6.53,6.53,0,0,1-1.08-.07,6.16,6.16,0,0,1-1-.33c-.22-.1-.5-.12-.72-.21a7.41,7.41,0,0,1-.71-.49,7.45,7.45,0,0,1-2.06-1.91l-17.55-25C.6,41.58.74,39.36,2.64,39.27L4.81,39l29.66-3,1.3-.14A4.48,4.48,0,0,1,40.14,38Z"/>
      <path class="e2f23711-8e31-4fbc-a3ee-8698528c4c28" d="M58.1,3.48,74.5,26.92l1.34,1.9a8.47,8.47,0,0,1,1.09,2.59c0,.28.14.57.21.88s0,.43,0,.64a9.08,9.08,0,0,1-.05,1.17c-.06.3-.18.64-.26.95a5.59,5.59,0,0,1-.32,1l-5.3,11.36L65.06,60.6l-1.89,4a7.13,7.13,0,0,1-.58.93c-.89,1.08-2.08,1.3-3.22-.17l0,0L40.14,38a4.71,4.71,0,0,1-.67-4.64L40,32.23,54,2.8C54.72,1.1,56.8,1.71,58.1,3.48Z"/>
      <g>
        <path class="b99e4eb3-1af4-45e3-a907-9c0e9d5cc0ca" d="M67.6,21.07l6.85,9.75a3.49,3.49,0,0,1,.45,3L69.55,45.23c-.32.84-1.12.79-1.73-.08L61,35.4a3.58,3.58,0,0,1-.46-3L65.87,21C66.2,20.16,67,20.21,67.6,21.07Z"/>
        <path class="f721f6ee-cdb1-4346-8e70-21b084499662" d="M57.25,6.32l6.88,9.8a3.37,3.37,0,0,1,.42,3L59.23,30.53c-.36.79-1.15.74-1.73-.08l-6.88-9.8a3.35,3.35,0,0,1-.42-3L55.52,6.24C55.88,5.46,56.68,5.51,57.25,6.32Z"/>
        <path class="baec866b-9879-436f-88a8-8bcf79f4dc3b" d="M58,37.36,52.73,48.74a3.39,3.39,0,0,0,.4,3L60,61.55c.6.85,1.39.88,1.78.06l5.29-11.38a3.39,3.39,0,0,0-.4-3l-6.87-9.78C59.2,36.57,58.4,36.54,58,37.36Z"/>
        <path class="bb4d074b-d865-4ee6-b22e-a3888a2782ed" d="M49.46,22.69l6.88,9.8a3.35,3.35,0,0,1,.37,3L51.45,46.9c-.42.82-1.21.77-1.79,0l-6.88-9.8a3.24,3.24,0,0,1-.37-3l5.27-11.39C48.09,21.82,48.85,21.82,49.46,22.69Z"/>
      </g>
      <g>
        <path class="b99e4eb3-1af4-45e3-a907-9c0e9d5cc0ca" d="M15.08,58l6.84,9.75a3.49,3.49,0,0,0,2.7,1.46L37.14,68c.9,0,1.12-.79.51-1.66l-6.84-9.75a3.57,3.57,0,0,0-2.7-1.45L15.59,56.29C14.7,56.32,14.47,57.08,15.08,58Z"/>
        <path class="f721f6ee-cdb1-4346-8e70-21b084499662" d="M4.72,43.2,11.6,53a3.36,3.36,0,0,0,2.67,1.41l12.55-1.12c.86-.07,1.09-.84.51-1.66l-6.88-9.8a3.35,3.35,0,0,0-2.66-1.4L5.24,41.54C4.37,41.62,4.15,42.38,4.72,43.2Z"/>
        <path class="e1ff9c0a-f42f-4219-b4b5-b702f7ded798" d="M33.65,54.47l12.51-1.11a3.37,3.37,0,0,1,2.71,1.4l6.87,9.78c.59.85.35,1.61-.55,1.69l-12.5,1.11A3.41,3.41,0,0,1,40,65.94l-6.86-9.78C32.51,55.3,32.75,54.55,33.65,54.47Z"/>
        <path class="f721f6ee-cdb1-4346-8e70-21b084499662" d="M22.76,41.43l6.88,9.8a3.33,3.33,0,0,0,2.72,1.37l12.5-1.08c.91-.11,1.13-.87.56-1.69L38.54,40a3.23,3.23,0,0,0-2.71-1.37l-12.5,1.08C22.41,39.85,22.15,40.56,22.76,41.43Z"/>
      </g>
      <g>
        <path class="f262645c-be04-4efd-a2c2-534123275dfe" d="M23,34.64l11.78-1.1a3.43,3.43,0,0,0,2.59-1.61l5.17-11.37c.43-.79-.12-1.36-1.17-1.26L29.61,20.39A3.57,3.57,0,0,0,27,22L21.85,33.38C21.43,34.16,22,34.74,23,34.64Z"/>
        <path class="baec866b-9879-436f-88a8-8bcf79f4dc3b" d="M5.19,36.3,17,35.2a3.36,3.36,0,0,0,2.53-1.61L24.8,22.21c.36-.78-.19-1.35-1.18-1.26l-11.85,1.1a3.36,3.36,0,0,0-2.53,1.61L4,35C3.65,35.82,4.2,36.39,5.19,36.3Z"/>
        <path class="b99e4eb3-1af4-45e3-a907-9c0e9d5cc0ca" d="M29.35,16.87,34.59,5.46A3.42,3.42,0,0,1,37.15,3.8l11.9-1.11c1-.09,1.57.49,1.2,1.31L45,15.41a3.38,3.38,0,0,1-2.56,1.66l-11.9,1.11C29.51,18.27,29,17.69,29.35,16.87Z"/>
        <path class="baec866b-9879-436f-88a8-8bcf79f4dc3b" d="M12.56,19.86l11.85-1.1a3.3,3.3,0,0,0,2.53-1.67L32.17,5.78C32.53,4.93,32,4.36,31,4.45L19.14,5.56a3.2,3.2,0,0,0-2.52,1.66L11.38,18.54C11,19.38,11.52,20,12.56,19.86Z"/>
      </g>
    </g>
  </g>
</svg>
