<svg xmlns="http://www.w3.org/2000/svg" xmlns:xlink="http://www.w3.org/1999/xlink" viewBox="0 0 174.72 166.8">
  <defs>
    <style>
      .b93118b5-c6ea-4f94-9b04-53ed277849cb {
        mask: url(#ef21ae51-2d68-469c-8157-e06651be826d);
      }

      .aaa7f136-7d0a-4381-a3d4-2e8a6ee54d48 {
        fill: #232323;
      }

      .a0a3e446-ef4d-4bf7-9718-9bad16686d2e {
        fill: #7c7c7c;
      }

      .a186cb11-0590-41eb-86dc-be7dc9233b6b {
        fill: #1d1d1d;
      }

      .b330014b-81c4-4496-9152-1c70777cd22c {
        fill: #181818;
      }

      .e8a8108f-9e39-4f92-9ea9-87cec1a300ea {
        fill: #ffc906;
      }

      .e943b6e1-8860-439a-b7e6-e7a6451bfa74 {
        fill: #434da1;
      }

      .a1b89d68-9b39-4484-95e1-a26227298ca2 {
        fill: #f26640;
      }

      .babc6239-08be-41fd-9cfc-1f73cc2a9ee2 {
        fill: #009a4d;
      }

      .a623573b-f356-413e-8446-9bd190854813 {
        fill: #ee2d2f;
      }

      .f5f82991-2b96-4bf6-ad52-9e5f31eda6c5 {
        fill: #2c2c2c;
      }

      .fbcc7aba-6695-4cc0-999b-ea68e8c5db3b {
        fill: #a6a6a6;
      }
    </style>
    <mask id="ef21ae51-2d68-469c-8157-e06651be826d" x="-4467.32" y="971.16" width="2152.71" height="1542.6" maskUnits="userSpaceOnUse"/>
  </defs>
  <title>-</title>
  <g id="b988c597-4002-4334-9d3c-4bfe45b17004" data-name="Layer 10">
    <g>
      <path class="aaa7f136-7d0a-4381-a3d4-2e8a6ee54d48" d="M169.86,70.61l-.52.08c4.09-.73,5.62,3.9,3.88,8.66l.43-1.12a16.44,16.44,0,0,0-.49-12.84C174.05,67.78,173.4,69.83,169.86,70.61Z"/>
      <path d="M57.75,160.66l-.19-.13c-1.72,3.6-4.06,4.17-7.06,2a16.58,16.58,0,0,0,4.8,2.82,18.7,18.7,0,0,0,6.47,1.38C58.21,166.3,56.61,164.43,57.75,160.66Z"/>
      <path class="a0a3e446-ef4d-4bf7-9718-9bad16686d2e" d="M93,82.07c-4.16.88-6.61,3.76-7.92,7.17,1.73-4.49.76-7.34-1.71-10.87C86.18,81.6,88.38,82.86,93,82.07Z"/>
      <path d="M39.36,11.36c-4.66,1.1-7.27,5.47-4.42,8.52-2.58-3.47-7-.92-8.89,3.81l.79-2.07a16.37,16.37,0,0,1,8.65-9.06A15.48,15.48,0,0,1,39.36,11.36Z"/>
      <path class="a186cb11-0590-41eb-86dc-be7dc9233b6b" d="M169.81,70.6l-.46.13-.18-.07-73.33,11L93,82.07c-4.64.79-6.84-.46-9.62-3.7l-1.92-2.29L38.13,23.69l-3.19-3.8c-2.85-3.06-.24-7.43,4.42-8.53a.29.29,0,0,1,.21,0l.13-.06,3.62-.56,10-1.54c0-.09,0-.09.12,0l57.24-9a15.14,15.14,0,0,1,4.25,0,7.16,7.16,0,0,1,1.36.22,28.74,28.74,0,0,1,2.89.8,9.9,9.9,0,0,1,1.46.77A20.38,20.38,0,0,1,122.69,3c.61.55,1.23,1.1,1.9,1.77A11.28,11.28,0,0,1,125.88,6l45.26,56a18.67,18.67,0,0,1,2,3.36C174.09,67.8,173.42,69.81,169.81,70.6Z"/>
      <path class="b330014b-81c4-4496-9152-1c70777cd22c" d="M85.1,89.25,57.71,160.49c-1.8,3.85-4.67,4.09-7.21,2.08-.58-.63-1.23-1.09-1.72-1.69l-6.39-7.83L3.77,105.27,3.48,105c-.4-.57-.68-1.19-1-1.85A15.74,15.74,0,0,1,1.19,101a15,15,0,0,1-.66-2.32C.43,98.1.12,97.57,0,97a14.05,14.05,0,0,1,0-2,17,17,0,0,1,1-6.33l25-65c1.93-4.73,6.32-7.28,8.9-3.8l3.19,3.8L81.48,76.08l1.92,2.29C85.86,81.9,86.83,84.75,85.1,89.25Z"/>
      <g>
        <path class="e8a8108f-9e39-4f92-9ea9-87cec1a300ea" d="M133,53.48l-13.81,2.28a3.83,3.83,0,0,1-3.38-1.06l-9.12-11.33c-.63-.79-.23-1.64,1-1.85l13.78-2.22a3.89,3.89,0,0,1,3.39,1.07L134,51.7C134.68,52.51,134.21,53.33,133,53.48Z"/>
        <path class="e943b6e1-8860-439a-b7e6-e7a6451bfa74" d="M166.46,66.35l-13.81,2.28a3.87,3.87,0,0,1-3.38-1.06l-9.12-11.33c-.63-.79-.22-1.64,1-1.86L155,52.17a3.88,3.88,0,0,1,3.38,1.07l9.12,11.33C168.15,65.38,167.68,66.2,166.46,66.35Z"/>
        <path class="a1b89d68-9b39-4484-95e1-a26227298ca2" d="M99.59,40.64,85.78,42.92a3.88,3.88,0,0,1-3.38-1.06L73.28,30.53c-.69-.81-.22-1.64,1-1.88L88,26.44a3.86,3.86,0,0,1,3.38,1.07l9.12,11.32C101.22,39.64,100.75,40.47,99.59,40.64Z"/>
        <path class="e943b6e1-8860-439a-b7e6-e7a6451bfa74" d="M92.47,59.18,78.66,61.46a3.87,3.87,0,0,1-3.38-1.07L66.16,49.06c-.7-.81-.23-1.63,1-1.88L80.89,45A3.9,3.9,0,0,1,84.28,46L93.4,57.37C94.09,58.18,93.62,59,92.47,59.18Z"/>
        <path class="babc6239-08be-41fd-9cfc-1f73cc2a9ee2" d="M65.75,27.63,51.94,29.91a3.86,3.86,0,0,1-3.38-1.07L39.44,17.52c-.7-.81-.23-1.64,1-1.88l13.79-2.21a3.88,3.88,0,0,1,3.38,1.06l9.12,11.33C67.37,26.63,66.9,27.46,65.75,27.63Z"/>
        <path class="e943b6e1-8860-439a-b7e6-e7a6451bfa74" d="M119.86,37.67l-13.78,2.22a3.86,3.86,0,0,1-3.38-1.07L93.58,27.49c-.7-.81-.23-1.63,1-1.79l13.81-2.28a3.89,3.89,0,0,1,3.39,1.07l9.12,11.33C121.51,36.6,121.11,37.46,119.86,37.67Z"/>
        <path class="a1b89d68-9b39-4484-95e1-a26227298ca2" d="M140.36,34.32l-13.92,2.55a4,4,0,0,1-3.35-1.13l-9-11.53c-.62-.79-.22-1.64,1-1.86L129,19.87a3.89,3.89,0,0,1,3.39,1.07l9,11.53C142.07,33.28,141.58,34.17,140.36,34.32Z"/>
        <path class="a623573b-f356-413e-8446-9bd190854813" d="M112.68,56.36,98.87,58.64a4.07,4.07,0,0,1-3.36-1.13L86.37,46.25c-.67-.88-.23-1.64,1-1.86l13.81-2.28a3.64,3.64,0,0,1,3.35,1.14l9.15,11.26C114.33,55.29,113.92,56.14,112.68,56.36Z"/>
        <path class="e8a8108f-9e39-4f92-9ea9-87cec1a300ea" d="M125.87,72.09l-13.81,2.28a4.11,4.11,0,0,1-3.36-1.14L99.56,62c-.67-.88-.23-1.63,1-1.85l13.81-2.28A3.65,3.65,0,0,1,117.75,59l9.14,11.26C127.52,71,127.11,71.87,125.87,72.09Z"/>
        <path class="e943b6e1-8860-439a-b7e6-e7a6451bfa74" d="M78.54,43.24,64.73,45.52a4.11,4.11,0,0,1-3.36-1.14L52.23,33.12c-.67-.88-.23-1.63,1-1.85L67.06,29a3.65,3.65,0,0,1,3.36,1.13l9.14,11.26C80.19,42.17,79.79,43,78.54,43.24Z"/>
        <path class="e8a8108f-9e39-4f92-9ea9-87cec1a300ea" d="M146.27,69.28l-13.81,2.28a4.11,4.11,0,0,1-3.36-1.14L120,59.16c-.67-.88-.23-1.63,1-1.85L134.79,55a3.65,3.65,0,0,1,3.36,1.13l9.14,11.26C147.92,68.21,147.51,69.06,146.27,69.28Z"/>
        <path class="babc6239-08be-41fd-9cfc-1f73cc2a9ee2" d="M127.14,40.46l9,11.51a3.83,3.83,0,0,0,3.38,1.11l13.89-2.49c1.21-.22,1.66-1.07,1-1.9l-9.05-11.51a3.8,3.8,0,0,0-3.38-1.1l-13.89,2.48C126.94,38.78,126.48,39.63,127.14,40.46Z"/>
        <path class="e943b6e1-8860-439a-b7e6-e7a6451bfa74" d="M85.72,24.55,71.94,26.76a3.86,3.86,0,0,1-3.38-1.07l-7.87-9.76-1.25-1.56c-.7-.81-.22-1.64,1-1.79l4.64-.77,9.17-1.51a3.89,3.89,0,0,1,3.39,1.07L86.75,22.7C87.38,23.48,87,24.33,85.72,24.55Z"/>
        <path class="e8a8108f-9e39-4f92-9ea9-87cec1a300ea" d="M105.6,74.78,91.79,77.06a4.05,4.05,0,0,1-3.36-1.13L79.28,64.67c-.67-.88-.22-1.64,1-1.86l13.8-2.28a3.65,3.65,0,0,1,3.36,1.14l9.15,11.26C107.25,73.71,106.84,74.56,105.6,74.78Z"/>
        <path class="a623573b-f356-413e-8446-9bd190854813" d="M107,21.48,93.15,23.76a3.67,3.67,0,0,1-3.36-1.13L80.65,11.37c-.7-.81-.23-1.64.95-1.88L95.41,7.21a4.08,4.08,0,0,1,3.36,1.14l9.14,11.26C108.58,20.48,108.14,21.24,107,21.48Z"/>
        <path class="babc6239-08be-41fd-9cfc-1f73cc2a9ee2" d="M127.39,18.11,113.5,20.59a3.89,3.89,0,0,1-3.39-1.07L101.07,8c-.69-.81-.19-1.7,1-1.85L116,3.59a4.08,4.08,0,0,1,3.36,1.14l9,11.53C129,17,128.63,17.89,127.39,18.11Z"/>
      </g>
      <path class="f5f82991-2b96-4bf6-ad52-9e5f31eda6c5" d="M173.26,79.36l-23.51,60.86-1.9,4.95a18.92,18.92,0,0,1-3.51,5.36c-.48.44-.89,1-1.41,1.53l-1.22.77a18.64,18.64,0,0,1-2.29,1.39c-.62.27-1.43.48-2.14.73a12.28,12.28,0,0,1-2.2.59L106.85,160,74,165.19l-10,1.53a15.9,15.9,0,0,1-2.5.07c-3.19-.3-5.12-2.28-3.77-6.3l0-.09L85.1,89.24C86.41,85.83,88.86,83,93,82.07l2.82-.36,73.5-11C173.47,69.94,175,74.64,173.26,79.36Z"/>
      <g>
        <path class="fbcc7aba-6695-4cc0-999b-ea68e8c5db3b" d="M133.43,117.34l-14.37,2.27a3.91,3.91,0,0,0-2.65,2.34l-5,12.92c-.44,1.13,0,1.91,1.08,1.75l14.37-2.27a3.91,3.91,0,0,0,2.66-2.34l5-12.92C135,118,134.47,117.18,133.43,117.34Z"/>
        <path class="e943b6e1-8860-439a-b7e6-e7a6451bfa74" d="M142,99.61l-5,13a3.89,3.89,0,0,1-2.67,2.31L120,117.17c-1.06.13-1.52-.67-1.11-1.74l5-13a3.73,3.73,0,0,1,2.67-2.3l14.36-2.3C142,97.73,142.45,98.46,142,99.61Z"/>
        <path class="a1b89d68-9b39-4484-95e1-a26227298ca2" d="M149,80,144,92.87a4,4,0,0,1-2.69,2.38L127,97.48c-1.06.13-1.55-.6-1.11-1.74l5-13a3.85,3.85,0,0,1,2.67-2.3l14.36-2.3C149,78,149.42,78.84,149,80Z"/>
        <path class="a1b89d68-9b39-4484-95e1-a26227298ca2" d="M169.48,77.11l-5,12.88a4,4,0,0,1-2.69,2.37L147.5,94.6c-1.06.13-1.56-.6-1.12-1.75l5-12.95A3.85,3.85,0,0,1,154,77.6l14.36-2.31C169.45,75.16,169.92,76,169.48,77.11Z"/>
        <path class="a1b89d68-9b39-4484-95e1-a26227298ca2" d="M162.08,96.34l-5,12.89a4,4,0,0,1-2.7,2.37l-14.33,2.23c-1.06.14-1.55-.6-1.11-1.74l5-13a3.85,3.85,0,0,1,2.67-2.3L161,94.53C162.06,94.39,162.52,95.19,162.08,96.34Z"/>
        <path class="a1b89d68-9b39-4484-95e1-a26227298ca2" d="M154.63,115.72l-5,12.89A4,4,0,0,1,147,131l-14.33,2.23c-1.06.14-1.55-.59-1.11-1.74l5-13a3.87,3.87,0,0,1,2.66-2.31l14.36-2.3C154.6,113.78,155.07,114.58,154.63,115.72Z"/>
        <path class="a623573b-f356-413e-8446-9bd190854813" d="M112.6,120.46l-14.37,2.27a4,4,0,0,0-2.66,2.33L90.6,138c-.43,1.13.06,1.91,1.09,1.75l14.37-2.27a3.93,3.93,0,0,0,2.66-2.34l5-12.93C114.12,121.08,113.64,120.29,112.6,120.46Z"/>
        <path class="a623573b-f356-413e-8446-9bd190854813" d="M126,136.75,111.6,139a3.93,3.93,0,0,0-2.65,2.34l-5,12.93c-.44,1.13,0,1.91,1.08,1.75l14.37-2.27a3.93,3.93,0,0,0,2.66-2.34l5-12.93C127.49,137.37,127,136.58,126,136.75Z"/>
        <path class="fbcc7aba-6695-4cc0-999b-ea68e8c5db3b" d="M147.17,135.13l-5,12.88a4,4,0,0,1-2.69,2.38l-14.33,2.23c-1.06.13-1.55-.6-1.11-1.74l5-13a3.83,3.83,0,0,1,2.66-2.3l14.36-2.3C147.14,133.18,147.61,134,147.17,135.13Z"/>
        <path class="fbcc7aba-6695-4cc0-999b-ea68e8c5db3b" d="M105.14,139.86l-14.37,2.27a4,4,0,0,0-2.66,2.34l-5,12.92c-.43,1.13.06,1.91,1.09,1.75l14.37-2.27a3.91,3.91,0,0,0,2.66-2.33l5-12.93C106.66,140.48,106.18,139.7,105.14,139.86Z"/>
        <path class="fbcc7aba-6695-4cc0-999b-ea68e8c5db3b" d="M121,102.78l-5,12.88a4,4,0,0,1-2.63,2.4l-14.4,2.21c-1,.23-1.48-.57-1-1.72l5-12.88a4.13,4.13,0,0,1,2.62-2.4l14.4-2.21C121,100.83,121.49,101.63,121,102.78Z"/>
        <path class="babc6239-08be-41fd-9cfc-1f73cc2a9ee2" d="M128.33,83.2l-5,13a3.9,3.9,0,0,1-2.6,2.33l-14.43,2.28c-1,.16-1.46-.64-1-1.72l5-13a3.9,3.9,0,0,1,2.6-2.34l14.42-2.27C128.27,81.32,128.74,82.12,128.33,83.2Z"/>
        <path class="a623573b-f356-413e-8446-9bd190854813" d="M92.8,125.29l-5,13a3.77,3.77,0,0,1-2.67,2.3L71,142.84h-.16a.94.94,0,0,1-1.12-.51,1.85,1.85,0,0,1,0-1.23l5-13a3.77,3.77,0,0,1,2.67-2.31l14.36-2.3C92.74,123.42,93.24,124.15,92.8,125.29Z"/>
        <path class="babc6239-08be-41fd-9cfc-1f73cc2a9ee2" d="M85.47,144.35l-5,13a3.77,3.77,0,0,1-2.67,2.31l-14.2,2.28-.16,0a1,1,0,0,1-1.12-.51,1.88,1.88,0,0,1,0-1.24l5-12.95a3.73,3.73,0,0,1,2.67-2.3l14.36-2.31C85.42,142.47,85.91,143.2,85.47,144.35Z"/>
        <path class="e943b6e1-8860-439a-b7e6-e7a6451bfa74" d="M99.18,104.09l-14.37,2.26a4,4,0,0,0-2.66,2.34l-5,12.93c-.43,1.13.06,1.91,1.09,1.75l14.37-2.27a3.93,3.93,0,0,0,2.66-2.34l5-12.93C100.7,104.7,100.22,103.92,99.18,104.09Z"/>
        <path class="e943b6e1-8860-439a-b7e6-e7a6451bfa74" d="M107.76,86.37l-5,12.95a3.83,3.83,0,0,1-2.66,2.3l-14.36,2.3c-1.06.14-1.53-.66-1.11-1.74l5-13a3.75,3.75,0,0,1,2.66-2.31l14.36-2.3C107.71,84.49,108.2,85.22,107.76,86.37Z"/>
      </g>
      <g>
        <path class="a623573b-f356-413e-8446-9bd190854813" d="M30.09,78.36l9.15,11.32a3.92,3.92,0,0,1,.41,3.51l-5,12.93c-.43,1.13-1.32,1.38-2,.57L23.55,95.38a3.92,3.92,0,0,1-.4-3.52l5-12.93C28.55,77.81,29.43,77.55,30.09,78.36Z"/>
        <path class="e8a8108f-9e39-4f92-9ea9-87cec1a300ea" d="M35.6,59.46l-5,12.95a3.86,3.86,0,0,0,.44,3.5l9.12,11.32c.7.81,1.58.53,2-.55l5-13a3.78,3.78,0,0,0-.43-3.5L37.6,58.9C36.9,58.1,36.05,58.31,35.6,59.46Z"/>
        <path class="a623573b-f356-413e-8446-9bd190854813" d="M43.57,40.22l-5,12.88A4,4,0,0,0,39,56.67l9.14,11.26c.7.81,1.56.59,2-.55l5-13a3.84,3.84,0,0,0-.44-3.49L45.59,39.6C44.89,38.79,44,39.07,43.57,40.22Z"/>
        <path class="a1b89d68-9b39-4484-95e1-a26227298ca2" d="M30.29,24.35l-5,12.88a4,4,0,0,0,.41,3.57l9.15,11.26c.7.81,1.55.6,2-.55l5-12.95a3.86,3.86,0,0,0-.43-3.5L32.31,23.73C31.61,22.92,30.73,23.2,30.29,24.35Z"/>
        <path class="e943b6e1-8860-439a-b7e6-e7a6451bfa74" d="M22.89,43.58,17.94,56.47A4,4,0,0,0,18.35,60L27.5,71.29c.69.81,1.55.6,2-.55l5-12.95a3.86,3.86,0,0,0-.44-3.5L24.91,43C24.22,42.15,23.33,42.43,22.89,43.58Z"/>
        <path class="fbcc7aba-6695-4cc0-999b-ea68e8c5db3b" d="M15.44,63,10.49,75.85a4,4,0,0,0,.41,3.57L20,90.68c.7.81,1.55.59,2-.55l5-13a3.9,3.9,0,0,0-.44-3.5L17.46,62.35C16.76,61.54,15.88,61.82,15.44,63Z"/>
        <path class="e943b6e1-8860-439a-b7e6-e7a6451bfa74" d="M43.47,94.63l9.15,11.31a4,4,0,0,1,.41,3.52l-5,12.93c-.43,1.12-1.32,1.38-2,.57l-9.15-11.32a3.89,3.89,0,0,1-.4-3.51l5-12.93C41.93,94.07,42.81,93.82,43.47,94.63Z"/>
        <path class="fbcc7aba-6695-4cc0-999b-ea68e8c5db3b" d="M22.63,97.77l9.15,11.31a3.94,3.94,0,0,1,.41,3.52l-5,12.92c-.43,1.13-1.32,1.39-2,.57l-9.15-11.31a3.91,3.91,0,0,1-.4-3.52l5-12.92C21.09,97.21,22,97,22.63,97.77Z"/>
        <path class="a623573b-f356-413e-8446-9bd190854813" d="M8,82.37,3,95.26a4,4,0,0,0,.41,3.56l9.14,11.26c.7.81,1.55.6,2-.55l5-13a3.9,3.9,0,0,0-.44-3.5L10,81.75C9.3,80.94,8.42,81.22,8,82.37Z"/>
        <path class="a623573b-f356-413e-8446-9bd190854813" d="M36,114l9.15,11.31a3.94,3.94,0,0,1,.41,3.52l-5,12.92c-.44,1.13-1.32,1.38-2,.57l-9.15-11.31a3.94,3.94,0,0,1-.41-3.52l5-12.92C34.47,113.48,35.35,113.22,36,114Z"/>
        <path class="babc6239-08be-41fd-9cfc-1f73cc2a9ee2" d="M49.05,75.85l-5,12.89a4,4,0,0,0,.35,3.54l9.21,11.28c.6.85,1.48.57,1.92-.57l5-12.89a4.16,4.16,0,0,0-.34-3.54L51,75.28C50.37,74.43,49.49,74.71,49.05,75.85Z"/>
        <path class="a623573b-f356-413e-8446-9bd190854813" d="M56.76,56.44l-5,13a3.88,3.88,0,0,0,.37,3.47l9.18,11.36c.63.78,1.51.5,1.93-.58l5-13a3.9,3.9,0,0,0-.37-3.48L58.68,55.86C58.06,55.08,57.17,55.36,56.76,56.44Z"/>
        <path class="e8a8108f-9e39-4f92-9ea9-87cec1a300ea" d="M54.94,111.49l-5,13a3.76,3.76,0,0,0,.43,3.49l9,11.21.11.12a1,1,0,0,0,1.18.38,2,2,0,0,0,.82-.93l5-13a3.78,3.78,0,0,0-.44-3.5l-9.12-11.33C56.23,110.13,55.38,110.35,54.94,111.49Z"/>
        <path class="a1b89d68-9b39-4484-95e1-a26227298ca2" d="M47.61,130.55l-5,12.95a3.75,3.75,0,0,0,.44,3.5l9,11.21.11.12a1,1,0,0,0,1.17.37,1.83,1.83,0,0,0,.82-.92l5-13a3.75,3.75,0,0,0-.44-3.5L49.6,130C48.91,129.19,48.05,129.4,47.61,130.55Z"/>
        <path class="fbcc7aba-6695-4cc0-999b-ea68e8c5db3b" d="M64.4,91.47l9.15,11.31A3.94,3.94,0,0,1,74,106.3l-5,12.92c-.43,1.13-1.32,1.39-2,.57l-9.15-11.31a3.91,3.91,0,0,1-.4-3.52l5-12.92C62.86,90.91,63.74,90.66,64.4,91.47Z"/>
        <path class="a1b89d68-9b39-4484-95e1-a26227298ca2" d="M69.9,72.56l-5,13a3.86,3.86,0,0,0,.44,3.5l9.12,11.32c.69.81,1.58.53,2-.55l5-13a3.78,3.78,0,0,0-.43-3.5L71.9,72C71.2,71.2,70.34,71.42,69.9,72.56Z"/>
      </g>
    </g>
  </g>
</svg>
