<svg xmlns="http://www.w3.org/2000/svg" xmlns:xlink="http://www.w3.org/1999/xlink" viewBox="0 0 74.66 75.68">
  <defs>
    <style>
      .f8df9bcf-653a-4f05-b61a-eccd82d650fd {
        mask: url(#b8c024be-d368-4aa4-a48e-56bca7cf78d4);
      }

      .aefd6077-bbd7-49fa-b10c-a907fdeb0347 {
        fill: #232323;
      }

      .a10d02ac-da23-424d-898c-50261dd11018 {
        fill: #7c7c7c;
      }

      .eca67c41-b383-422c-98b4-2f15208484f1 {
        fill: #1d1d1d;
      }

      .f14c8895-4686-4c56-b5c0-085530661170 {
        fill: #181818;
      }

      .fdc02c45-71e8-43d5-bdb4-afa797eb1281 {
        fill: #2c2c2c;
      }

      .e29af81d-0e9d-4b4e-abf2-b3bbfee0bd74 {
        fill: #ee2d2f;
      }

      .a2a01596-2b27-4b7c-a084-582d8bf0853e {
        fill: #009a4d;
      }

      .a51f1bd0-a84e-4455-a7df-da662ad83acb {
        fill: #a6a6a6;
      }

      .e07d96d5-1c89-4bd8-a767-c7b6422bbb70 {
        fill: #f26640;
      }

      .a4dc5817-0949-4cd2-820e-86de92d08f20 {
        fill: #434da1;
      }

      .efc67028-aa39-4d96-bd8d-d93bcdfe4c4c {
        fill: #ffc906;
      }
    </style>
    <mask id="b8c024be-d368-4aa4-a48e-56bca7cf78d4" x="-4311.95" y="981.36" width="2152.71" height="1542.6" maskUnits="userSpaceOnUse"/>
  </defs>
  <title>-</title>
  <g id="f25c2fe7-da15-4d68-8a9f-b2812fda4777" data-name="Layer 10">
    <g>
      <path class="aefd6077-bbd7-49fa-b10c-a907fdeb0347" d="M72.37,27.31l-.22.06c1.74-.56,2.68,1.36,2.21,3.53l.12-.51a7.21,7.21,0,0,0-1-5.55C74,25.82,73.87,26.76,72.37,27.31Z"/>
      <path d="M29.06,73.09v0c-.54,1.79-1.76,2.06-3,1.34a7.27,7.27,0,0,0,2.24,1.09,7.12,7.12,0,0,0,2.8.09C29.71,75.66,28.75,74.91,29.06,73.09Z"/>
      <path class="a10d02ac-da23-424d-898c-50261dd11018" d="M39.7,36.91a4.69,4.69,0,0,0-3,3.59,4.48,4.48,0,0,0-1.39-4.62A3.87,3.87,0,0,0,39.7,36.91Z"/>
      <path d="M12.14,9.43c-2,.76-2.82,2.81-1.4,4-1.33-1.36-3.09,0-3.64,2.18l.22-.94a7.26,7.26,0,0,1,3.21-4.46A7.13,7.13,0,0,1,12.14,9.43Z"/>
      <path class="eca67c41-b383-422c-98b4-2f15208484f1" d="M72.35,27.31l-.19.08-.08,0L40.9,36.58l-1.2.32a3.85,3.85,0,0,1-4.4-1l-1-.88-22-20.14L10.74,13.4c-1.42-1.16-.55-3.21,1.4-4a.14.14,0,0,1,.09,0l0,0,1.55-.47,4.24-1.27s0,0,.05,0L42.44.28A6.45,6.45,0,0,1,44.28,0a5.74,5.74,0,0,1,.6,0c.42.06.9.08,1.31.18a4,4,0,0,1,.68.24,7.74,7.74,0,0,1,1,.36c.31.2.6.4.94.65a6.14,6.14,0,0,1,.63.45l23,21.6a8.5,8.5,0,0,1,1.07,1.34C74,25.84,73.87,26.75,72.35,27.31Z"/>
      <path class="f14c8895-4686-4c56-b5c0-085530661170" d="M36.69,40.5,29.08,73.08c-.54,1.79-1.78,2.06-3,1.34-.29-.24-.6-.4-.85-.63l-3.24-3L2.34,52.35l-.15-.12a8.94,8.94,0,0,1-.56-.74A6.76,6.76,0,0,1,1,50.64a6.5,6.5,0,0,1-.43-1C.46,49.44.29,49.22.21,49a6.53,6.53,0,0,1-.1-.85,7.4,7.4,0,0,1,.05-2.81L7.1,15.59c.55-2.18,2.31-3.55,3.64-2.19l1.61,1.46L34.33,35l1,.88A4.48,4.48,0,0,1,36.69,40.5Z"/>
      <path class="fdc02c45-71e8-43d5-bdb4-afa797eb1281" d="M74.38,30.9,67.83,58.75,67.3,61a8.6,8.6,0,0,1-1.19,2.54c-.19.22-.34.49-.53.75l-.48.4a8.93,8.93,0,0,1-.91.74c-.26.16-.59.3-.89.45a4.89,4.89,0,0,1-.91.39l-12,3.62-14,4.25-4.25,1.26a6.09,6.09,0,0,1-1.08.18c-1.4.07-2.36-.68-2-2.51v0l7.6-32.54a4.67,4.67,0,0,1,3-3.59l1.2-.33,31.26-9.19C73.9,26.8,74.84,28.75,74.38,30.9Z"/>
      <g>
        <path class="e29af81d-0e9d-4b4e-abf2-b3bbfee0bd74" d="M67.6,49.71l-2.71,11.6a3.49,3.49,0,0,1-2,2.36l-12,3.59c-.84.32-1.33-.31-1.09-1.34l2.71-11.6a3.52,3.52,0,0,1,2-2.36l12-3.6C67.34,48.05,67.84,48.68,67.6,49.71Z"/>
        <path class="a2a01596-2b27-4b7c-a084-582d8bf0853e" d="M71.69,32.16,69,43.82A3.38,3.38,0,0,1,67,46.12L55,49.77c-.83.26-1.33-.37-1.1-1.34l2.72-11.66a3.35,3.35,0,0,1,1.95-2.3L70.6,30.81C71.43,30.56,71.92,31.19,71.69,32.16Z"/>
        <path class="a51f1bd0-a84e-4455-a7df-da662ad83acb" d="M49.07,53.42l-12,3.64a3.38,3.38,0,0,0-2,2.31L32.34,71c-.23,1,.27,1.63,1.14,1.37l12-3.64a3.39,3.39,0,0,0,2-2.32L50.2,54.78C50.44,53.76,49.93,53.15,49.07,53.42Z"/>
        <path class="e07d96d5-1c89-4bd8-a767-c7b6422bbb70" d="M54.3,37.26,51.58,48.92a3.33,3.33,0,0,1-2,2.28l-12,3.67c-.88.24-1.38-.39-1.15-1.36l2.72-11.66a3.25,3.25,0,0,1,2-2.29l12-3.66C54,35.66,54.54,36.22,54.3,37.26Z"/>
      </g>
      <g>
        <path class="e29af81d-0e9d-4b4e-abf2-b3bbfee0bd74" d="M5.1,35.12,2.39,46.72a3.47,3.47,0,0,0,.71,3l9.21,8.56c.62.65,1.34.31,1.58-.73L16.6,45.94a3.61,3.61,0,0,0-.71-3L6.68,34.4C6.06,33.74,5.34,34.08,5.1,35.12Z"/>
        <path class="a2a01596-2b27-4b7c-a084-582d8bf0853e" d="M9.2,17.57,6.48,29.23a3.32,3.32,0,0,0,.72,2.92l9.2,8.62C17,41.36,17.75,41,18,40L20.7,28.38A3.35,3.35,0,0,0,20,25.46l-9.19-8.61C10.15,16.25,9.43,16.59,9.2,17.57Z"/>
        <path class="a4dc5817-0949-4cd2-820e-86de92d08f20" d="M20.07,46.65l9.16,8.58a3.42,3.42,0,0,1,.77,3L27.28,69.82c-.24,1-1,1.34-1.62.72L16.5,62a3.42,3.42,0,0,1-.77-3l2.72-11.63C18.69,46.35,19.41,46,20.07,46.65Z"/>
        <path class="a2a01596-2b27-4b7c-a084-582d8bf0853e" d="M22.54,29.84,19.81,41.5a3.36,3.36,0,0,0,.79,2.94L29.73,53c.69.61,1.42.26,1.64-.71L34.1,40.67a3.25,3.25,0,0,0-.79-2.94l-9.14-8.6C23.48,28.52,22.78,28.81,22.54,29.84Z"/>
      </g>
      <g>
        <path class="efc67028-aa39-4d96-bd8d-d93bcdfe4c4c" d="M27.78,25.51l8.67,8.06a3.45,3.45,0,0,0,2.93.86L51.3,30.7c.87-.21.93-1,.16-1.72l-8.68-8a3.52,3.52,0,0,0-2.92-.86L27.93,23.79C27.06,24,27,24.79,27.78,25.51Z"/>
        <path class="a51f1bd0-a84e-4455-a7df-da662ad83acb" d="M14.66,13.32l8.71,8.1a3.36,3.36,0,0,0,2.88.81l12-3.68c.83-.25.89-1,.16-1.72l-8.72-8.1a3.31,3.31,0,0,0-2.88-.81l-12,3.68C14,11.85,13.93,12.64,14.66,13.32Z"/>
        <path class="e29af81d-0e9d-4b4e-abf2-b3bbfee0bd74" d="M45.24,18.38l12-3.69a3.39,3.39,0,0,1,2.95.8l8.75,8.14c.76.71.68,1.5-.18,1.76l-12,3.69a3.39,3.39,0,0,1-2.95-.8l-8.75-8.13C44.3,19.44,44.38,18.65,45.24,18.38Z"/>
        <path class="a51f1bd0-a84e-4455-a7df-da662ad83acb" d="M31.82,7.86,40.54,16a3.28,3.28,0,0,0,2.92.77L55.39,13.1c.87-.3.93-1.09.2-1.77l-8.72-8.1A3.22,3.22,0,0,0,44,2.46L32,6.1C31.16,6.4,31.05,7.14,31.82,7.86Z"/>
      </g>
    </g>
  </g>
</svg>
