<svg xmlns="http://www.w3.org/2000/svg" xmlns:xlink="http://www.w3.org/1999/xlink" viewBox="0 0 168.42 173.72">
  <defs>
    <style>
      .fe0198c4-878e-4da9-a001-46afdcd5b7f3 {
        mask: url(#a5f65532-2d77-40a9-b88d-5dc33337fbf3);
      }

      .ee04264b-acca-4fa8-8728-7b8e836f1985 {
        fill: #232323;
      }

      .a50a8ab1-1ef1-41ab-b3ae-c8299ff5c948 {
        fill: #7c7c7c;
      }

      .bfb8d36b-4a4d-41f2-a4bf-1d71f3a6b1b6 {
        fill: #1d1d1d;
      }

      .f0e9d0a9-a04e-4581-b9fc-2bc237a1898d {
        fill: #181818;
      }

      .b10a2ffe-d46b-449e-9fd5-4f962cc319b5 {
        fill: #f26640;
      }

      .f67b06bb-056d-432f-b305-aa53120b14ee {
        fill: #434da1;
      }

      .fb03eeba-4e7f-4371-80dd-acb948f7e922 {
        fill: #ee2d2f;
      }

      .a0f02cfe-c711-458e-8ee9-55b02dc124cd {
        fill: #009a4d;
      }

      .bcd1157d-69e3-4ebd-9c14-a4ba24b959b1 {
        fill: #a6a6a6;
      }

      .adb81e55-6900-44d4-bc8d-04240c9d5963 {
        fill: #2c2c2c;
      }

      .b5a94630-a625-4572-b6ac-5b485ae70fe8 {
        fill: #ffc906;
      }
    </style>
    <mask id="a5f65532-2d77-40a9-b88d-5dc33337fbf3" x="-4467.32" y="779.36" width="2152.71" height="1542.6" maskUnits="userSpaceOnUse"/>
  </defs>
  <title>-</title>
  <g id="a5fda084-c839-4775-8791-c2afb5fe84f2" data-name="Export">
    <g>
      <path class="ee04264b-acca-4fa8-8728-7b8e836f1985" d="M163,59.5l-.49.16c3.89-1.45,6.23,2.84,5.37,7.83l.22-1.18a16.4,16.4,0,0,0-2.79-12.54C166.66,56,166.39,58.1,163,59.5Z"/>
      <path d="M69,168.23l-.21-.09c-1,3.85-3.24,4.83-6.57,3.28a16.63,16.63,0,0,0,5.22,1.91,18.83,18.83,0,0,0,6.61.19C70.41,173.7,68.51,172.14,69,168.23Z"/>
      <path class="a50a8ab1-1ef1-41ab-b3ae-c8299ff5c948" d="M89.52,84.58c-3.94,1.61-5.83,4.88-6.51,8.48.9-4.73-.57-7.36-3.63-10.39C82.7,85.36,85.09,86.2,89.52,84.58Z"/>
      <path d="M24,24.67c-4.38,1.92-6.16,6.68-2.81,9.18-3.17-3-7,.34-8.07,5.34L13.55,37a16.44,16.44,0,0,1,6.88-10.47A16,16,0,0,1,24,24.67Z"/>
      <path class="bfb8d36b-4a4d-41f2-a4bf-1d71f3a6b1b6" d="M163,59.5l-.44.21-.19,0-70.14,24-2.71.86c-4.43,1.62-6.82.78-10.14-1.91l-2.29-1.9L25,37l-3.82-3.17c-3.36-2.5-1.57-7.26,2.81-9.18a.32.32,0,0,1,.21-.06l.11-.08,3.46-1.21L37.35,20c0-.09,0-.09.11-.08L92.16.83A15.19,15.19,0,0,1,96.33.05a8.17,8.17,0,0,1,1.38,0,29.65,29.65,0,0,1,3,.27,11.1,11.1,0,0,1,1.57.49,19.74,19.74,0,0,1,2.22.71c.71.43,1.41.85,2.19,1.39a12.22,12.22,0,0,1,1.49,1l54.59,47a18.38,18.38,0,0,1,2.59,2.94C166.7,56,166.4,58.08,163,59.5Z"/>
      <path class="f0e9d0a9-a04e-4581-b9fc-2bc237a1898d" d="M83,93.06l-14.13,75c-1.07,4.12-3.86,4.87-6.71,3.35-.69-.53-1.41-.86-2-1.36l-7.68-6.55L5.89,123.45l-.34-.27a18.92,18.92,0,0,1-1.36-1.63,14.88,14.88,0,0,1-1.61-1.87,14.47,14.47,0,0,1-1.07-2.16c-.19-.53-.59-1-.78-1.52a13.21,13.21,0,0,1-.33-1.93,17,17,0,0,1-.17-6.4L13.14,39.2c1-5,4.9-8.3,8.07-5.35L25,37,77.09,80.77l2.29,1.9C82.44,85.7,83.91,88.33,83,93.06Z"/>
      <path class="b10a2ffe-d46b-449e-9fd5-4f962cc319b5" d="M123.7,49.28,110.52,54a3.87,3.87,0,0,1-3.52-.44l-11-9.5c-.76-.66-.52-1.57.67-2l13.16-4.65a3.84,3.84,0,0,1,3.52.44l11,9.5C125.19,48,124.87,48.91,123.7,49.28Z"/>
      <path class="f67b06bb-056d-432f-b305-aa53120b14ee" d="M158.94,55.92l-13.18,4.73a3.87,3.87,0,0,1-3.52-.45l-11-9.5c-.76-.66-.52-1.57.67-2L145.07,44a3.87,3.87,0,0,1,3.52.44l11,9.51C160.43,54.66,160.11,55.55,158.94,55.92Z"/>
      <path class="fb03eeba-4e7f-4371-80dd-acb948f7e922" d="M88.54,42.65,75.36,47.38a3.9,3.9,0,0,1-3.52-.45l-11-9.5c-.83-.67-.52-1.57.6-2L74.6,30.75a3.9,3.9,0,0,1,3.52.45l11,9.5C90,41.37,89.64,42.27,88.54,42.65Z"/>
      <path class="a0f02cfe-c711-458e-8ee9-55b02dc124cd" d="M84.86,62.16,71.69,66.89a3.86,3.86,0,0,1-3.52-.45l-11-9.5c-.83-.67-.52-1.57.6-2l13.16-4.65a3.87,3.87,0,0,1,3.52.44l11,9.5C86.28,60.88,86,61.78,84.86,62.16Z"/>
      <path class="fb03eeba-4e7f-4371-80dd-acb948f7e922" d="M52.91,35.93,39.73,40.66a3.9,3.9,0,0,1-3.52-.44l-11-9.51c-.83-.67-.52-1.57.6-2L39,24a3.87,3.87,0,0,1,3.52.44L53.5,34C54.32,34.66,54,35.55,52.91,35.93Z"/>
      <path class="f67b06bb-056d-432f-b305-aa53120b14ee" d="M107.94,36.08,94.78,40.74a3.87,3.87,0,0,1-3.52-.44l-11-9.51c-.82-.67-.51-1.57.66-1.93l13.18-4.73a3.87,3.87,0,0,1,3.52.44l11,9.51C109.37,34.74,109.13,35.65,107.94,36.08Z"/>
      <path class="bcd1157d-69e3-4ebd-9c14-a4ba24b959b1" d="M127.5,29.11l-13.23,5a4,4,0,0,1-3.5-.51l-11-9.72c-.76-.65-.52-1.56.67-2l13.22-4.94a3.87,3.87,0,0,1,3.52.44l11,9.72C129,27.77,128.67,28.74,127.5,29.11Z"/>
      <path class="b10a2ffe-d46b-449e-9fd5-4f962cc319b5" d="M104.23,55.76,91.06,60.48A4.06,4.06,0,0,1,87.55,60l-11-9.43c-.81-.74-.51-1.57.68-2l13.17-4.72a3.64,3.64,0,0,1,3.51.51l11,9.43C105.67,54.41,105.42,55.32,104.23,55.76Z"/>
      <path class="bcd1157d-69e3-4ebd-9c14-a4ba24b959b1" d="M120,68.86l-13.18,4.72a4.07,4.07,0,0,1-3.5-.51l-11-9.43c-.82-.75-.52-1.57.67-2l13.17-4.73a3.66,3.66,0,0,1,3.51.52l11,9.43C121.47,67.51,121.22,68.42,120,68.86Z"/>
      <path class="b10a2ffe-d46b-449e-9fd5-4f962cc319b5" d="M68.29,49,55.12,53.71a4.09,4.09,0,0,1-3.51-.51l-11-9.44c-.81-.74-.51-1.56.67-2L54.44,37a3.64,3.64,0,0,1,3.51.52L69,47C69.72,47.64,69.48,48.55,68.29,49Z"/>
      <path class="fb03eeba-4e7f-4371-80dd-acb948f7e922" d="M139.6,62.43l-13.17,4.72a4.09,4.09,0,0,1-3.51-.51l-11-9.44c-.82-.74-.52-1.56.67-2l13.17-4.73a3.63,3.63,0,0,1,3.51.52l11,9.43C141,61.08,140.79,62,139.6,62.43Z"/>
      <path class="a0f02cfe-c711-458e-8ee9-55b02dc124cd" d="M115.6,37.52l11,9.69a3.79,3.79,0,0,0,3.52.48l13.22-4.94c1.15-.43,1.45-1.35.66-2L133,31a3.8,3.8,0,0,0-3.51-.49l-13.22,4.95C115.1,35.9,114.81,36.82,115.6,37.52Z"/>
      <path class="b10a2ffe-d46b-449e-9fd5-4f962cc319b5" d="M72,29.31,58.84,34a3.87,3.87,0,0,1-3.52-.44l-9.49-8.19L44.31,24c-.83-.67-.51-1.57.66-1.94l4.42-1.59,8.76-3.13a3.84,3.84,0,0,1,3.52.44l11,9.5C73.43,28,73.19,28.87,72,29.31Z"/>
      <path class="f67b06bb-056d-432f-b305-aa53120b14ee" d="M100.58,75.15,87.41,79.88a4.05,4.05,0,0,1-3.51-.52l-11-9.43c-.82-.74-.52-1.57.67-2L86.72,63.2a3.66,3.66,0,0,1,3.51.51l11,9.44C102,73.8,101.77,74.71,100.58,75.15Z"/>
      <path class="bcd1157d-69e3-4ebd-9c14-a4ba24b959b1" d="M92.34,22.48,79.17,27.2a3.65,3.65,0,0,1-3.51-.51l-11-9.43c-.83-.67-.52-1.57.6-2l13.17-4.73a4.08,4.08,0,0,1,3.51.52l11,9.43C93.76,21.2,93.46,22,92.34,22.48Z"/>
      <path class="bcd1157d-69e3-4ebd-9c14-a4ba24b959b1" d="M111.83,15.49,98.61,20.42A3.84,3.84,0,0,1,95.09,20l-11-9.72c-.83-.67-.5-1.64.68-2L98,3.25a4.09,4.09,0,0,1,3.51.51l11,9.72C113.26,14.14,113,15.05,111.83,15.49Z"/>
      <path class="adb81e55-6900-44d4-bc8d-04240c9d5963" d="M168,67.49l-12.18,64.1-1,5.21a19.08,19.08,0,0,1-2.49,5.9c-.39.52-.7,1.15-1.11,1.76l-1.07,1a16.76,16.76,0,0,1-2,1.78c-.56.39-1.32.73-2,1.11a13.32,13.32,0,0,1-2,1l-27,9.43L85.72,169.78l-9.55,3.3a16.85,16.85,0,0,1-2.45.51c-3.19.28-5.44-1.32-4.84-5.52l0-.09L83,93.06c.68-3.59,2.56-6.87,6.5-8.48l2.71-.86,70.33-24C166.48,58.19,168.79,62.55,168,67.49Z"/>
      <path class="b5a94630-a625-4572-b6ac-5b485ae70fe8" d="M135.61,112l-13.73,4.82a4,4,0,0,0-2.19,2.78l-2.56,13.61c-.23,1.18.39,1.87,1.38,1.52l13.73-4.82a3.9,3.9,0,0,0,2.19-2.77L137,113.54C137.22,112.35,136.6,111.67,135.61,112Z"/>
      <path class="b10a2ffe-d46b-449e-9fd5-4f962cc319b5" d="M140.86,93l-2.57,13.64a3.84,3.84,0,0,1-2.21,2.74l-13.71,4.85c-1,.32-1.62-.38-1.4-1.52l2.57-13.63a3.73,3.73,0,0,1,2.21-2.75l13.71-4.85C140.47,91.19,141.09,91.82,140.86,93Z"/>
      <path class="f67b06bb-056d-432f-b305-aa53120b14ee" d="M144.2,72.47,141.64,86a4,4,0,0,1-2.22,2.82l-13.7,4.77c-1,.33-1.64-.31-1.41-1.51l2.57-13.64a3.88,3.88,0,0,1,2.21-2.75l13.71-4.84C143.82,70.57,144.42,71.27,144.2,72.47Z"/>
      <path class="b5a94630-a625-4572-b6ac-5b485ae70fe8" d="M163.84,66l-2.56,13.56a4,4,0,0,1-2.22,2.82l-13.7,4.77c-1,.33-1.64-.3-1.41-1.51L146.52,72a3.88,3.88,0,0,1,2.21-2.75l13.71-4.84C163.46,64.05,164.06,64.75,163.84,66Z"/>
      <path class="b5a94630-a625-4572-b6ac-5b485ae70fe8" d="M160,86.2l-2.56,13.57a4,4,0,0,1-2.22,2.82l-13.7,4.77c-1,.33-1.63-.31-1.41-1.51l2.58-13.64a3.87,3.87,0,0,1,2.2-2.75l13.72-4.84C159.64,84.3,160.25,85,160,86.2Z"/>
      <path class="bcd1157d-69e3-4ebd-9c14-a4ba24b959b1" d="M156.17,106.61l-2.55,13.57a4,4,0,0,1-2.23,2.82l-13.7,4.77c-1,.32-1.63-.31-1.4-1.52l2.57-13.63a3.84,3.84,0,0,1,2.21-2.75L154.78,105C155.8,104.7,156.4,105.4,156.17,106.61Z"/>
      <path class="a0f02cfe-c711-458e-8ee9-55b02dc124cd" d="M115.68,118.82,102,123.64a3.94,3.94,0,0,0-2.19,2.78L97.19,140c-.22,1.18.4,1.86,1.39,1.52l13.73-4.82A3.92,3.92,0,0,0,114.5,134l2.56-13.61C117.29,119.16,116.67,118.48,115.68,118.82Z"/>
      <path class="a0f02cfe-c711-458e-8ee9-55b02dc124cd" d="M131.76,132.44,118,137.26a3.94,3.94,0,0,0-2.19,2.78l-2.56,13.61c-.23,1.18.39,1.87,1.38,1.52l13.73-4.82a3.9,3.9,0,0,0,2.19-2.77L133.15,134C133.37,132.78,132.75,132.1,131.76,132.44Z"/>
      <path class="a0f02cfe-c711-458e-8ee9-55b02dc124cd" d="M152.32,127l-2.56,13.57a4,4,0,0,1-2.22,2.82l-13.7,4.77c-1,.32-1.63-.31-1.4-1.52L135,133.05a3.84,3.84,0,0,1,2.21-2.75l13.71-4.84C152,125.13,152.55,125.84,152.32,127Z"/>
      <path class="fb03eeba-4e7f-4371-80dd-acb948f7e922" d="M111.83,139.25,98.1,144.07a3.92,3.92,0,0,0-2.19,2.78l-2.57,13.61c-.22,1.18.4,1.87,1.39,1.52l13.73-4.82a3.92,3.92,0,0,0,2.19-2.77l2.56-13.61C113.44,139.59,112.82,138.91,111.83,139.25Z"/>
      <path class="a0f02cfe-c711-458e-8ee9-55b02dc124cd" d="M120.81,99.92l-2.56,13.56a4,4,0,0,1-2.15,2.83l-13.77,4.76c-1,.41-1.56-.29-1.33-1.5L103.55,106a4.17,4.17,0,0,1,2.15-2.83l13.77-4.76C120.43,98,121,98.71,120.81,99.92Z"/>
      <path class="a0f02cfe-c711-458e-8ee9-55b02dc124cd" d="M124.45,79.35,121.88,93a3.87,3.87,0,0,1-2.14,2.76L106,100.57c-.95.34-1.55-.36-1.33-1.5l2.57-13.64a3.9,3.9,0,0,1,2.13-2.76l13.79-4.83C124.06,77.51,124.67,78.21,124.45,79.35Z"/>
      <path class="f67b06bb-056d-432f-b305-aa53120b14ee" d="M97.07,127.14,94.5,140.78a3.79,3.79,0,0,1-2.21,2.75l-13.56,4.8-.15,0a1,1,0,0,1-1.2-.3,1.87,1.87,0,0,1-.21-1.21l2.57-13.64A3.75,3.75,0,0,1,82,130.47l13.71-4.84C96.68,125.3,97.3,125.93,97.07,127.14Z"/>
      <path class="a0f02cfe-c711-458e-8ee9-55b02dc124cd" d="M93.29,147.2l-2.57,13.64a3.79,3.79,0,0,1-2.21,2.75L75,168.39l-.16,0a1,1,0,0,1-1.19-.3,1.81,1.81,0,0,1-.21-1.21L76,153.28a3.77,3.77,0,0,1,2.21-2.75l13.71-4.84C92.9,145.36,93.51,146,93.29,147.2Z"/>
      <path class="f67b06bb-056d-432f-b305-aa53120b14ee" d="M99.54,105.13,85.81,110a3.94,3.94,0,0,0-2.2,2.77l-2.56,13.61c-.22,1.19.39,1.87,1.38,1.53L96.16,123a3.93,3.93,0,0,0,2.2-2.78l2.56-13.6C101.14,105.47,100.53,104.79,99.54,105.13Z"/>
      <path class="bcd1157d-69e3-4ebd-9c14-a4ba24b959b1" d="M104.79,86.16,102.22,99.8a3.84,3.84,0,0,1-2.21,2.74L86.3,107.39c-1,.32-1.62-.38-1.41-1.52l2.58-13.64a3.73,3.73,0,0,1,2.21-2.74l13.71-4.85C104.4,84.32,105,85,104.79,86.16Z"/>
      <path class="f67b06bb-056d-432f-b305-aa53120b14ee" d="M27,92.25l11,9.48a3.93,3.93,0,0,1,1,3.39l-2.57,13.61c-.22,1.18-1.05,1.59-1.84.91l-11-9.48a4,4,0,0,1-1-3.39l2.57-13.61C25.33,92,26.16,91.57,27,92.25Z"/>
      <path class="f67b06bb-056d-432f-b305-aa53120b14ee" d="M29,72.66,26.4,86.29a3.88,3.88,0,0,0,1.06,3.37l11,9.5c.83.67,1.64.24,1.86-.9L42.9,84.62a3.75,3.75,0,0,0-1.06-3.36l-11-9.5C30,71.09,29.2,71.45,29,72.66Z"/>
      <path class="b5a94630-a625-4572-b6ac-5b485ae70fe8" d="M33.35,52.3,30.79,65.87a4,4,0,0,0,1.05,3.43l11,9.43c.83.67,1.63.31,1.86-.9l2.57-13.64a3.84,3.84,0,0,0-1.06-3.36l-11-9.5C34.4,50.66,33.58,51.09,33.35,52.3Z"/>
      <path class="f67b06bb-056d-432f-b305-aa53120b14ee" d="M17.43,39.08,14.88,52.64a4,4,0,0,0,1,3.44l11,9.43c.83.67,1.63.31,1.86-.9L31.37,51a3.84,3.84,0,0,0-1.06-3.36l-11-9.5C18.48,37.43,17.66,37.87,17.43,39.08Z"/>
      <path class="f67b06bb-056d-432f-b305-aa53120b14ee" d="M13.62,59.33,11.06,72.89a4,4,0,0,0,1,3.44l11,9.43c.83.67,1.64.31,1.86-.9l2.58-13.64a3.86,3.86,0,0,0-1.06-3.36l-11-9.5C14.66,57.68,13.84,58.12,13.62,59.33Z"/>
      <path class="f67b06bb-056d-432f-b305-aa53120b14ee" d="M9.77,79.73,7.21,93.3a4,4,0,0,0,1,3.43l11,9.44c.83.67,1.63.3,1.86-.9l2.57-13.64a3.86,3.86,0,0,0-1.06-3.36l-11-9.51C10.81,78.09,10,78.53,9.77,79.73Z"/>
      <path class="fb03eeba-4e7f-4371-80dd-acb948f7e922" d="M43,105.85l11,9.48a3.93,3.93,0,0,1,1,3.39l-2.56,13.6c-.23,1.19-1,1.6-1.85.92l-11-9.48a3.94,3.94,0,0,1-1-3.39l2.56-13.61C41.42,105.58,42.24,105.17,43,105.85Z"/>
      <path class="b5a94630-a625-4572-b6ac-5b485ae70fe8" d="M23.1,112.68l11,9.48a3.93,3.93,0,0,1,1,3.39L32.6,139.16c-.22,1.18-1.05,1.59-1.84.91l-11-9.48a4,4,0,0,1-1-3.39l2.57-13.61C21.48,112.41,22.31,112,23.1,112.68Z"/>
      <path class="a0f02cfe-c711-458e-8ee9-55b02dc124cd" d="M5.92,100.16,3.36,113.73a4,4,0,0,0,1.05,3.43l11,9.44c.83.67,1.63.3,1.86-.9l2.57-13.64a3.86,3.86,0,0,0-1.06-3.36l-11-9.51C7,98.52,6.15,99,5.92,100.16Z"/>
      <path class="a0f02cfe-c711-458e-8ee9-55b02dc124cd" d="M39.18,126.28l11,9.48a4,4,0,0,1,1,3.39l-2.56,13.6c-.23,1.19-1,1.6-1.85.92l-11-9.48a3.9,3.9,0,0,1-1-3.39l2.56-13.61C37.57,126,38.39,125.6,39.18,126.28Z"/>
      <path class="a0f02cfe-c711-458e-8ee9-55b02dc124cd" d="M45.14,86.37,42.59,99.94a4,4,0,0,0,1,3.42l11.09,9.44c.75.73,1.56.3,1.79-.91L59,98.32a4.16,4.16,0,0,0-1-3.42l-11.1-9.44C46.19,84.73,45.37,85.16,45.14,86.37Z"/>
      <path class="fb03eeba-4e7f-4371-80dd-acb948f7e922" d="M49.24,65.89,46.67,79.52a3.88,3.88,0,0,0,1,3.35l11.07,9.52c.76.66,1.58.22,1.79-.91L63.1,77.84a3.91,3.91,0,0,0-1-3.35L51,65C50.27,64.31,49.45,64.75,49.24,65.89Z"/>
      <path class="b10a2ffe-d46b-449e-9fd5-4f962cc319b5" d="M57.34,120.37,54.77,134a3.77,3.77,0,0,0,1.06,3.36l10.88,9.41.13.1a1,1,0,0,0,1.22.15A1.82,1.82,0,0,0,68.7,146l2.57-13.64A3.74,3.74,0,0,0,70.21,129l-11-9.51C58.38,118.8,57.57,119.16,57.34,120.37Z"/>
      <path class="b5a94630-a625-4572-b6ac-5b485ae70fe8" d="M53.56,140.43,51,154.07a3.77,3.77,0,0,0,1.06,3.36l10.88,9.41.13.1a1,1,0,0,0,1.22.15,1.82,1.82,0,0,0,.64-1.05l2.57-13.64A3.74,3.74,0,0,0,66.43,149l-11-9.51C54.59,138.86,53.79,139.22,53.56,140.43Z"/>
      <path class="bcd1157d-69e3-4ebd-9c14-a4ba24b959b1" d="M63.06,99l11,9.48a3.91,3.91,0,0,1,1,3.39l-2.56,13.61c-.23,1.19-1,1.6-1.84.91l-11-9.48a4,4,0,0,1-1-3.38l2.56-13.61C61.44,98.7,62.26,98.29,63.06,99Z"/>
      <path class="b10a2ffe-d46b-449e-9fd5-4f962cc319b5" d="M65.07,79.39,62.5,93a3.85,3.85,0,0,0,1.06,3.37l11,9.5c.83.67,1.65.24,1.87-.9L79,91.35A3.78,3.78,0,0,0,77.94,88l-11-9.5C66.1,77.82,65.3,78.18,65.07,79.39Z"/>
    </g>
  </g>
</svg>
