<svg xmlns="http://www.w3.org/2000/svg" xmlns:xlink="http://www.w3.org/1999/xlink" viewBox="0 0 325 325">
  <defs>
    <style>
      .fda0e1b9-0a46-474c-9e90-12b07d69c21e {
        fill: none;
      }

      .a306cfa3-5f2c-426d-9546-e1b332fe55a7 {
        clip-path: url(#eb2459fc-5067-4281-8b7d-07a6b0eab48a);
      }

      .b59dafee-cec1-473e-bd93-4f6497a59f56 {
        opacity: 0.1;
        mix-blend-mode: overlay;
      }

      .a8428507-9578-45e8-9734-6efcf770e271 {
        fill: #fff;
      }

      .ae173cfa-b2ee-47ec-ab1c-53a666370111 {
        fill: #009a4d;
      }

      .e223687e-6837-4272-a4b9-3ec6518833bc {
        clip-path: url(#ad35eb97-97cb-4fc8-8661-0f19a45c25b4);
      }

      .fcfa0ad9-6e93-4ee3-8cc8-390d1a5b7475 {
        clip-path: url(#f25fb168-2164-4a8a-aeb0-665c2aa82ffc);
      }

      .b5270759-afda-4716-ba34-8c8faf38128e {
        mask: url(#a92a9587-0a75-4eeb-81d2-28101116b4f9);
      }

      .bbfe5b3b-d213-4653-90f9-9b2c4906ab65 {
        fill: url(#a0b8d8ae-ad73-48fb-a5ce-662b72a06e25);
      }
    </style>

    <filter id="f1" x="0" y="0" width="1" height="1">
      <feImage xlink:href="#a0b8d8ae-ad73-48fb-a5ce-662b72a06e25" result="p1"/>
      <feImage xlink:href="#e7a73445-647e-446a-af81-361f9c13f655" result="p2"/>
      <feBlend mode="overlay" in="p1" in2="p2" />
    </filter>

    <clipPath id="ad35eb97-97cb-4fc8-8661-0f19a45c25b4">
      <rect class="fda0e1b9-0a46-474c-9e90-12b07d69c21e" y="-4.27" width="325" height="333.54"/>
    </clipPath>
    
    <mask id="a92a9587-0a75-4eeb-81d2-28101116b4f9" x="-5685.91" y="-5617.23" width="2152.71" height="1542.6" maskUnits="userSpaceOnUse"/>
    <pattern id="a0b8d8ae-ad73-48fb-a5ce-662b72a06e25" data-name="New Pattern Swatch 3" width="325" height="325" patternUnits="userSpaceOnUse" viewBox="0 0 325 325">
      <rect class="fda0e1b9-0a46-474c-9e90-12b07d69c21e" width="325" height="325"/>
    
      <g>
        <rect class="ae173cfa-b2ee-47ec-ab1c-53a666370111" width="325" height="325"/>
        <g class="e223687e-6837-4272-a4b9-3ec6518833bc">
          <g class="b59dafee-cec1-473e-bd93-4f6497a59f56">
            <path class="a8428507-9578-45e8-9734-6efcf770e271" d="M103.78,323.15a4.69,4.69,0,0,1,.4,1.77A4.17,4.17,0,0,1,102.9,328a4.26,4.26,0,0,1-3.08,1.28H73.89a8.69,8.69,0,0,1-8.72-5.9L-1.5,164.82l-.26-.61a5.35,5.35,0,0,1-.4-1.67v-.1a5.35,5.35,0,0,1,.4-1.67l.26-.61L65.17,1.63a8.69,8.69,0,0,1,8.72-5.9H99.82A4.26,4.26,0,0,1,102.9-3a4.17,4.17,0,0,1,1.28,3,4.7,4.7,0,0,1-.4,1.78L37.45,161a14.44,14.44,0,0,1-.79,1.52,14.44,14.44,0,0,1,.79,1.52Z"/>
            <path class="a8428507-9578-45e8-9734-6efcf770e271" d="M38.84,323.15a4.86,4.86,0,0,1,.39,1.77A4.11,4.11,0,0,1,37.94,328a4.19,4.19,0,0,1-3.06,1.28H8.93a8.65,8.65,0,0,1-8.7-5.9L-66.48,164.77l-.23-.56a5.31,5.31,0,0,1-.39-1.67v-.1a5.31,5.31,0,0,1,.39-1.67l.23-.56L.23,1.63a8.65,8.65,0,0,1,8.7-5.9h26A4.19,4.19,0,0,1,37.94-3a4.1,4.1,0,0,1,1.29,3,4.87,4.87,0,0,1-.39,1.78L-27.49,161a11.49,11.49,0,0,1-.8,1.52,11.49,11.49,0,0,1,.8,1.52Z"/>
            <path class="a8428507-9578-45e8-9734-6efcf770e271" d="M168.74,323.15a5.08,5.08,0,0,1,.39,1.77,4.14,4.14,0,0,1-1.29,3.05,4.2,4.2,0,0,1-3.07,1.28H138.83a8.67,8.67,0,0,1-8.71-5.9L63.42,164.77l-.23-.56a5.35,5.35,0,0,1-.4-1.67v-.1a5.35,5.35,0,0,1,.4-1.67l.23-.56L130.12,1.63a8.67,8.67,0,0,1,8.71-5.9h25.94A4.2,4.2,0,0,1,167.84-3a4.14,4.14,0,0,1,1.29,3,5.08,5.08,0,0,1-.39,1.78L102.39,161a10.38,10.38,0,0,1-.79,1.52,10.38,10.38,0,0,1,.79,1.52Z"/>
            <path class="a8428507-9578-45e8-9734-6efcf770e271" d="M363.58,323.15a4.86,4.86,0,0,1,.39,1.77,4.11,4.11,0,0,1-1.29,3.05,4.19,4.19,0,0,1-3.06,1.28H333.67a8.66,8.66,0,0,1-8.7-5.9L258.26,164.77l-.23-.56a5.31,5.31,0,0,1-.39-1.67v-.1a5.31,5.31,0,0,1,.39-1.67l.23-.56L325,1.63a8.66,8.66,0,0,1,8.7-5.9h25.95A4.19,4.19,0,0,1,362.68-3a4.1,4.1,0,0,1,1.29,3,4.87,4.87,0,0,1-.39,1.78L297.25,161a12.81,12.81,0,0,1-.8,1.52,12.81,12.81,0,0,1,.8,1.52Z"/>
            <path class="a8428507-9578-45e8-9734-6efcf770e271" d="M428.52,323.15a4.69,4.69,0,0,1,.4,1.77,4.17,4.17,0,0,1-1.28,3.05,4.26,4.26,0,0,1-3.08,1.28H398.63a8.69,8.69,0,0,1-8.72-5.9L323.23,164.79l-.25-.58a5.09,5.09,0,0,1-.4-1.67v-.1a5.09,5.09,0,0,1,.4-1.67l.25-.58L389.91,1.63a8.69,8.69,0,0,1,8.72-5.9h25.93A4.26,4.26,0,0,1,427.64-3a4.17,4.17,0,0,1,1.28,3,4.7,4.7,0,0,1-.4,1.78L362.19,161a12.77,12.77,0,0,1-.79,1.52,12.77,12.77,0,0,1,.79,1.52Z"/>
            <path class="a8428507-9578-45e8-9734-6efcf770e271" d="M233.68,323.15a4.69,4.69,0,0,1,.4,1.77,4.12,4.12,0,0,1-1.3,3.05,4.18,4.18,0,0,1-3.06,1.28H203.78a8.68,8.68,0,0,1-8.71-5.9L128.4,164.82l-.26-.61a5.09,5.09,0,0,1-.4-1.67v-.1a5.09,5.09,0,0,1,.4-1.67l.26-.61L195.07,1.63a8.68,8.68,0,0,1,8.71-5.9h25.94A4.18,4.18,0,0,1,232.78-3a4.11,4.11,0,0,1,1.3,3,4.7,4.7,0,0,1-.4,1.78L167.35,161a11.49,11.49,0,0,1-.8,1.52,11.49,11.49,0,0,1,.8,1.52Z"/>
            <path class="a8428507-9578-45e8-9734-6efcf770e271" d="M298.62,323.15a4.72,4.72,0,0,1,.41,1.77,4.18,4.18,0,0,1-1.29,3.05,4.23,4.23,0,0,1-3.07,1.28H268.73a8.69,8.69,0,0,1-8.72-5.9L193.32,164.77l-.24-.56a5.31,5.31,0,0,1-.39-1.67v-.1a5.31,5.31,0,0,1,.39-1.67l.24-.56L260,1.63a8.69,8.69,0,0,1,8.72-5.9h25.94A4.23,4.23,0,0,1,297.74-3a4.18,4.18,0,0,1,1.29,3,4.73,4.73,0,0,1-.41,1.78L232.29,161a12.77,12.77,0,0,1-.79,1.52,12.77,12.77,0,0,1,.79,1.52Z"/>
          </g>
        </g>
      </g>
    </pattern>
  </defs>
  <title>-</title>
  <g id="e7a73445-647e-446a-af81-361f9c13f655" data-name="Export">
    <rect class="bbfe5b3b-d213-4653-90f9-9b2c4906ab65" width="325" height="325"/>
  </g>
</svg>
