<svg xmlns="http://www.w3.org/2000/svg" viewBox="0 0 306.13 343.38">
  <defs>
    <style>
      .bd273aec-0ca7-4f17-a50e-4e13a0508a3f {
        fill: #009a4d;
      }

      .f4fe26d6-ec2b-4e4d-a11a-8391d7fcdbff {
        fill: #fff;
      }

      .b4f65156-345d-43a8-a02e-2887da275242 {
        fill: #040504;
      }

      .b06ab8e3-34d8-4813-b577-9049ac8025b0 {
        fill: #232323;
      }

      .ba0c5666-b4bc-4a17-8834-b27510e8f272 {
        fill: #1d1d1d;
      }

      .bbe01226-469d-4af4-b89a-a0f93f904271 {
        fill: #a6a6a6;
      }

      .ac462f22-984f-47bc-85d4-c69b8c17164d {
        fill: #ffc906;
      }

      .f0ae5eca-d923-4e68-8198-04af84836e4a {
        fill: #2c2c2c;
      }

      .a4f9674a-3724-4ffb-86bf-37c532f73166 {
        fill: #ee2d2f;
      }

      .f4978ed7-a222-4e15-9710-bef4ce494bf7 {
        fill: #434da1;
      }

      .baab427a-cfa8-4f9f-b9d1-463f0bfa9795 {
        fill: #434242;
      }

      .f6f9d9aa-56eb-48aa-9ad7-71a94b25a602 {
        fill: #181818;
      }

      .a7d30d4d-b74c-4676-b433-a8360522101a {
        fill: #f26640;
      }
    </style>
  </defs>
  <title>-</title>
  <g id="fb2f7f28-66f5-4f8c-8364-a9338aef7acf" data-name="Layer 13">
    <g>
      <g>
        <path class="bd273aec-0ca7-4f17-a50e-4e13a0508a3f" d="M11.61,210.28a4.08,4.08,0,0,1,.54.22A3.41,3.41,0,0,0,11.61,210.28Z"/>
        <path class="f4fe26d6-ec2b-4e4d-a11a-8391d7fcdbff" d="M306.13,104.24l-.19,126.92v10.3a37.51,37.51,0,0,1-2.62,12.18c-.56,1.13-.94,2.45-1.5,3.77l-1.7,2.24a31.36,31.36,0,0,1-3.18,4.12c-.94.94-2.24,1.88-3.37,2.82a26.55,26.55,0,0,1-3.56,2.62L241.82,297l-56,32.44-17.05,9.73a33.49,33.49,0,0,1-4.5,1.88c-.11,0-.21.07-.32.09a31.91,31.91,0,0,1-11.84,2.28A31.3,31.3,0,0,1,142,341.2l-.65-.19c-1.5-.75-3-1.13-4.31-1.88l-17-9.73L16.49,269.59l-.75-.38a37.33,37.33,0,0,1-3.18-2.62,27.61,27.61,0,0,1-3.75-3A26.93,26.93,0,0,1,6,259.84c-.57-.95-1.49-1.68-2.06-2.62a27.18,27.18,0,0,1-1.31-3.58A32.75,32.75,0,0,1,0,241.46V101.62A31.91,31.91,0,0,1,9.35,79.13a30.64,30.64,0,0,1,6.2-4.88.66.66,0,0,1,.38-.19l.18-.19,6.2-3.55,17.05-9.76c0-.18,0-.18.19-.18L137.22,4.12a30.89,30.89,0,0,1,7.68-3,16.66,16.66,0,0,1,2.64-.57c1.86-.18,3.93-.56,5.8-.56a20.28,20.28,0,0,1,3.18.38A35.09,35.09,0,0,1,161,.94c1.48.57,3,1.13,4.66,1.89a22.66,22.66,0,0,1,3.21,1.29L290.2,74.25a35.63,35.63,0,0,1,6,4.69c.1.1.18.21.27.31-.09-.1-.17-.21-.25-.31a32,32,0,0,1,9.83,23v.71C306.08,103.15,306.13,103.7,306.13,104.24Z"/>
      </g>
      <g>
        <g>
          <polygon class="b4f65156-345d-43a8-a02e-2887da275242" points="180.18 250.01 202.52 262.96 202.52 232.41 180.18 250.01"/>
          <path class="b4f65156-345d-43a8-a02e-2887da275242" d="M181.16,136.21s22.89,44.27,22.47,43,0-34.11,0-34.11l-19.93-13Z"/>
          <polygon class="b4f65156-345d-43a8-a02e-2887da275242" points="103.74 90.82 103.74 115.98 124.73 102.88 103.74 90.82"/>
          <g>
            <g>
              <path class="b06ab8e3-34d8-4813-b577-9049ac8025b0" d="M261.9,113a6.47,6.47,0,0,1-2.57,2.88l-.19.11-.17.13a4.31,4.31,0,0,1,4.43-.11c2.16,1.23,3.65,4.38,3.85,8.11v-1a20.76,20.76,0,0,0-6.38-14.9C262.22,109.76,262.63,111.37,261.9,113Z"/>
              <path class="ba0c5666-b4bc-4a17-8834-b27510e8f272" d="M232.38,131.11l26.16-14.86h.25l.18-.14c-.07,0-.14,0-.21.09l.38-.22.13-.1A6.6,6.6,0,0,0,261.9,113a4.31,4.31,0,0,0-1-4.76h0a23.76,23.76,0,0,0-3.9-3L178.28,59.7a15.05,15.05,0,0,0-2.07-.85c-1.09-.49-2.06-.85-3-1.22a24,24,0,0,0-2.92-.36,13.7,13.7,0,0,0-2.06-.25c-1.22,0-2.56.25-3.77.37a11,11,0,0,0-1.71.36,19.52,19.52,0,0,0-5,2l-24.39,14,99,57.17ZM165.27,90.47,144.11,77.82c-1.58-.85-1.34-2.55.48-3.53l20.31-12.4a6.84,6.84,0,0,1,6-.24L192,74.29c1.46.85,1.34,2.44-.48,3.53L171.23,90.1A6.49,6.49,0,0,1,165.27,90.47Zm30.16,17.63L174.27,95.45c-1.46-.85-1.34-2.43.48-3.52l20.31-12.29a6.52,6.52,0,0,1,6-.36l21.16,12.65c1.58.85,1.34,2.55-.48,3.52l-20.31,12.41A6.88,6.88,0,0,1,195.43,108.1Zm36.34,17.28a6.36,6.36,0,0,1-1.83.53,5.91,5.91,0,0,1-4.11-.18l-21.08-12.6-.11-.06a1.77,1.77,0,0,1-1-1.74,2.72,2.72,0,0,1,1.41-1.89l20.3-12.28a6.37,6.37,0,0,1,5.06-.47,4.76,4.76,0,0,1,1,.19l0,0h0l21.16,12.53a1.72,1.72,0,0,1,.78,1.47,2,2,0,0,1-.79,1.56c-.2.2-.19.44-.47.62L232.44,125Z"/>
              <path class="bbe01226-469d-4af4-b89a-a0f93f904271" d="M222.18,91.93,201,79.28a6.52,6.52,0,0,0-6,.36L174.75,91.93c-1.82,1.09-1.94,2.67-.48,3.52l21.16,12.65a6.88,6.88,0,0,0,6-.24L221.7,95.45C223.52,94.48,223.76,92.78,222.18,91.93Z"/>
              <path class="ac462f22-984f-47bc-85d4-c69b8c17164d" d="M232.44,125l19.65-11.9c.29-.17.27-.41.48-.61a2.12,2.12,0,0,0,.79-1.56,1.68,1.68,0,0,0-.82-1.41L231.41,96.91c-.27-.17-.68-.12-1-.22a6.4,6.4,0,0,0-5,.5l-20.31,12.29a2.78,2.78,0,0,0-1.46,1.85,1.87,1.87,0,0,0,1,1.76l.08,0,21.06,12.55a5.85,5.85,0,0,0,4.13.23,6.6,6.6,0,0,0,1.85-.54Z"/>
              <path class="bd273aec-0ca7-4f17-a50e-4e13a0508a3f" d="M192,74.29,170.86,61.65a6.84,6.84,0,0,0-6,.24l-20.31,12.4c-1.82,1-2.06,2.68-.48,3.53l21.16,12.65a6.49,6.49,0,0,0,6-.37l20.31-12.28C193.36,76.73,193.48,75.14,192,74.29Z"/>
              <path class="f0ae5eca-d923-4e68-8198-04af84836e4a" d="M267.25,124.11v.53c-.06-4-1.61-7.34-3.85-8.64a4.29,4.29,0,0,0-4.61.25L232.38,131.2V245.74l24.46-14.08a16.44,16.44,0,0,0,2.31-1.71c.73-.6,1.58-1.21,2.19-1.82a21.94,21.94,0,0,0,2.07-2.68L264.5,224c.37-.85.61-1.7,1-2.43a24.17,24.17,0,0,0,1.7-7.9V207l.12-82.33C267.3,124.46,267.26,124.29,267.25,124.11Zm-5.42,70.94v23.27a6.62,6.62,0,0,1-2.76,5.27h0l0,0-6.68,3.84-14.48,8.36c-.05,0-.08,0-.13,0-1.51.84-2.67-.1-2.67-2.11V210.5a6.54,6.54,0,0,1,2.8-5.35l8-4.62,13.16-7.6c.05,0,.08,0,.13,0,1.48-.79,2.59.12,2.62,2.06,0,0,0,0,0,0Zm0-11.79a6.49,6.49,0,0,1-2.8,5.22l-21.16,12.29c-1.58.85-2.8-.12-2.8-2.07V175.35a6.32,6.32,0,0,1,2.8-5.23L259,157.84c1.58-.85,2.8,0,2.8,2.07Zm0-35.15a6.72,6.72,0,0,1-2.8,5.35l-21.16,12.16c-1.58.85-2.8,0-2.8-2.07V140.21a6.49,6.49,0,0,1,2.8-5.23L259,122.69c1.58-.85,2.8.13,2.8,2.19Z"/>
              <path class="a4f9674a-3724-4ffb-86bf-37c532f73166" d="M259.2,192.93c-.06,0-.11,0-.17,0l-13.12,7.55-8,4.64a6.6,6.6,0,0,0-2.76,5.28v23.29c0,2,1.17,2.84,2.63,2.09,0,0,.08,0,.13,0l14.48-8.32,6.71-3.88a6.71,6.71,0,0,0,2.77-5.31V195.05s0,0,0-.06C261.8,193.05,260.64,192.2,259.2,192.93Z"/>
              <path class="a4f9674a-3724-4ffb-86bf-37c532f73166" d="M259,157.84l-21.16,12.28a6.32,6.32,0,0,0-2.8,5.23V198.7c0,2,1.22,2.92,2.8,2.07L259,188.48a6.49,6.49,0,0,0,2.8-5.22V159.91C261.83,157.84,260.61,157,259,157.84Z"/>
              <path class="bd273aec-0ca7-4f17-a50e-4e13a0508a3f" d="M259,122.69,237.87,135a6.49,6.49,0,0,0-2.8,5.23v23.34c0,2.07,1.22,2.92,2.8,2.07L259,153.46a6.72,6.72,0,0,0,2.8-5.35V124.88C261.83,122.82,260.61,121.84,259,122.69Z"/>
            </g>
            <g>
              <path class="ba0c5666-b4bc-4a17-8834-b27510e8f272" d="M202.72,147.93l29.66-16.85v-.19l-99-57.17-29.6,17,99,57.13Zm-67.49-40.34L114.07,95.43c-1.59-.85-1.34-2.43.36-3.53L134.74,80a6.89,6.89,0,0,1,6-.24L161.86,91.9c1.58,1,1.34,2.43-.37,3.53l-20.3,11.92C139.36,108.44,136.69,108.56,135.23,107.59Zm30,17.63L144.1,112.94c-1.58-.85-1.33-2.43.49-3.41L164.9,97.62a6.49,6.49,0,0,1,6-.37L192,109.53c1.46.86,1.34,2.44-.49,3.53l-20.31,11.8A6.52,6.52,0,0,1,165.26,125.22Zm36.12,16.66a6.49,6.49,0,0,1-6,.37L174.26,130c-1.46-.85-1.33-2.43.49-3.52l20.31-11.8a6.52,6.52,0,0,1,6-.36l21.16,12.28c1.58.85,1.33,2.43-.49,3.4Z"/>
              <path class="ac462f22-984f-47bc-85d4-c69b8c17164d" d="M222.18,126.56,201,114.28a6.52,6.52,0,0,0-6,.36l-20.31,11.8c-1.82,1.09-1.95,2.67-.49,3.52l21.16,12.29a6.49,6.49,0,0,0,6-.37L221.69,130C223.51,129,223.76,127.41,222.18,126.56Z"/>
              <path class="ac462f22-984f-47bc-85d4-c69b8c17164d" d="M192,109.53,170.86,97.25a6.49,6.49,0,0,0-6,.37l-20.31,11.91c-1.82,1-2.07,2.56-.49,3.41l21.16,12.28a6.52,6.52,0,0,0,6-.36l20.31-11.8C193.36,112,193.48,110.39,192,109.53Z"/>
              <path class="bd273aec-0ca7-4f17-a50e-4e13a0508a3f" d="M161.86,91.9,140.7,79.74a6.89,6.89,0,0,0-6,.24L114.43,91.9c-1.7,1.1-2,2.68-.36,3.53l21.16,12.16c1.46,1,4.13.85,6-.24l20.3-11.92C163.2,94.33,163.44,92.87,161.86,91.9Z"/>
              <path class="f0ae5eca-d923-4e68-8198-04af84836e4a" d="M202.72,148V262.86l22.86-13.23,6.8-3.92V131.17Zm1.46,9.84a6.59,6.59,0,0,1,2.67-5.23l21.29-12.28c1.46-.85,2.67.12,2.67,2.07v23.35a6.53,6.53,0,0,1-2.67,5.23l-21.29,12.28c-1.45.85-2.67-.12-2.67-2.07Zm0,35.15a7,7,0,0,1,2.67-5.35l21.29-12.16c1.46-1,2.67,0,2.67,2.06v23.23a6.77,6.77,0,0,1-2.67,5.35l-21.29,12.16c-1.45,1-2.67,0-2.67-2.06Zm24,48.08L207,253.28H207a1.64,1.64,0,0,1-1.89.05,2.57,2.57,0,0,1-.82-2.14v-23.3a6.7,6.7,0,0,1,1.66-4,5.12,5.12,0,0,1,1-1.22l21.28-12.28a1.49,1.49,0,0,1,1.45,0,2,2,0,0,1,1.28,2.12v23.3A6.64,6.64,0,0,1,228.23,241Z"/>
              <path class="f4978ed7-a222-4e15-9710-bef4ce494bf7" d="M230.93,235.77V212.42a2,2,0,0,0-1.22-2.08,1.61,1.61,0,0,0-1.48,0L207,222.61a5.38,5.38,0,0,0-1.1,1.24,6.82,6.82,0,0,0-1.63,4v23.35a2.59,2.59,0,0,0,.79,2.12,1.71,1.71,0,0,0,1.89-.05L228.26,241A6.52,6.52,0,0,0,230.93,235.77Z"/>
              <path class="a4f9674a-3724-4ffb-86bf-37c532f73166" d="M206.85,218.25l21.29-12.16a6.77,6.77,0,0,0,2.67-5.35V177.51c0-2.06-1.21-3-2.67-2.06l-21.29,12.16a7,7,0,0,0-2.67,5.35v23.23C204.18,218.25,205.4,219.23,206.85,218.25Z"/>
              <path class="bd273aec-0ca7-4f17-a50e-4e13a0508a3f" d="M206.85,183.23,228.14,171a6.53,6.53,0,0,0,2.67-5.23V142.37c0-2-1.21-2.92-2.67-2.07l-21.29,12.28a6.59,6.59,0,0,0-2.67,5.23v23.35C204.18,183.11,205.4,184.08,206.85,183.23Z"/>
            </g>
          </g>
        </g>
        <g>
          <polygon class="baab427a-cfa8-4f9f-b9d1-463f0bfa9795" points="213.68 232.52 196.53 242.49 127.06 120.25 111.24 109.96 135.35 96.13 139.01 108.86 213.68 232.52"/>
          <path class="f0ae5eca-d923-4e68-8198-04af84836e4a" d="M227.66,224.68l-13,7.29c-.61.37-2.43,1.34-2.43,1.34-4.5,2.31-8.64,3-11.31-.61L131.35,111.21c-3.29-6.44-4-10.45.85-13.25l11.19-6.32.36-.25.61-.24,1.58-1h.25c4.49-2.44,8.63-3.17,11.3.6l3.29,4.63.73,1a2.51,2.51,0,0,1,.36.61l66.64,114.43C231.8,217.87,232.53,221.88,227.66,224.68Z"/>
          <g>
            <path class="f6f9d9aa-56eb-48aa-9ad7-71a94b25a602" d="M196.58,229.68l-66.69-114.5c-3.34-6.45-12.34-8.64-17.62-5.81L43.71,148.28c-5.47,3.54-6.74,9.77-1.78,19.1L104.46,277c3.94,6.74,10.5,11.16,16.1,8.68l75.22-42.76C200.57,240.17,199.92,236.13,196.58,229.68Z"/>
            <path class="a7d30d4d-b74c-4676-b433-a8360522101a" d="M152.63,140.37l-15.81-27.56c-1.1-1.91-1-4,.26-4.77l17.85-10.42c1.25-.72,3.15.25,4.26,2.16L175,127.34c1.1,1.92,1,4-.26,4.77l-17.85,10.42C155.64,143.25,153.74,142.29,152.63,140.37Z"/>
            <path class="a7d30d4d-b74c-4676-b433-a8360522101a" d="M175.93,181.15l-15.8-27.57c-1.11-1.91-1-4,.25-4.77l17.86-10.41c1.24-.73,3.15.24,4.25,2.15l15.81,27.57c1.1,1.91,1,4-.26,4.77l-17.85,10.42C178.94,184,177,183.06,175.93,181.15Z"/>
            <path class="a4f9674a-3724-4ffb-86bf-37c532f73166" d="M200,222.16l-15.8-27.57c-1.11-1.91-1-4.05.25-4.77L202.3,179.4c1.24-.72,3.15.25,4.25,2.16l15.81,27.57c1.1,1.91,1,4-.26,4.77l-17.85,10.41C203,225,201.1,224.07,200,222.16Z"/>
            <g>
              <path class="a4f9674a-3724-4ffb-86bf-37c532f73166" d="M46.4,166.38l15.58,28c1.12,2,3.38,2.86,5.05,1.89l19.09-11.09c1.66-1,2.1-3.38,1-5.4l-15.58-28c-1.12-2-3.38-2.86-5-1.89L47.39,161C45.72,162,45.28,164.36,46.4,166.38Z"/>
              <path class="a7d30d4d-b74c-4676-b433-a8360522101a" d="M75.16,149.67l15.58,28c1.12,2,3.38,2.86,5,1.89l19.09-11.09c1.67-1,2.11-3.38,1-5.39l-15.58-28c-1.12-2-3.38-2.86-5-1.89L76.15,144.27C74.48,145.24,74,147.66,75.16,149.67Z"/>
              <path class="f4978ed7-a222-4e15-9710-bef4ce494bf7" d="M103.9,133l15.58,28c1.12,2,3.38,2.86,5,1.89l19.09-11.09c1.66-1,2.1-3.38,1-5.39l-15.58-28c-1.12-2-3.38-2.86-5-1.89l-19.09,11.09C103.22,128.54,102.78,131,103.9,133Z"/>
              <path class="f4978ed7-a222-4e15-9710-bef4ce494bf7" d="M69.33,206.89l15.58,28c1.12,2,3.38,2.85,5,1.89l19.09-11.09c1.66-1,2.11-3.39,1-5.4l-15.58-28c-1.12-2-3.38-2.86-5-1.89L70.32,201.5C68.65,202.46,68.21,204.88,69.33,206.89Z"/>
              <path class="f4978ed7-a222-4e15-9710-bef4ce494bf7" d="M98.14,190.38l15.58,28c1.12,2,3.38,2.86,5,1.89l19.08-11.09c1.67-1,2.11-3.38,1-5.39l-15.58-28c-1.12-2-3.38-2.86-5-1.89L99.13,185C97.46,186,97,188.37,98.14,190.38Z"/>
              <path class="f4978ed7-a222-4e15-9710-bef4ce494bf7" d="M126.88,173.68l15.58,28c1.12,2,3.38,2.86,5,1.89l19.09-11.09c1.66-1,2.11-3.38,1-5.39l-15.58-28c-1.12-2-3.38-2.86-5-1.89l-19.09,11.09C126.2,169.25,125.76,171.67,126.88,173.68Z"/>
              <path class="bbe01226-469d-4af4-b89a-a0f93f904271" d="M92.4,248.11l15.58,28c1.12,2,3.38,2.86,5,1.89l19.08-11.09c1.67-1,2.11-3.38,1-5.39l-15.58-28c-1.12-2-3.38-2.86-5-1.89L93.39,242.71C91.72,243.68,91.28,246.1,92.4,248.11Z"/>
              <path class="bbe01226-469d-4af4-b89a-a0f93f904271" d="M121.16,230.84l15.58,28c1.12,2,3.38,2.86,5,1.89l19.09-11.09c1.67-1,2.11-3.39,1-5.4l-15.58-28c-1.12-2-3.38-2.86-5.05-1.89l-19.09,11.09C120.48,226.42,120,228.83,121.16,230.84Z"/>
              <path class="bd273aec-0ca7-4f17-a50e-4e13a0508a3f" d="M149.9,214.14l15.58,28c1.12,2,3.38,2.86,5.05,1.89l19.09-11.09c1.66-1,2.1-3.39,1-5.4l-15.58-28c-1.12-2-3.38-2.86-5-1.89l-19.09,11.09C149.22,209.72,148.78,212.13,149.9,214.14Z"/>
            </g>
          </g>
        </g>
      </g>
    </g>
  </g>
</svg>
