<svg xmlns="http://www.w3.org/2000/svg" viewBox="0 0 306.13 343.38">
  <defs>
    <style>
      .ff181631-5d1c-4500-997e-213ed3952903 {
        fill: #009a4d;
      }

      .adb76be0-4759-419b-b8a7-f48df7aa4fe6 {
        fill: #fff;
      }

      .a818b1a0-9627-4f74-8a3e-7919f0d22cb5 {
        fill: #434242;
      }

      .f76316a3-1048-4f8a-bccd-e7c3dd5a83e1 {
        fill: #212121;
      }

      .ff9c21c4-c64f-4f85-9ff1-ab08cbd8d812 {
        fill: #2c2c2c;
      }

      .f4c2c53f-cf71-4972-ac19-82dd7503efb5 {
        fill: #434da1;
      }

      .bf89764f-b3d6-4a93-a5d5-d5d7b3c568fd {
        fill: #ffc906;
      }

      .b6b40bfe-6d15-4f6a-a57a-881a57feca39 {
        fill: #1d1d1d;
      }

      .ed87e190-205d-4f15-b6dc-966b843ac7f6 {
        fill: #181818;
      }

      .e1ca0626-3eab-4bd4-b18e-4d2246261b64 {
        fill: #f26640;
      }

      .bba9a470-8121-4bd6-8390-769db3c197df {
        fill: #a6a6a6;
      }

      .bf1ba31b-0c5c-4f03-9d8a-455571913842 {
        fill: #232323;
      }

      .fb35bfe5-ab78-4cb8-aab2-2f4e1262db83 {
        fill: #7c7c7c;
      }

      .b618cc7a-d25d-4803-b873-14f2713ecd5f {
        fill: #ee2e30;
      }
    </style>
  </defs>
  <title>-</title>
  <g id="e703e4ea-4111-4c6f-8e0f-0bee7c084076" data-name="Layer 13">
    <g>
      <g>
        <path class="ff181631-5d1c-4500-997e-213ed3952903" d="M11.61,210.28a4.08,4.08,0,0,1,.54.22A3.41,3.41,0,0,0,11.61,210.28Z"/>
        <path class="adb76be0-4759-419b-b8a7-f48df7aa4fe6" d="M306.13,104.24l-.19,126.92v10.3a37.51,37.51,0,0,1-2.62,12.18c-.56,1.13-.94,2.45-1.5,3.77l-1.7,2.24a31.36,31.36,0,0,1-3.18,4.12c-.94.94-2.24,1.88-3.37,2.82a26.55,26.55,0,0,1-3.56,2.62L241.82,297l-56,32.44-17.05,9.73a33.49,33.49,0,0,1-4.5,1.88c-.11,0-.21.07-.32.09a31.91,31.91,0,0,1-11.84,2.28A31.3,31.3,0,0,1,142,341.2l-.65-.19c-1.5-.75-3-1.13-4.31-1.88l-17-9.73L16.49,269.59l-.75-.38a37.33,37.33,0,0,1-3.18-2.62,27.61,27.61,0,0,1-3.75-3A26.93,26.93,0,0,1,6,259.84c-.57-.95-1.49-1.68-2.06-2.62a27.18,27.18,0,0,1-1.31-3.58A32.75,32.75,0,0,1,0,241.46V101.62A31.91,31.91,0,0,1,9.35,79.13a30.64,30.64,0,0,1,6.2-4.88.66.66,0,0,1,.38-.19l.18-.19,6.2-3.55,17.05-9.76c0-.18,0-.18.19-.18L137.22,4.12a30.89,30.89,0,0,1,7.68-3,16.66,16.66,0,0,1,2.64-.57c1.86-.18,3.93-.56,5.8-.56a20.28,20.28,0,0,1,3.18.38A35.09,35.09,0,0,1,161,.94c1.48.57,3,1.13,4.66,1.89a22.66,22.66,0,0,1,3.21,1.29L290.2,74.25a35.63,35.63,0,0,1,6,4.69c.1.1.18.21.27.31-.09-.1-.17-.21-.25-.31a32,32,0,0,1,9.83,23v.71C306.08,103.15,306.13,103.7,306.13,104.24Z"/>
      </g>
      <g>
        <g>
          <polygon class="a818b1a0-9627-4f74-8a3e-7919f0d22cb5" points="62.28 202.6 79.14 212.4 147.43 92.24 162.98 82.13 139.28 68.53 135.69 81.04 62.28 202.6"/>
          <path class="f76316a3-1048-4f8a-bccd-e7c3dd5a83e1" d="M48.54,194.89l12.79,7.17c.6.36,2.39,1.32,2.39,1.32,4.42,2.27,8.49,3,11.12-.6L143.21,83.36c3.23-6.34,3.95-10.28-.83-13l-11-6.22-.36-.24-.6-.24-1.55-1h-.24c-4.42-2.39-8.49-3.11-11.12.6l-3.22,4.54-.72,1a2.62,2.62,0,0,0-.36.6L47.7,181.86C44.47,188.2,43.76,192.14,48.54,194.89Z"/>
          <g>
            <path class="ff9c21c4-c64f-4f85-9ff1-ab08cbd8d812" d="M79.09,199.81,144.65,87.25c3.28-6.34,12.13-8.49,17.32-5.7l67.39,38.24c5.38,3.48,6.63,9.6,1.75,18.78L169.64,246.3c-3.87,6.63-10.32,11-15.82,8.54l-73.94-42C75.17,210.12,75.81,206.15,79.09,199.81Z"/>
            <path class="f4c2c53f-cf71-4972-ac19-82dd7503efb5" d="M122.29,112l15.54-27.09c1.09-1.88,1-4-.25-4.69L120,70c-1.22-.71-3.1.24-4.18,2.12L100.31,99.21c-1.09,1.88-1,4,.25,4.69l17.55,10.24C119.34,114.85,121.21,113.9,122.29,112Z"/>
            <path class="bf89764f-b3d6-4a93-a5d5-d5d7b3c568fd" d="M99.39,152.1,114.92,125c1.09-1.88,1-4-.25-4.69L97.12,110.08c-1.22-.71-3.09.24-4.18,2.12L77.4,139.29c-1.08,1.88-1,4,.25,4.69L95.2,154.22C96.43,154.93,98.3,154,99.39,152.1Z"/>
            <path class="bf89764f-b3d6-4a93-a5d5-d5d7b3c568fd" d="M75.74,192.41l15.54-27.09c1.08-1.88,1-4-.26-4.69L73.47,150.39c-1.22-.71-3.09.24-4.18,2.12L53.75,179.6c-1.08,1.88-1,4,.25,4.69l17.55,10.24C72.78,195.24,74.65,194.29,75.74,192.41Z"/>
          </g>
        </g>
        <g>
          <g>
            <path class="b6b40bfe-6d15-4f6a-a57a-881a57feca39" d="M96.38,134.29l30.28,17,99.45-57.42L196.25,76.65,96.38,134.29Zm72.08-39.44,20.31-12.28a6.49,6.49,0,0,1,6-.37l21.16,12.65c1.58.85,1.33,2.56-.49,3.53l-20.31,12.4a6.84,6.84,0,0,1-6,.25L168,98.38C166.51,97.53,166.63,96,168.46,94.85ZM138.3,112.48l20.31-11.91a6.49,6.49,0,0,1,6-.37l21.16,12.28c1.46.86,1.33,2.44-.49,3.53l-20.31,11.8a6.52,6.52,0,0,1-6,.36l-21.16-12.28C136.23,115,136.47,113.46,138.3,112.48Zm-30.16,16.91,20.31-11.8a6.55,6.55,0,0,1,6-.36l21.16,12.28c1.58.85,1.33,2.43-.37,3.41l-20.31,11.91a6.52,6.52,0,0,1-6,.37l-21.16-12.28C106.19,132.06,106.44,130.48,108.14,129.39Z"/>
            <path class="ed87e190-205d-4f15-b6dc-966b843ac7f6" d="M126.66,151.33l-30.28-17v114l30.23,17.47V151.36Zm-1.31,103.55a2.52,2.52,0,0,1-.85,2.13c-.17.13-.45-.05-.66,0-.4.06-.77.25-1.26,0l-21.19-12.24s0,0,0,0l0,0c-.32-.18-.54-.63-.83-.94a6.66,6.66,0,0,1-1.88-4.28v-23.3a2.6,2.6,0,0,1,.82-2.14,1.61,1.61,0,0,1,1.89,0l21.28,12.28c.21.12.34.44.53.62a6.62,6.62,0,0,1,2.21,4.65Zm.18-35c0,2-1.23,2.9-2.62,2.13-.07,0-.12,0-.2,0l-21.2-12.24a6.62,6.62,0,0,1-2.76-5.27v-23.3c0-.06,0-.06,0-.12a2.58,2.58,0,0,1,.76-2h0a1.66,1.66,0,0,1,1.91,0h0l.44.26,20.78,11.94a6.38,6.38,0,0,1,1.91,2.22l0,0a6.59,6.59,0,0,1,.87,3.1Zm0-35c0,1.83-1.1,2.5-2.35,2.08-.18,0-.29.1-.47,0l-21.2-12.24a6.62,6.62,0,0,1-2.76-5.27V146.1a2.15,2.15,0,0,1,1.1-2.13,1.7,1.7,0,0,1,1.72,0l20.23,11.75.91.52h0a6.86,6.86,0,0,1,2.8,5.23Z"/>
            <path class="e1ca0626-3eab-4bd4-b18e-4d2246261b64" d="M128.93,145.2a6.52,6.52,0,0,0,6-.37l20.31-11.91c1.7-1,2-2.56.37-3.41l-21.16-12.28a6.55,6.55,0,0,0-6,.36l-20.31,11.8c-1.7,1.09-2,2.67-.37,3.53Z"/>
            <path class="bf89764f-b3d6-4a93-a5d5-d5d7b3c568fd" d="M159,128.17a6.52,6.52,0,0,0,6-.36L185.24,116c1.82-1.09,1.95-2.67.49-3.53L164.57,100.2a6.49,6.49,0,0,0-6,.37L138.3,112.48c-1.83,1-2.07,2.56-.49,3.41Z"/>
            <path class="bba9a470-8121-4bd6-8390-769db3c197df" d="M189.13,111a6.84,6.84,0,0,0,6-.25l20.31-12.4c1.82-1,2.07-2.68.49-3.53L194.73,82.2a6.49,6.49,0,0,0-6,.37L168.46,94.85c-1.83,1.1-2,2.68-.49,3.53Z"/>
            <path class="bba9a470-8121-4bd6-8390-769db3c197df" d="M125.29,231.54a6.79,6.79,0,0,0-2.15-4.61c-.2-.18-.34-.5-.56-.63l-21.19-12.24a1.73,1.73,0,0,0-2-.05,2.6,2.6,0,0,0-.79,2.09v23.35a6.58,6.58,0,0,0,1.85,4.28c.3.32.52.76.85,1L122.61,257a1.6,1.6,0,0,0,1.23,0c.21,0,.48.14.66,0a2.57,2.57,0,0,0,.79-2.12Z"/>
            <path class="f4c2c53f-cf71-4972-ac19-82dd7503efb5" d="M125.47,219.91v-23.3a6.8,6.8,0,0,0-.81-3.07l0,0a5.46,5.46,0,0,0-1.93-2.18l-20.76-12-.38-.22s-.07,0-.1,0a1.71,1.71,0,0,0-1.9-.05v0a2.58,2.58,0,0,0-.76,2,.61.61,0,0,0,0,.13v23.23a6.54,6.54,0,0,0,2.8,5.35l21.16,12.16c.07,0,.12,0,.18.07C124.33,222.66,125.47,221.83,125.47,219.91Z"/>
            <path class="f4c2c53f-cf71-4972-ac19-82dd7503efb5" d="M125.47,184.82V161.53a6.6,6.6,0,0,0-2.75-5.27l-.92-.53L101.51,144a1.65,1.65,0,0,0-1.66,0,2.13,2.13,0,0,0-1.08,2.08V169.4a6.32,6.32,0,0,0,2.8,5.23l21.16,12.28c.17.1.28,0,.45,0C124.45,187.33,125.47,186.62,125.47,184.82Z"/>
          </g>
          <g>
            <path class="bf1ba31b-0c5c-4f03-9d8a-455571913842" d="M255.61,115.91a6.41,6.41,0,0,1-2.57,2.88l-.18.11-.18.13a4.31,4.31,0,0,1,4.43-.11c2.16,1.22,3.65,4.38,3.85,8.11v-1a20.76,20.76,0,0,0-6.38-14.89C255.94,112.68,256.34,114.29,255.61,115.91Z"/>
            <path d="M162.73,279.21a7.68,7.68,0,0,1-1.11-3.64c-.41,5.1-3.52,6.67-7.26,5.61a20.48,20.48,0,0,0,6.71,1.51,20.8,20.8,0,0,0,7.74-1.52C166.19,281.86,164,281.29,162.73,279.21Z"/>
            <path class="fb35bfe5-ab78-4cb8-aab2-2f4e1262db83" d="M154.72,167.08c4.5,3,6.94,6,6.94,12,0-4.62,1.58-9.12,6.08-12C162.63,170.12,159.47,169.64,154.72,167.08Z"/>
            <path class="b6b40bfe-6d15-4f6a-a57a-881a57feca39" d="M151.44,165.26l3.28,1.82c4.75,2.56,7.91,3,13,0l3.16-1.7,81.35-46.21h.25l.18-.14a1.89,1.89,0,0,0-.21.09l.39-.22.12-.1a6.6,6.6,0,0,0,2.63-2.89,4.3,4.3,0,0,0-1-4.76h0a23.76,23.76,0,0,0-3.9-3.05L226.12,93.91l-99.45,57.41Zm47.31-52.9,20.31-12.29a6.43,6.43,0,0,1,5.05-.47c.31.1.72.05,1,.2l0,0h0l21.16,12.53a1.73,1.73,0,0,1,.77,1.46,2,2,0,0,1-.79,1.57c-.2.2-.19.44-.47.61l-19.66,11.89-.66.41a6.43,6.43,0,0,1-1.84.53,5.91,5.91,0,0,1-4.11-.18l-21.08-12.6-.11-.06a1.74,1.74,0,0,1-1-1.74A2.67,2.67,0,0,1,198.75,112.36Zm-30.28,17,20.3-11.79a6.49,6.49,0,0,1,6-.37l21.16,12.28c1.58.85,1.34,2.44-.48,3.41L195.1,144.83a6.52,6.52,0,0,1-6,.36L168,132.91C166.52,132.06,166.64,130.48,168.47,129.38Zm-9.86,4.87a6.13,6.13,0,0,1,6-.25l21.16,12.16c1.46.86,1.34,2.44-.48,3.53l-20.31,11.92a6.88,6.88,0,0,1-6,.24l-21.16-12.16c-1.58-1-1.34-2.43.49-3.53Z"/>
            <path class="ed87e190-205d-4f15-b6dc-966b843ac7f6" d="M161.6,275.38v.09s0,.06,0,.1,0-.08,0-.13V179.12c0-6.08-2.44-9-6.94-12l-3.28-1.82-24.77-13.94-.06,0V265.73l13.64,7.88,11.07,6.32c.85.49,1.82.73,2.8,1.22a2,2,0,0,0,.24,0c-.09,0-.19-.05-.28-.09C158,282.32,161.26,280.76,161.6,275.38Zm-32-111.95c0-2.06,1.34-2.92,2.8-2.06l21.16,12.28a6.31,6.31,0,0,1,2.79,5.23v23.35c0,1.94-1.21,2.91-2.79,2.06L132.35,192a6.63,6.63,0,0,1-2.8-5.23Zm0,35.15a2.61,2.61,0,0,1,.85-2.17h0a1.59,1.59,0,0,1,1.76,0c.07,0,.11,0,.18,0l21.2,12.24a6.6,6.6,0,0,1,2.76,5.28v23.3s0,0,0,0c0,2-1.17,2.88-2.67,2,0,0,0,0-.07,0l-3.6-2.08-17.6-10.11a6.38,6.38,0,0,1-1.44-1.68,5.47,5.47,0,0,1-.62-1,6.38,6.38,0,0,1-.74-2.66Zm22.5,75-19.7-11.43a6.63,6.63,0,0,1-2.8-5.23V233.6c0-1.94,1.34-2.92,2.8-2.07l21.16,12.29a6.31,6.31,0,0,1,2.79,5.23v23.34c0,.49-.24.73-.48,1.22a1.49,1.49,0,0,1-2.31.85Z"/>
            <path class="bf89764f-b3d6-4a93-a5d5-d5d7b3c568fd" d="M189.14,145.19a6.52,6.52,0,0,0,6-.36l20.31-11.92c1.82-1,2.06-2.56.48-3.41l-21.16-12.28a6.49,6.49,0,0,0-6,.37l-20.3,11.79c-1.83,1.1-1.95,2.68-.49,3.53Z"/>
            <path class="b618cc7a-d25d-4803-b873-14f2713ecd5f" d="M137.82,149.69,159,161.85a6.88,6.88,0,0,0,6-.24l20.31-11.92c1.82-1.09,1.94-2.67.48-3.53L164.57,134a6.13,6.13,0,0,0-6,.25l-20.3,11.91C136.48,147.26,136.24,148.72,137.82,149.69Z"/>
            <path class="bf89764f-b3d6-4a93-a5d5-d5d7b3c568fd" d="M219.11,100.1,198.8,112.4a2.71,2.71,0,0,0-1.45,1.85,1.83,1.83,0,0,0,1,1.75l.08,0,21.06,12.55a5.86,5.86,0,0,0,4.13.23,6.51,6.51,0,0,0,1.85-.54l.65-.4L245.8,116c.29-.18.27-.41.48-.61a2.12,2.12,0,0,0,.79-1.57,1.7,1.7,0,0,0-.82-1.41L225.13,99.83c-.28-.17-.69-.12-1-.23A6.49,6.49,0,0,0,219.11,100.1Z"/>
            <path class="bba9a470-8121-4bd6-8390-769db3c197df" d="M155.82,273.61c.24-.49.48-.73.48-1.22V249.05c0-2.07-1.21-4.38-5.45-6.78L129.69,230c1.2.69-.14,1.67-.14,3.61V257a6.63,6.63,0,0,0,2.8,5.23l19.7,11.43,1.46.85A1.49,1.49,0,0,0,155.82,273.61Z"/>
            <path class="bba9a470-8121-4bd6-8390-769db3c197df" d="M129.59,221.84a6.7,6.7,0,0,0,.7,2.63,5.69,5.69,0,0,0,.62,1,5.27,5.27,0,0,0,1.44,1.63L150,237.27l3.56,2,.11,0c1.47.8,2.64-.08,2.67-2,0,0,0,0,0-.07V214c0-2.06-1.21-4.5-2.79-5.35l-21.16-12.16c-.06,0-.12,0-.18-.06a1.69,1.69,0,0,0-1.76,0h0a2.59,2.59,0,0,0-.81,2.13Z"/>
            <path class="ff181631-5d1c-4500-997e-213ed3952903" d="M153.51,204.29c1.58.85,2.79-.12,2.79-2.06V178.88a6.31,6.31,0,0,0-2.79-5.23l-21.16-12.28c-1.46-.86-2.8,0-2.8,2.06v23.35a6.63,6.63,0,0,0,2.8,5.23Z"/>
            <path class="ff9c21c4-c64f-4f85-9ff1-ab08cbd8d812" d="M261,127v.53c-.06-4-1.61-7.35-3.85-8.64a4.27,4.27,0,0,0-4.61.25l-81.6,46.21-3.16,1.7c-4.5,2.92-6.08,7.42-6.08,12v96.32a7.66,7.66,0,0,0,1.07,3.77c1.31,2.11,3.58,2.69,6.24,1.91l-.16.05c.05,0,.09,0,.14,0a19.66,19.66,0,0,0,2.92-1.22l11.07-6.32,36.36-21,31.25-18a15.63,15.63,0,0,0,2.31-1.7c.73-.61,1.58-1.21,2.19-1.82a21.94,21.94,0,0,0,2.07-2.68l1.09-1.46c.37-.85.61-1.7,1-2.43a24.17,24.17,0,0,0,1.7-7.9v-6.69l.12-82.33C261,127.38,261,127.21,261,127ZM197.9,160.76a6.53,6.53,0,0,1,2.67-5.23l21.28-12.28c1.46-.86,2.68.12,2.68,2.06v23.35a6.54,6.54,0,0,1-2.68,5.23l-21.28,12.28c-1.46.86-2.67-.12-2.67-2.06Zm-4.14,95.46a6.32,6.32,0,0,1-2.8,5.23l-20.91,12.16-.25.12a1.59,1.59,0,0,1-2.06-.12,3.1,3.1,0,0,1-.73-1.94V248.32a6.31,6.31,0,0,1,2.79-5.23L191,230.8c1.58-.85,2.8,0,2.8,2.07Zm0-35.14a6.75,6.75,0,0,1-2.8,5.35l-15.47,8.89-5.7,3.29a1.69,1.69,0,0,1-2,0,2.5,2.5,0,0,1-.82-2.13V213.17a6.52,6.52,0,0,1,2.27-4.64c.18-.17.31-.47.51-.58l.69-.4L191,195.66c1.45-.78,2.47.1,2.66,1.81,0,.14.13.17.13.33h0s0,0,0,0Zm0-35a6.49,6.49,0,0,1-2.8,5.23L169.8,203.56c-1.58.86-2.79-.12-2.79-2.06V178.15a6.31,6.31,0,0,1,2.79-5.23L191,160.64c1.58-.86,2.8,0,2.8,2.06Zm4.14,9.85a7,7,0,0,1,2.67-5.35l21.28-12.16c1.46-1,2.68,0,2.68,2.07v23.23a6.79,6.79,0,0,1-2.68,5.35L200.57,221.2c-1.46,1-2.67,0-2.67-2.07Zm26.81,42.8a6.6,6.6,0,0,1-2.77,5.28l-21.19,12.24s0,0-.06,0h0a1.64,1.64,0,0,1-1.89,0,2.6,2.6,0,0,1-.82-2.14v-23.3a6.65,6.65,0,0,1,1.67-4,5.06,5.06,0,0,1,1-1.21L222,213.29a1.51,1.51,0,0,1,1.46,0,2,2,0,0,1,1.28,2.13ZM255.54,198v23.26a6.62,6.62,0,0,1-2.76,5.28h0l0,0-6.68,3.84-14.48,8.36c-.05,0-.08,0-.13,0-1.51.84-2.67-.1-2.67-2.11V213.41c0-2.06,1.22-4.5,2.8-5.35l8-4.61,13.16-7.6c.05,0,.08,0,.13,0,1.48-.78,2.59.13,2.62,2.07,0,0,0,0,0,0Zm0-11.8a6.49,6.49,0,0,1-2.8,5.23l-21.16,12.29c-1.58.85-2.8-.13-2.8-2.07V178.27a6.32,6.32,0,0,1,2.8-5.23l21.16-12.28c1.58-.85,2.8,0,2.8,2.06Zm0-35.14a6.72,6.72,0,0,1-2.8,5.35l-21.16,12.16c-1.58.85-2.8,0-2.8-2.07V143.12a6.49,6.49,0,0,1,2.8-5.22l21.16-12.29c1.58-.85,2.8.12,2.8,2.19Z"/>
            <path class="bba9a470-8121-4bd6-8390-769db3c197df" d="M252.91,195.84c-.06,0-.11,0-.17.06l-13.12,7.55-8,4.64a6.59,6.59,0,0,0-2.76,5.27v23.3c0,2,1.18,2.83,2.63,2.09.05,0,.09,0,.13,0l14.48-8.32,6.71-3.88a6.69,6.69,0,0,0,2.77-5.31V198s0,0,0-.06C255.51,196,254.36,195.12,252.91,195.84Z"/>
            <path class="b618cc7a-d25d-4803-b873-14f2713ecd5f" d="M252.74,160.76,231.58,173a6.32,6.32,0,0,0-2.8,5.23v23.35c0,1.94,1.22,2.92,2.8,2.07l21.16-12.29a6.49,6.49,0,0,0,2.8-5.23V162.82C255.54,160.76,254.32,159.91,252.74,160.76Z"/>
            <path class="ff181631-5d1c-4500-997e-213ed3952903" d="M252.74,125.61,231.58,137.9a6.49,6.49,0,0,0-2.8,5.22v23.35c0,2.07,1.22,2.92,2.8,2.07l21.16-12.16a6.72,6.72,0,0,0,2.8-5.35V127.8C255.54,125.73,254.32,124.76,252.74,125.61Z"/>
            <path class="f4c2c53f-cf71-4972-ac19-82dd7503efb5" d="M224.65,238.71V215.36a2,2,0,0,0-1.22-2.08,1.61,1.61,0,0,0-1.49,0l-21.19,12.24a4.92,4.92,0,0,0-1.1,1.23,6.88,6.88,0,0,0-1.63,4v23.35a2.58,2.58,0,0,0,.78,2.12,1.71,1.71,0,0,0,1.89,0L222,243.94A6.54,6.54,0,0,0,224.65,238.71Z"/>
            <path class="b618cc7a-d25d-4803-b873-14f2713ecd5f" d="M200.57,221.2,221.85,209a6.79,6.79,0,0,0,2.68-5.35V180.46c0-2.07-1.22-3-2.68-2.07l-21.28,12.16a7,7,0,0,0-2.67,5.35v23.23C197.9,221.2,199.11,222.17,200.57,221.2Z"/>
            <path class="ff181631-5d1c-4500-997e-213ed3952903" d="M200.57,186.17l21.28-12.28a6.54,6.54,0,0,0,2.68-5.23V145.31c0-1.94-1.22-2.92-2.68-2.06l-21.28,12.28a6.53,6.53,0,0,0-2.67,5.23v23.35C197.9,186.05,199.11,187,200.57,186.17Z"/>
            <path class="b618cc7a-d25d-4803-b873-14f2713ecd5f" d="M191,230.8,169.8,243.09a6.31,6.31,0,0,0-2.79,5.23v23.35a3.1,3.1,0,0,0,.73,1.94,1.59,1.59,0,0,0,2.06.12l.25-.12L191,261.45a6.32,6.32,0,0,0,2.8-5.23V232.87C193.76,230.8,192.54,230,191,230.8Z"/>
            <path class="f4c2c53f-cf71-4972-ac19-82dd7503efb5" d="M193.75,221.1V197.81c0-.16-.11-.2-.13-.34-.17-1.72-1.23-2.57-2.64-1.76l-20.5,11.84-.68.39c-.21.11-.33.42-.52.59a6.61,6.61,0,0,0-2.26,4.7v23.3a2.57,2.57,0,0,0,.81,2.12,1.82,1.82,0,0,0,2-.06l5.69-3.27L191,226.37A6.6,6.6,0,0,0,193.75,221.1Z"/>
            <path class="bf89764f-b3d6-4a93-a5d5-d5d7b3c568fd" d="M191,160.64,169.8,172.92a6.31,6.31,0,0,0-2.79,5.23V201.5c0,1.94,1.21,2.92,2.79,2.06L191,191.28a6.49,6.49,0,0,0,2.8-5.23V162.7C193.76,160.64,192.54,159.78,191,160.64Z"/>
          </g>
        </g>
      </g>
    </g>
  </g>
</svg>
