<svg xmlns="http://www.w3.org/2000/svg" viewBox="0 0 306.13 343.38">
  <defs>
    <style>
      .a65bd928-c475-4ba1-a620-2714385fa6a8 {
        fill: #009a4d;
      }

      .a1027745-512b-4971-8963-96c6e71b4dc8 {
        fill: #fff;
      }

      .a2046a84-8905-414d-b37f-829ddaa05bb2 {
        fill: #232323;
      }

      .e39f67a7-8b11-4eff-bccd-74e96a119400 {
        fill: #7c7c7c;
      }

      .e7de2096-c9f5-45da-806f-ff221a00758a {
        fill: #1d1d1d;
      }

      .a432c418-89a8-4030-b64e-230c0c1d7d88 {
        fill: #181818;
      }

      .b5c328e6-c4ee-47a7-92a4-ef5f1d796578 {
        fill: #ffc906;
      }

      .ac0f6fec-5a91-4c4a-9d49-60accf36d0cc {
        fill: #b1b3b6;
      }

      .b1554547-dd4a-4e12-adee-dcf0e416be21 {
        fill: #434da1;
      }

      .fe9ffb61-bcf2-4c0e-8128-08aa1f3fadf4 {
        fill: #ee2d2f;
      }

      .fc62bb08-32a6-4ff9-be5d-0783bb57a705 {
        fill: #f26640;
      }

      .bc9180b0-a4a4-4757-b791-e1ec5104ebd5 {
        fill: #2c2c2c;
      }
    </style>
  </defs>
  <title>-</title>
  <g id="b44f7f0c-abf9-4db8-bb11-2b93a3970a23" data-name="Layer 13">
    <g>
      <g>
        <path class="a65bd928-c475-4ba1-a620-2714385fa6a8" d="M11.61,210.28a4.08,4.08,0,0,1,.54.22A3.41,3.41,0,0,0,11.61,210.28Z"/>
        <path class="a1027745-512b-4971-8963-96c6e71b4dc8" d="M306.13,104.24l-.19,126.92v10.3a37.51,37.51,0,0,1-2.62,12.18c-.56,1.13-.94,2.45-1.5,3.77l-1.7,2.24a31.36,31.36,0,0,1-3.18,4.12c-.94.94-2.24,1.88-3.37,2.82a26.55,26.55,0,0,1-3.56,2.62L241.82,297l-56,32.44-17.05,9.73a33.49,33.49,0,0,1-4.5,1.88c-.11,0-.21.07-.32.09a31.91,31.91,0,0,1-11.84,2.28A31.3,31.3,0,0,1,142,341.2l-.65-.19c-1.5-.75-3-1.13-4.31-1.88l-17-9.73L16.49,269.59l-.75-.38a37.33,37.33,0,0,1-3.18-2.62,27.61,27.61,0,0,1-3.75-3A26.93,26.93,0,0,1,6,259.84c-.57-.95-1.49-1.68-2.06-2.62a27.18,27.18,0,0,1-1.31-3.58A32.75,32.75,0,0,1,0,241.46V101.62A31.91,31.91,0,0,1,9.35,79.13a30.64,30.64,0,0,1,6.2-4.88.66.66,0,0,1,.38-.19l.18-.19,6.2-3.55,17.05-9.76c0-.18,0-.18.19-.18L137.22,4.12a30.89,30.89,0,0,1,7.68-3,16.66,16.66,0,0,1,2.64-.57c1.86-.18,3.93-.56,5.8-.56a20.28,20.28,0,0,1,3.18.38A35.09,35.09,0,0,1,161,.94c1.48.57,3,1.13,4.66,1.89a22.66,22.66,0,0,1,3.21,1.29L290.2,74.25a35.63,35.63,0,0,1,6,4.69c.1.1.18.21.27.31-.09-.1-.17-.21-.25-.31a32,32,0,0,1,9.83,23v.71C306.08,103.15,306.13,103.7,306.13,104.24Z"/>
      </g>
      <g>
        <path class="a2046a84-8905-414d-b37f-829ddaa05bb2" d="M243.44,119.71l-.57.32c4.45-2.68,8.3,2,8.4,8.36V126.9A20.53,20.53,0,0,0,245,112.15C247.06,114.53,247.22,117.22,243.44,119.71Z"/>
        <path d="M153,274.76v-.09c-.34,5.32-3.55,6.86-7.45,5.65a18.07,18.07,0,0,0,14.74,0C156.42,281.47,153.27,280,153,274.76Z"/>
        <path class="e39f67a7-8b11-4eff-bccd-74e96a119400" d="M159,167.5c-4.45,2.89-6,7.34-6,11.91,0-6-2.4-8.9-6.86-11.91C150.84,170,154,170.51,159,167.5Z"/>
        <path d="M64.79,109.13c-4.93,3.37-6,9.63-1.32,11.92-4.58-2.89-8.55,2-8.67,8.42V126.7a20.5,20.5,0,0,1,6-14.44A20.2,20.2,0,0,1,64.79,109.13Z"/>
        <path class="e7de2096-c9f5-45da-806f-ff221a00758a" d="M245,112.14a24.34,24.34,0,0,0-3.86-3l-77.86-45a14.64,14.64,0,0,0-2-.84c-1.09-.48-2.05-.84-3-1.2a23.76,23.76,0,0,0-2.89-.36,13.34,13.34,0,0,0-2-.24c-1.2,0-2.52.24-3.73.36a10.65,10.65,0,0,0-1.68.36,19.17,19.17,0,0,0-4.94,1.92L80.2,100.23c-.13,0-.13,0-.13.12l-10.95,6.26-4,2.28L65,109a.42.42,0,0,0-.24.12c-4.93,3.37-6,9.63-1.32,11.92l5.41,3,74,41.63,3.25,1.81c4.7,2.53,7.83,3,12.88,0l3.13-1.69,80.51-45.73h.24l.48-.36C247.23,117.2,247.11,114.55,245,112.14ZM185.74,83.5,206.68,96c1.56.85,1.32,2.53-.48,3.5l-20.1,12.27a6.81,6.81,0,0,1-5.9.24L159.26,99.51c-1.44-.85-1.32-2.41.48-3.5l20.1-12.15A6.45,6.45,0,0,1,185.74,83.5ZM176.35,117l-20.1,11.68a6.43,6.43,0,0,1-5.89.36l-20.94-12.16c-1.57-.84-1.33-2.4.48-3.37L150,101.67a6.45,6.45,0,0,1,5.9-.36l20.94,12.15C178.28,114.31,178.15,115.87,176.35,117ZM129.9,78.56,150,66.29a6.81,6.81,0,0,1,5.9-.24l20.94,12.51c1.45.85,1.32,2.41-.48,3.5l-20.1,12.15a6.43,6.43,0,0,1-5.89.36L129.42,82.06C127.85,81.21,128.09,79.53,129.9,78.56ZM100.05,96l20.1-11.79a6.83,6.83,0,0,1,5.9-.24L147,96c1.56,1,1.32,2.41-.37,3.5L126.53,111.3c-1.81,1.08-4.45,1.2-5.9.24l-20.94-12C98.13,98.66,98.37,97.1,100.05,96ZM89.46,129l-18-10.47-2.89-1.69c-1.56-.84-1.32-2.4.48-3.37l6.74-4,13.36-7.82a6.45,6.45,0,0,1,5.9-.36l20.94,12.15c1.44.85,1.32,2.41-.48,3.49l-20.1,11.68A6.48,6.48,0,0,1,89.46,129Zm31.17,16.85L99.69,133.68c-1.56-.84-1.32-2.4.36-3.49l20.1-11.67a6.48,6.48,0,0,1,5.9-.36L147,130.31c1.56.84,1.32,2.41-.37,3.37l-20.09,11.8A6.48,6.48,0,0,1,120.63,145.84Zm55.72,4.45-20.1,11.79a6.72,6.72,0,0,1-5.89.24l-20.94-12c-1.57-1-1.33-2.41.48-3.49L150,135a6,6,0,0,1,5.9-.24l20.94,12C178.28,147.64,178.15,149.21,176.35,150.29Zm29.85-16.61-20.1,11.8a6.45,6.45,0,0,1-5.9.36l-20.94-12.16c-1.44-.84-1.32-2.4.48-3.49l20.1-11.67a6.45,6.45,0,0,1,5.9-.36l20.94,12.15C208.24,131.15,208,132.72,206.2,133.68ZM236.28,117l-20.1,12.16a6.46,6.46,0,0,1-5.89.36L189.35,117c-1.57-1-1.33-2.52.36-3.61l20.1-12.15a6.32,6.32,0,0,1,6-.24l20.94,12.39C238.21,114.31,238,115.87,236.28,117Z"/>
        <path class="a432c418-89a8-4030-b64e-230c0c1d7d88" d="M146.14,167.5l-3.25-1.81-74-41.63-5.41-3c-4.58-2.89-8.55,2-8.67,8.42v87a21,21,0,0,0,1.69,7.82,17.62,17.62,0,0,0,.84,2.29c.36.6,1,1.08,1.32,1.68a19,19,0,0,0,1.81,2.41,18.13,18.13,0,0,0,2.41,1.92,23.37,23.37,0,0,0,2,1.69l.48.24,66.43,38.39,11,6.26c.85.48,1.81.72,2.77,1.2,3.85,1.2,7.1-.36,7.46-5.66V179.41C153,173.4,150.6,170.51,146.14,167.5Zm-24.91-3.61c0-2,1.33-2.89,2.77-2L144.94,174a6.26,6.26,0,0,1,2.77,5.17v23.11c0,1.92-1.21,2.89-2.77,2L124,192.17a6.58,6.58,0,0,1-2.77-5.18Zm0,34.78c0-2,1.33-3,2.77-2l20.94,12a6.48,6.48,0,0,1,2.77,5.29v23c0,2-1.21,3-2.77,2L124,227a7,7,0,0,1-2.77-5.3ZM86.57,237.06c0,2-1.2,3-2.76,2l-20.94-12c-1.57-.84-2.77-3.25-2.77-5.3v-23c0-2,1.2-3,2.77-2l20.94,12a6.65,6.65,0,0,1,2.76,5.29Zm0-34.66c0,1.92-1.2,2.89-2.76,2L62.87,192.29a6.41,6.41,0,0,1-2.77-5.18V164c0-2,1.2-2.89,2.77-2l20.94,12.16a6.25,6.25,0,0,1,2.76,5.17Zm0-34.78c0,2-1.2,3-2.76,2l-20.94-12a6.63,6.63,0,0,1-2.77-5.29v-23c0-2,1.2-3,2.77-2l3.61,2,17.33,10a6.48,6.48,0,0,1,2.76,5.29ZM117,254.39c0,2-1.2,2.89-2.65,2L93.31,244.28a6.48,6.48,0,0,1-2.65-5.18V216c0-1.93,1.21-2.89,2.65-2.05l21.06,12.16a6.64,6.64,0,0,1,2.65,5.17Zm.24-34.66c0,2-1.32,3-2.77,2l-20.94-12c-1.56-.84-2.76-3.25-2.76-5.3v-23c0-2.05,1.2-3,2.76-2.05l20.94,12a7,7,0,0,1,2.77,5.29Zm0-34.66c0,2-1.32,2.89-2.77,2L93.55,175a6.25,6.25,0,0,1-2.76-5.17V146.68c0-1.93,1.2-2.89,2.76-2.05l20.94,12.16a6.74,6.74,0,0,1,2.77,5.17Zm27.68,88.69-1.44-.84L124,261.61a6.58,6.58,0,0,1-2.77-5.18v-23.1c0-1.93,1.33-2.89,2.77-2.05l20.94,12.16a6.25,6.25,0,0,1,2.77,5.17v23.11c0,.48-.24.72-.48,1.2A1.48,1.48,0,0,1,144.94,273.76Z"/>
        <path class="b5c328e6-c4ee-47a7-92a4-ef5f1d796578" d="M206.2,133.68l-20.1,11.8a6.45,6.45,0,0,1-5.9.36l-20.94-12.16c-1.44-.84-1.32-2.4.48-3.49l20.1-11.67a6.45,6.45,0,0,1,5.9-.36l20.94,12.15C208.24,131.15,208,132.72,206.2,133.68Z"/>
        <path class="b5c328e6-c4ee-47a7-92a4-ef5f1d796578" d="M146.62,133.68l-20.09,11.8a6.48,6.48,0,0,1-5.9.36L99.69,133.68c-1.56-.84-1.32-2.4.36-3.49l20.1-11.67a6.48,6.48,0,0,1,5.9-.36L147,130.31C148.55,131.15,148.31,132.72,146.62,133.68Z"/>
        <path class="b5c328e6-c4ee-47a7-92a4-ef5f1d796578" d="M176.35,117l-20.1,11.68a6.43,6.43,0,0,1-5.89.36l-20.94-12.16c-1.57-.84-1.33-2.4.48-3.37L150,101.67a6.45,6.45,0,0,1,5.9-.36l20.94,12.15C178.28,114.31,178.15,115.87,176.35,117Z"/>
        <path class="ac0f6fec-5a91-4c4a-9d49-60accf36d0cc" d="M206.2,99.51l-20.1,12.27a6.81,6.81,0,0,1-5.9.24L159.26,99.51c-1.44-.85-1.32-2.41.48-3.5l20.1-12.15a6.45,6.45,0,0,1,5.9-.36L206.68,96C208.24,96.86,208,98.54,206.2,99.51Z"/>
        <path class="ac0f6fec-5a91-4c4a-9d49-60accf36d0cc" d="M176.35,150.29l-20.1,11.79a6.72,6.72,0,0,1-5.89.24l-20.94-12c-1.57-1-1.33-2.41.48-3.49L150,135a6,6,0,0,1,5.9-.24l20.94,12C178.28,147.64,178.15,149.21,176.35,150.29Z"/>
        <path class="b5c328e6-c4ee-47a7-92a4-ef5f1d796578" d="M189.31,116.94l20.95,12.48a6.39,6.39,0,0,0,5.91-.3L236.27,117c1.75-1.06,2-2.65.45-3.55l-20.95-12.48a6.36,6.36,0,0,0-5.91.3l-20.1,12.17C188,114.45,187.81,116,189.31,116.94Z"/>
        <path class="ac0f6fec-5a91-4c4a-9d49-60accf36d0cc" d="M115.46,117l-20.1,11.68a6.48,6.48,0,0,1-5.9.36l-18-10.47-2.89-1.69c-1.56-.84-1.32-2.4.48-3.37l6.74-4,13.36-7.82a6.45,6.45,0,0,1,5.9-.36l20.94,12.15C117.38,114.31,117.26,115.87,115.46,117Z"/>
        <path class="a65bd928-c475-4ba1-a620-2714385fa6a8" d="M146.62,99.51,126.53,111.3c-1.81,1.08-4.45,1.2-5.9.24l-20.94-12c-1.56-.85-1.32-2.41.36-3.5l20.1-11.79a6.83,6.83,0,0,1,5.9-.24L147,96C148.55,97,148.31,98.42,146.62,99.51Z"/>
        <path class="a65bd928-c475-4ba1-a620-2714385fa6a8" d="M176.35,82.06l-20.1,12.15a6.43,6.43,0,0,1-5.89.36L129.42,82.06c-1.57-.85-1.33-2.53.48-3.5L150,66.29a6.81,6.81,0,0,1,5.9-.24l20.94,12.51C178.28,79.41,178.15,81,176.35,82.06Z"/>
        <path class="ac0f6fec-5a91-4c4a-9d49-60accf36d0cc" d="M62.86,196.7c-1.51-.87-2.73.05-2.73,2.06v23.06A6.54,6.54,0,0,0,62.86,227l21,12.11c1.5.87,2.73-.05,2.73-2.06V214a6.57,6.57,0,0,0-2.73-5.22Z"/>
        <path class="b1554547-dd4a-4e12-adee-dcf0e416be21" d="M62.86,162c-1.51-.87-2.73.06-2.73,2.07v23.06a6.54,6.54,0,0,0,2.73,5.22l21,12.11c1.5.87,2.73,0,2.73-2.07v-23a6.55,6.55,0,0,0-2.73-5.22Z"/>
        <path class="fe9ffb61-bcf2-4c0e-8128-08aa1f3fadf4" d="M86.6,144.59v23c0,2-1.28,3-2.74,2.06l-21-12.09a6.67,6.67,0,0,1-2.73-5.23v-23c0-2,1.27-3,2.73-2.06l3.65,2.06,17.38,10A6.68,6.68,0,0,1,86.6,144.59Z"/>
        <path class="ac0f6fec-5a91-4c4a-9d49-60accf36d0cc" d="M93.37,214c-1.51-.88-2.73,0-2.73,2.06v23.06a6.54,6.54,0,0,0,2.73,5.22l21,12.11c1.51.87,2.73-.05,2.73-2.06V231.32a6.54,6.54,0,0,0-2.73-5.22Z"/>
        <path class="b1554547-dd4a-4e12-adee-dcf0e416be21" d="M93.49,179.38c-1.5-.87-2.73.05-2.73,2.06V204.5a6.57,6.57,0,0,0,2.73,5.22l21,12.11c1.51.87,2.74-.05,2.74-2.06V196.71a6.55,6.55,0,0,0-2.74-5.22Z"/>
        <path class="fc62bb08-32a6-4ff9-be5d-0783bb57a705" d="M93.49,144.66c-1.5-.87-2.73.06-2.73,2.07v23.05A6.59,6.59,0,0,0,93.49,175l21,12.11c1.51.87,2.74-.06,2.74-2.07V162a6.57,6.57,0,0,0-2.74-5.23Z"/>
        <path class="a65bd928-c475-4ba1-a620-2714385fa6a8" d="M147.71,248.61v23.11c0,.48-.24.72-.48,1.2a1.48,1.48,0,0,1-2.29.84l-1.44-.84L124,261.61a6.58,6.58,0,0,1-2.77-5.18v-23.1c0-1.93,1.33-2.89,2.77-2.05l20.94,12.16A6.25,6.25,0,0,1,147.71,248.61Z"/>
        <path class="b1554547-dd4a-4e12-adee-dcf0e416be21" d="M145,239c1.51.87,2.74-.06,2.74-2.07v-23a6.57,6.57,0,0,0-2.74-5.23l-21-12.11c-1.51-.87-2.74.06-2.74,2.07v23.05a6.57,6.57,0,0,0,2.74,5.23Z"/>
        <path class="b1554547-dd4a-4e12-adee-dcf0e416be21" d="M147.71,179.17v23.11c0,1.92-1.21,2.89-2.77,2L124,192.17a6.58,6.58,0,0,1-2.77-5.18v-23.1c0-2,1.33-2.89,2.77-2L144.94,174A6.26,6.26,0,0,1,147.71,179.17Z"/>
        <path class="bc9180b0-a4a4-4757-b791-e1ec5104ebd5" d="M242.9,120.08l-80.75,45.73L159,167.5c-4.45,2.89-6,7.34-6,11.91v95.31c.24,5.3,3.37,6.74,7.22,5.66a20.34,20.34,0,0,0,2.89-1.2l10.95-6.26,36-20.82L241,234.29a14.89,14.89,0,0,0,2.29-1.69c.72-.6,1.56-1.2,2.17-1.8a22.18,22.18,0,0,0,2-2.65l1.09-1.44c.36-.84.6-1.69,1-2.41a23.94,23.94,0,0,0,1.68-7.82v-6.62l.12-81.47C251.2,122.13,247.35,117.32,242.9,120.08Zm-54,41.16a6.47,6.47,0,0,1,2.64-5.17l21.06-12.16c1.45-.84,2.65.12,2.65,2.05v23.1a6.46,6.46,0,0,1-2.65,5.18l-21.06,12.15c-1.44.85-2.64-.12-2.64-2Zm-4.1,94.47a6.27,6.27,0,0,1-2.76,5.18l-20.7,12-.24.12a1.6,1.6,0,0,1-2-.12,3.1,3.1,0,0,1-.72-1.93v-23.1a6.25,6.25,0,0,1,2.77-5.18L182,230.56c1.56-.84,2.76,0,2.76,2Zm0-34.78a6.67,6.67,0,0,1-2.76,5.3l-20.94,12c-1.57.84-2.77,0-2.77-2V213.11a6.42,6.42,0,0,1,2.77-5.18L182,195.78c1.56-.84,2.76.12,2.76,2.17Zm0-34.66a6.44,6.44,0,0,1-2.76,5.18L161.07,203.6c-1.57.84-2.77-.12-2.77-2V178.45a6.22,6.22,0,0,1,2.77-5.17L182,161.12c1.56-.84,2.76,0,2.76,2Zm4.1,9.75a6.89,6.89,0,0,1,2.64-5.29l21.06-12c1.45-1,2.65,0,2.65,2.05v23a6.71,6.71,0,0,1-2.65,5.3l-21.06,12c-1.44,1-2.64,0-2.64-2Zm26.47,42.36a6.47,6.47,0,0,1-2.65,5.18l-21.06,12.15c-1.44.84-2.64,0-2.64-2.05v-23.1a6.68,6.68,0,0,1,2.64-5.18l21.06-12.15c1.45-.84,2.65.12,2.65,2Zm30.57-17.33a6.65,6.65,0,0,1-2.77,5.3l-20.94,12c-1.56,1-2.77,0-2.77-2v-23a6.5,6.5,0,0,1,2.77-5.3l20.94-12c1.57-1,2.77,0,2.77,2Zm0-34.66a6.41,6.41,0,0,1-2.77,5.18L222.2,203.72c-1.56.84-2.77-.12-2.77-2V178.57a6.25,6.25,0,0,1,2.77-5.17l20.94-12.16c1.57-.84,2.77,0,2.77,2Zm0-34.78a6.64,6.64,0,0,1-2.77,5.3l-20.94,12c-1.56.85-2.77,0-2.77-2V143.79a6.43,6.43,0,0,1,2.77-5.17l20.94-12.16c1.57-.84,2.77.12,2.77,2.17Z"/>
        <path class="fe9ffb61-bcf2-4c0e-8128-08aa1f3fadf4" d="M243.18,196l-21,12.11a6.55,6.55,0,0,0-2.74,5.22v23c0,2,1.23,2.94,2.74,2.07l21-12.11a6.57,6.57,0,0,0,2.73-5.22V198C245.91,196,244.68,195.09,243.18,196Z"/>
        <path class="fe9ffb61-bcf2-4c0e-8128-08aa1f3fadf4" d="M245.91,163.29v23.1a6.41,6.41,0,0,1-2.77,5.18L222.2,203.72c-1.56.84-2.77-.12-2.77-2V178.57a6.25,6.25,0,0,1,2.77-5.17l20.94-12.16C244.71,160.4,245.91,161.24,245.91,163.29Z"/>
        <path class="a65bd928-c475-4ba1-a620-2714385fa6a8" d="M245.91,128.63v23a6.64,6.64,0,0,1-2.77,5.3l-20.94,12c-1.56.85-2.77,0-2.77-2V143.79a6.43,6.43,0,0,1,2.77-5.17l20.94-12.16C244.71,125.62,245.91,126.58,245.91,128.63Z"/>
        <path class="b1554547-dd4a-4e12-adee-dcf0e416be21" d="M212.66,213.25l-21,12.12a6.53,6.53,0,0,0-2.74,5.22v23c0,2,1.23,2.94,2.74,2.07l21-12.11a6.55,6.55,0,0,0,2.74-5.22V215.32C215.4,213.31,214.17,212.38,212.66,213.25Z"/>
        <path class="fe9ffb61-bcf2-4c0e-8128-08aa1f3fadf4" d="M215.22,180.74v23a6.71,6.71,0,0,1-2.65,5.3l-21.06,12c-1.44,1-2.64,0-2.64-2V196a6.89,6.89,0,0,1,2.64-5.29l21.06-12C214,177.73,215.22,178.69,215.22,180.74Z"/>
        <path class="a65bd928-c475-4ba1-a620-2714385fa6a8" d="M215.22,146v23.1a6.46,6.46,0,0,1-2.65,5.18l-21.06,12.15c-1.44.85-2.64-.12-2.64-2V161.24a6.47,6.47,0,0,1,2.64-5.17l21.06-12.16C214,143.07,215.22,144,215.22,146Z"/>
        <path class="fe9ffb61-bcf2-4c0e-8128-08aa1f3fadf4" d="M184.77,232.6v23.11a6.27,6.27,0,0,1-2.76,5.18l-20.7,12-.24.12a1.6,1.6,0,0,1-2-.12,3.1,3.1,0,0,1-.72-1.93v-23.1a6.25,6.25,0,0,1,2.77-5.18L182,230.56C183.57,229.72,184.77,230.56,184.77,232.6Z"/>
        <path class="fc62bb08-32a6-4ff9-be5d-0783bb57a705" d="M182,195.83l-21,12.11a6.54,6.54,0,0,0-2.73,5.22v23.06c0,2,1.22,2.94,2.73,2.07l21-12.12a6.52,6.52,0,0,0,2.73-5.22v-23C184.76,195.89,183.54,195,182,195.83Z"/>
        <path class="fc62bb08-32a6-4ff9-be5d-0783bb57a705" d="M184.77,163.17v23.1a6.44,6.44,0,0,1-2.76,5.18L161.07,203.6c-1.57.84-2.77-.12-2.77-2V178.45a6.22,6.22,0,0,1,2.77-5.17L182,161.12C183.57,160.28,184.77,161.12,184.77,163.17Z"/>
      </g>
    </g>
  </g>
</svg>
