<svg xmlns="http://www.w3.org/2000/svg" viewBox="0 0 306.13 343.38">
  <defs>
    <style>
      .be846f76-0db1-4427-8f8c-6929a5bca212 {
        fill: #009a4d;
      }

      .a6f51964-acf8-4d19-930d-0f8b95431997 {
        fill: #fff;
      }

      .e00ab195-1273-4231-8340-dbee4665632c {
        fill: #3d3d3d;
      }

      .eed4ad12-f8af-4b33-bd6c-7e409d2b0c00 {
        fill: #2c2c2c;
      }

      .f8c876f6-f91f-4ca5-b1c3-a1bcafa27d98 {
        fill: #1d1d1d;
      }

      .fe71ee3d-5204-43d7-b258-7bdb2d346441 {
        fill: #ee2e30;
      }

      .f4e5ce92-c0db-4c89-9e18-0003bac44ef6 {
        fill: #ee2d2f;
      }

      .b6f4428b-ebf8-481a-8c8d-54c7f2e25180 {
        fill: #232323;
      }

      .ad06b489-7c62-4e0e-9843-0eaa9f279416 {
        fill: #7c7c7c;
      }

      .ae1205d0-91f8-40cd-9ced-c240365e36ea {
        fill: #181818;
      }

      .ab3010f1-d7f6-4d89-99d5-01706540650c {
        fill: #ffc906;
      }

      .bd91cdcc-f24b-431e-9076-e8dfd575a6b0 {
        fill: #b1b3b6;
      }

      .f3774aaf-0ec1-4cbe-a05b-5802586ad5c2 {
        fill: #434da1;
      }
    </style>
  </defs>
  <title>-</title>
  <g id="a5677978-61d3-49eb-980a-44bdd32c2445" data-name="Layer 13">
    <g>
      <g>
        <path class="be846f76-0db1-4427-8f8c-6929a5bca212" d="M11.61,210.28a4.08,4.08,0,0,1,.54.22A3.41,3.41,0,0,0,11.61,210.28Z"/>
        <path class="a6f51964-acf8-4d19-930d-0f8b95431997" d="M306.13,104.24l-.19,126.92v10.3a37.51,37.51,0,0,1-2.62,12.18c-.56,1.13-.94,2.45-1.5,3.77l-1.7,2.24a31.36,31.36,0,0,1-3.18,4.12c-.94.94-2.24,1.88-3.37,2.82a26.55,26.55,0,0,1-3.56,2.62L241.82,297l-56,32.44-17.05,9.73a33.49,33.49,0,0,1-4.5,1.88c-.11,0-.21.07-.32.09a31.91,31.91,0,0,1-11.84,2.28A31.3,31.3,0,0,1,142,341.2l-.65-.19c-1.5-.75-3-1.13-4.31-1.88l-17-9.73L16.49,269.59l-.75-.38a37.33,37.33,0,0,1-3.18-2.62,27.61,27.61,0,0,1-3.75-3A26.93,26.93,0,0,1,6,259.84c-.57-.95-1.49-1.68-2.06-2.62a27.18,27.18,0,0,1-1.31-3.58A32.75,32.75,0,0,1,0,241.46V101.62A31.91,31.91,0,0,1,9.35,79.13a30.64,30.64,0,0,1,6.2-4.88.66.66,0,0,1,.38-.19l.18-.19,6.2-3.55,17.05-9.76c0-.18,0-.18.19-.18L137.22,4.12a30.89,30.89,0,0,1,7.68-3,16.66,16.66,0,0,1,2.64-.57c1.86-.18,3.93-.56,5.8-.56a20.28,20.28,0,0,1,3.18.38A35.09,35.09,0,0,1,161,.94c1.48.57,3,1.13,4.66,1.89a22.66,22.66,0,0,1,3.21,1.29L290.2,74.25a35.63,35.63,0,0,1,6,4.69c.1.1.18.21.27.31-.09-.1-.17-.21-.25-.31a32,32,0,0,1,9.83,23v.71C306.08,103.15,306.13,103.7,306.13,104.24Z"/>
      </g>
      <g>
        <g>
          <rect class="e00ab195-1273-4231-8340-dbee4665632c" x="76.98" y="220.8" width="152.25" height="33.65"/>
          <path class="eed4ad12-f8af-4b33-bd6c-7e409d2b0c00" d="M215.85,279.76c7,.32,13.2-6.16,13.38-11.95V254.6c-.18-5.79-6.43-11.89-13.44-11.56L90.6,243c-7-.33-13.45,6.38-13.62,12.17v12.54c.17,5.79,6.36,12.27,13.38,11.95Z"/>
          <path class="f8c876f6-f91f-4ca5-b1c3-a1bcafa27d98" d="M215.85,238.35c7,.33,13.2-6.15,13.38-11.94V151.94c-.18-5.79-6.43-11.89-13.44-11.57l-125.19,0c-7-.32-13.45,6.38-13.62,12.17v73.8c.17,5.79,6.36,12.27,13.38,12Z"/>
          <path class="fe71ee3d-5204-43d7-b258-7bdb2d346441" d="M123.56,276.76H88.22A3.49,3.49,0,0,1,85,273.08l0-23.37A3.51,3.51,0,0,1,88.27,246H123.6a3.48,3.48,0,0,1,3.26,3.69l0,23.37A3.5,3.5,0,0,1,123.56,276.76Z"/>
          <path class="f4e5ce92-c0db-4c89-9e18-0003bac44ef6" d="M219.51,276.76H184.18a3.5,3.5,0,0,1-3.27-3.69l0-23.37a3.51,3.51,0,0,1,3.28-3.69h35.33a3.5,3.5,0,0,1,3.27,3.69l0,23.37A3.5,3.5,0,0,1,219.51,276.76Z"/>
          <path class="fe71ee3d-5204-43d7-b258-7bdb2d346441" d="M171.53,276.76H136.2a3.5,3.5,0,0,1-3.27-3.69l0-23.37a3.5,3.5,0,0,1,3.27-3.69h35.34a3.49,3.49,0,0,1,3.26,3.69l0,23.37A3.51,3.51,0,0,1,171.53,276.76Z"/>
          <path class="f8c876f6-f91f-4ca5-b1c3-a1bcafa27d98" d="M122,172.4H86.7a3.49,3.49,0,0,1-3.27-3.69l0-19.37a3.5,3.5,0,0,1,3.27-3.69h35.31a3.5,3.5,0,0,1,3.27,3.69l0,19.37A3.5,3.5,0,0,1,122,172.4Z"/>
          <path class="f8c876f6-f91f-4ca5-b1c3-a1bcafa27d98" d="M122,202.74H86.7a3.5,3.5,0,0,1-3.27-3.7l0-19.37A3.5,3.5,0,0,1,86.74,176h35.31a3.5,3.5,0,0,1,3.27,3.69l0,19.37A3.5,3.5,0,0,1,122,202.74Z"/>
          <path class="f8c876f6-f91f-4ca5-b1c3-a1bcafa27d98" d="M122,233.06H86.66a3.5,3.5,0,0,1-3.27-3.69l0-19.37a3.5,3.5,0,0,1,3.27-3.69H122a3.49,3.49,0,0,1,3.27,3.69l0,19.37A3.51,3.51,0,0,1,122,233.06Z"/>
          <path class="f8c876f6-f91f-4ca5-b1c3-a1bcafa27d98" d="M170.76,172.4H135.45a3.49,3.49,0,0,1-3.27-3.69l0-19.37a3.51,3.51,0,0,1,3.28-3.69H170.8a3.5,3.5,0,0,1,3.27,3.69l0,19.37A3.5,3.5,0,0,1,170.76,172.4Z"/>
          <path class="f8c876f6-f91f-4ca5-b1c3-a1bcafa27d98" d="M170.76,202.74H135.45a3.5,3.5,0,0,1-3.27-3.7l0-19.37a3.51,3.51,0,0,1,3.28-3.69H170.8a3.5,3.5,0,0,1,3.27,3.69l0,19.37A3.5,3.5,0,0,1,170.76,202.74Z"/>
          <path class="f8c876f6-f91f-4ca5-b1c3-a1bcafa27d98" d="M170.72,233.06H135.41a3.5,3.5,0,0,1-3.27-3.69l0-19.37a3.5,3.5,0,0,1,3.27-3.69h35.31A3.49,3.49,0,0,1,174,210l0,19.37A3.5,3.5,0,0,1,170.72,233.06Z"/>
          <path class="f8c876f6-f91f-4ca5-b1c3-a1bcafa27d98" d="M219.52,172.4H184.21a3.49,3.49,0,0,1-3.27-3.69l0-19.37a3.51,3.51,0,0,1,3.28-3.69h35.31a3.5,3.5,0,0,1,3.27,3.69l0,19.37A3.5,3.5,0,0,1,219.52,172.4Z"/>
          <path class="f8c876f6-f91f-4ca5-b1c3-a1bcafa27d98" d="M219.52,202.74H184.21a3.5,3.5,0,0,1-3.27-3.7l0-19.37a3.51,3.51,0,0,1,3.28-3.69h35.31a3.5,3.5,0,0,1,3.27,3.69l0,19.37A3.5,3.5,0,0,1,219.52,202.74Z"/>
          <path class="f8c876f6-f91f-4ca5-b1c3-a1bcafa27d98" d="M219.48,233.06H184.17a3.5,3.5,0,0,1-3.27-3.69l0-19.37a3.51,3.51,0,0,1,3.28-3.69h35.31a3.49,3.49,0,0,1,3.27,3.69l0,19.37A3.5,3.5,0,0,1,219.48,233.06Z"/>
        </g>
        <g>
          <path class="b6f4428b-ebf8-481a-8c8d-54c7f2e25180" d="M246.84,119.49a6.38,6.38,0,0,1-2.56,2.88l-.19.11-.18.13a4.31,4.31,0,0,1,4.43-.11c2.15,1.22,3.64,4.37,3.84,8.1v-1a20.74,20.74,0,0,0-6.37-14.87C247.17,116.27,247.57,117.88,246.84,119.49Z"/>
          <path class="ad06b489-7c62-4e0e-9843-0eaa9f279416" d="M159.09,170.59c-5.1,3-8.25,2.55-13,0,4.5,3,6.92,5.95,6.92,12C153,178,154.6,173.51,159.09,170.59Z"/>
          <path d="M62.68,123.72c-4.74-2.31-3.64-8.62,1.33-12a19.81,19.81,0,0,0-4,3.16,20.63,20.63,0,0,0-6.07,14.57v2.79C54.06,125.78,58.06,120.81,62.68,123.72Z"/>
          <path class="f8c876f6-f91f-4ca5-b1c3-a1bcafa27d98" d="M62.68,123.72l5.46,3,74.68,42,3.28,1.82c4.74,2.55,7.89,3,13,0l3.16-1.7,81.24-46.14h.24l.18-.14-.2.09.38-.22.13-.1a6.63,6.63,0,0,0,2.62-2.89,4.3,4.3,0,0,0-1-4.75h0v0a24.12,24.12,0,0,0-3.89-3L163.35,66.28a16.42,16.42,0,0,0-2.07-.85c-1.09-.48-2.06-.85-3-1.21a26.79,26.79,0,0,0-2.92-.37,13.75,13.75,0,0,0-2.06-.24,37,37,0,0,0-3.77.37,11.1,11.1,0,0,0-1.7.36,19.13,19.13,0,0,0-5,1.94L79.56,102.71c-.12,0-.12,0-.12.12l-11,6.32-4,2.31-.12.12a.46.46,0,0,0-.25.12C59,115.1,57.94,121.41,62.68,123.72Zm57.68,25L99.23,136.47c-1.58-.85-1.34-2.43.36-3.52l20.28-11.78a6.53,6.53,0,0,1,5.95-.36L147,133.07c1.58.85,1.34,2.43-.36,3.4l-20.28,11.9A6.53,6.53,0,0,1,120.36,148.73Zm9.35-32.66L150,104.17a6.5,6.5,0,0,1,5.95-.37l21.13,12.27c1.45.85,1.33,2.43-.49,3.52L156.3,131.37a6.5,6.5,0,0,1-6,.36l-21.13-12.26C127.64,118.62,127.89,117,129.71,116.07Zm46.87,37.16-20.28,11.9a6.85,6.85,0,0,1-6,.24l-21.13-12.14c-1.58-1-1.33-2.43.49-3.52L150,137.81a6.11,6.11,0,0,1,5.95-.25l21.13,12.15C178.52,150.56,178.4,152.13,176.58,153.23Zm30.12-16.76-20.28,11.9a6.5,6.5,0,0,1-5.95.36l-21.13-12.26c-1.46-.85-1.34-2.43.48-3.52l20.28-11.78a6.5,6.5,0,0,1,6-.36l21.13,12.26C208.76,133.92,208.52,135.5,206.7,136.47Zm8.69-33.26c.31.1.71.05,1,.2l0,0h0L237.54,116a1.74,1.74,0,0,1,.78,1.46,2,2,0,0,1-.8,1.57c-.2.2-.19.43-.47.61l-19.63,11.87-.66.4a6.35,6.35,0,0,1-1.84.54,5.88,5.88,0,0,1-4.1-.18l-21-12.58-.12-.07a1.75,1.75,0,0,1-1-1.73,2.73,2.73,0,0,1,1.4-1.89l20.28-12.27A6.43,6.43,0,0,1,215.39,103.21ZM186.05,85.83l21.13,12.63c1.58.85,1.34,2.55-.48,3.52l-20.28,12.39a6.85,6.85,0,0,1-5.95.24L159.34,102c-1.46-.85-1.34-2.43.48-3.52L180.1,86.2A6.47,6.47,0,0,1,186.05,85.83Zm-56.34-5L150,68.47a6.85,6.85,0,0,1,5.95-.24l21.13,12.62c1.45.85,1.33,2.43-.49,3.53L156.3,96.64a6.5,6.5,0,0,1-6,.36L129.22,84.38C127.64,83.53,127.89,81.83,129.71,80.85ZM99.59,98.46l20.28-11.9a6.87,6.87,0,0,1,5.95-.24L147,98.46c1.58,1,1.34,2.43-.36,3.52l-20.28,11.9c-1.82,1.1-4.49,1.22-6,.25L99.23,102C97.65,101.13,97.89,99.55,99.59,98.46ZM68.26,116.07l6.8-4,13.48-7.89a6.5,6.5,0,0,1,5.95-.37l21.13,12.27c1.46.85,1.34,2.43-.48,3.52L94.86,131.37a6.53,6.53,0,0,1-6,.36L70.69,121.17l-2.91-1.7C66.2,118.62,66.44,117,68.26,116.07Z"/>
          <path class="ae1205d0-91f8-40cd-9ced-c240365e36ea" d="M153,182.61c0-6.07-2.42-9-6.92-12l-3.28-1.82-74.68-42-5.46-3c-4.62-2.91-8.62,2.06-8.74,8.5v26.14L153,214.11Zm-67-11.9c0,2.07-1.21,3-2.79,2.07L62.07,160.63h0a6.7,6.7,0,0,1-2.79-5.34v-23.2c0-2.06,1.21-3,2.79-2.06l3.64,2.06,17.49,10.08h0c1.58.85,2.79,3.28,2.79,5.34Zm31,17.61c0,1.83-1.1,2.49-2.35,2.08-.17-.06-.28.09-.47,0L93,178.17a6.62,6.62,0,0,1-2.76-5.27V149.63a2.12,2.12,0,0,1,1.1-2.12,1.7,1.7,0,0,1,1.72,0l20.2,11.73.9.52h0A6.85,6.85,0,0,1,117,165Zm30.72,17.37c0,1.94-1.21,2.91-2.79,2.06l-21.13-12.26a6.62,6.62,0,0,1-2.79-5.23V167c0-2.06,1.33-2.91,2.79-2.06l21.13,12.26a6.31,6.31,0,0,1,2.79,5.22Z"/>
          <path class="ab3010f1-d7f6-4d89-99d5-01706540650c" d="M186.05,120.81a6.5,6.5,0,0,0-6,.36L159.82,133c-1.82,1.09-1.94,2.67-.48,3.52l21.13,12.26a6.5,6.5,0,0,0,5.95-.36l20.28-11.9c1.82-1,2.06-2.55.48-3.4Z"/>
          <path class="ab3010f1-d7f6-4d89-99d5-01706540650c" d="M147,133.07l-21.13-12.26a6.53,6.53,0,0,0-5.95.36L99.59,133c-1.7,1.09-1.94,2.67-.36,3.52l21.13,12.26a6.53,6.53,0,0,0,6-.36l20.28-11.9C148.29,135.5,148.53,133.92,147,133.07Z"/>
          <path class="ab3010f1-d7f6-4d89-99d5-01706540650c" d="M156.3,131.37l20.28-11.78c1.82-1.09,1.94-2.67.49-3.52L155.94,103.8a6.5,6.5,0,0,0-5.95.37l-20.28,11.9c-1.82,1-2.07,2.55-.49,3.4l21.13,12.26A6.5,6.5,0,0,0,156.3,131.37Z"/>
          <path class="ab3010f1-d7f6-4d89-99d5-01706540650c" d="M159.34,102l21.13,12.63a6.85,6.85,0,0,0,5.95-.24L206.7,102c1.82-1,2.06-2.67.48-3.52L186.05,85.83a6.47,6.47,0,0,0-6,.37L159.82,98.46C158,99.55,157.88,101.13,159.34,102Z"/>
          <path class="ab3010f1-d7f6-4d89-99d5-01706540650c" d="M155.94,137.56a6.11,6.11,0,0,0-5.95.25l-20.28,11.9c-1.82,1.09-2.07,2.55-.49,3.52l21.13,12.14a6.85,6.85,0,0,0,6-.24l20.28-11.9c1.82-1.1,1.94-2.67.49-3.52Z"/>
          <path class="ab3010f1-d7f6-4d89-99d5-01706540650c" d="M210.4,103.71,190.12,116a2.73,2.73,0,0,0-1.46,1.85,1.85,1.85,0,0,0,1,1.75l.08,0,21,12.52a5.78,5.78,0,0,0,4.12.24,6.85,6.85,0,0,0,1.85-.54l.65-.4L237,119.59c.29-.18.28-.41.48-.61a2.1,2.1,0,0,0,.8-1.57,1.69,1.69,0,0,0-.82-1.4l-21.1-12.57c-.27-.17-.69-.12-1-.23A6.46,6.46,0,0,0,210.4,103.71Z"/>
          <path class="bd91cdcc-f24b-431e-9076-e8dfd575a6b0" d="M70.69,121.17l18.22,10.56a6.53,6.53,0,0,0,6-.36l20.28-11.78c1.82-1.09,1.94-2.67.48-3.52L94.49,103.8a6.5,6.5,0,0,0-5.95.37l-13.48,7.89-6.8,4c-1.82,1-2.06,2.55-.48,3.4Z"/>
          <path class="bd91cdcc-f24b-431e-9076-e8dfd575a6b0" d="M120.36,114.13c1.46,1,4.13.85,6-.25L146.59,102c1.7-1.09,1.94-2.55.36-3.52L125.82,86.32a6.87,6.87,0,0,0-5.95.24L99.59,98.46c-1.7,1.09-1.94,2.67-.36,3.52Z"/>
          <path class="bd91cdcc-f24b-431e-9076-e8dfd575a6b0" d="M150.35,97a6.5,6.5,0,0,0,6-.36l20.28-12.26c1.82-1.1,1.94-2.68.49-3.53L155.94,68.23a6.85,6.85,0,0,0-5.95.24L129.71,80.85c-1.82,1-2.07,2.68-.49,3.53Z"/>
          <path class="be846f76-0db1-4427-8f8c-6929a5bca212" d="M86,170.71v-23.2a6.54,6.54,0,0,0-2.79-5.34L65.71,132.1,62.07,130c-1.58-1-2.79,0-2.79,2.07v23.19a6.69,6.69,0,0,0,2.79,5.34l21.12,12.14C84.77,173.74,86,172.77,86,170.71Z"/>
          <path class="fe71ee3d-5204-43d7-b258-7bdb2d346441" d="M116.9,188.3V165a6.59,6.59,0,0,0-2.75-5.26l-.91-.53L93,147.55a1.64,1.64,0,0,0-1.66,0,2.12,2.12,0,0,0-1.08,2.07V172.9a6.31,6.31,0,0,0,2.8,5.22l21.13,12.27c.16.09.28,0,.44,0C115.88,190.8,116.9,190.09,116.9,188.3Z"/>
          <path class="fe71ee3d-5204-43d7-b258-7bdb2d346441" d="M123.76,164.89c-1.46-.85-2.79,0-2.79,2.06v23.31a6.62,6.62,0,0,0,2.79,5.23l21.13,12.26c1.58.85,2.79-.12,2.79-2.06V182.37a6.31,6.31,0,0,0-2.79-5.22Z"/>
          <path class="eed4ad12-f8af-4b33-bd6c-7e409d2b0c00" d="M248.34,122.5a4.29,4.29,0,0,0-4.61.25l-81.48,46.14-3.16,1.7c-4.49,2.92-6.07,7.41-6.07,12l-.1,31.44.2.11,99.08-57.37,0-25.66c0-.19,0-.35,0-.53v.53C252.12,127.15,250.58,123.79,248.34,122.5Zm-63.26,67a6.48,6.48,0,0,1-2.79,5.22L161.16,207c-1.58.85-2.79-.12-2.79-2.06V181.64a6.31,6.31,0,0,1,2.79-5.22l21.13-12.26c1.58-.85,2.79,0,2.79,2.06Zm30.72-17.37a6.51,6.51,0,0,1-2.67,5.22l-21.25,12.27c-1.46.85-2.67-.12-2.67-2.07V164.28a6.51,6.51,0,0,1,2.67-5.22l21.25-12.27c1.46-.85,2.67.12,2.67,2.07Zm31-17.61a6.74,6.74,0,0,1-2.79,5.35l-21.13,12.14c-1.58.85-2.8,0-2.8-2.06V146.67a6.49,6.49,0,0,1,2.8-5.22L244,129.18c1.57-.85,2.79.13,2.79,2.19Z"/>
          <path class="be846f76-0db1-4427-8f8c-6929a5bca212" d="M244,129.18l-21.13,12.27a6.49,6.49,0,0,0-2.8,5.22V170c0,2.06,1.22,2.91,2.8,2.06L244,159.91a6.74,6.74,0,0,0,2.79-5.35V131.37C246.77,129.31,245.55,128.33,244,129.18Z"/>
          <path class="be846f76-0db1-4427-8f8c-6929a5bca212" d="M213.13,146.79l-21.25,12.27a6.51,6.51,0,0,0-2.67,5.22v23.31c0,1.95,1.21,2.92,2.67,2.07l21.25-12.27a6.51,6.51,0,0,0,2.67-5.22V148.86C215.8,146.91,214.59,145.94,213.13,146.79Z"/>
          <path class="be846f76-0db1-4427-8f8c-6929a5bca212" d="M182.29,164.16l-21.13,12.26a6.31,6.31,0,0,0-2.79,5.22V205c0,1.94,1.21,2.91,2.79,2.06l21.13-12.26a6.48,6.48,0,0,0,2.79-5.22V166.22C185.08,164.16,183.87,163.31,182.29,164.16Z"/>
        </g>
        <g>
          <path class="ae1205d0-91f8-40cd-9ced-c240365e36ea" d="M153,214.13,53.89,158.39V193.2l99.09,56Zm-67-8.3a2.52,2.52,0,0,1-.81,2.08c-.12.09-.33,0-.47,0a1.67,1.67,0,0,1-1.51,0l-13.93-8.09L62,195.65a5,5,0,0,1-1.14-1.29,6.62,6.62,0,0,1-1.64-4V167.1c0-2.07,1.21-2.92,2.79-2.07l1.76,1,19.4,11.19a5.47,5.47,0,0,1,1.64,1.86A6.53,6.53,0,0,1,86,182.52Zm31,17.49c0,2-1.23,2.9-2.61,2.13-.08,0-.13,0-.21,0L92.94,213.22A6.58,6.58,0,0,1,90.18,208V184.69c0-.06,0-.06,0-.12a2.61,2.61,0,0,1,.76-2h0a1.65,1.65,0,0,1,1.9,0s0,0,0,0l.44.25,20.74,11.92A6.38,6.38,0,0,1,116,197l0,0a6.71,6.71,0,0,1,.87,3.1Zm28,19.47s0,0-.06,0l-3.6-2.07-17.57-10.1a6.49,6.49,0,0,1-1.44-1.67,6.16,6.16,0,0,1-.62-1,6.49,6.49,0,0,1-.74-2.66V202.07a2.63,2.63,0,0,1,.85-2.17h0a1.57,1.57,0,0,1,1.76,0c.07,0,.11,0,.18,0l21.17,12.22a6.6,6.6,0,0,1,2.76,5.26V240.7s0,0,0,.06C147.6,242.71,146.45,243.63,145,242.79Z"/>
          <path class="be846f76-0db1-4427-8f8c-6929a5bca212" d="M86,182.52a6.77,6.77,0,0,0-1.12-3.41,5,5,0,0,0-1.67-1.81L63.79,166.06,62,165c-1.52-.88-2.76.06-2.76,2.09v23.26a6.65,6.65,0,0,0,1.62,4A4.6,4.6,0,0,0,62,195.63l7.2,4.18,14,8.06a1.59,1.59,0,0,0,1.48,0c.14,0,.35.09.47,0a2.57,2.57,0,0,0,.81-2.12Z"/>
          <path class="f3774aaf-0ec1-4cbe-a05b-5802586ad5c2" d="M116.86,223.36V200.1a6.8,6.8,0,0,0-.81-3.07l0,0a5.36,5.36,0,0,0-1.93-2.17l-20.72-12-.39-.22-.1,0a1.7,1.7,0,0,0-1.9,0h0a2.58,2.58,0,0,0-.76,2c0,.05,0,.08,0,.13v23.2A6.56,6.56,0,0,0,93,213.24l21.13,12.14c.07.05.12,0,.19.07C115.72,226.11,116.86,225.28,116.86,223.36Z"/>
          <path class="f3774aaf-0ec1-4cbe-a05b-5802586ad5c2" d="M147.64,217.49a6.56,6.56,0,0,0-2.79-5.34L123.72,200c-.07,0-.12,0-.18-.06a1.69,1.69,0,0,0-1.76,0h0A2.59,2.59,0,0,0,121,202v23.26a6.64,6.64,0,0,0,.69,2.63,6.16,6.16,0,0,0,.62,1,5.34,5.34,0,0,0,1.44,1.62l17.57,10.15,3.56,2s.06,0,.1,0c1.47.79,2.65-.09,2.68-2,0,0,0,0,0-.08Z"/>
          <path class="eed4ad12-f8af-4b33-bd6c-7e409d2b0c00" d="M153.12,214.17l-.1-.06V249.2l.1.06,99-57.34.06-35.12Zm32,10.35a6.7,6.7,0,0,1-2.79,5.34l-15.45,8.88-5.7,3.29a1.68,1.68,0,0,1-1.95,0,2.48,2.48,0,0,1-.82-2.12V216.62a6.57,6.57,0,0,1,2.26-4.64c.19-.16.31-.46.51-.57l.7-.4,20.45-11.87c1.44-.78,2.47.1,2.65,1.8,0,.15.13.18.13.33h0s0,0,0,0Zm30.72-17.37a6.76,6.76,0,0,1-2.67,5.34l-21.25,12.15c-1.46,1-2.67,0-2.67-2.07V199.38a6.94,6.94,0,0,1,2.67-5.34l21.25-12.15c1.46-1,2.67,0,2.67,2.07ZM244,194.89l-21.13,12.26c-1.58.85-2.8-.12-2.8-2.06V181.77a6.31,6.31,0,0,1,2.8-5.22L244,164.28c1.57-.84,2.79,0,2.79,2.07v23.31A6.51,6.51,0,0,1,244,194.89Z"/>
          <path class="fe71ee3d-5204-43d7-b258-7bdb2d346441" d="M243.93,164.3,222.8,176.57a6.33,6.33,0,0,0-2.79,5.22V205.1c0,2,1.22,2.92,2.79,2.07l21.13-12.27a6.47,6.47,0,0,0,2.8-5.22V166.37C246.73,164.3,245.51,163.45,243.93,164.3Z"/>
          <path class="fe71ee3d-5204-43d7-b258-7bdb2d346441" d="M213.09,181.91l-21.25,12.14a7,7,0,0,0-2.67,5.35v23.19c0,2.07,1.21,3,2.67,2.07l21.25-12.15a6.76,6.76,0,0,0,2.67-5.34V184C215.76,181.91,214.55,180.94,213.09,181.91Z"/>
          <path class="fe71ee3d-5204-43d7-b258-7bdb2d346441" d="M185,224.56V201.3c0-.16-.1-.19-.12-.34-.17-1.71-1.23-2.56-2.63-1.75L161.79,211l-.67.39c-.21.11-.34.42-.53.58a6.65,6.65,0,0,0-2.25,4.7V240a2.6,2.6,0,0,0,.8,2.12,1.82,1.82,0,0,0,2-.06l5.67-3.26,15.48-8.94A6.58,6.58,0,0,0,185,224.56Z"/>
        </g>
      </g>
    </g>
  </g>
</svg>
