<svg xmlns="http://www.w3.org/2000/svg" viewBox="0 0 306.13 343.38">
  <defs>
    <style>
      .b80676fd-8504-4159-adc1-1e47e105d662 {
        fill: #009a4d;
      }

      .fa9b8464-0f5b-481e-923b-f73f4c36ef73 {
        fill: #fff;
      }

      .aeec8205-6346-4a95-b29a-8a0eb63f6629 {
        fill: #434242;
      }

      .a47d13bf-70f9-4598-9dee-9e7d41cb8071 {
        fill: #212121;
      }

      .bcbc3db1-63d6-4294-8c02-1951e5bb2631 {
        fill: #2c2c2c;
      }

      .ad117270-f948-4a22-a983-27ba1acd03fe {
        fill: #232323;
      }

      .f4a54a77-58a6-4686-b372-6f04c90eab11 {
        fill: #7c7c7c;
      }

      .bffc63db-00aa-46c6-b176-a9577d169bc6 {
        fill: #1d1d1d;
      }

      .be8a9f84-cf98-4dfd-bfa2-3158bb2a915b {
        fill: #181818;
      }

      .fa236f48-3baf-45e8-9d5a-93ec8170629a {
        fill: #a6a6a6;
      }

      .e7eb9786-6779-415e-86d3-6616cf13a3e1 {
        fill: #434da1;
      }

      .ae8fe9ee-572a-4868-8bb5-72adc561ad04 {
        fill: #ffc906;
      }

      .ffb26f0c-5a0d-45c3-b1c0-781c776cf4a9 {
        fill: #ee2e30;
      }

      .b61346ae-23c7-4fa7-803f-d5d2c48ce1dd {
        fill: #f26640;
      }

      .b1db1706-b54c-4745-ad6f-bf86ed47f978 {
        fill: #ee2d2f;
      }
    </style>
  </defs>
  <title>-</title>
  <g id="a1666873-3783-49e9-ab42-cceb251175c4" data-name="Layer 13">
    <g>
      <g>
        <path class="b80676fd-8504-4159-adc1-1e47e105d662" d="M11.61,210.28a4.08,4.08,0,0,1,.54.22A3.41,3.41,0,0,0,11.61,210.28Z"/>
        <path class="fa9b8464-0f5b-481e-923b-f73f4c36ef73" d="M306.13,104.24l-.19,126.92v10.3a37.51,37.51,0,0,1-2.62,12.18c-.56,1.13-.94,2.45-1.5,3.77l-1.7,2.24a31.36,31.36,0,0,1-3.18,4.12c-.94.94-2.24,1.88-3.37,2.82a26.55,26.55,0,0,1-3.56,2.62L241.82,297l-56,32.44-17.05,9.73a33.49,33.49,0,0,1-4.5,1.88c-.11,0-.21.07-.32.09a31.91,31.91,0,0,1-11.84,2.28A31.3,31.3,0,0,1,142,341.2l-.65-.19c-1.5-.75-3-1.13-4.31-1.88l-17-9.73L16.49,269.59l-.75-.38a37.33,37.33,0,0,1-3.18-2.62,27.61,27.61,0,0,1-3.75-3A26.93,26.93,0,0,1,6,259.84c-.57-.95-1.49-1.68-2.06-2.62a27.18,27.18,0,0,1-1.31-3.58A32.75,32.75,0,0,1,0,241.46V101.62A31.91,31.91,0,0,1,9.35,79.13a30.64,30.64,0,0,1,6.2-4.88.66.66,0,0,1,.38-.19l.18-.19,6.2-3.55,17.05-9.76c0-.18,0-.18.19-.18L137.22,4.12a30.89,30.89,0,0,1,7.68-3,16.66,16.66,0,0,1,2.64-.57c1.86-.18,3.93-.56,5.8-.56a20.28,20.28,0,0,1,3.18.38A35.09,35.09,0,0,1,161,.94c1.48.57,3,1.13,4.66,1.89a22.66,22.66,0,0,1,3.21,1.29L290.2,74.25a35.63,35.63,0,0,1,6,4.69c.1.1.18.21.27.31-.09-.1-.17-.21-.25-.31a32,32,0,0,1,9.83,23v.71C306.08,103.15,306.13,103.7,306.13,104.24Z"/>
      </g>
      <g>
        <g>
          <polygon class="aeec8205-6346-4a95-b29a-8a0eb63f6629" points="245.24 202.19 228.38 211.99 160.09 91.83 144.54 81.72 168.24 68.12 171.83 80.63 245.24 202.19"/>
          <path class="a47d13bf-70f9-4598-9dee-9e7d41cb8071" d="M259,194.48l-12.79,7.17c-.6.36-2.39,1.32-2.39,1.32-4.42,2.27-8.49,3-11.12-.6L164.31,83c-3.23-6.34-3.95-10.28.83-13l11-6.22.36-.24.6-.23,1.55-1h.24c4.42-2.39,8.49-3.11,11.12.6l3.22,4.54.72,1a2.53,2.53,0,0,1,.36.59l65.51,112.49C263.05,187.79,263.76,191.73,259,194.48Z"/>
          <g>
            <path class="bcbc3db1-63d6-4294-8c02-1951e5bb2631" d="M228.43,199.4,162.87,86.84c-3.28-6.34-12.13-8.49-17.32-5.7L78.16,119.38c-5.38,3.48-6.63,9.6-1.75,18.78l61.47,107.73c3.87,6.63,10.32,11,15.82,8.54l73.94-42C232.35,209.71,231.71,205.74,228.43,199.4Z"/>
            <path class="b80676fd-8504-4159-adc1-1e47e105d662" d="M185.23,111.61,169.69,84.52c-1.09-1.88-1-4,.25-4.69l17.55-10.24c1.22-.71,3.1.24,4.18,2.12L207.21,98.8c1.09,1.88,1,4-.25,4.69l-17.55,10.24C188.18,114.44,186.31,113.49,185.23,111.61Z"/>
            <path class="b80676fd-8504-4159-adc1-1e47e105d662" d="M208.13,151.69,192.6,124.6c-1.09-1.88-1-4,.25-4.69l17.55-10.24c1.22-.71,3.09.24,4.18,2.12l15.54,27.1c1.08,1.88,1,4-.25,4.68l-17.55,10.24C211.09,154.52,209.22,153.57,208.13,151.69Z"/>
            <path class="b80676fd-8504-4159-adc1-1e47e105d662" d="M231.78,192l-15.54-27.09c-1.08-1.88-1-4,.26-4.69L234.05,150c1.22-.71,3.09.24,4.18,2.12l15.54,27.09c1.08,1.88,1,4-.26,4.69L236,194.12C234.74,194.83,232.87,193.88,231.78,192Z"/>
          </g>
        </g>
        <g>
          <path class="ad117270-f948-4a22-a983-27ba1acd03fe" d="M49.12,116.31a6.43,6.43,0,0,0,2.57,2.89l.19.11.17.13a4.33,4.33,0,0,0-4.43-.12c-2.16,1.23-3.65,4.39-3.85,8.12v-1a20.75,20.75,0,0,1,6.39-14.89C48.8,113.08,48.39,114.7,49.12,116.31Z"/>
          <path d="M142,279.62a7.68,7.68,0,0,0,1.11-3.64c.41,5.1,3.52,6.67,7.26,5.61a20.48,20.48,0,0,1-6.71,1.51,20.75,20.75,0,0,1-7.73-1.52C138.55,282.27,140.75,281.7,142,279.62Z"/>
          <path class="f4a54a77-58a6-4686-b372-6f04c90eab11" d="M150,167.49c-4.5,3-6.93,6-6.93,12,0-4.62-1.58-9.12-6.08-12C142.11,170.53,145.27,170,150,167.49Z"/>
          <path class="bffc63db-00aa-46c6-b176-a9577d169bc6" d="M178.07,151.73,78.61,94.32,54.06,108.51a23.22,23.22,0,0,0-3.89,3v0h0a4.29,4.29,0,0,0-1,4.75,6.57,6.57,0,0,0,2.63,2.9l.13.1.38.22a1.33,1.33,0,0,0-.21-.09l.19.14h.24l81.36,46.21,3.16,1.7c5.11,3,8.27,2.55,13,0l3.28-1.82Zm-70.68-37.07a1.75,1.75,0,0,1-1,1.73l-.11.07-21.08,12.6a5.87,5.87,0,0,1-4.1.18,6.34,6.34,0,0,1-1.84-.53l-.67-.41L58.92,116.41c-.28-.18-.27-.41-.47-.61a2,2,0,0,1-.79-1.57,1.74,1.74,0,0,1,.78-1.46L79.6,100.24h0l0,0c.26-.15.66-.1,1-.2a6.45,6.45,0,0,1,5.06.47L106,112.77A2.71,2.71,0,0,1,107.39,114.66Zm29.36,18.66L115.59,145.6a6.5,6.5,0,0,1-6-.36L89.33,133.32c-1.83-1-2.07-2.56-.49-3.41L110,117.63a6.52,6.52,0,0,1,6,.36l20.31,11.8C138.09,130.89,138.21,132.47,136.75,133.32Zm29.68,13.25c1.82,1.1,2.06,2.56.48,3.53l-21.16,12.16a6.88,6.88,0,0,1-6-.24l-20.3-11.92c-1.83-1.09-1.95-2.68-.49-3.53l21.16-12.16a6.13,6.13,0,0,1,6,.25Z"/>
          <path class="be8a9f84-cf98-4dfd-bfa2-3158bb2a915b" d="M150.66,281.5l-.29.09a2.13,2.13,0,0,0,.25,0c1-.49,1.94-.73,2.79-1.22L164.48,274l13.64-7.88V151.76l-.05,0-24.78,13.94L150,167.49c-4.5,3-6.93,6-6.93,12v96.31c0,.06,0,.09,0,.14s0-.06,0-.1v-.09C143.48,281.17,146.72,282.72,150.66,281.5Zm24.52-94.31a6.62,6.62,0,0,1-2.79,5.23L151.23,204.7c-1.58.85-2.8-.12-2.8-2.06V179.29a6.32,6.32,0,0,1,2.8-5.23l21.16-12.29c1.46-.85,2.79,0,2.79,2.07Zm0,35a6.52,6.52,0,0,1-.73,2.67,6.12,6.12,0,0,1-.63,1,6.35,6.35,0,0,1-1.43,1.68l-17.6,10.11-3.61,2.08s0,0-.06,0c-1.51.85-2.65-.07-2.68-2,0,0,0,0,0-.06v-23.3a6.62,6.62,0,0,1,2.76-5.27l21.2-12.24c.07,0,.11,0,.18,0a1.59,1.59,0,0,1,1.76-.05h0a2.61,2.61,0,0,1,.85,2.17Zm-24,52.66a1.49,1.49,0,0,1-2.31-.85c-.25-.49-.49-.73-.49-1.22V249.45a6.31,6.31,0,0,1,2.8-5.22l21.16-12.29c1.46-.85,2.79.12,2.79,2.07v23.35a6.62,6.62,0,0,1-2.79,5.23L152.69,274Z"/>
          <path class="fa236f48-3baf-45e8-9d5a-93ec8170629a" d="M115.59,145.6a6.5,6.5,0,0,1-6-.36L89.33,133.32c-1.83-1-2.07-2.56-.49-3.41L110,117.63a6.52,6.52,0,0,1,6,.36l20.31,11.8c1.82,1.1,1.94,2.68.48,3.53Z"/>
          <path class="e7eb9786-6779-415e-86d3-6616cf13a3e1" d="M166.91,150.1l-21.16,12.16a6.88,6.88,0,0,1-6-.24l-20.3-11.92c-1.83-1.09-1.95-2.68-.49-3.53l21.16-12.16a6.13,6.13,0,0,1,6,.25l20.31,11.91C168.25,147.67,168.49,149.13,166.91,150.1Z"/>
          <path class="ae8fe9ee-572a-4868-8bb5-72adc561ad04" d="M85.62,100.51l20.31,12.3a2.73,2.73,0,0,1,1.46,1.85,1.85,1.85,0,0,1-1,1.75l-.08,0L85.21,129a5.83,5.83,0,0,1-4.12.23,6.58,6.58,0,0,1-1.86-.54l-.65-.4L58.93,116.41c-.29-.18-.27-.41-.48-.61a2.12,2.12,0,0,1-.79-1.57,1.68,1.68,0,0,1,.82-1.41l21.13-12.58c.27-.17.69-.12,1-.23A6.49,6.49,0,0,1,85.62,100.51Z"/>
          <path class="e7eb9786-6779-415e-86d3-6616cf13a3e1" d="M148.92,274c-.25-.49-.49-.73-.49-1.22V249.45a6.31,6.31,0,0,1,2.8-5.22l21.16-12.29c1.46-.85,2.79.12,2.79,2.07v23.35a6.62,6.62,0,0,1-2.79,5.23L152.69,274l-1.46.85A1.49,1.49,0,0,1,148.92,274Z"/>
          <path class="ffb26f0c-5a0d-45c3-b1c0-781c776cf4a9" d="M175.14,222.25a6.68,6.68,0,0,1-.69,2.63,6.87,6.87,0,0,1-.63,1,5.14,5.14,0,0,1-1.44,1.63l-17.59,10.16-3.56,2-.11,0c-1.47.8-2.65-.08-2.68-2,0,0,0,0,0-.07V214.43a6.54,6.54,0,0,1,2.8-5.35l21.16-12.16c.06,0,.11,0,.17-.06a1.69,1.69,0,0,1,1.76-.05h0a2.58,2.58,0,0,1,.81,2.13Z"/>
          <path class="b61346ae-23c7-4fa7-803f-d5d2c48ce1dd" d="M151.23,204.7c-1.58.85-2.8-.12-2.8-2.06V179.29a6.32,6.32,0,0,1,2.8-5.23l21.16-12.29c1.46-.85,2.79,0,2.79,2.07v23.35a6.62,6.62,0,0,1-2.79,5.23Z"/>
          <path class="bcbc3db1-63d6-4294-8c02-1951e5bb2631" d="M43.72,128l.12,82.33V217a24.18,24.18,0,0,0,1.71,7.9c.36.73.6,1.58,1,2.43l1.09,1.46a22.74,22.74,0,0,0,2.07,2.68c.61.6,1.46,1.21,2.19,1.82a15.63,15.63,0,0,0,2.31,1.7l31.25,18,36.37,21,11.06,6.32a21.29,21.29,0,0,0,2.92,1.22c.05,0,.1,0,.15,0l-.17-.05c2.67.78,4.94.2,6.24-1.91a7.78,7.78,0,0,0,1.08-3.78V179.53c0-4.62-1.58-9.12-6.08-12l-3.16-1.7-81.6-46.21a4.31,4.31,0,0,0-4.62-.26c-2.24,1.3-3.78,4.66-3.85,8.65v-.53C43.76,127.62,43.73,127.78,43.72,128Zm63.12,56.55c0,1.94-1.22,2.91-2.68,2.06L82.88,174.3a6.53,6.53,0,0,1-2.67-5.23V145.72c0-1.94,1.21-2.92,2.67-2.07l21.28,12.29a6.54,6.54,0,0,1,2.68,5.23ZM111,233.28c0-2.07,1.22-2.92,2.8-2.07l21.16,12.29a6.32,6.32,0,0,1,2.8,5.23v23.34A3.16,3.16,0,0,1,137,274a1.61,1.61,0,0,1-2.07.12l-.24-.12-20.92-12.16a6.32,6.32,0,0,1-2.8-5.23Zm0-35s0,0,0,0h0c0-.16.11-.19.12-.33.19-1.71,1.22-2.59,2.66-1.81L134.25,208l.7.4c.2.11.32.41.51.58a6.56,6.56,0,0,1,2.27,4.64v23.35a2.53,2.53,0,0,1-.82,2.13,1.69,1.69,0,0,1-2,0l-5.7-3.29-15.48-8.89a6.75,6.75,0,0,1-2.8-5.36Zm0-35.15c0-2.06,1.22-2.92,2.8-2.06l21.16,12.28a6.32,6.32,0,0,1,2.8,5.23v23.35c0,1.94-1.22,2.91-2.8,2.06l-21.16-12.28a6.49,6.49,0,0,1-2.8-5.23Zm-4.13,56.43c0,2.07-1.22,3-2.68,2.07L82.88,209.45a6.8,6.8,0,0,1-2.67-5.36V180.87c0-2.07,1.21-3,2.67-2.07L104.16,191a7,7,0,0,1,2.68,5.35ZM80,215.81a2,2,0,0,1,1.27-2.12,1.51,1.51,0,0,1,1.46,0L104,226a5.09,5.09,0,0,1,1,1.22,6.65,6.65,0,0,1,1.67,4v23.3a2.57,2.57,0,0,1-.82,2.14,1.64,1.64,0,0,1-1.89-.05H104l-21.2-12.24A6.6,6.6,0,0,1,80,239.11ZM49.2,198.34v0c0-1.94,1.15-2.85,2.62-2.07,0,0,.08,0,.14,0l13.16,7.59,8,4.62c1.58.85,2.8,3.29,2.8,5.35v23.23c0,2-1.16,2.95-2.67,2.11,0,0-.08,0-.12,0L58.68,230.8,52,227l0,0h0a6.6,6.6,0,0,1-2.76-5.28v-23.3Zm0-35.11c0-2.06,1.21-2.91,2.79-2.06l21.16,12.28a6.32,6.32,0,0,1,2.8,5.23V202c0,1.94-1.22,2.92-2.8,2.06L52,191.81a6.48,6.48,0,0,1-2.79-5.23Zm0-35c0-2.07,1.21-3,2.79-2.19L73.15,138.3a6.5,6.5,0,0,1,2.8,5.23v23.35c0,2.07-1.22,2.92-2.8,2.07L52,156.79a6.71,6.71,0,0,1-2.79-5.35Z"/>
          <path class="b80676fd-8504-4159-adc1-1e47e105d662" d="M51.82,196.25c.06,0,.11,0,.17.06l13.13,7.54,8,4.65a6.62,6.62,0,0,1,2.76,5.27v23.3c0,2-1.18,2.83-2.64,2.09,0,0-.08,0-.13,0L58.68,230.8,52,226.92a6.71,6.71,0,0,1-2.76-5.31V198.32C49.22,196.38,50.38,195.53,51.82,196.25Z"/>
          <path class="fa236f48-3baf-45e8-9d5a-93ec8170629a" d="M52,161.17l21.16,12.28a6.32,6.32,0,0,1,2.8,5.23V202c0,1.94-1.22,2.92-2.8,2.06L52,191.81a6.48,6.48,0,0,1-2.79-5.23V163.23C49.2,161.17,50.41,160.32,52,161.17Z"/>
          <path class="b61346ae-23c7-4fa7-803f-d5d2c48ce1dd" d="M52,126,73.15,138.3a6.5,6.5,0,0,1,2.8,5.23v23.35c0,2.07-1.22,2.92-2.8,2.07L52,156.79a6.71,6.71,0,0,1-2.79-5.35V128.21C49.2,126.14,50.41,125.17,52,126Z"/>
          <path class="e7eb9786-6779-415e-86d3-6616cf13a3e1" d="M80.08,239.12V215.77a2,2,0,0,1,1.22-2.08,1.61,1.61,0,0,1,1.49,0L104,226a4.89,4.89,0,0,1,1.09,1.23,6.83,6.83,0,0,1,1.64,4v23.35a2.59,2.59,0,0,1-.79,2.12,1.71,1.71,0,0,1-1.89-.05L82.76,244.35A6.54,6.54,0,0,1,80.08,239.12Z"/>
          <path class="e7eb9786-6779-415e-86d3-6616cf13a3e1" d="M104.16,221.61,82.88,209.45a6.8,6.8,0,0,1-2.67-5.36V180.87c0-2.07,1.21-3,2.67-2.07L104.16,191a7,7,0,0,1,2.68,5.35v23.23C106.84,221.61,105.62,222.58,104.16,221.61Z"/>
          <path class="b61346ae-23c7-4fa7-803f-d5d2c48ce1dd" d="M104.16,186.58,82.88,174.3a6.53,6.53,0,0,1-2.67-5.23V145.72c0-1.94,1.21-2.92,2.67-2.07l21.28,12.29a6.54,6.54,0,0,1,2.68,5.23v23.35C106.84,186.46,105.62,187.43,104.16,186.58Z"/>
          <path class="b1db1706-b54c-4745-ad6f-bf86ed47f978" d="M113.77,231.21l21.16,12.29a6.32,6.32,0,0,1,2.8,5.23v23.34A3.16,3.16,0,0,1,137,274a1.61,1.61,0,0,1-2.07.12l-.24-.12-20.92-12.16a6.32,6.32,0,0,1-2.8-5.23V233.28C111,231.21,112.19,230.36,113.77,231.21Z"/>
          <path class="fa236f48-3baf-45e8-9d5a-93ec8170629a" d="M111,221.51V198.22c0-.16.11-.2.12-.34.17-1.72,1.23-2.57,2.64-1.76L134.25,208l.68.39c.21.11.33.42.53.59a6.64,6.64,0,0,1,2.25,4.7v23.29a2.62,2.62,0,0,1-.8,2.13,1.84,1.84,0,0,1-2-.06l-5.68-3.27-15.5-8.95A6.59,6.59,0,0,1,111,221.51Z"/>
          <path class="ae8fe9ee-572a-4868-8bb5-72adc561ad04" d="M113.77,161.05l21.16,12.28a6.32,6.32,0,0,1,2.8,5.23v23.35c0,1.94-1.22,2.91-2.8,2.06l-21.16-12.28a6.49,6.49,0,0,1-2.8-5.23V163.11C111,161.05,112.19,160.19,113.77,161.05Z"/>
        </g>
        <g>
          <path class="bffc63db-00aa-46c6-b176-a9577d169bc6" d="M177.58,151.49l29.66-16.85v-.2l-99-57.17-29.6,17,99,57.13Zm-67.49-40.35L88.93,99c-1.58-.85-1.34-2.43.37-3.52l20.3-11.92c1.83-1,4.5-1.1,6-.24l21.16,12.16c1.58,1,1.34,2.43-.36,3.52L116.05,110.9C114.23,112,111.55,112.12,110.09,111.14Zm30,17.64L119,116.5c-1.58-.86-1.34-2.44.48-3.41l20.31-11.92a6.52,6.52,0,0,1,6-.36l21.16,12.28c1.46.85,1.34,2.43-.48,3.53l-20.31,11.79A6.49,6.49,0,0,1,140.13,128.78Zm36.12,16.66a6.52,6.52,0,0,1-6,.36l-21.16-12.28c-1.46-.85-1.34-2.43.48-3.53l20.31-11.79a6.49,6.49,0,0,1,6-.37L197,130.12c1.58.85,1.34,2.43-.48,3.4Z"/>
          <path class="ae8fe9ee-572a-4868-8bb5-72adc561ad04" d="M197,130.12l-21.16-12.29a6.49,6.49,0,0,0-6,.37L149.61,130c-1.82,1.1-1.94,2.68-.48,3.53l21.16,12.28a6.52,6.52,0,0,0,6-.36l20.31-11.92C198.38,132.55,198.62,131,197,130.12Z"/>
          <path class="ae8fe9ee-572a-4868-8bb5-72adc561ad04" d="M166.88,113.09l-21.16-12.28a6.52,6.52,0,0,0-6,.36l-20.31,11.92c-1.82,1-2.06,2.55-.48,3.41l21.16,12.28a6.49,6.49,0,0,0,6-.37l20.31-11.79C168.22,115.52,168.34,113.94,166.88,113.09Z"/>
          <path class="ae8fe9ee-572a-4868-8bb5-72adc561ad04" d="M136.72,95.46,115.56,83.3c-1.46-.86-4.13-.73-6,.24L89.3,95.46c-1.71,1.09-2,2.67-.37,3.52l21.16,12.16c1.46,1,4.14.86,6-.24L136.36,99C138.06,97.89,138.3,96.43,136.72,95.46Z"/>
          <path class="be8a9f84-cf98-4dfd-bfa2-3158bb2a915b" d="M177.58,151.53V266.41l22.87-13.23,6.79-3.91V134.44Zm1.46,9.84a6.54,6.54,0,0,1,2.68-5.23L203,143.86c1.46-.85,2.68.12,2.68,2.06v23.35A6.54,6.54,0,0,1,203,174.5l-21.28,12.29c-1.46.85-2.68-.13-2.68-2.07Zm0,35.14a7,7,0,0,1,2.68-5.35L203,179c1.46-1,2.68,0,2.68,2.07V204.3a6.79,6.79,0,0,1-2.68,5.35l-21.28,12.16c-1.46,1-2.68,0-2.68-2.07Zm24.05,48.08-21.2,12.24h0a1.64,1.64,0,0,1-1.89.05,2.59,2.59,0,0,1-.82-2.14V231.45a6.6,6.6,0,0,1,1.67-4,4.73,4.73,0,0,1,1-1.22l21.28-12.29a1.57,1.57,0,0,1,1.46,0,2,2,0,0,1,1.27,2.13v23.3A6.59,6.59,0,0,1,203.09,244.59Z"/>
          <path class="e7eb9786-6779-415e-86d3-6616cf13a3e1" d="M205.8,239.32V216a2,2,0,0,0-1.22-2.08,1.61,1.61,0,0,0-1.49,0l-21.2,12.24a5.35,5.35,0,0,0-1.09,1.24,6.76,6.76,0,0,0-1.63,4v23.35a2.57,2.57,0,0,0,.78,2.11,1.69,1.69,0,0,0,1.89-.05l21.28-12.28A6.54,6.54,0,0,0,205.8,239.32Z"/>
          <path class="ffb26f0c-5a0d-45c3-b1c0-781c776cf4a9" d="M181.72,221.81,203,209.65a6.79,6.79,0,0,0,2.68-5.35V181.07c0-2.07-1.22-3-2.68-2.07l-21.28,12.16a7,7,0,0,0-2.68,5.35v23.23C179,221.81,180.26,222.78,181.72,221.81Z"/>
          <path class="ffb26f0c-5a0d-45c3-b1c0-781c776cf4a9" d="M181.72,186.79,203,174.5a6.54,6.54,0,0,0,2.68-5.23V145.92c0-1.94-1.22-2.91-2.68-2.06l-21.28,12.28a6.54,6.54,0,0,0-2.68,5.23v23.35C179,186.66,180.26,187.64,181.72,186.79Z"/>
        </g>
      </g>
    </g>
  </g>
</svg>
