<svg xmlns="http://www.w3.org/2000/svg" viewBox="0 0 306.13 343.38">
  <defs>
    <style>
      .b9b24d95-aba8-4cc5-9dd9-de6efe07f869 {
        fill: #009a4d;
      }

      .b85d45dd-b00b-498e-aafb-fe3432b51879 {
        fill: #fff;
      }

      .abe6b99f-1c48-4a07-a4dd-fba5c8837a6a {
        fill: #040504;
      }

      .b4fc650b-45fc-44b0-8bd6-f63321ae851e {
        fill: #181818;
      }

      .b8bdc540-ec99-4de7-8ee3-2976bce1fd45 {
        fill: #434da1;
      }

      .ac339657-d3ef-4906-9690-826bb332c495 {
        fill: #ee2e30;
      }

      .e5e37a3e-ebac-4f0d-815b-06bc22adbb43 {
        fill: #2c2c2c;
      }

      .e0a3e42b-97ea-4f6f-af92-8b81207fd103 {
        fill: #a6a6a6;
      }

      .a0321edd-8b09-47f7-b9e1-62eaaf7c0607 {
        fill: #b1b3b6;
      }

      .f5ea0afd-1180-4070-af9e-0c6d431db11b {
        fill: #3d3d3d;
      }

      .b69e8361-4626-4362-8f93-9c2ce1af96ce {
        fill: #1d1d1d;
      }

      .a96f3334-96a6-4e0b-b437-617a8dbc1ba6 {
        fill: #f26640;
      }

      .e33f3e05-598c-4614-b10b-ef037730cb41 {
        fill: #ffc906;
      }
    </style>
  </defs>
  <title>-</title>
  <g id="e0a7601c-2962-4067-87a5-c364e8a6a199" data-name="Layer 13">
    <g>
      <g>
        <path class="b9b24d95-aba8-4cc5-9dd9-de6efe07f869" d="M11.61,210.28a4.08,4.08,0,0,1,.54.22A3.41,3.41,0,0,0,11.61,210.28Z"/>
        <path class="b85d45dd-b00b-498e-aafb-fe3432b51879" d="M306.13,104.24l-.19,126.92v10.3a37.51,37.51,0,0,1-2.62,12.18c-.56,1.13-.94,2.45-1.5,3.77l-1.7,2.24a31.36,31.36,0,0,1-3.18,4.12c-.94.94-2.24,1.88-3.37,2.82a26.55,26.55,0,0,1-3.56,2.62L241.82,297l-56,32.44-17.05,9.73a33.49,33.49,0,0,1-4.5,1.88c-.11,0-.21.07-.32.09a31.91,31.91,0,0,1-11.84,2.28A31.3,31.3,0,0,1,142,341.2l-.65-.19c-1.5-.75-3-1.13-4.31-1.88l-17-9.73L16.49,269.59l-.75-.38a37.33,37.33,0,0,1-3.18-2.62,27.61,27.61,0,0,1-3.75-3A26.93,26.93,0,0,1,6,259.84c-.57-.95-1.49-1.68-2.06-2.62a27.18,27.18,0,0,1-1.31-3.58A32.75,32.75,0,0,1,0,241.46V101.62A31.91,31.91,0,0,1,9.35,79.13a30.64,30.64,0,0,1,6.2-4.88.66.66,0,0,1,.38-.19l.18-.19,6.2-3.55,17.05-9.76c0-.18,0-.18.19-.18L137.22,4.12a30.89,30.89,0,0,1,7.68-3,16.66,16.66,0,0,1,2.64-.57c1.86-.18,3.93-.56,5.8-.56a20.28,20.28,0,0,1,3.18.38A35.09,35.09,0,0,1,161,.94c1.48.57,3,1.13,4.66,1.89a22.66,22.66,0,0,1,3.21,1.29L290.2,74.25a35.63,35.63,0,0,1,6,4.69c.1.1.18.21.27.31-.09-.1-.17-.21-.25-.31a32,32,0,0,1,9.83,23v.71C306.08,103.15,306.13,103.7,306.13,104.24Z"/>
      </g>
      <g>
        <polygon class="abe6b99f-1c48-4a07-a4dd-fba5c8837a6a" points="153.01 212.74 187.1 193.61 153.01 183.97 118.81 192.46 153.01 212.74"/>
        <polygon class="abe6b99f-1c48-4a07-a4dd-fba5c8837a6a" points="252.2 154.4 225.38 138.88 225.38 171.45 252.2 154.4"/>
        <polygon class="abe6b99f-1c48-4a07-a4dd-fba5c8837a6a" points="53.94 156 80.77 140.49 80.77 173.05 53.94 156"/>
        <g>
          <path d="M154.09,280.16a7.68,7.68,0,0,1-1.11-3.64c-.41,5.1-3.51,6.66-7.25,5.61a17.9,17.9,0,0,0,14.42,0C157.54,282.81,155.33,282.23,154.09,280.16Z"/>
          <path class="b4fc650b-45fc-44b0-8bd6-f63321ae851e" d="M153,276.34v.08s0,.06,0,.1a.61.61,0,0,0,0-.13V246.8l-99.08-56v26.85a21.19,21.19,0,0,0,1.7,7.89,16.57,16.57,0,0,0,.85,2.31c.36.6,1,1.09,1.33,1.7a17.59,17.59,0,0,0,1.82,2.42,19.21,19.21,0,0,0,2.43,1.95,25.8,25.8,0,0,0,2.07,1.7l.48.24,67,38.74,11.05,6.31c.85.49,1.82.73,2.8,1.22l.24,0c-.09,0-.19-.06-.28-.09C149.38,283.26,152.62,281.7,153,276.34Zm-67-38c0,2-1.14,2.92-2.64,2.12,0,0-.07,0-.12,0L71,233.43l-8.92-5.13c-1.58-.85-2.79-3.28-2.79-5.34V199.77c0-2,1.15-2.94,2.65-2.12,0,0,.08,0,.13,0l15.33,8.85,5.81,3.33,0,0h0a5.44,5.44,0,0,1,2,2.22c.08.16.06.35.13.51a6.58,6.58,0,0,1,.67,2.54v23.23Zm30.79,17.48a2.53,2.53,0,0,1-.85,2.13c-.17.13-.45-.05-.66,0a1.56,1.56,0,0,1-1.25,0L92.84,245.72l0,0h0c-.31-.19-.53-.64-.82-.95a6.62,6.62,0,0,1-1.88-4.27V217.19a2.59,2.59,0,0,1,.82-2.14,1.6,1.6,0,0,1,1.88,0L114,227.33c.21.12.34.44.53.62a6.62,6.62,0,0,1,2.21,4.64Zm26.65,18.71-19.67-11.42a6.6,6.6,0,0,1-2.79-5.22V234.62c0-2,1.33-2.92,2.79-2.07l21.13,12.27a6.29,6.29,0,0,1,2.79,5.22v23.31c0,.49-.24.73-.48,1.22a1.49,1.49,0,0,1-2.31.85Z"/>
          <path class="b9b24d95-aba8-4cc5-9dd9-de6efe07f869" d="M86,238.41V215.17a6.62,6.62,0,0,0-.67-2.56c-.07-.17,0-.35-.13-.51a6,6,0,0,0-2-2.23l-5.84-3.36L62.06,197.7c-.05,0-.09,0-.14,0-1.45-.73-2.62.13-2.62,2.09V223a6.59,6.59,0,0,0,2.75,5.26L71,233.43l12.21,7c.06,0,.1,0,.15.05C84.8,241.24,86,240.38,86,238.41Z"/>
          <path class="b8bdc540-ec99-4de7-8ee3-2976bce1fd45" d="M116.71,232.55a6.74,6.74,0,0,0-2.15-4.6c-.2-.18-.33-.5-.55-.63L92.84,215.1a1.7,1.7,0,0,0-1.94,0,2.59,2.59,0,0,0-.79,2.08v23.32A6.55,6.55,0,0,0,92,244.72a5,5,0,0,0,.85,1L114,257.93a1.52,1.52,0,0,0,1.23,0c.21,0,.49.14.66,0a2.59,2.59,0,0,0,.79-2.12Z"/>
          <path class="ac339657-d3ef-4906-9690-826bb332c495" d="M147.19,274.57c.24-.49.48-.73.48-1.22V250a6.29,6.29,0,0,0-2.79-5.22l-21.13-12.27c-1.46-.85-2.79.12-2.79,2.07v23.31a6.6,6.6,0,0,0,2.79,5.22l19.67,11.42,1.46.85A1.49,1.49,0,0,0,147.19,274.57Z"/>
          <path class="e5e37a3e-ebac-4f0d-815b-06bc22adbb43" d="M153,246.8v29.59a7.73,7.73,0,0,0,1.08,3.77c1.3,2.11,3.57,2.69,6.23,1.9l-.17.05h.15a21.15,21.15,0,0,0,2.91-1.22l11-6.31,36.31-21,31.21-18a16.37,16.37,0,0,0,2.31-1.7c.73-.61,1.58-1.22,2.18-1.82a21.94,21.94,0,0,0,2.07-2.68l1.09-1.45c.37-.85.61-1.7,1-2.43a24.11,24.11,0,0,0,1.7-7.89v-6.68l0-21.43-99,57.34Zm67-32.34a6.52,6.52,0,0,1,2.8-5.34l8-4.62L244,196.92c.05,0,.09,0,.14,0,1.47-.78,2.58.13,2.61,2.07,0,0,0,0,0,0v23.27a6.62,6.62,0,0,1-2.76,5.27h0l0,0-6.68,3.84-14.46,8.35s-.07,0-.12,0c-1.51.84-2.67-.1-2.67-2.11Zm-30.75,17.39a6.67,6.67,0,0,1,1.66-4,5.33,5.33,0,0,1,1-1.22l21.25-12.26a1.51,1.51,0,0,1,1.46,0,2,2,0,0,1,1.27,2.12v23.26a6.59,6.59,0,0,1-2.76,5.27L192.05,257.2H192a1.62,1.62,0,0,1-1.88.05,2.55,2.55,0,0,1-.82-2.13Zm-30.93,17.46a6.31,6.31,0,0,1,2.79-5.22l21.13-12.27c1.58-.85,2.79,0,2.79,2.07V257.2a6.29,6.29,0,0,1-2.79,5.22l-20.89,12.15-.24.12a1.62,1.62,0,0,1-2.06-.12,3.13,3.13,0,0,1-.73-1.95Z"/>
          <path class="e0a3e42b-97ea-4f6f-af92-8b81207fd103" d="M220.08,214.41v23.26c0,2,1.17,2.83,2.63,2.09l.13,0,14.45-8.31,6.71-3.87a6.72,6.72,0,0,0,2.76-5.31V199s0,0,0-.06c0-1.94-1.17-2.79-2.61-2.07-.06,0-.11,0-.17.06l-13.11,7.53-8,4.64A6.61,6.61,0,0,0,220.08,214.41Z"/>
          <path class="b8bdc540-ec99-4de7-8ee3-2976bce1fd45" d="M189.32,255.14a2.58,2.58,0,0,0,.79,2.11,1.69,1.69,0,0,0,1.88-.05l21.25-12.26a6.53,6.53,0,0,0,2.68-5.22V216.4a2,2,0,0,0-1.22-2.07,1.6,1.6,0,0,0-1.49,0l-21.16,12.22a5.16,5.16,0,0,0-1.1,1.24,6.82,6.82,0,0,0-1.63,4Z"/>
          <path class="b8bdc540-ec99-4de7-8ee3-2976bce1fd45" d="M161.15,274.69l.24-.12,20.89-12.15a6.29,6.29,0,0,0,2.79-5.22V233.89c0-2.07-1.21-2.92-2.79-2.07l-21.13,12.27a6.31,6.31,0,0,0-2.79,5.22v23.31a3.13,3.13,0,0,0,.73,1.95A1.62,1.62,0,0,0,161.15,274.69Z"/>
        </g>
        <g>
          <path class="b4fc650b-45fc-44b0-8bd6-f63321ae851e" d="M153,211.71,53.94,156v34.81l99.09,56Zm-67-8.3a2.52,2.52,0,0,1-.81,2.08c-.12.09-.33-.05-.47,0a1.67,1.67,0,0,1-1.51,0l-13.93-8.09-7.21-4.16a5.4,5.4,0,0,1-1.15-1.29A6.62,6.62,0,0,1,59.28,188V164.68c0-2.07,1.22-2.92,2.8-2.07l1.76,1,19.4,11.19a5.37,5.37,0,0,1,1.64,1.86A6.53,6.53,0,0,1,86,180.1Zm31,17.49c0,2-1.23,2.9-2.61,2.13-.07,0-.12,0-.2,0L93,210.8a6.61,6.61,0,0,1-2.75-5.27V182.27c0-.06,0-.06,0-.12a2.61,2.61,0,0,1,.76-2,0,0,0,0,1,0,0,1.65,1.65,0,0,1,1.9,0s0,0,0,0l.44.26,20.75,11.92a6.49,6.49,0,0,1,1.91,2.22l0,0a6.7,6.7,0,0,1,.86,3.1Zm28,19.46s0,0-.06,0l-3.6-2.07-17.58-10.11a6.14,6.14,0,0,1-1.43-1.67,5.73,5.73,0,0,1-.63-1,6.47,6.47,0,0,1-.73-2.66V199.65a2.61,2.61,0,0,1,.85-2.17h0a1.57,1.57,0,0,1,1.76,0c.07,0,.11,0,.18,0l21.17,12.23A6.58,6.58,0,0,1,147.7,215v23.27s0,0,0,.05C147.64,240.29,146.5,241.21,145,240.36Z"/>
          <path class="a0321edd-8b09-47f7-b9e1-62eaaf7c0607" d="M86,180.1a6.73,6.73,0,0,0-1.11-3.41,5,5,0,0,0-1.67-1.81L63.84,163.64l-1.77-1c-1.52-.88-2.76.06-2.76,2.09V188a6.7,6.7,0,0,0,1.61,4,4.78,4.78,0,0,0,1.16,1.27l7.2,4.18,14,8.06a1.59,1.59,0,0,0,1.48,0c.14-.05.35.09.47,0a2.6,2.6,0,0,0,.8-2.12Z"/>
          <path class="b8bdc540-ec99-4de7-8ee3-2976bce1fd45" d="M116.91,220.94V197.67a6.79,6.79,0,0,0-.81-3.06l0,0a5.43,5.43,0,0,0-1.93-2.17l-20.73-12-.38-.22-.1,0a1.68,1.68,0,0,0-1.9,0h0a2.58,2.58,0,0,0-.76,2s0,.08,0,.13v23.2c0,2.06,1.21,4.49,2.79,5.34L114.17,223c.06,0,.12,0,.18.07C115.77,223.69,116.91,222.86,116.91,220.94Z"/>
          <path class="a0321edd-8b09-47f7-b9e1-62eaaf7c0607" d="M147.69,215.07a6.54,6.54,0,0,0-2.8-5.34l-21.13-12.15c-.06,0-.11,0-.17-.06a1.69,1.69,0,0,0-1.76,0h0a2.59,2.59,0,0,0-.81,2.13v23.26a6.85,6.85,0,0,0,.69,2.63,6.38,6.38,0,0,0,.63,1,5.27,5.27,0,0,0,1.44,1.63l17.57,10.15,3.55,2,.11,0c1.47.8,2.64-.08,2.67-2a.14.14,0,0,0,0-.07Z"/>
          <path class="e5e37a3e-ebac-4f0d-815b-06bc22adbb43" d="M153.13,211.77l-.1-.06V246.8l.1.06,99-57.34,0-35.12Zm32,10.34a6.73,6.73,0,0,1-2.8,5.35l-15.45,8.88-5.69,3.28a1.69,1.69,0,0,1-2,0,2.5,2.5,0,0,1-.82-2.13V214.22a6.52,6.52,0,0,1,2.27-4.64c.18-.16.31-.46.51-.57l.69-.41,20.45-11.87c1.45-.77,2.47.1,2.66,1.81,0,.14.12.17.12.33h0s0,0,0,0Zm30.72-17.36a6.79,6.79,0,0,1-2.67,5.34l-21.25,12.14c-1.46,1-2.67,0-2.67-2.06V197a7,7,0,0,1,2.67-5.35l21.25-12.14c1.45-1,2.67,0,2.67,2.07ZM244,192.48l-21.13,12.27c-1.58.85-2.79-.12-2.79-2.07V179.37a6.29,6.29,0,0,1,2.79-5.22L244,161.88c1.58-.85,2.79,0,2.79,2.07v23.31A6.48,6.48,0,0,1,244,192.48Z"/>
          <path class="ac339657-d3ef-4906-9690-826bb332c495" d="M244,161.88l-21.13,12.27a6.29,6.29,0,0,0-2.79,5.22v23.31c0,1.95,1.21,2.92,2.79,2.07L244,192.48a6.48,6.48,0,0,0,2.79-5.22V164C246.77,161.88,245.56,161,244,161.88Z"/>
          <path class="ac339657-d3ef-4906-9690-826bb332c495" d="M213.14,179.49l-21.25,12.14a7,7,0,0,0-2.67,5.35v23.19c0,2.06,1.21,3,2.67,2.06l21.25-12.14a6.79,6.79,0,0,0,2.67-5.34V181.56C215.81,179.49,214.59,178.52,213.14,179.49Z"/>
          <path class="ac339657-d3ef-4906-9690-826bb332c495" d="M185.07,222.13V198.88c0-.16-.11-.19-.12-.34-.17-1.71-1.23-2.57-2.64-1.75L161.84,208.6l-.68.4c-.2.11-.33.42-.52.58a6.62,6.62,0,0,0-2.25,4.7v23.26a2.6,2.6,0,0,0,.8,2.12,1.82,1.82,0,0,0,2-.06l5.68-3.26,15.47-8.94A6.58,6.58,0,0,0,185.07,222.13Z"/>
        </g>
        <g>
          <rect class="f5ea0afd-1180-4070-af9e-0c6d431db11b" x="79.92" y="137.01" width="146.21" height="32.32"/>
          <path class="e5e37a3e-ebac-4f0d-815b-06bc22adbb43" d="M213.29,193.63c6.73.31,12.67-5.91,12.84-11.47V169.47c-.17-5.56-6.17-11.42-12.91-11.11H93C86.27,158,80.09,164.47,79.92,170v12.05c.17,5.56,6.11,11.78,12.85,11.47Z"/>
          <path class="b69e8361-4626-4362-8f93-9c2ce1af96ce" d="M213.29,153.87c6.73.31,12.67-5.92,12.84-11.48V70.89C226,65.33,220,59.47,213.22,59.78L93,59.76c-6.74-.31-12.92,6.12-13.09,11.68v70.87c.17,5.56,6.11,11.79,12.85,11.48Z"/>
          <path class="a96f3334-96a6-4e0b-b437-617a8dbc1ba6" d="M124.65,190.75H90.72a3.36,3.36,0,0,1-3.13-3.55l0-22.44a3.37,3.37,0,0,1,3.15-3.55h33.92a3.35,3.35,0,0,1,3.14,3.54l0,22.44A3.37,3.37,0,0,1,124.65,190.75Z"/>
          <path class="ac339657-d3ef-4906-9690-826bb332c495" d="M216.79,190.75H182.87a3.36,3.36,0,0,1-3.14-3.55l0-22.44a3.38,3.38,0,0,1,3.15-3.55h33.93a3.34,3.34,0,0,1,3.13,3.54l0,22.44A3.37,3.37,0,0,1,216.79,190.75Z"/>
          <path class="ac339657-d3ef-4906-9690-826bb332c495" d="M170.72,190.75H136.8a3.36,3.36,0,0,1-3.14-3.55l0-22.44a3.37,3.37,0,0,1,3.15-3.55h33.93a3.35,3.35,0,0,1,3.13,3.54l0,22.44A3.37,3.37,0,0,1,170.72,190.75Z"/>
          <path class="e33f3e05-598c-4614-b10b-ef037730cb41" d="M123.17,90.53H89.26A3.36,3.36,0,0,1,86.12,87l0-18.6a3.38,3.38,0,0,1,3.15-3.55h33.91a3.37,3.37,0,0,1,3.14,3.55l0,18.6A3.36,3.36,0,0,1,123.17,90.53Z"/>
          <path class="a0321edd-8b09-47f7-b9e1-62eaaf7c0607" d="M123.17,119.67H89.26a3.35,3.35,0,0,1-3.14-3.54l0-18.6A3.38,3.38,0,0,1,89.3,94h33.91a3.36,3.36,0,0,1,3.14,3.54l0,18.6A3.37,3.37,0,0,1,123.17,119.67Z"/>
          <path class="b8bdc540-ec99-4de7-8ee3-2976bce1fd45" d="M123.13,148.78H89.22a3.37,3.37,0,0,1-3.14-3.55l0-18.6a3.37,3.37,0,0,1,3.14-3.55h33.91a3.36,3.36,0,0,1,3.14,3.55l0,18.6A3.37,3.37,0,0,1,123.13,148.78Z"/>
          <path class="e33f3e05-598c-4614-b10b-ef037730cb41" d="M170,90.53H136.07A3.35,3.35,0,0,1,132.94,87l0-18.6a3.37,3.37,0,0,1,3.14-3.55H170a3.36,3.36,0,0,1,3.14,3.55l0,18.6A3.37,3.37,0,0,1,170,90.53Z"/>
          <path class="e33f3e05-598c-4614-b10b-ef037730cb41" d="M170,119.67H136.07a3.34,3.34,0,0,1-3.13-3.54l0-18.6A3.37,3.37,0,0,1,136.11,94H170a3.35,3.35,0,0,1,3.14,3.54l0,18.6A3.37,3.37,0,0,1,170,119.67Z"/>
          <path class="e33f3e05-598c-4614-b10b-ef037730cb41" d="M169.94,148.78H136a3.36,3.36,0,0,1-3.13-3.55l0-18.6a3.37,3.37,0,0,1,3.15-3.55H170a3.36,3.36,0,0,1,3.13,3.55l0,18.6A3.36,3.36,0,0,1,169.94,148.78Z"/>
          <path class="b9b24d95-aba8-4cc5-9dd9-de6efe07f869" d="M216.8,90.53H182.89A3.36,3.36,0,0,1,179.76,87l0-18.6a3.37,3.37,0,0,1,3.15-3.55h33.91A3.36,3.36,0,0,1,220,68.39L220,87A3.36,3.36,0,0,1,216.8,90.53Z"/>
          <path class="b9b24d95-aba8-4cc5-9dd9-de6efe07f869" d="M216.8,119.67H182.89a3.35,3.35,0,0,1-3.13-3.54l0-18.6A3.37,3.37,0,0,1,182.94,94h33.91A3.35,3.35,0,0,1,220,97.52l0,18.6A3.37,3.37,0,0,1,216.8,119.67Z"/>
          <path class="b9b24d95-aba8-4cc5-9dd9-de6efe07f869" d="M216.77,148.78H182.86a3.36,3.36,0,0,1-3.14-3.55l0-18.6a3.37,3.37,0,0,1,3.15-3.55h33.91a3.35,3.35,0,0,1,3.13,3.55l0,18.6A3.36,3.36,0,0,1,216.77,148.78Z"/>
        </g>
      </g>
    </g>
  </g>
</svg>
