<svg xmlns="http://www.w3.org/2000/svg" viewBox="0 0 306.13 343.38">
  <defs>
    <style>
      .ec825a27-59b4-4d49-aa2f-7bb60d1177fc {
        fill: #009a4d;
      }

      .b03881b2-405c-48f1-b17c-a9c649efbba3 {
        fill: #fff;
      }

      .b8854950-9af7-4846-92f8-c9a192b63629 {
        fill: #040504;
      }

      .e4675d93-d518-4678-ae41-8ecc37d8c3d7 {
        fill: #232323;
      }

      .b00cf535-020e-4738-b8ee-9886a314ed2c {
        fill: #1d1d1d;
      }

      .f175bb09-6fdb-4241-8459-76fc2ecacd7a {
        fill: #b1b3b6;
      }

      .b6be32a5-fb61-4124-9e06-b544a047af69 {
        fill: #ffc906;
      }

      .a01916be-68db-46eb-88f0-1a002cb9eb0f {
        fill: #2c2c2c;
      }

      .bb08eeef-fd36-4b12-862a-1431e856c9b1 {
        fill: #f26640;
      }

      .bf61c6e3-fbf3-4ac7-b3a1-5d770ab3f70a {
        fill: #434da1;
      }

      .fffedf11-ff2d-4358-a9a2-5629fb06eed0 {
        fill: #ee2e30;
      }

      .ab3017c4-de05-4e9d-9705-7aca747f1c00 {
        fill: #434242;
      }

      .f0a68228-d444-494b-94ee-dbe869c133ae {
        fill: #181818;
      }
    </style>
  </defs>
  <title>-</title>
  <g id="fb94be32-43af-4ec2-b72d-651896a15e3c" data-name="Layer 13">
    <g>
      <g>
        <path class="ec825a27-59b4-4d49-aa2f-7bb60d1177fc" d="M11.61,210.28a4.08,4.08,0,0,1,.54.22A3.41,3.41,0,0,0,11.61,210.28Z"/>
        <path class="b03881b2-405c-48f1-b17c-a9c649efbba3" d="M306.13,104.24l-.19,126.92v10.3a37.51,37.51,0,0,1-2.62,12.18c-.56,1.13-.94,2.45-1.5,3.77l-1.7,2.24a31.36,31.36,0,0,1-3.18,4.12c-.94.94-2.24,1.88-3.37,2.82a26.55,26.55,0,0,1-3.56,2.62L241.82,297l-56,32.44-17.05,9.73a33.49,33.49,0,0,1-4.5,1.88c-.11,0-.21.07-.32.09a31.91,31.91,0,0,1-11.84,2.28A31.3,31.3,0,0,1,142,341.2l-.65-.19c-1.5-.75-3-1.13-4.31-1.88l-17-9.73L16.49,269.59l-.75-.38a37.33,37.33,0,0,1-3.18-2.62,27.61,27.61,0,0,1-3.75-3A26.93,26.93,0,0,1,6,259.84c-.57-.95-1.49-1.68-2.06-2.62a27.18,27.18,0,0,1-1.31-3.58A32.75,32.75,0,0,1,0,241.46V101.62A31.91,31.91,0,0,1,9.35,79.13a30.64,30.64,0,0,1,6.2-4.88.66.66,0,0,1,.38-.19l.18-.19,6.2-3.55,17.05-9.76c0-.18,0-.18.19-.18L137.22,4.12a30.89,30.89,0,0,1,7.68-3,16.66,16.66,0,0,1,2.64-.57c1.86-.18,3.93-.56,5.8-.56a20.28,20.28,0,0,1,3.18.38A35.09,35.09,0,0,1,161,.94c1.48.57,3,1.13,4.66,1.89a22.66,22.66,0,0,1,3.21,1.29L290.2,74.25a35.63,35.63,0,0,1,6,4.69c.1.1.18.21.27.31-.09-.1-.17-.21-.25-.31a32,32,0,0,1,9.83,23v.71C306.08,103.15,306.13,103.7,306.13,104.24Z"/>
      </g>
      <g>
        <g>
          <polygon class="b8854950-9af7-4846-92f8-c9a192b63629" points="125.91 250.03 103.57 262.98 103.57 232.44 125.91 250.03"/>
          <path class="b8854950-9af7-4846-92f8-c9a192b63629" d="M124.93,136.23s-22.89,44.28-22.47,43,0-34.11,0-34.11l19.93-13Z"/>
          <polygon class="b8854950-9af7-4846-92f8-c9a192b63629" points="202.35 90.85 202.35 116 181.36 102.9 202.35 90.85"/>
          <g>
            <g>
              <path class="e4675d93-d518-4678-ae41-8ecc37d8c3d7" d="M44.19,113a6.47,6.47,0,0,0,2.57,2.89l.18.1.18.14a4.28,4.28,0,0,0-4.43-.12c-2.16,1.23-3.65,4.38-3.85,8.11v-1a20.76,20.76,0,0,1,6.38-14.9C43.86,109.78,43.46,111.39,44.19,113Z"/>
              <path class="b00cf535-020e-4738-b8ee-9886a314ed2c" d="M73.7,130.94l99.05-57.18-24.39-14a19.06,19.06,0,0,0-5-1.94,9.72,9.72,0,0,0-1.7-.37c-1.21-.12-2.55-.36-3.77-.36a13.72,13.72,0,0,0-2.07.24,22.27,22.27,0,0,0-2.91.37c-1,.36-1.95.72-3,1.21a15.47,15.47,0,0,0-2.06.85L49.13,105.2a24.32,24.32,0,0,0-3.9,3,0,0,0,0,1,0,0h0a4.31,4.31,0,0,0-1,4.76,6.67,6.67,0,0,0,2.63,2.9l.12.09.39.22c-.07,0-.14,0-.21-.08l.18.13h.25L73.7,131.13Zm61.16-40.81L114.55,77.84c-1.82-1.09-1.94-2.67-.48-3.52l21.16-12.65a6.88,6.88,0,0,1,6,.24l20.3,12.41c1.83,1,2.07,2.67.49,3.52L140.82,90.49A6.52,6.52,0,0,1,134.86,90.13ZM104.7,107.88,84.39,95.48c-1.82-1-2.06-2.68-.48-3.53L105.07,79.3a6.49,6.49,0,0,1,6,.37L131.33,92c1.83,1.09,1.95,2.67.49,3.53l-21.16,12.64A6.88,6.88,0,0,1,104.7,107.88ZM73.65,125,54,113.11c-.28-.18-.27-.42-.47-.62a2,2,0,0,1-.79-1.56,1.75,1.75,0,0,1,.77-1.47L74.66,96.94h0l0,0c.25-.16.66-.11,1-.2a6.38,6.38,0,0,1,5,.47l20.31,12.28a2.67,2.67,0,0,1,1.4,1.89,1.74,1.74,0,0,1-1,1.74l-.11.07-21.08,12.6a5.85,5.85,0,0,1-4.11.17,6.43,6.43,0,0,1-1.84-.53Z"/>
              <path class="f175bb09-6fdb-4241-8459-76fc2ecacd7a" d="M83.91,92,105.07,79.3a6.49,6.49,0,0,1,6,.37L131.33,92c1.83,1.09,1.95,2.67.49,3.53l-21.16,12.64a6.88,6.88,0,0,1-6-.24L84.39,95.48C82.57,94.5,82.33,92.8,83.91,92Z"/>
              <path class="b6be32a5-fb61-4124-9e06-b544a047af69" d="M73.65,125,54,113.1c-.29-.17-.27-.41-.48-.61a2.12,2.12,0,0,1-.79-1.56,1.68,1.68,0,0,1,.82-1.41L74.67,96.93a5.25,5.25,0,0,1,1-.22,6.45,6.45,0,0,1,5,.5L101,109.5a2.73,2.73,0,0,1,1.45,1.85,1.83,1.83,0,0,1-1,1.76l-.08,0L80.28,125.7a5.75,5.75,0,0,1-4.13.23,6.2,6.2,0,0,1-1.85-.54Z"/>
              <path class="f175bb09-6fdb-4241-8459-76fc2ecacd7a" d="M114.07,74.32l21.16-12.65a6.88,6.88,0,0,1,6,.24l20.3,12.41c1.83,1,2.07,2.67.49,3.52L140.82,90.49a6.52,6.52,0,0,1-6-.36L114.55,77.84C112.73,76.75,112.61,75.17,114.07,74.32Z"/>
              <path class="a01916be-68db-46eb-88f0-1a002cb9eb0f" d="M38.79,124.66,38.91,207v6.69a24.23,24.23,0,0,0,1.7,7.91c.37.72.61,1.58,1,2.43l1.09,1.46a22.63,22.63,0,0,0,2.07,2.67c.61.61,1.46,1.22,2.19,1.83a17.2,17.2,0,0,0,2.31,1.7L73.7,245.76V131.22l-26.4-15a4.31,4.31,0,0,0-4.61-.25c-2.24,1.3-3.79,4.66-3.85,8.65v-.54C38.83,124.31,38.79,124.48,38.79,124.66ZM44.26,195s0,0,0,0c0-1.94,1.14-2.84,2.62-2.06,0,0,.08,0,.13,0l13.16,7.6,8,4.62a6.54,6.54,0,0,1,2.8,5.35v23.23c0,2-1.16,2.94-2.67,2.11,0,0-.08,0-.13,0l-14.48-8.36-6.68-3.84s0,0,0,0h0a6.65,6.65,0,0,1-2.76-5.28V195Zm0-35.11c0-2.07,1.22-2.92,2.8-2.07l21.16,12.28a6.35,6.35,0,0,1,2.8,5.23v23.35c0,1.95-1.22,2.92-2.8,2.07L47.06,188.51a6.5,6.5,0,0,1-2.8-5.23Zm0-35c0-2.07,1.22-3,2.8-2.19L68.22,135a6.49,6.49,0,0,1,2.8,5.23v23.35c0,2.06-1.22,2.92-2.8,2.06L47.06,153.48a6.72,6.72,0,0,1-2.8-5.35Z"/>
              <path class="bb08eeef-fd36-4b12-862a-1431e856c9b1" d="M46.89,193c.06,0,.11,0,.17.06l13.12,7.54,8,4.64A6.6,6.6,0,0,1,71,210.47v23.3c0,2-1.18,2.83-2.63,2.09,0,0-.09,0-.13-.05l-14.48-8.32L47,223.62a6.72,6.72,0,0,1-2.77-5.32V195.07s0,0,0-.06C44.29,193.07,45.44,192.22,46.89,193Z"/>
              <path class="bf61c6e3-fbf3-4ac7-b3a1-5d770ab3f70a" d="M47.06,157.86l21.16,12.28a6.35,6.35,0,0,1,2.8,5.23v23.35c0,1.95-1.22,2.92-2.8,2.07L47.06,188.51a6.5,6.5,0,0,1-2.8-5.23V159.93C44.26,157.86,45.48,157,47.06,157.86Z"/>
              <path class="bf61c6e3-fbf3-4ac7-b3a1-5d770ab3f70a" d="M47.06,122.72,68.22,135a6.49,6.49,0,0,1,2.8,5.23v23.35c0,2.06-1.22,2.92-2.8,2.06L47.06,153.48a6.72,6.72,0,0,1-2.8-5.35V124.91C44.26,122.84,45.48,121.87,47.06,122.72Z"/>
            </g>
            <g>
              <path class="b00cf535-020e-4738-b8ee-9886a314ed2c" d="M103.37,147.92l99-57.14-29.6-17-99,57.17v.19L103.37,148Zm61.53-40.55L144.59,95.45c-1.7-1.09-1.94-2.55-.36-3.53l21.16-12.16a6.86,6.86,0,0,1,6,.25l20.31,11.91c1.7,1.1,1.94,2.68.36,3.53l-21.16,12.16C169.4,108.58,166.73,108.46,164.9,107.37Zm-30,17.51-20.31-11.8c-1.83-1.09-2-2.67-.49-3.52l21.16-12.29a6.49,6.49,0,0,1,6,.37l20.31,11.92c1.82,1,2.07,2.55.48,3.4l-21.16,12.28A6.47,6.47,0,0,1,134.87,124.88ZM84.4,130c-1.83-1-2.07-2.56-.49-3.41l21.16-12.28a6.52,6.52,0,0,1,6,.36l20.31,11.8c1.82,1.1,1.94,2.68.49,3.53l-21.16,12.28a6.52,6.52,0,0,1-6-.36Z"/>
              <path class="f175bb09-6fdb-4241-8459-76fc2ecacd7a" d="M83.91,126.58l21.16-12.28a6.52,6.52,0,0,1,6,.36l20.31,11.8c1.82,1.1,1.94,2.68.49,3.53l-21.16,12.28a6.52,6.52,0,0,1-6-.36L84.4,130C82.57,129,82.33,127.43,83.91,126.58Z"/>
              <path class="b6be32a5-fb61-4124-9e06-b544a047af69" d="M114.07,109.56l21.16-12.29a6.49,6.49,0,0,1,6,.37l20.31,11.92c1.82,1,2.07,2.55.48,3.4l-21.16,12.28a6.47,6.47,0,0,1-5.95-.36l-20.31-11.8C112.73,112,112.61,110.41,114.07,109.56Z"/>
              <path class="f175bb09-6fdb-4241-8459-76fc2ecacd7a" d="M144.23,91.92l21.16-12.16a6.86,6.86,0,0,1,6,.25l20.31,11.91c1.7,1.1,1.94,2.68.36,3.53l-21.16,12.16c-1.46,1-4.13.85-6-.24L144.59,95.45C142.89,94.36,142.65,92.9,144.23,91.92Z"/>
              <path class="a01916be-68db-46eb-88f0-1a002cb9eb0f" d="M73.71,131.2V245.74l6.8,3.91,22.86,13.23V148Zm28.2,50c0,1.94-1.22,2.91-2.68,2.06L78,171a6.53,6.53,0,0,1-2.67-5.23V142.39c0-1.94,1.21-2.92,2.67-2.07l21.28,12.29a6.54,6.54,0,0,1,2.68,5.23Zm0,35c0,2.07-1.22,3-2.68,2.07L78,206.12a6.8,6.8,0,0,1-2.67-5.36V177.54c0-2.07,1.21-3,2.67-2.07l21.28,12.16a7,7,0,0,1,2.68,5.35ZM75.1,235.78v-23.3a2,2,0,0,1,1.27-2.12,1.51,1.51,0,0,1,1.46,0l21.28,12.28a4.88,4.88,0,0,1,1,1.22,6.65,6.65,0,0,1,1.67,4v23.3a2.57,2.57,0,0,1-.82,2.14,1.64,1.64,0,0,1-1.89,0h0s0,0,0,0l-21.2-12.24A6.62,6.62,0,0,1,75.1,235.78Z"/>
              <path class="fffedf11-ff2d-4358-a9a2-5629fb06eed0" d="M75.16,235.79V212.44a2,2,0,0,1,1.21-2.08,1.61,1.61,0,0,1,1.49,0l21.2,12.24a4.89,4.89,0,0,1,1.09,1.23,6.83,6.83,0,0,1,1.64,4v23.35a2.59,2.59,0,0,1-.79,2.12,1.71,1.71,0,0,1-1.89,0L77.83,241A6.53,6.53,0,0,1,75.16,235.79Z"/>
              <path class="bf61c6e3-fbf3-4ac7-b3a1-5d770ab3f70a" d="M99.23,218.28,78,206.12a6.8,6.8,0,0,1-2.67-5.36V177.54c0-2.07,1.21-3,2.67-2.07l21.28,12.16a7,7,0,0,1,2.68,5.35v23.23C101.91,218.28,100.69,219.25,99.23,218.28Z"/>
              <path class="ec825a27-59b4-4d49-aa2f-7bb60d1177fc" d="M99.23,183.25,78,171a6.53,6.53,0,0,1-2.67-5.23V142.39c0-1.94,1.21-2.92,2.67-2.07l21.28,12.29a6.54,6.54,0,0,1,2.68,5.23v23.35C101.91,183.13,100.69,184.1,99.23,183.25Z"/>
            </g>
          </g>
        </g>
        <g>
          <polygon class="ab3017c4-de05-4e9d-9705-7aca747f1c00" points="92.49 232.5 109.63 242.47 179.11 120.23 194.93 109.94 170.81 96.11 167.16 108.83 92.49 232.5"/>
          <path class="a01916be-68db-46eb-88f0-1a002cb9eb0f" d="M78.5,224.65l13,7.3c.61.37,2.44,1.34,2.44,1.34,4.49,2.31,8.63,3,11.3-.61l69.57-121.49c3.28-6.44,4-10.46-.86-13.25l-11.18-6.33-.37-.24-.61-.24-1.58-1H160c-4.5-2.43-8.63-3.16-11.31.61l-3.28,4.62-.73,1a2.61,2.61,0,0,0-.37.6L77.65,211.4C74.37,217.84,73.64,221.86,78.5,224.65Z"/>
          <g>
            <path class="f0a68228-d444-494b-94ee-dbe869c133ae" d="M109.58,229.66l66.69-114.51c3.34-6.45,12.35-8.64,17.62-5.8l68.56,38.9c5.47,3.55,6.74,9.77,1.78,19.11L201.7,277c-3.94,6.75-10.5,11.16-16.09,8.69l-75.23-42.76C105.6,240.15,106.25,236.11,109.58,229.66Z"/>
            <path class="f175bb09-6fdb-4241-8459-76fc2ecacd7a" d="M153.53,140.35l15.81-27.56c1.1-1.92,1-4.05-.26-4.77L151.23,97.6c-1.25-.72-3.15.24-4.25,2.16l-15.81,27.56c-1.11,1.91-1,4.05.25,4.77l17.86,10.42C150.52,143.23,152.43,142.26,153.53,140.35Z"/>
            <path class="b6be32a5-fb61-4124-9e06-b544a047af69" d="M130.23,181.13,146,153.56c1.1-1.91,1-4.05-.26-4.77l-17.85-10.42c-1.25-.72-3.15.25-4.26,2.16l-15.8,27.57c-1.11,1.91-1,4,.25,4.77L126,183.28C127.22,184,129.13,183,130.23,181.13Z"/>
            <path class="f175bb09-6fdb-4241-8459-76fc2ecacd7a" d="M106.17,222.13,122,194.57c1.1-1.92,1-4-.26-4.77l-17.85-10.42c-1.25-.72-3.15.24-4.26,2.16L83.81,209.1c-1.11,1.92-1,4.05.25,4.77l17.86,10.42C103.16,225,105.07,224.05,106.17,222.13Z"/>
            <g>
              <path class="ec825a27-59b4-4d49-aa2f-7bb60d1177fc" d="M259.76,166.35l-15.58,28c-1.12,2-3.38,2.86-5,1.89l-19.09-11.09c-1.67-1-2.11-3.39-1-5.4l15.58-28c1.12-2,3.38-2.86,5.05-1.89L258.78,161C260.44,161.93,260.89,164.34,259.76,166.35Z"/>
              <path class="fffedf11-ff2d-4358-a9a2-5629fb06eed0" d="M231,149.65l-15.58,28c-1.12,2-3.38,2.86-5.05,1.89l-19.09-11.09c-1.66-1-2.11-3.38-1-5.4l15.58-28c1.13-2,3.38-2.86,5.05-1.89L230,144.25C231.69,145.22,232.13,147.63,231,149.65Z"/>
              <path class="bf61c6e3-fbf3-4ac7-b3a1-5d770ab3f70a" d="M202.26,133l-15.58,28c-1.12,2-3.38,2.86-5,1.89l-19.09-11.09c-1.67-1-2.11-3.38-1-5.4l15.58-28c1.12-2,3.38-2.86,5.05-1.89l19.09,11.09C202.94,128.52,203.38,130.93,202.26,133Z"/>
              <path class="ec825a27-59b4-4d49-aa2f-7bb60d1177fc" d="M236.83,206.87l-15.58,28c-1.12,2-3.38,2.86-5,1.89l-19.09-11.09c-1.67-1-2.11-3.38-1-5.39l15.58-28c1.12-2,3.38-2.85,5-1.89l19.09,11.09C237.51,202.44,238,204.86,236.83,206.87Z"/>
              <path class="fffedf11-ff2d-4358-a9a2-5629fb06eed0" d="M208,190.36l-15.58,28c-1.13,2-3.38,2.86-5,1.89l-19.09-11.09c-1.67-1-2.11-3.38-1-5.4l15.58-28c1.12-2,3.38-2.86,5-1.89L207,185C208.7,185.93,209.15,188.34,208,190.36Z"/>
              <path class="bb08eeef-fd36-4b12-862a-1431e856c9b1" d="M179.28,173.66l-15.58,28c-1.12,2-3.38,2.86-5,1.89l-19.09-11.09c-1.67-1-2.11-3.38-1-5.4l15.58-28c1.12-2,3.38-2.86,5.05-1.89l19.09,11.09C180,169.23,180.4,171.64,179.28,173.66Z"/>
              <path class="ec825a27-59b4-4d49-aa2f-7bb60d1177fc" d="M213.77,247.53l-15.58,28c-1.13,2-3.38,2.86-5.05,1.89l-19.09-11.09c-1.67-1-2.11-3.38-1-5.39l15.58-28c1.12-2,3.38-2.86,5.05-1.89l19.09,11.09C214.44,243.1,214.89,245.52,213.77,247.53Z"/>
              <path class="fffedf11-ff2d-4358-a9a2-5629fb06eed0" d="M185,230.82l-15.58,28c-1.12,2-3.38,2.86-5.05,1.89l-19.09-11.09c-1.66-1-2.11-3.38-1-5.39l15.58-28c1.12-2,3.38-2.85,5-1.89L184,225.42C185.69,226.39,186.13,228.81,185,230.82Z"/>
              <path class="fffedf11-ff2d-4358-a9a2-5629fb06eed0" d="M156.26,214.12l-15.58,28c-1.12,2-3.38,2.86-5,1.89l-19.09-11.09c-1.67-1-2.11-3.38-1-5.39l15.58-28c1.12-2,3.38-2.85,5.05-1.89l19.09,11.1C156.94,209.69,157.39,212.11,156.26,214.12Z"/>
            </g>
          </g>
        </g>
      </g>
    </g>
  </g>
</svg>
