<?xml version="1.0" encoding="utf-8"?>
<!-- Generator: Adobe Illustrator 27.0.0, SVG Export Plug-In . SVG Version: 6.00 Build 0)  -->
<svg version="1.1" id="Layer_1" xmlns="http://www.w3.org/2000/svg" xmlns:xlink="http://www.w3.org/1999/xlink" x="0px" y="0px"
	 viewBox="0 0 1345.4 523.6" style="enable-background:new 0 0 1345.4 523.6;" xml:space="preserve">
<style type="text/css">
	.st0{fill:#F57F37;}
	.st1{fill:none;stroke:#F57F37;stroke-width:1.76;stroke-linecap:round;stroke-miterlimit:10;stroke-dasharray:8.79,17.58;}
	.st2{fill:none;stroke:#848484;stroke-width:1.76;stroke-linecap:round;stroke-miterlimit:10;stroke-dasharray:8.79,17.58;}
	.st3{fill:none;stroke:#F57F37;stroke-linecap:round;stroke-miterlimit:10;}
	.st4{fill:#FFFFFF;}
</style>
<g id="Section4">
	<path class="st0" d="M1293.5,321.8c-0.1-0.1-0.1-0.2-0.1-0.3v-13.1c0-0.2,0.2-0.4,0.4-0.4c0,0,0,0,0.1,0h0.4c0.2,0,0.4,0.2,0.4,0.4
		c0,0,0,0,0,0.1v12.4h6.9c0.2,0,0.4,0.1,0.5,0.4c0,0,0,0.1,0,0.1v0.3c0,0.1,0,0.2-0.1,0.3c-0.1,0.1-0.2,0.1-0.3,0.1h-7.7
		C1293.7,321.9,1293.6,321.9,1293.5,321.8z"/>
	<path class="st0" d="M1304,309.2c-0.1-0.1-0.1-0.2-0.1-0.3v-0.8c0-0.1,0-0.2,0.1-0.3c0.1-0.1,0.2-0.1,0.3-0.1h0.8
		c0.1,0,0.2,0,0.3,0.1c0.1,0.1,0.1,0.2,0.1,0.3v0.8c0,0.1,0,0.2-0.1,0.3c-0.1,0.1-0.2,0.1-0.3,0.1h-0.8
		C1304.2,309.4,1304.1,309.3,1304,309.2z M1304.2,321.8c-0.1-0.1-0.1-0.2-0.1-0.3V312c0-0.2,0.2-0.4,0.4-0.4c0,0,0,0,0.1,0h0.3
		c0.2,0,0.4,0.2,0.4,0.4c0,0,0,0,0,0.1v9.5c0,0.2-0.2,0.4-0.4,0.4c0,0,0,0-0.1,0h-0.3C1304.4,322,1304.3,321.9,1304.2,321.8
		L1304.2,321.8z"/>
	<path class="st0" d="M1308.6,321.8c-0.1-0.1-0.1-0.2-0.1-0.3V312c0-0.2,0.2-0.4,0.4-0.4c0,0,0,0,0.1,0h0.3c0.1,0,0.2,0,0.3,0.1
		c0.1,0.1,0.1,0.2,0.1,0.3v0.9c0.4-0.5,0.8-0.9,1.4-1.2c0.6-0.3,1.3-0.4,2-0.4c1.1-0.1,2.2,0.4,3,1.2c0.7,0.9,1.1,2.1,1.1,3.2v5.7
		c0,0.1,0,0.2-0.1,0.3c-0.1,0.1-0.2,0.1-0.3,0.1h-0.3c-0.2,0-0.4-0.2-0.4-0.4c0,0,0,0,0-0.1v-5.6c0.1-0.9-0.2-1.8-0.8-2.5
		c-0.6-0.6-1.4-1-2.3-0.9c-0.9,0-1.7,0.3-2.3,0.9c-0.6,0.7-0.9,1.6-0.9,2.5v5.6c0,0.1,0,0.2-0.1,0.3c-0.1,0.1-0.2,0.1-0.3,0.1h-0.3
		C1308.9,322,1308.7,321.9,1308.6,321.8z"/>
	<path class="st0" d="M1321.1,320.9c-0.8-0.9-1.3-2.1-1.3-3.4v-0.8v-0.8c0-1.2,0.5-2.4,1.3-3.3c0.8-0.8,1.9-1.3,3.1-1.3
		c1.2-0.1,2.4,0.4,3.2,1.4c0.8,1.1,1.2,2.4,1.2,3.8v0.3c0,0.1,0,0.2-0.1,0.3c-0.1,0.1-0.2,0.1-0.3,0.1h-7.1v0.2
		c0,0.6,0.2,1.2,0.4,1.8c0.2,0.5,0.6,1,1.1,1.3c0.5,0.3,1.1,0.5,1.6,0.5c0.6,0,1.2-0.1,1.8-0.4c0.4-0.2,0.7-0.5,1-0.9
		c0.1-0.1,0.2-0.2,0.3-0.3c0.1,0,0.2-0.1,0.3-0.1h0.3c0.1,0,0.2,0,0.3,0.1c0.1,0.1,0.1,0.2,0.1,0.3c-0.1,0.4-0.2,0.7-0.5,1
		c-0.4,0.4-0.9,0.8-1.5,1c-0.7,0.3-1.4,0.4-2.1,0.4C1323,322.1,1321.9,321.7,1321.1,320.9z M1327.4,316.1L1327.4,316.1
		c0-1-0.3-1.9-0.9-2.6c-0.6-0.7-1.4-1-2.3-1c-0.9,0-1.7,0.3-2.3,1c-0.6,0.7-0.9,1.6-0.9,2.5v0.1L1327.4,316.1z"/>
	<line class="st1" x1="5.7" y1="328.1" x2="1344.5" y2="328.1"/>
	<path class="st0" d="M1255.4,283.2c-0.1-0.1-0.1-0.2-0.1-0.3v-13.1c0-0.1,0-0.2,0.1-0.3c0.1-0.1,0.2-0.1,0.3-0.1h5.2
		c1.1-0.1,2.2,0.3,3,1c0.7,0.7,1,1.6,1,2.6c0,0.7-0.2,1.4-0.5,1.9c-0.3,0.5-0.7,0.9-1.2,1.1c0.6,0.3,1.1,0.8,1.4,1.3
		c0.4,0.6,0.6,1.3,0.6,2.1c0,0.7-0.2,1.4-0.5,2c-0.3,0.6-0.8,1.1-1.4,1.5c-0.7,0.4-1.5,0.6-2.2,0.5h-5.4
		C1255.6,283.3,1255.5,283.3,1255.4,283.2z M1260.7,275.4c0.8,0.1,1.6-0.2,2.2-0.6c0.5-0.5,0.8-1.1,0.8-1.9c0-0.7-0.2-1.3-0.8-1.8
		c-0.7-0.4-1.5-0.7-2.2-0.6h-4.1v4.9H1260.7z M1260.9,282.1c0.8,0.1,1.7-0.2,2.3-0.8c1.1-1.1,1.1-2.9,0-4c-0.6-0.5-1.5-0.8-2.3-0.8
		h-4.3v5.5L1260.9,282.1z"/>
	<path class="st0" d="M1269.1,283.1c-0.5-0.2-1-0.6-1.3-1.1c-0.3-0.4-0.5-1-0.5-1.5c0-0.9,0.4-1.7,1.1-2.2c0.9-0.6,1.8-1,2.9-1.1
		l3.2-0.4v-0.7c0-0.6-0.2-1.3-0.7-1.7c-0.6-0.4-1.3-0.6-2-0.6c-0.6,0-1.2,0.1-1.7,0.4c-0.4,0.2-0.7,0.6-0.8,1c0,0.1-0.1,0.2-0.2,0.3
		c-0.1,0.1-0.2,0.1-0.3,0.1h-0.3c-0.1,0-0.2,0-0.3-0.1c-0.1-0.1-0.1-0.2-0.1-0.3c0-0.4,0.2-0.7,0.4-1c0.3-0.4,0.8-0.8,1.2-1
		c0.6-0.3,1.3-0.5,2.1-0.4c1.1-0.1,2.2,0.3,3,1c0.6,0.7,0.9,1.6,0.9,2.5v6.7c0,0.2-0.2,0.4-0.4,0.4c0,0,0,0-0.1,0h-0.3
		c-0.1,0-0.2,0-0.3-0.1c-0.1-0.1-0.1-0.2-0.1-0.3v-1c-0.3,0.5-0.8,0.9-1.3,1.1c-0.7,0.3-1.5,0.5-2.2,0.5
		C1270.3,283.6,1269.6,283.4,1269.1,283.1z M1273.5,281.4c0.7-0.8,1-1.8,0.9-2.8V278l-2.6,0.4c-0.9,0.1-1.7,0.3-2.5,0.8
		c-0.8,0.4-1.1,1.4-0.7,2.2c0.1,0.3,0.3,0.5,0.6,0.6C1270.6,282.7,1272.3,282.5,1273.5,281.4L1273.5,281.4z"/>
	<path class="st0" d="M1279.9,283.1c-0.5-0.2-1-0.6-1.3-1c-0.2-0.2-0.4-0.6-0.4-0.9c0-0.1,0.1-0.2,0.1-0.3c0.1-0.1,0.2-0.1,0.3-0.1
		h0.3c0.1,0,0.2,0,0.2,0c0.1,0.1,0.2,0.1,0.2,0.2c0.3,0.4,0.6,0.8,1.1,1c0.5,0.3,1.1,0.4,1.7,0.4c0.7,0,1.4-0.1,2-0.5
		c0.5-0.3,0.8-0.8,0.8-1.4c0-0.3-0.1-0.6-0.3-0.9c-0.3-0.3-0.6-0.5-1-0.6c-0.5-0.2-1.1-0.4-2-0.6c-0.9-0.1-1.7-0.5-2.4-1.1
		c-0.4-0.5-0.7-1.1-0.7-1.8c0-0.5,0.1-1,0.4-1.4c0.3-0.5,0.7-0.8,1.2-1.1c0.6-0.3,1.3-0.4,2-0.4c0.7,0,1.4,0.1,2,0.4
		c0.5,0.2,0.9,0.5,1.2,1c0.2,0.2,0.4,0.6,0.4,0.9c0,0.1,0,0.2-0.1,0.3c-0.1,0.1-0.2,0.1-0.3,0.1h-0.3c-0.2,0-0.4-0.1-0.4-0.3
		c-0.2-0.4-0.5-0.7-0.9-0.9c-0.5-0.2-1-0.3-1.6-0.3c-0.6,0-1.2,0.1-1.8,0.5c-0.4,0.3-0.6,0.8-0.6,1.3c0,0.3,0.1,0.6,0.2,0.8
		c0.2,0.3,0.6,0.5,0.9,0.6c0.6,0.2,1.3,0.4,1.9,0.5c1,0.2,1.9,0.5,2.6,1.1c0.5,0.5,0.8,1.2,0.8,1.9c0,0.5-0.2,1.1-0.5,1.5
		c-0.3,0.5-0.8,0.9-1.4,1.1c-0.7,0.3-1.4,0.4-2.2,0.4C1281.4,283.6,1280.6,283.4,1279.9,283.1z"/>
	<path class="st0" d="M1289.4,282.3c-0.8-0.9-1.3-2.1-1.3-3.4v-0.8v-0.8c0-1.2,0.5-2.4,1.3-3.3c0.8-0.8,1.9-1.3,3.1-1.3
		c1.2-0.1,2.4,0.4,3.2,1.4c0.8,1.1,1.2,2.4,1.2,3.8v0.3c0,0.1,0,0.2-0.1,0.3c-0.1,0.1-0.2,0.1-0.3,0.1h-7.1v0.2
		c0,0.6,0.2,1.2,0.4,1.8c0.2,0.5,0.6,1,1.1,1.3c0.5,0.3,1.1,0.5,1.6,0.5c0.6,0,1.2-0.1,1.8-0.4c0.4-0.2,0.7-0.5,1-0.9
		c0.1-0.1,0.2-0.2,0.3-0.3c0.1,0,0.2-0.1,0.3-0.1h0.3c0.1,0,0.2,0,0.3,0.1c0.1,0.1,0.1,0.2,0.1,0.3c-0.1,0.4-0.2,0.7-0.5,1
		c-0.4,0.4-0.9,0.8-1.5,1c-0.7,0.3-1.4,0.4-2.1,0.4C1291.3,283.6,1290.2,283.1,1289.4,282.3z M1295.7,277.5L1295.7,277.5
		c0-1-0.3-1.9-0.9-2.6c-0.6-0.7-1.4-1-2.3-1c-0.9,0-1.7,0.3-2.3,1c-0.6,0.7-0.9,1.6-0.8,2.5v0.1H1295.7z"/>
	<path class="st0" d="M1299.7,283.2c-0.1-0.1-0.1-0.2-0.1-0.3v-13.3c0-0.2,0.2-0.4,0.4-0.4c0,0,0,0,0.1,0h0.3c0.1,0,0.2,0,0.3,0.1
		c0.1,0.1,0.1,0.2,0.1,0.3v13.3c0,0.2-0.2,0.4-0.4,0.4c0,0,0,0-0.1,0h-0.3C1299.9,283.3,1299.8,283.3,1299.7,283.2z"/>
	<path class="st0" d="M1304,270.7c-0.1-0.1-0.1-0.2-0.1-0.3v-0.8c0-0.1,0-0.2,0.1-0.3c0.1-0.1,0.2-0.1,0.3-0.1h0.8
		c0.1,0,0.2,0,0.3,0.1c0.1,0.1,0.1,0.2,0.1,0.3v0.8c0,0.1,0,0.2-0.1,0.3c-0.1,0.1-0.2,0.1-0.3,0.1h-0.8
		C1304.2,270.8,1304.1,270.8,1304,270.7z M1304.2,283.2c-0.1-0.1-0.1-0.2-0.1-0.3v-9.5c0-0.2,0.2-0.4,0.4-0.4c0,0,0,0,0.1,0h0.3
		c0.2,0,0.4,0.2,0.4,0.4c0,0,0,0,0,0.1v9.5c0,0.1,0,0.2-0.1,0.3c-0.1,0.1-0.2,0.1-0.3,0.1h-0.3
		C1304.4,283.3,1304.3,283.3,1304.2,283.2L1304.2,283.2z"/>
	<path class="st0" d="M1308.6,283.2c-0.1-0.1-0.1-0.2-0.1-0.3v-9.5c0-0.2,0.2-0.4,0.4-0.4c0,0,0,0,0.1,0h0.3c0.1,0,0.2,0,0.3,0.1
		c0.1,0.1,0.1,0.2,0.1,0.3v0.9c0.4-0.5,0.8-0.9,1.4-1.2c0.6-0.3,1.3-0.4,2-0.4c1.1-0.1,2.2,0.4,3,1.2c0.7,0.9,1.1,2.1,1.1,3.2v5.7
		c0,0.2-0.2,0.4-0.4,0.4c0,0,0,0-0.1,0h-0.3c-0.1,0-0.2,0-0.3-0.1c-0.1-0.1-0.1-0.2-0.1-0.3v-5.6c0.1-0.9-0.2-1.8-0.8-2.5
		c-0.6-0.6-1.4-1-2.3-0.9c-0.9,0-1.7,0.3-2.3,0.9c-0.6,0.7-0.9,1.6-0.9,2.5v5.6c0,0.2-0.2,0.4-0.4,0.4c0,0,0,0-0.1,0h-0.3
		C1308.9,283.3,1308.7,283.3,1308.6,283.2z"/>
	<path class="st0" d="M1321.1,282.3c-0.8-0.9-1.3-2.1-1.3-3.4v-0.8v-0.8c0-1.2,0.5-2.4,1.3-3.3c0.8-0.8,1.9-1.3,3.1-1.3
		c1.2-0.1,2.4,0.4,3.2,1.4c0.8,1.1,1.2,2.4,1.2,3.8v0.3c0,0.1,0,0.2-0.1,0.3c-0.1,0.1-0.2,0.1-0.3,0.1h-7.1v0.2
		c0,0.6,0.2,1.2,0.4,1.8c0.2,0.5,0.6,1,1.1,1.3c0.5,0.3,1.1,0.5,1.6,0.5c0.6,0,1.2-0.1,1.8-0.4c0.4-0.2,0.7-0.5,1-0.9
		c0.1-0.1,0.2-0.2,0.3-0.3c0.1,0,0.2-0.1,0.3-0.1h0.3c0.1,0,0.2,0,0.3,0.1c0.1,0.1,0.1,0.2,0.1,0.3c-0.1,0.4-0.2,0.7-0.5,1
		c-0.4,0.4-0.9,0.8-1.5,1c-0.7,0.3-1.4,0.4-2.1,0.4C1323,283.6,1321.9,283.1,1321.1,282.3z M1327.4,277.5L1327.4,277.5
		c0-1-0.3-1.9-0.9-2.6c-0.6-0.7-1.4-1-2.3-1c-0.9,0-1.7,0.3-2.3,1c-0.6,0.7-0.9,1.6-0.8,2.5v0.1H1327.4z"/>
	<line class="st1" x1="0.9" y1="291.8" x2="1339.7" y2="291.8"/>
	<line class="st2" x1="0.9" y1="199.5" x2="1339.7" y2="199.5"/>
	<path class="st0" d="M1201.5,147.5c-0.1-0.1-0.1-0.2-0.1-0.3V147l5.1-13c0.1-0.2,0.3-0.4,0.6-0.4h0.7c0.3,0,0.5,0.1,0.6,0.4l5.1,13
		v0.2c0,0.1,0,0.2-0.1,0.3c-0.1,0.1-0.2,0.1-0.3,0.1h-0.4c-0.1,0-0.2,0-0.3-0.1c-0.1-0.1-0.1-0.1-0.2-0.2l-1.2-3.2h-6.9l-1.2,3.2
		c0,0.1-0.1,0.1-0.2,0.2c-0.1,0.1-0.2,0.1-0.3,0.1h-0.4C1201.7,147.6,1201.6,147.6,1201.5,147.5z M1204.3,142.9h6.1l-3.1-7.9
		L1204.3,142.9z"/>
	<path class="st0" d="M1226.2,146.4c-0.8-0.9-1.2-2.2-1.2-3.4v-0.8v-0.8c0-1.2,0.4-2.5,1.2-3.4c0.9-0.8,2-1.3,3.2-1.2
		c0.8,0,1.5,0.1,2.2,0.5c0.6,0.3,1,0.7,1.4,1.2c0.3,0.4,0.5,1,0.5,1.5c0,0.1,0,0.2-0.1,0.3c-0.1,0.1-0.2,0.1-0.3,0.1h-0.3
		c-0.1,0-0.2,0-0.3-0.1c-0.1-0.1-0.1-0.2-0.2-0.3c-0.2-0.6-0.6-1.2-1.1-1.6c-0.5-0.3-1.2-0.5-1.8-0.5c-0.9,0-1.7,0.3-2.3,0.9
		c-0.6,0.7-0.9,1.7-0.9,2.7v0.7v0.7c0,1,0.3,1.9,0.9,2.7c0.6,0.6,1.4,0.9,2.3,0.9c0.6,0,1.3-0.1,1.8-0.5c0.5-0.4,0.9-0.9,1.1-1.6
		c0-0.1,0.1-0.2,0.2-0.3c0.1-0.1,0.2-0.1,0.3-0.1h0.3c0.1,0,0.2,0,0.3,0.1c0.1,0.1,0.1,0.2,0.1,0.3c0,0.5-0.2,1.1-0.5,1.5
		c-0.3,0.5-0.8,0.9-1.4,1.2c-0.7,0.3-1.5,0.5-2.2,0.5C1228.2,147.7,1227.1,147.2,1226.2,146.4z"/>
	<path class="st0" d="M1237,146.3c-0.8-0.9-1.3-2.1-1.3-3.4v-0.8v-0.8c0.1-1.2,0.5-2.4,1.3-3.3c0.8-0.8,1.9-1.3,3.1-1.3
		c1.2-0.1,2.4,0.4,3.2,1.4c0.8,1.1,1.2,2.4,1.2,3.8v0.3c0,0.1,0,0.2-0.1,0.3c-0.1,0.1-0.2,0.1-0.3,0.1h-7.1v0.2
		c0,0.6,0.2,1.2,0.4,1.8c0.2,0.5,0.6,1,1.1,1.3c0.5,0.3,1.1,0.5,1.6,0.5c1.1,0.1,2.1-0.4,2.8-1.3c0.1-0.1,0.2-0.2,0.3-0.3
		c0.1-0.1,0.2-0.1,0.3-0.1h0.3c0.1,0,0.2,0,0.3,0.1c0.1,0.1,0.1,0.2,0.1,0.3c-0.1,0.4-0.2,0.7-0.5,1c-0.4,0.4-0.9,0.8-1.5,1
		c-0.7,0.3-1.4,0.4-2.1,0.4C1238.9,147.6,1237.8,147.2,1237,146.3z M1243.3,141.6L1243.3,141.6c0-1-0.3-1.9-0.9-2.6
		c-0.6-0.7-1.4-1-2.3-1c-0.9,0-1.7,0.3-2.3,1c-0.6,0.7-0.9,1.6-0.8,2.5v0.1H1243.3z"/>
	<path class="st0" d="M1247.2,147.5c-0.1-0.1-0.1-0.2-0.1-0.3v-9.5c0-0.1,0-0.2,0.1-0.3c0.1-0.1,0.2-0.1,0.3-0.1h0.3
		c0.1,0,0.2,0,0.3,0.1c0.1,0.1,0.1,0.2,0.1,0.3v0.9c0.4-0.5,0.8-0.9,1.4-1.2c0.6-0.3,1.3-0.4,2-0.4c1.1-0.1,2.2,0.4,3,1.2
		c0.7,0.9,1.1,2.1,1.1,3.2v5.7c0,0.1,0,0.2-0.1,0.3c-0.1,0.1-0.2,0.1-0.3,0.1h-0.3c-0.1,0-0.2,0-0.3-0.1c-0.1-0.1-0.1-0.2-0.1-0.3
		v-5.6c0.1-0.9-0.2-1.8-0.8-2.5c-0.6-0.6-1.4-1-2.3-0.9c-0.9,0-1.7,0.3-2.3,0.9c-0.6,0.7-0.9,1.6-0.9,2.5v5.6c0,0.1,0,0.2-0.1,0.3
		c-0.1,0.1-0.2,0.1-0.3,0.1h-0.3C1247.4,147.6,1247.3,147.5,1247.2,147.5z"/>
	<path class="st0" d="M1259.5,146.1c-0.7-1-1.1-2.2-1.1-3.4v-0.6v-0.6c0-1.2,0.4-2.4,1.1-3.4c0.8-1,2-1.5,3.2-1.4
		c1.3-0.1,2.6,0.5,3.4,1.6v-4.7c0-0.1,0-0.2,0.1-0.3c0.1-0.1,0.2-0.1,0.3-0.1h0.3c0.1,0,0.2,0,0.3,0.1c0.1,0.1,0.1,0.2,0.1,0.3v13.3
		c0,0.1,0,0.2-0.1,0.3c-0.1,0.1-0.2,0.1-0.3,0.1h-0.3c-0.1,0-0.2,0-0.3-0.1c-0.1-0.1-0.1-0.2-0.1-0.3V146c-0.8,1.1-2,1.7-3.4,1.6
		C1261.4,147.7,1260.2,147.1,1259.5,146.1z M1265.2,145.3c0.5-0.7,0.8-1.6,0.9-2.5c0-0.3,0-0.5,0-0.8c0-0.3,0-0.5,0-0.8
		c0-0.6-0.1-1.1-0.4-1.6c-0.2-0.5-0.6-1-1.1-1.3c-0.5-0.3-1.1-0.5-1.8-0.5c-0.9-0.1-1.8,0.3-2.4,1c-0.5,0.8-0.8,1.7-0.8,2.7v0.6
		c0,1,0.2,2.1,0.7,3c0.5,0.8,1.5,1.3,2.5,1.2C1263.7,146.4,1264.6,146,1265.2,145.3L1265.2,145.3z"/>
	<path class="st0" d="M1271.3,146.4c-0.8-0.9-1.3-2.1-1.3-3.4v-0.8v-0.8c0-1.2,0.5-2.4,1.3-3.3c0.8-0.8,1.9-1.3,3.1-1.3
		c1.2-0.1,2.4,0.4,3.2,1.4c0.8,1.1,1.2,2.4,1.2,3.8v0.3c0,0.1,0,0.2-0.1,0.3c-0.1,0.1-0.2,0.1-0.3,0.1h-7.1v0.2
		c0,0.6,0.2,1.2,0.4,1.8c0.2,0.5,0.6,1,1.1,1.3c0.5,0.3,1.1,0.5,1.6,0.5c0.6,0,1.2-0.1,1.8-0.4c0.4-0.2,0.7-0.5,1-0.9
		c0.1-0.1,0.2-0.2,0.3-0.3c0.1-0.1,0.2-0.1,0.3-0.1h0.3c0.1,0,0.2,0,0.3,0.1c0.1,0.1,0.1,0.2,0.1,0.3c-0.1,0.4-0.2,0.7-0.5,1
		c-0.4,0.4-0.9,0.8-1.5,1c-0.7,0.3-1.4,0.4-2.1,0.4C1273.2,147.6,1272.1,147.2,1271.3,146.4z M1277.6,141.6L1277.6,141.6
		c0-1-0.3-1.9-0.9-2.6c-0.6-0.7-1.4-1-2.3-1c-0.9,0-1.7,0.3-2.3,1c-0.6,0.7-0.9,1.6-0.8,2.5v0.1H1277.6z"/>
	<path class="st0" d="M1281.6,147.5c-0.1-0.1-0.1-0.2-0.1-0.3v-9.5c0-0.1,0-0.2,0.1-0.3c0.1-0.1,0.2-0.1,0.3-0.1h0.3
		c0.1,0,0.2,0,0.3,0.1c0.1,0.1,0.1,0.2,0.1,0.3v0.9c0.5-1,1.6-1.5,2.7-1.4h0.7c0.1,0,0.2,0,0.3,0.1c0.1,0.1,0.1,0.2,0.1,0.3v0.3
		c0,0.1,0,0.2-0.1,0.3c-0.1,0.1-0.2,0.1-0.3,0.1h-0.9c-1.3-0.1-2.5,0.9-2.6,2.2c0,0.1,0,0.2,0,0.4v6.2c0,0.1,0,0.2-0.1,0.3
		c-0.1,0.1-0.2,0.1-0.3,0.1h-0.3C1281.8,147.6,1281.7,147.5,1281.6,147.5z"/>
	<path class="st0" d="M1293.5,147.2c-0.1-0.1-0.1-0.2-0.1-0.3v-13.1c0-0.1,0-0.2,0.1-0.3c0.1-0.1,0.2-0.1,0.3-0.1h0.4
		c0.1,0,0.2,0,0.3,0.1c0.1,0.1,0.1,0.2,0.1,0.3v12.4h6.9c0.1,0,0.3,0,0.3,0.1c0.1,0.1,0.1,0.2,0.1,0.3v0.3c0,0.1,0,0.2-0.1,0.3
		c-0.1,0.1-0.2,0.1-0.3,0.1h-7.7C1293.7,147.3,1293.6,147.3,1293.5,147.2z"/>
	<path class="st0" d="M1304,134.7c-0.1-0.1-0.1-0.2-0.1-0.3v-0.8c0-0.1,0-0.2,0.1-0.3c0.1-0.1,0.2-0.1,0.3-0.1h0.8
		c0.1,0,0.2,0,0.3,0.1c0.1,0.1,0.1,0.2,0.1,0.3v0.8c0,0.1,0,0.2-0.1,0.3c-0.1,0.1-0.2,0.1-0.3,0.1h-0.8
		C1304.2,134.8,1304.1,134.7,1304,134.7z M1304.2,147.2c-0.1-0.1-0.1-0.2-0.1-0.3v-9.5c0-0.1,0-0.2,0.1-0.3c0.1-0.1,0.2-0.1,0.3-0.1
		h0.3c0.1,0,0.2,0,0.3,0.1c0.1,0.1,0.1,0.2,0.1,0.3v9.5c0,0.1,0,0.2-0.1,0.3c-0.1,0.1-0.2,0.1-0.3,0.1h-0.3
		C1304.4,147.4,1304.3,147.3,1304.2,147.2L1304.2,147.2z"/>
	<path class="st0" d="M1308.6,147.2c-0.1-0.1-0.1-0.2-0.1-0.3v-9.5c0-0.1,0-0.2,0.1-0.3c0.1-0.1,0.2-0.1,0.3-0.1h0.3
		c0.1,0,0.2,0,0.3,0.1c0.1,0.1,0.1,0.2,0.1,0.3v0.9c0.4-0.5,0.8-0.9,1.4-1.2c0.6-0.3,1.3-0.4,2-0.4c1.1-0.1,2.2,0.4,3,1.2
		c0.7,0.9,1.1,2.1,1.1,3.2v5.7c0,0.1,0,0.2-0.1,0.3c-0.1,0.1-0.2,0.1-0.3,0.1h-0.3c-0.1,0-0.2,0-0.3-0.1c-0.1-0.1-0.1-0.2-0.1-0.3
		v-5.6c0.1-0.9-0.2-1.8-0.8-2.5c-0.6-0.6-1.4-1-2.3-0.9c-0.9,0-1.7,0.3-2.3,0.9c-0.6,0.7-0.9,1.6-0.9,2.5v5.6c0,0.1,0,0.2-0.1,0.3
		c-0.1,0.1-0.2,0.1-0.3,0.1h-0.3C1308.9,147.4,1308.7,147.3,1308.6,147.2z"/>
	<path class="st0" d="M1321.1,146.3c-0.8-0.9-1.3-2.1-1.3-3.4v-0.8v-0.8c0-1.2,0.5-2.4,1.3-3.3c0.8-0.8,1.9-1.3,3.1-1.3
		c1.2-0.1,2.4,0.4,3.2,1.4c0.8,1.1,1.2,2.4,1.2,3.8v0.3c0,0.1,0,0.2-0.1,0.3c-0.1,0.1-0.2,0.1-0.3,0.1h-7.1v0.2
		c0,0.6,0.2,1.2,0.4,1.8c0.2,0.5,0.6,1,1.1,1.3c0.5,0.3,1.1,0.5,1.6,0.5c0.6,0,1.2-0.1,1.8-0.4c0.4-0.2,0.7-0.5,1-0.9
		c0.1-0.1,0.2-0.2,0.3-0.3c0.1-0.1,0.2-0.1,0.3-0.1h0.3c0.1,0,0.2,0,0.3,0.1c0.1,0.1,0.1,0.2,0.1,0.3c-0.1,0.4-0.2,0.7-0.5,1
		c-0.4,0.4-0.9,0.8-1.5,1c-0.7,0.3-1.4,0.4-2.1,0.4C1323,147.6,1321.9,147.1,1321.1,146.3z M1327.4,141.5L1327.4,141.5
		c0-1-0.3-1.9-0.9-2.6c-0.6-0.7-1.4-1-2.3-1c-0.9,0-1.7,0.3-2.3,1c-0.6,0.7-0.9,1.6-0.8,2.5v0.1H1327.4z"/>
	<line class="st1" x1="0.9" y1="155" x2="1339.7" y2="155"/>
	<polyline class="st3" points="650,150.4 650,73.2 633.2,73.2 	"/>
	<path class="st0" d="M80.2,252.5c-0.1-0.1-0.1-0.2-0.1-0.3c0-0.1,0-0.2,0.1-0.3l4.7-6.5l-4.5-6.2c-0.1-0.1-0.1-0.2-0.1-0.3
		c0-0.2,0.2-0.4,0.4-0.4h0.5c0.2,0,0.4,0.1,0.5,0.3l4,5.6l3.9-5.6c0.1-0.2,0.3-0.3,0.5-0.3h0.4c0.2,0,0.4,0.2,0.4,0.4
		c0,0.1,0,0.2-0.1,0.3l-4.4,6.3l4.6,6.4c0.1,0.1,0.1,0.2,0.1,0.3c0,0.1,0,0.2-0.1,0.3c-0.1,0.1-0.2,0.1-0.3,0.1h-0.5
		c-0.2,0-0.4-0.1-0.5-0.3l-4.2-5.8l-4.2,5.8c-0.1,0.2-0.3,0.3-0.5,0.3h-0.4C80.4,252.6,80.3,252.6,80.2,252.5z"/>
	<path class="st0" d="M92.2,247.1c-0.1-0.1-0.1-0.2-0.1-0.3v-0.3c0-0.1,0-0.2,0.1-0.3c0.1-0.1,0.2-0.1,0.3-0.1h5.9
		c0.1,0,0.2,0,0.3,0.1c0.1,0.1,0.1,0.2,0.1,0.3v0.3c0,0.2-0.2,0.4-0.4,0.4c0,0,0,0-0.1,0h-5.9C92.4,247.2,92.3,247.1,92.2,247.1z"/>
	<path class="st0" d="M102.1,252.5c-0.1-0.1-0.1-0.2-0.1-0.3v-13.3c0-0.1,0-0.2,0.1-0.3c0.1-0.1,0.2-0.1,0.3-0.1h0.3
		c0.1,0,0.2,0,0.3,0.1c0.1,0.1,0.1,0.2,0.1,0.3v4.7c0.4-0.5,0.8-0.9,1.4-1.2c0.6-0.3,1.3-0.4,2-0.4c1.1-0.1,2.2,0.4,3,1.2
		c0.7,0.9,1.1,2.1,1.1,3.2v5.7c0,0.2-0.2,0.4-0.4,0.4c0,0,0,0-0.1,0h-0.3c-0.2,0-0.4-0.2-0.4-0.4c0,0,0,0,0-0.1v-5.6
		c0.1-0.9-0.2-1.8-0.8-2.5c-0.6-0.6-1.4-1-2.3-0.9c-0.9,0-1.7,0.3-2.3,0.9c-0.6,0.7-0.9,1.6-0.9,2.5v5.6c0,0.2-0.2,0.4-0.4,0.4
		c0,0,0,0-0.1,0h-0.3C102.3,252.6,102.2,252.6,102.1,252.5z"/>
	<path class="st0" d="M114.6,251.6c-0.8-0.9-1.3-2.1-1.3-3.4v-0.8v-0.8c0-1.2,0.5-2.4,1.3-3.3c0.8-0.9,1.9-1.3,3.1-1.3
		c1.2-0.1,2.4,0.4,3.2,1.4c0.8,1.1,1.2,2.4,1.2,3.8v0.3c0,0.1,0,0.2-0.1,0.3c-0.1,0.1-0.2,0.1-0.3,0.1h-7.1v0.2
		c0,0.6,0.2,1.2,0.4,1.8c0.2,0.5,0.6,1,1.1,1.3c0.5,0.3,1.1,0.5,1.6,0.5c0.6,0,1.2-0.1,1.8-0.4c0.4-0.2,0.7-0.5,1-0.9
		c0.1-0.1,0.2-0.2,0.3-0.3c0.1,0,0.2-0.1,0.3-0.1h0.3c0.1,0,0.2,0,0.3,0.1c0.1,0.1,0.1,0.2,0.1,0.3c-0.1,0.4-0.2,0.7-0.5,1
		c-0.4,0.4-0.9,0.8-1.5,1c-0.7,0.3-1.4,0.4-2.1,0.4C116.5,252.8,115.4,252.4,114.6,251.6z M120.9,246.8L120.9,246.8
		c0-1-0.3-1.9-0.9-2.6c-0.6-0.7-1.4-1-2.3-1c-0.9,0-1.7,0.3-2.3,1c-0.6,0.7-0.9,1.6-0.8,2.5v0.1H120.9z"/>
	<path class="st0" d="M124.6,239.9c-0.1-0.1-0.1-0.2-0.1-0.3v-0.8c0-0.1,0-0.2,0.1-0.3c0.1-0.1,0.2-0.1,0.3-0.1h0.8
		c0.1,0,0.2,0,0.3,0.1c0.1,0.1,0.1,0.2,0.1,0.3v0.8c0,0.1,0,0.2-0.1,0.3c-0.1,0.1-0.2,0.1-0.3,0.1H125
		C124.9,240.1,124.7,240,124.6,239.9z M124.9,252.5c-0.1-0.1-0.1-0.2-0.1-0.3v-9.5c0-0.2,0.2-0.4,0.4-0.4c0,0,0,0,0.1,0h0.3
		c0.1,0,0.2,0,0.3,0.1c0.1,0.1,0.1,0.2,0.1,0.3v9.5c0,0.2-0.2,0.4-0.4,0.4c0,0,0,0-0.1,0h-0.3C125.1,252.6,124.9,252.6,124.9,252.5z
		"/>
	<path class="st0" d="M130.6,256.5c-0.5-0.3-1-0.7-1.3-1.2c-0.2-0.4-0.3-0.8-0.4-1.2c0-0.1,0-0.2,0.1-0.3c0.1-0.1,0.2-0.1,0.3-0.1
		h0.3c0.1,0,0.2,0,0.3,0.1c0.1,0.1,0.2,0.2,0.2,0.3c0.4,1.2,1.6,2,2.9,1.8c0.9,0.1,1.8-0.2,2.5-0.7c0.6-0.7,0.9-1.6,0.8-2.5v-1.4
		c-0.8,1.1-2,1.6-3.3,1.6c-1.2,0.1-2.4-0.4-3.2-1.4c-0.7-1-1.1-2.2-1.1-3.4v-0.6v-0.6c0-1.2,0.4-2.4,1.1-3.4c0.8-1,2-1.5,3.2-1.5
		c1.3-0.1,2.6,0.5,3.4,1.6v-0.9c0-0.1,0-0.2,0.1-0.3c0.1-0.1,0.2-0.1,0.3-0.1h0.3c0.1,0,0.2,0,0.3,0.1c0.1,0.1,0.1,0.2,0.1,0.3v9.7
		c0.1,1.2-0.3,2.4-1,3.4c-0.9,0.9-2.2,1.4-3.5,1.2C132.2,257,131.4,256.9,130.6,256.5z M135.5,250.6c0.5-0.7,0.8-1.6,0.9-2.5
		c0-0.1,0-0.4,0-0.7s0-0.6,0-0.7c0-0.9-0.3-1.8-0.9-2.5c-0.6-0.7-1.5-1.1-2.4-1.1c-0.9-0.1-1.8,0.3-2.4,1c-0.5,0.8-0.8,1.7-0.8,2.6
		v0.6v0.6c0,0.9,0.3,1.9,0.8,2.6c0.6,0.7,1.5,1.1,2.4,1C134,251.7,134.9,251.3,135.5,250.6z"/>
	<path class="st0" d="M141,252.5c-0.1-0.1-0.1-0.2-0.1-0.3v-13.3c0-0.2,0.2-0.4,0.4-0.4c0,0,0,0,0.1,0h0.3c0.1,0,0.2,0,0.3,0.1
		c0.1,0.1,0.1,0.2,0.1,0.3v4.7c0.4-0.5,0.8-0.9,1.4-1.2c0.6-0.3,1.3-0.4,2-0.4c1.1-0.1,2.2,0.4,3,1.2c0.7,0.9,1.1,2.1,1.1,3.2v5.7
		c0,0.2-0.2,0.4-0.4,0.4c0,0,0,0-0.1,0h-0.3c-0.1,0-0.2,0-0.3-0.1c-0.1-0.1-0.1-0.2-0.1-0.3v-5.6c0.1-0.9-0.2-1.8-0.8-2.5
		c-0.6-0.6-1.4-1-2.3-0.9c-0.9,0-1.7,0.3-2.3,0.9c-0.6,0.7-0.9,1.6-0.9,2.5v5.6c0,0.2-0.2,0.4-0.4,0.4c0,0,0,0-0.1,0h-0.3
		C141.2,252.6,141.1,252.6,141,252.5z"/>
	<path class="st0" d="M153.9,251.7c-0.5-0.7-0.7-1.6-0.6-2.4v-5.9h-1.6c-0.1,0-0.2,0-0.3-0.1c-0.1-0.1-0.1-0.2-0.1-0.3v-0.3
		c0-0.2,0.2-0.4,0.4-0.4c0,0,0,0,0.1,0h1.6v-3.4c0-0.2,0.2-0.4,0.4-0.4c0,0,0,0,0.1,0h0.3c0.1,0,0.2,0,0.3,0.1
		c0.1,0.1,0.1,0.2,0.1,0.3v3.4h2.6c0.1,0,0.2,0,0.3,0.1c0.1,0.1,0.1,0.2,0.1,0.3v0.3c0,0.2-0.2,0.4-0.4,0.4c0,0,0,0-0.1,0h-2.5v5.8
		c0,0.6,0.1,1.2,0.4,1.7c0.3,0.4,0.7,0.6,1.2,0.6h1.1c0.1,0,0.2,0,0.3,0.1c0.1,0.1,0.1,0.2,0.1,0.3v0.3c0,0.2-0.2,0.4-0.4,0.4
		c0,0,0,0-0.1,0H156C155.2,252.7,154.4,252.4,153.9,251.7z"/>
	<polygon class="st0" points="169.9,200.6 167.6,204.8 172.4,204.8 	"/>
	<polygon class="st0" points="169.9,290.6 172.6,286 167.3,286 	"/>
	<line class="st3" x1="169.9" y1="202.6" x2="169.9" y2="285.7"/>
	<path class="st4" d="M282.6,291.2c-0.8-0.7-1.2-1.7-1.2-2.8l0.4-2.2l49.6-129.5c0.9-2.8,3.5-4.6,6.4-4.4h12.8
		c2.9-0.2,5.6,1.6,6.4,4.4l49.6,129.5l0.4,2.2c0,1.1-0.5,2.1-1.3,2.8c-0.8,0.8-1.8,1.2-2.9,1.2h-9.4c-1.2,0-2.4-0.3-3.3-1.1
		c-0.8-0.6-1.4-1.4-1.7-2.3l-11.2-28.8h-66.2l-11,28.8c-0.8,2.1-2.8,3.4-5,3.4h-9.6C284.4,292.5,283.4,292,282.6,291.2z
		 M316.9,243.6h54.8l-27.4-71.8L316.9,243.6z"/>
	<path class="st4" d="M423.4,291.1c-0.9-0.9-1.3-2.1-1.3-3.3V193c-0.1-2.5,1.8-4.5,4.3-4.6c0.1,0,0.2,0,0.3,0h8.6
		c2.3-0.3,4.4,1.4,4.6,3.7c0,0.3,0,0.6,0,0.9v8.8c3.8-4.8,8.5-8.6,13.9-11.4c5.3-2.7,11.8-4,19.7-4c12.8,0,22.7,4.1,29.8,12.3
		c7.1,8.2,10.6,19,10.6,32.5v56.6c0.1,2.5-1.8,4.5-4.3,4.6c-0.1,0-0.2,0-0.3,0h-9.2c-2.5,0.1-4.5-1.8-4.6-4.3c0-0.1,0-0.2,0-0.3
		v-55.4c0-9.6-2.3-17.1-7-22.4c-4.7-5.3-11.3-8-20-8c-8.5,0-15.3,2.7-20.4,8.1c-5.1,5.4-7.6,12.8-7.6,22.3v55.4
		c0.1,2.5-1.8,4.5-4.3,4.6c-0.1,0-0.2,0-0.3,0h-9.2C425.5,292.5,424.3,292,423.4,291.1z"/>
	<path class="st4" d="M545.7,290.5c-5.3-2.4-9.8-6.2-13.2-10.9c-3.2-4.5-4.9-9.8-4.9-15.3c0-8.8,3.6-16,10.8-21.6
		c7.2-5.6,17-9.3,29.4-11.2l30-4.2v-5.8c0-13.7-7.9-20.6-23.8-20.6c-6.1,0-11.1,1.2-14.8,3.7c-3.4,2.1-6.3,5.1-8.2,8.7
		c-0.3,1-0.9,2-1.7,2.7c-0.7,0.5-1.6,0.8-2.5,0.7H539c-2.4,0-4.4-2-4.4-4.4c0-3.1,1.4-6.6,4.3-10.7c2.9-4.1,7.3-7.6,13.3-10.6
		c6-3,13.3-4.5,22-4.5c14.9,0,25.6,3.5,32.1,10.4c6.5,6.9,9.7,15.6,9.7,26v65c0.1,2.5-1.8,4.5-4.3,4.6c-0.1,0-0.2,0-0.3,0h-8.8
		c-1.2,0.1-2.4-0.4-3.2-1.3c-0.8-0.9-1.3-2.1-1.2-3.3V279c-3.3,4.7-7.7,8.5-12.8,11c-5.6,2.9-12.8,4.4-21.6,4.4
		C557.5,294.5,551.4,293.1,545.7,290.5z M589.4,271.2c5.6-5.7,8.4-14.1,8.4-25v-5.6l-23.4,3.4c-9.6,1.3-16.9,3.6-21.8,6.8
		s-7.4,7.2-7.4,12c-0.2,5.1,2.4,9.9,6.7,12.6c4.7,3,10.3,4.6,15.9,4.4C576.6,279.8,583.8,277,589.4,271.2L589.4,271.2z"/>
	<path class="st4" d="M641.1,257.4v-53.6h-15.8c-2.3,0.2-4.2-1.6-4.4-3.8c0-0.2,0-0.4,0-0.6V193c0-1.2,0.4-2.4,1.2-3.3
		c0.8-0.9,2-1.4,3.2-1.3h15.8V155c0-1.2,0.4-2.4,1.2-3.3c0.8-0.9,2-1.4,3.2-1.3h8.8c2.5-0.1,4.5,1.8,4.6,4.3c0,0.1,0,0.2,0,0.3v33.4
		h24.8c2.5-0.1,4.5,1.8,4.6,4.3c0,0.1,0,0.2,0,0.3v6.4c0,1.2-0.4,2.4-1.3,3.2c-0.9,0.8-2.1,1.2-3.3,1.2h-24.8V256
		c0,6.8,1.1,11.9,3.3,15.4c2.2,3.5,6,5.2,11.3,5.2h12.2c1.2,0,2.4,0.4,3.2,1.3c0.8,0.9,1.2,2.1,1.2,3.3v6.6c0,1.2-0.4,2.4-1.2,3.3
		c-0.8,0.9-2,1.4-3.2,1.3h-13.6C651.4,292.4,641.1,280.8,641.1,257.4z"/>
	<path class="st4" d="M714,282c-7.9-8.3-12.2-19.3-12.7-33l-0.2-8.6l0.2-8.6c0.5-13.7,4.8-24.7,12.9-33c8.1-8.3,19.3-12.4,33.7-12.4
		c14.4,0,25.7,4.1,33.7,12.4c8.1,8.3,12.4,19.3,12.9,33c0.3,2.9,0.4,5.8,0.4,8.6s-0.1,5.7-0.4,8.6c-0.5,13.7-4.8,24.7-12.7,33
		s-19.2,12.4-33.9,12.4C733.2,294.4,721.9,290.3,714,282z M768.2,271.3c5-5.4,7.7-13.2,8.1-23.3c0.1-1.3,0.2-3.9,0.2-7.6
		c0-3.7-0.1-6.3-0.2-7.6c-0.4-10.1-3.1-17.9-8.1-23.3s-11.8-8.1-20.3-8.1c-8.5,0-15.3,2.7-20.3,8.1c-5,5.4-7.7,13.2-8.1,23.3
		l-0.2,7.6l0.2,7.6c0.4,10.1,3.1,17.9,8.1,23.3c5,5.4,11.8,8.1,20.3,8.1C756.5,279.5,763.2,276.7,768.2,271.3L768.2,271.3z"/>
	<path class="st4" d="M813.5,291.1c-0.9-0.9-1.3-2.1-1.3-3.3V193c-0.1-2.5,1.8-4.5,4.3-4.6c0.1,0,0.2,0,0.3,0h8.4
		c1.2-0.1,2.4,0.4,3.2,1.3c0.8,0.9,1.2,2.1,1.2,3.3v6.8c7.2-8.9,16.9-13.4,29.2-13.4c14.7,0,25.1,6.1,31.2,18.4
		c3.3-5.6,8-10.3,13.7-13.4c6.1-3.4,13-5.1,19.9-5c10.9,0,19.9,3.7,26.8,11.2c6.9,7.5,10.4,18.3,10.4,32.4v57.8
		c0.1,2.5-1.8,4.5-4.3,4.6c-0.1,0-0.2,0-0.3,0h-8.6c-2.5,0.1-4.5-1.8-4.6-4.3c0-0.1,0-0.2,0-0.3v-56c0-10.7-2.2-18.3-6.6-22.9
		c-4.4-4.6-10.2-6.9-17.4-6.9c-6.3-0.1-12.3,2.5-16.5,7.1c-4.6,4.7-6.9,12.3-6.9,22.7v56c0.1,2.5-1.8,4.5-4.3,4.6
		c-0.1,0-0.2,0-0.3,0h-8.8c-2.5,0.1-4.5-1.8-4.6-4.3c0-0.1,0-0.2,0-0.3v-56c0-10.5-2.3-18.1-6.9-22.8c-4.5-4.6-10.7-7.2-17.1-7
		c-6.2-0.1-12.2,2.5-16.5,7c-4.6,4.7-6.9,12.2-6.9,22.6v56.2c0.1,2.5-1.8,4.5-4.3,4.6c-0.1,0-0.2,0-0.3,0h-8.8
		C815.5,292.5,814.3,292,813.5,291.1z"/>
	<path class="st4" d="M993.5,329.3c-0.8-0.7-1.2-1.7-1.2-2.8c0.2-1.2,0.6-2.4,1-3.6l15.6-36.6L970.7,196c-0.6-1-1-2.2-1.2-3.4
		c0.1-1.1,0.6-2.2,1.4-3c0.7-0.8,1.7-1.2,2.8-1.2h9.2c2.1,0,4,1.3,4.8,3.2l30.8,73.6l31.6-73.6c0.8-1.9,2.7-3.2,4.8-3.2h9
		c2.2,0.1,3.9,1.8,4,4c-0.1,1.3-0.4,2.5-1,3.6l-56.6,131.3c-0.5,0.9-1.3,1.7-2.1,2.4c-0.9,0.6-1.9,0.8-2.9,0.8h-8.8
		C995.3,330.5,994.3,330.1,993.5,329.3z"/>
	<polyline class="st3" points="455.9,189.6 455.9,10.7 472.7,10.7 	"/>
	<path class="st0" d="M483.6,16.7c-0.7-0.3-1.3-0.7-1.8-1.3c-0.4-0.5-0.6-1.1-0.6-1.8c0-0.1,0-0.2,0.1-0.3c0.1-0.1,0.2-0.1,0.3-0.1
		h0.4c0.2,0,0.4,0.2,0.4,0.4c0,0,0,0,0,0c0.1,0.7,0.5,1.3,1.1,1.7c0.8,0.5,1.8,0.8,2.8,0.7c1,0.1,2-0.2,2.8-0.7
		c0.6-0.4,1-1.2,0.9-1.9c0-0.5-0.1-0.9-0.5-1.2c-0.4-0.4-0.8-0.7-1.3-0.9c-0.6-0.2-1.4-0.6-2.6-0.9c-0.8-0.3-1.6-0.6-2.4-1
		c-0.5-0.3-1-0.7-1.3-1.2c-0.3-0.5-0.4-1.2-0.4-1.8c0-0.7,0.2-1.3,0.5-1.8c0.4-0.6,0.9-1,1.6-1.3c0.8-0.3,1.6-0.5,2.5-0.5
		c0.9,0,1.7,0.2,2.5,0.5c0.6,0.3,1.2,0.8,1.6,1.3c0.4,0.5,0.6,1,0.7,1.6c0,0.1,0,0.2-0.1,0.3c-0.1,0.1-0.2,0.1-0.3,0.1h-0.4
		c-0.1,0-0.2,0-0.3-0.1c-0.1-0.1-0.2-0.2-0.2-0.3c-0.1-0.7-0.5-1.3-1.1-1.7c-0.7-0.5-1.6-0.7-2.4-0.7c-0.9,0-1.7,0.2-2.5,0.6
		c-0.6,0.4-1,1.1-0.9,1.8c0,0.5,0.1,0.9,0.4,1.3c0.3,0.4,0.8,0.7,1.2,0.9c0.8,0.3,1.6,0.6,2.4,0.9c0.9,0.3,1.7,0.6,2.6,1
		c0.6,0.3,1,0.7,1.4,1.2c0.3,0.5,0.5,1.1,0.5,1.8c0,1.1-0.5,2.2-1.4,2.8c-1.1,0.7-2.4,1.1-3.7,1C485.4,17.2,484.5,17,483.6,16.7z"/>
	<path class="st0" d="M494.1,16.9c-0.1-0.1-0.1-0.2-0.1-0.3V3.2c0-0.2,0.2-0.4,0.4-0.4c0,0,0,0,0.1,0h0.3c0.1,0,0.2,0,0.3,0.1
		c0.1,0.1,0.1,0.2,0.1,0.3V8c0.4-0.5,0.8-0.9,1.4-1.2c0.6-0.3,1.3-0.4,2-0.4c1.1-0.1,2.2,0.4,3,1.2c0.7,0.9,1.1,2.1,1.1,3.2v5.7
		c0,0.1,0,0.2-0.1,0.3c-0.1,0.1-0.2,0.1-0.3,0.1h-0.3c-0.2,0-0.4-0.2-0.4-0.4c0,0,0,0,0-0.1V11c0.1-0.9-0.2-1.8-0.8-2.5
		c-0.6-0.6-1.4-1-2.3-0.9c-0.9,0-1.7,0.3-2.3,0.9c-0.6,0.7-0.9,1.6-0.9,2.5v5.6c0,0.1,0,0.2-0.1,0.3c-0.1,0.1-0.2,0.1-0.3,0.1h-0.3
		C494.3,17,494.2,17,494.1,16.9z"/>
	<path class="st0" d="M506.5,15.9c-0.8-0.9-1.2-2.1-1.2-3.3v-0.8V11c0-1.2,0.4-2.4,1.2-3.3c1.8-1.7,4.6-1.7,6.5,0
		c0.8,0.9,1.2,2.1,1.2,3.3c0,0.1,0,0.4,0,0.8s0,0.7,0,0.8c0,1.2-0.4,2.3-1.2,3.2C511.2,17.6,508.4,17.6,506.5,15.9L506.5,15.9z
		 M512,15.1c0.6-0.7,1-1.6,0.9-2.6c0-0.1,0-0.4,0-0.7s0-0.6,0-0.7c0-0.9-0.3-1.9-0.9-2.6c-1.3-1.2-3.3-1.2-4.6,0
		c-0.6,0.7-1,1.6-0.9,2.6v0.7v0.7c0,0.9,0.3,1.9,0.9,2.6C508.8,16.3,510.8,16.3,512,15.1z"/>
	<path class="st0" d="M517.9,16c-0.7-0.9-1.1-2.1-1-3.2V7c0-0.2,0.2-0.4,0.4-0.4c0,0,0,0,0.1,0h0.3c0.1,0,0.2,0,0.3,0.1
		c0.1,0.1,0.1,0.2,0.1,0.3v5.6c0,2.3,1,3.4,3,3.4c0.9,0,1.7-0.3,2.3-0.9c0.6-0.7,0.9-1.6,0.8-2.5V7c0-0.2,0.2-0.4,0.4-0.4
		c0,0,0,0,0.1,0h0.3c0.1,0,0.2,0,0.3,0.1c0.1,0.1,0.1,0.2,0.1,0.3v9.5c0,0.1,0,0.2-0.1,0.3c-0.1,0.1-0.2,0.2-0.3,0.2h-0.3
		c-0.2,0-0.4-0.2-0.4-0.4c0,0,0,0,0-0.1v-0.9c-0.8,1.1-2,1.7-3.3,1.6C519.7,17.3,518.6,16.8,517.9,16z"/>
	<path class="st0" d="M528.8,16.9c-0.1-0.1-0.1-0.2-0.1-0.3V3.2c0-0.2,0.2-0.4,0.4-0.4c0,0,0,0,0.1,0h0.3c0.2,0,0.4,0.2,0.4,0.4
		c0,0,0,0,0,0.1v13.3c0,0.2-0.2,0.4-0.4,0.4c0,0,0,0-0.1,0h-0.3C529,17,528.9,17,528.8,16.9z"/>
	<path class="st0" d="M533.7,15.8c-0.7-1-1.1-2.2-1.1-3.4v-0.6v-0.6c0-1.2,0.4-2.4,1.1-3.4c0.8-1,2-1.5,3.2-1.4
		c1.3-0.1,2.6,0.5,3.4,1.6V3.2c0-0.2,0.2-0.4,0.4-0.4c0,0,0,0,0.1,0h0.3c0.1,0,0.2,0,0.3,0.1c0.1,0.1,0.1,0.2,0.1,0.3v13.3
		c0,0.1,0,0.2-0.1,0.3c-0.1,0.1-0.2,0.1-0.3,0.1h-0.3c-0.2,0-0.4-0.2-0.4-0.4c0,0,0,0,0-0.1v-0.9c-0.8,1.1-2,1.7-3.4,1.6
		C535.7,17.3,534.5,16.8,533.7,15.8z M539.4,15c0.5-0.7,0.8-1.6,0.9-2.5c0-0.1,0-0.4,0-0.8s0-0.6,0-0.8c0-0.6-0.1-1.1-0.4-1.6
		c-0.2-0.5-0.6-1-1.1-1.3c-0.5-0.3-1.1-0.5-1.8-0.5c-0.9-0.1-1.8,0.3-2.4,1c-0.5,0.8-0.8,1.7-0.8,2.6v0.6c0,1,0.2,2.1,0.7,3
		c0.5,0.8,1.4,1.3,2.4,1.2C537.9,16.1,538.8,15.7,539.4,15L539.4,15z"/>
	<path class="st0" d="M545.6,16c-0.8-0.9-1.3-2.1-1.3-3.4v-0.8V11c0-1.2,0.5-2.4,1.3-3.3c0.8-0.8,1.9-1.3,3.1-1.3
		c1.2-0.1,2.4,0.4,3.2,1.4c0.8,1.1,1.2,2.4,1.1,3.7v0.3c0,0.1,0,0.2-0.1,0.3c-0.1,0.1-0.2,0.1-0.3,0.1h-7.1v0.2
		c0,0.6,0.2,1.2,0.4,1.8c0.2,0.5,0.6,1,1.1,1.3c0.5,0.3,1.1,0.5,1.6,0.5c0.6,0,1.2-0.1,1.8-0.4c0.4-0.2,0.7-0.5,1-0.9
		c0.1-0.1,0.2-0.2,0.3-0.3c0.1,0,0.2-0.1,0.3-0.1h0.3c0.1,0,0.2,0,0.3,0.1c0.1,0.1,0.1,0.2,0.1,0.3c-0.1,0.4-0.2,0.7-0.5,1
		c-0.4,0.4-0.9,0.8-1.5,1c-0.7,0.3-1.4,0.4-2.1,0.4C547.5,17.2,546.4,16.8,545.6,16z M551.8,11.2v-0.1c0-0.9-0.2-1.8-0.8-2.5
		c-0.6-0.7-1.4-1-2.3-1c-0.9,0-1.7,0.3-2.3,1c-0.6,0.7-0.9,1.6-0.8,2.5v0.1L551.8,11.2z"/>
	<path class="st0" d="M555.8,16.9c-0.1-0.1-0.1-0.2-0.1-0.3V7.1c0-0.1,0-0.2,0.1-0.3c0.1-0.1,0.2-0.1,0.3-0.1h0.3
		c0.2,0,0.4,0.2,0.5,0.4c0,0,0,0,0,0V8c0.6-1,1.6-1.5,2.7-1.4h0.7c0.2,0,0.4,0.2,0.4,0.4c0,0,0,0,0,0.1v0.3c0,0.2-0.2,0.4-0.4,0.4
		c0,0,0,0-0.1,0h-0.9c-1.3-0.1-2.5,0.9-2.6,2.2c0,0.1,0,0.2,0,0.4v6.2c0,0.1,0,0.2-0.1,0.3c-0.1,0.1-0.2,0.1-0.3,0.1h-0.3
		C556,17,555.9,17,555.8,16.9z"/>
	<path class="st0" d="M440,201.8c3.8-4.7,8.5-8.6,13.9-11.4c5.3-2.7,11.8-4,19.7-4c12.8,0,22.7,4.1,29.8,12.3s10.6,19,10.6,32.5v1.2
		h-18.4c0-9.6-2.3-17.1-7-22.4c-4.7-5.3-11.3-8-20-8c-8.5,0-15.3,2.7-20.4,8.1c-5.1,5.4-7.6,12.8-7.6,22.3L440,201.8z"/>
	<polyline class="st3" points="675.1,293.5 675.1,512.8 691.9,512.8 	"/>
	<path class="st0" d="M700,518.2c-0.1-0.1-0.1-0.2-0.1-0.3v-12.4h-4c-0.2,0-0.4-0.2-0.4-0.4c0,0,0,0,0-0.1v-0.3c0-0.1,0-0.2,0.1-0.3
		c0.1-0.1,0.2-0.1,0.3-0.1h9.2c0.2,0,0.4,0.1,0.5,0.4c0,0,0,0.1,0,0.1v0.3c0,0.1,0,0.2-0.1,0.3c-0.1,0.1-0.2,0.1-0.3,0.1h-3.9v12.4
		c0,0.1,0,0.2-0.1,0.3c-0.1,0.1-0.2,0.1-0.3,0.1h-0.4C700.2,518.3,700.1,518.2,700,518.2z"/>
	<path class="st0" d="M706.6,517.2c-0.8-0.9-1.3-2.1-1.3-3.3v-0.8v-0.8c0-1.2,0.5-2.4,1.3-3.3c0.8-0.9,1.9-1.3,3.1-1.3
		c1.2-0.1,2.4,0.4,3.2,1.4c0.8,1.1,1.2,2.4,1.2,3.8v0.3c0,0.1,0,0.2-0.1,0.3c-0.1,0.1-0.2,0.1-0.3,0.1h-7.1v0.2
		c0,0.6,0.2,1.2,0.4,1.8c0.2,0.5,0.6,1,1.1,1.3c0.5,0.3,1.1,0.5,1.6,0.5c0.6,0,1.2-0.1,1.8-0.4c0.4-0.2,0.7-0.5,1-0.9
		c0.1-0.1,0.2-0.2,0.3-0.3c0.1,0,0.2-0.1,0.3-0.1h0.3c0.1,0,0.2,0,0.3,0.1c0.1,0.1,0.1,0.2,0.1,0.3c-0.1,0.4-0.2,0.7-0.5,1
		c-0.4,0.4-0.9,0.8-1.5,1c-0.7,0.3-1.4,0.4-2.1,0.4C708.5,518.5,707.4,518.1,706.6,517.2z M712.8,512.5L712.8,512.5
		c0-1-0.3-1.9-0.9-2.6c-0.6-0.7-1.4-1-2.3-1c-0.9,0-1.7,0.3-2.3,1c-0.6,0.7-0.9,1.6-0.8,2.5v0.1H712.8z"/>
	<path class="st0" d="M716.8,518.2c-0.1-0.1-0.1-0.2-0.1-0.3v-9.5c0-0.1,0-0.2,0.1-0.3c0.1-0.1,0.2-0.1,0.3-0.1h0.3
		c0.2,0,0.4,0.2,0.5,0.4c0,0,0,0,0,0v0.9c0.5-1,1.6-1.5,2.7-1.4h0.7c0.2,0,0.4,0.2,0.4,0.4c0,0,0,0,0,0.1v0.3c0,0.1,0,0.2-0.1,0.3
		c-0.1,0.1-0.2,0.1-0.3,0.1h-0.9c-1.3-0.1-2.5,0.9-2.6,2.2c0,0.1,0,0.2,0,0.4v6.2c0,0.1,0,0.2-0.1,0.3c-0.1,0.1-0.2,0.1-0.3,0.1
		h-0.3C717,518.3,716.9,518.2,716.8,518.2z"/>
	<path class="st0" d="M723.8,518.2c-0.1-0.1-0.1-0.2-0.1-0.3v-9.5c0-0.1,0-0.2,0.1-0.3c0.1-0.1,0.2-0.1,0.3-0.1h0.3
		c0.2,0,0.4,0.2,0.4,0.4c0,0,0,0,0,0.1v0.7c0.3-0.4,0.7-0.8,1.2-1c0.5-0.2,1.1-0.4,1.7-0.3c1.3-0.1,2.6,0.7,3.2,1.9
		c0.3-0.6,0.8-1,1.4-1.4c0.6-0.3,1.3-0.5,2-0.5c1,0,2,0.4,2.7,1.1c0.7,0.9,1.1,2.1,1,3.2v5.8c0,0.1,0,0.2-0.1,0.3
		c-0.1,0.1-0.2,0.1-0.3,0.1h-0.3c-0.2,0-0.4-0.2-0.4-0.4c0,0,0,0,0-0.1v-5.6c0.1-0.9-0.2-1.9-0.8-2.6c-0.5-0.5-1.3-0.8-2-0.8
		c-0.7,0-1.4,0.3-1.9,0.8c-0.6,0.7-0.9,1.7-0.8,2.6v5.6c0,0.1,0,0.2-0.1,0.3c-0.1,0.1-0.2,0.1-0.3,0.1h-0.3c-0.2,0-0.4-0.2-0.4-0.4
		c0,0,0,0,0-0.1v-5.6c0.1-0.9-0.2-1.9-0.8-2.6c-0.5-0.5-1.2-0.8-1.9-0.8c-0.7,0-1.4,0.3-1.9,0.8c-0.6,0.7-0.9,1.6-0.8,2.6v5.6
		c0,0.1,0,0.2-0.1,0.3c-0.1,0.1-0.2,0.1-0.3,0.1H724C723.9,518.3,723.8,518.2,723.8,518.2z"/>
	<path class="st0" d="M741.1,505.6c-0.1-0.1-0.1-0.2-0.1-0.3v-0.8c0-0.1,0-0.2,0.1-0.3c0.1-0.1,0.2-0.1,0.3-0.1h0.8
		c0.2,0,0.4,0.2,0.5,0.4c0,0,0,0,0,0v0.8c0,0.1,0,0.2-0.1,0.3c-0.1,0.1-0.2,0.1-0.3,0.1h-0.8C741.3,505.7,741.2,505.7,741.1,505.6z
		 M741.3,518.2c-0.1-0.1-0.1-0.2-0.1-0.3v-9.5c0-0.1,0-0.2,0.1-0.3c0.1-0.1,0.2-0.1,0.3-0.1h0.4c0.2,0,0.4,0.2,0.4,0.4
		c0,0,0,0,0,0.1v9.5c0,0.1,0,0.2-0.1,0.3c-0.1,0.1-0.2,0.1-0.3,0.1h-0.3C741.5,518.3,741.4,518.2,741.3,518.2L741.3,518.2z"/>
	<path class="st0" d="M745.8,518.2c-0.1-0.1-0.1-0.2-0.1-0.3v-9.5c0-0.1,0-0.2,0.1-0.3c0.1-0.1,0.2-0.1,0.3-0.1h0.3
		c0.2,0,0.4,0.2,0.4,0.4c0,0,0,0,0,0.1v0.9c0.4-0.5,0.8-0.9,1.4-1.2c0.6-0.3,1.3-0.4,2-0.4c1.1-0.1,2.2,0.4,3,1.2
		c0.7,0.9,1.1,2.1,1.1,3.2v5.7c0,0.1,0,0.2-0.1,0.3c-0.1,0.1-0.2,0.1-0.3,0.1h-0.3c-0.2,0-0.4-0.2-0.4-0.4c0,0,0,0,0-0.1v-5.6
		c0.1-0.9-0.2-1.8-0.8-2.5c-0.6-0.6-1.4-1-2.3-0.9c-0.9,0-1.7,0.3-2.3,0.9c-0.6,0.7-0.9,1.6-0.9,2.5v5.6c0,0.1,0,0.2-0.1,0.3
		c-0.1,0.1-0.2,0.1-0.3,0.1h-0.3C746,518.3,745.9,518.2,745.8,518.2z"/>
	<path class="st0" d="M758.5,518.1c-0.5-0.2-1-0.6-1.3-1.1c-0.3-0.4-0.5-1-0.5-1.5c0-0.9,0.4-1.7,1.1-2.2c0.8-0.6,1.8-1,2.9-1.1
		l3.2-0.4v-0.7c0-0.6-0.2-1.3-0.7-1.7c-0.6-0.4-1.3-0.6-2-0.6c-0.6,0-1.2,0.1-1.7,0.4c-0.4,0.2-0.7,0.6-0.8,1c0,0.1-0.1,0.2-0.2,0.3
		c-0.1,0.1-0.2,0.1-0.3,0.1h-0.3c-0.1,0-0.2,0-0.3-0.1c-0.1-0.1-0.1-0.2-0.1-0.3c0-0.4,0.2-0.7,0.4-1c0.3-0.4,0.8-0.8,1.2-1
		c0.6-0.3,1.3-0.5,2.1-0.4c1.1-0.1,2.2,0.3,3,1c0.6,0.7,0.9,1.6,0.9,2.5v6.7c0,0.1,0,0.2-0.1,0.3c-0.1,0.1-0.2,0.1-0.3,0.1h-0.3
		c-0.1,0-0.2,0-0.3-0.1c-0.1-0.1-0.1-0.2-0.1-0.3V517c-0.3,0.5-0.8,0.9-1.3,1.1c-0.7,0.3-1.5,0.5-2.2,0.5
		C759.7,518.5,759,518.4,758.5,518.1z M762.9,516.4c0.7-0.8,1-1.8,0.9-2.8v-0.7l-2.6,0.4c-0.9,0.1-1.7,0.3-2.5,0.8
		c-0.5,0.3-0.8,0.8-0.8,1.4c0,0.6,0.3,1.1,0.8,1.4c0.5,0.3,1.2,0.5,1.8,0.5C761.4,517.3,762.2,517,762.9,516.4L762.9,516.4z"/>
	<path class="st0" d="M768.3,518.2c-0.1-0.1-0.1-0.2-0.1-0.3v-13.3c0-0.1,0-0.2,0.1-0.3c0.1-0.1,0.2-0.1,0.3-0.1h0.3
		c0.2,0,0.4,0.2,0.4,0.4c0,0,0,0,0,0.1v13.3c0,0.1,0,0.2-0.1,0.3c-0.1,0.1-0.2,0.1-0.3,0.1h-0.3
		C768.5,518.3,768.4,518.2,768.3,518.2z"/>
	<path class="st0" d="M672.1,276.6h13.6c1.2-0.1,2.4,0.4,3.2,1.3c0.8,0.9,1.2,2.1,1.2,3.3v6.6c0,1.2-0.4,2.4-1.2,3.3
		c-0.8,0.9-2,1.4-3.2,1.3h-13.6V276.6z"/>
	<polyline class="st3" points="934.3,189.4 934.3,61.3 917.5,61.3 	"/>
	<path class="st0" d="M829.6,199.8c7.2-8.9,16.9-13.4,29.2-13.4c14.7,0,25.1,6.1,31.2,18.4c3.2-5.6,8-10.3,13.7-13.4
		c6.1-3.4,13-5.1,19.9-5c10.9,0,19.9,3.7,26.8,11.2c6.9,7.5,10.4,18.3,10.4,32.4H943c-0.2-9.7-2.4-16.8-6.6-21.1
		c-4.4-4.6-10.2-6.9-17.4-6.9c-6.3-0.1-12.3,2.5-16.5,7.1c-4.3,4.5-6.6,11.4-6.8,20.9h-18.1c-0.2-9.6-2.5-16.6-6.9-21
		c-4.5-4.6-10.7-7.2-17.1-7c-6.2-0.1-12.2,2.5-16.5,7c-4.4,4.4-6.7,11.4-6.9,21L829.6,199.8z"/>
	<polyline class="st3" points="1016.5,189.4 1016.5,52.4 1033.3,52.4 	"/>
	<path class="st0" d="M1040.9,52.8c0-0.4,0-1,0-1.7s0-1.3,0-1.7c-0.1-1.5,0.5-3,1.5-4.1c2.2-1.9,5.4-1.9,7.6,0
		c1,1.1,1.5,2.6,1.5,4.1c0,0.8,0,1.4,0,1.7s0,0.9,0,1.7c-0.1,3.7-1.9,5.5-5.3,5.5S1041,56.5,1040.9,52.8z M1049,56
		c0.8-0.9,1.2-2.1,1.2-3.3c0-0.8,0-1.3,0-1.6s0-0.8,0-1.6c0-1.2-0.4-2.4-1.2-3.3c-1.6-1.5-4.1-1.5-5.7,0c-0.8,0.9-1.2,2.1-1.2,3.3
		c0,0.4,0,0.9,0,1.6s0,1.2,0,1.6c-0.1,1.2,0.4,2.4,1.2,3.3C1044.9,57.5,1047.4,57.5,1049,56z"/>
	<path class="st0" d="M1054.5,61.8c-0.1-0.1-0.1-0.2-0.1-0.3V48.1c0-0.2,0.2-0.4,0.4-0.4c0,0,0,0,0.1,0h0.3c0.1,0,0.2,0,0.3,0.1
		c0.1,0.1,0.1,0.2,0.1,0.3v0.9c0.8-1.1,2.1-1.7,3.4-1.6c1.2-0.1,2.4,0.4,3.2,1.4c0.7,1,1.1,2.2,1.1,3.4c0,0.1,0,0.3,0,0.7
		s0,0.5,0,0.7c0,1.2-0.4,2.4-1.1,3.4c-0.8,1-2,1.5-3.2,1.4c-1.3,0.1-2.6-0.5-3.4-1.6v4.7c0,0.2-0.2,0.4-0.4,0.4c0,0,0,0-0.1,0h-0.3
		C1054.7,61.9,1054.6,61.9,1054.5,61.8z M1061.2,56.1c0.5-0.8,0.8-1.7,0.8-2.7c0-0.1,0-0.3,0-0.6c0-1-0.2-2.1-0.7-3
		c-0.5-0.8-1.5-1.3-2.5-1.2c-0.9-0.1-1.8,0.3-2.4,1c-0.5,0.7-0.8,1.6-0.9,2.5V53v0.8c0,0.6,0.1,1.1,0.4,1.6c0.2,0.5,0.6,0.9,1.1,1.3
		c0.5,0.3,1.1,0.5,1.8,0.5C1059.8,57.3,1060.7,56.9,1061.2,56.1z"/>
	<path class="st0" d="M1066.8,57c-0.8-0.9-1.3-2.1-1.3-3.3v-0.8v-0.8c0-1.2,0.5-2.4,1.3-3.3c0.8-0.9,1.9-1.3,3.1-1.3
		c1.2-0.1,2.4,0.4,3.2,1.4c0.8,1.1,1.2,2.4,1.2,3.8V53c0,0.1,0,0.2-0.1,0.3c-0.1,0.1-0.2,0.1-0.3,0.1h-7.1v0.2
		c0,0.6,0.2,1.2,0.4,1.8c0.2,0.5,0.6,1,1.1,1.3c0.5,0.3,1.1,0.5,1.6,0.5c0.6,0,1.2-0.1,1.8-0.4c0.4-0.2,0.7-0.5,1-0.9
		c0.1-0.1,0.2-0.2,0.3-0.3c0.1,0,0.2-0.1,0.3-0.1h0.3c0.1,0,0.2,0,0.3,0.1c0.1,0.1,0.1,0.2,0.1,0.3c-0.1,0.4-0.2,0.7-0.5,1
		c-0.4,0.4-0.9,0.8-1.5,1c-0.7,0.3-1.4,0.4-2.1,0.4C1068.7,58.4,1067.6,57.9,1066.8,57z M1073.1,52.3L1073.1,52.3
		c0-1-0.3-1.9-0.9-2.6c-0.6-0.7-1.4-1-2.3-1c-0.9,0-1.7,0.3-2.3,1c-0.6,0.7-0.9,1.6-0.8,2.5v0.1L1073.1,52.3z"/>
	<path class="st0" d="M1077,58c-0.1-0.1-0.1-0.2-0.1-0.3v-9.5c0-0.2,0.2-0.4,0.4-0.4c0,0,0,0,0.1,0h0.3c0.1,0,0.2,0,0.3,0.1
		c0.1,0.1,0.1,0.2,0.1,0.3v0.9c0.4-0.5,0.8-0.9,1.4-1.2c0.6-0.3,1.3-0.4,2-0.4c1.1-0.1,2.2,0.4,3,1.2c0.7,0.9,1.1,2.1,1.1,3.2v5.7
		c0,0.2-0.2,0.4-0.4,0.4c0,0,0,0-0.1,0h-0.3c-0.1,0-0.2,0-0.3-0.1c-0.1-0.1-0.1-0.2-0.1-0.3v-5.6c0.1-0.9-0.2-1.8-0.8-2.5
		c-0.6-0.6-1.4-1-2.3-0.9c-0.9,0-1.7,0.3-2.3,0.9c-0.6,0.7-0.9,1.6-0.9,2.5v5.6c0,0.2-0.2,0.4-0.4,0.4c0,0,0,0-0.1,0h-0.3
		C1077.2,58.1,1077.1,58.1,1077,58z"/>
	<path class="st0" d="M1095,56.8c-0.9-1.1-1.4-2.5-1.4-4c0-0.4,0-1,0-1.8s0-1.4,0-1.8c0-1.5,0.5-2.9,1.4-4c1-1,2.4-1.6,3.9-1.5
		c1,0,2.1,0.2,3,0.7c0.7,0.4,1.3,0.9,1.8,1.6c0.4,0.6,0.6,1.3,0.6,2l0,0c0,0.1,0,0.2-0.1,0.3c-0.1,0.1-0.2,0.1-0.3,0.1h-0.4
		c-0.2,0-0.4-0.1-0.4-0.4c-0.1-0.9-0.6-1.8-1.4-2.4c-0.8-0.5-1.7-0.8-2.7-0.7c-1.1-0.1-2.1,0.3-2.9,1.1c-0.8,0.9-1.2,2.1-1.1,3.3
		c0,0.4,0,0.9,0,1.7s0,1.3,0,1.7c-0.1,1.2,0.3,2.4,1.1,3.3c0.8,0.7,1.8,1.1,2.9,1.1c1,0,1.9-0.2,2.7-0.7c0.7-0.6,1.2-1.4,1.4-2.4
		c0-0.3,0.2-0.4,0.4-0.4h0.4c0.1,0,0.2,0,0.3,0.1c0.1,0.1,0.1,0.2,0.1,0.3c-0.1,0.7-0.3,1.4-0.6,2c-0.4,0.7-1,1.3-1.8,1.6
		c-0.9,0.5-2,0.7-3,0.7C1097.4,58.4,1096,57.9,1095,56.8z"/>
	<path class="st0" d="M1107.6,57c-0.8-0.9-1.2-2.1-1.2-3.3v-0.8V52c0-1.2,0.4-2.4,1.2-3.3c1.8-1.7,4.6-1.7,6.5,0
		c0.8,0.9,1.2,2.1,1.2,3.3c0,0.1,0,0.4,0,0.8s0,0.7,0,0.8c0,1.2-0.4,2.4-1.2,3.3C1112.3,58.7,1109.4,58.7,1107.6,57z M1113.2,56.2
		c0.6-0.7,1-1.6,0.9-2.6c0-0.1,0-0.4,0-0.7s0-0.6,0-0.7c0-0.9-0.3-1.9-0.9-2.6c-1.3-1.2-3.3-1.2-4.6,0c-0.6,0.7-1,1.6-0.9,2.6v0.7
		v0.7c0,0.9,0.3,1.9,0.9,2.6C1109.9,57.4,1111.9,57.4,1113.2,56.2z"/>
	<path class="st0" d="M1119,57.1c-0.7-0.9-1.1-2.1-1-3.2v-5.7c0-0.2,0.2-0.4,0.4-0.4c0,0,0,0,0.1,0h0.3c0.1,0,0.2,0,0.3,0.1
		c0.1,0.1,0.1,0.2,0.1,0.3v5.6c0,2.3,1,3.4,3,3.4c0.9,0,1.7-0.3,2.3-0.9c0.6-0.7,0.9-1.6,0.8-2.5v-5.6c0-0.2,0.2-0.4,0.4-0.4
		c0,0,0,0,0.1,0h0.3c0.1,0,0.2,0,0.3,0.1c0.1,0.1,0.1,0.2,0.1,0.3v9.5c0,0.2-0.2,0.4-0.4,0.4c0,0,0,0-0.1,0h-0.3
		c-0.1,0-0.2,0-0.3-0.1c-0.1-0.1-0.1-0.2-0.1-0.3v-0.9c-0.4,0.5-0.8,0.9-1.4,1.2c-0.6,0.3-1.3,0.4-2,0.4
		C1120.9,58.4,1119.7,57.9,1119,57.1z"/>
	<path class="st0" d="M1129.9,58c-0.1-0.1-0.1-0.2-0.1-0.3v-9.5c0-0.2,0.2-0.4,0.4-0.4c0,0,0,0,0.1,0h0.3c0.1,0,0.2,0,0.3,0.1
		c0.1,0.1,0.1,0.2,0.1,0.3v0.9c0.4-0.5,0.8-0.9,1.4-1.2c0.6-0.3,1.3-0.4,2-0.4c1.1-0.1,2.2,0.4,3,1.2c0.7,0.9,1.1,2.1,1.1,3.2v5.7
		c0,0.2-0.2,0.4-0.4,0.4c0,0,0,0-0.1,0h-0.3c-0.1,0-0.2,0-0.3-0.1c-0.1-0.1-0.1-0.2-0.1-0.3v-5.6c0.1-0.9-0.2-1.8-0.8-2.5
		c-0.6-0.6-1.4-1-2.3-0.9c-0.9,0-1.7,0.3-2.3,0.9c-0.6,0.7-0.9,1.6-0.9,2.5v5.6c0,0.2-0.2,0.4-0.4,0.4c0,0,0,0-0.1,0h-0.3
		C1130.1,58.1,1130,58.1,1129.9,58z"/>
	<path class="st0" d="M1142.8,57.2c-0.5-0.7-0.7-1.6-0.6-2.5v-5.9h-1.6c-0.1,0-0.2,0-0.3-0.1c-0.1-0.1-0.1-0.2-0.1-0.3v-0.3
		c0-0.2,0.2-0.4,0.4-0.4c0,0,0,0,0.1,0h1.6v-3.4c0-0.2,0.2-0.4,0.4-0.4c0,0,0,0,0.1,0h0.3c0.1,0,0.2,0,0.3,0.1
		c0.1,0.1,0.1,0.2,0.1,0.3v3.4h2.5c0.1,0,0.2,0,0.3,0.1c0.1,0.1,0.1,0.2,0.1,0.3v0.3c0,0.2-0.2,0.4-0.4,0.4c0,0,0,0-0.1,0h-2.5v5.8
		c0,0.6,0.1,1.2,0.4,1.7c0.3,0.4,0.7,0.6,1.2,0.6h1.1c0.1,0,0.2,0,0.3,0.1c0.1,0.1,0.1,0.2,0.1,0.3v0.3c0,0.2-0.2,0.4-0.4,0.4
		c0,0,0,0-0.1,0h-1.2C1144.1,58.2,1143.3,57.8,1142.8,57.2z"/>
	<path class="st0" d="M1149.4,57c-0.8-0.9-1.3-2.1-1.3-3.3v-0.8v-0.8c0-1.2,0.5-2.4,1.3-3.3c0.8-0.9,1.9-1.3,3.1-1.3
		c1.2-0.1,2.4,0.4,3.2,1.4c0.8,1.1,1.2,2.4,1.2,3.8V53c0,0.1,0,0.2-0.1,0.3c-0.1,0.1-0.2,0.1-0.3,0.1h-7.1v0.2
		c0,0.6,0.2,1.2,0.4,1.8c0.2,0.5,0.6,1,1.1,1.3c0.5,0.3,1.1,0.5,1.6,0.5c0.6,0,1.2-0.1,1.8-0.4c0.4-0.2,0.7-0.5,1-0.9
		c0.1-0.1,0.2-0.2,0.3-0.3c0.1,0,0.2-0.1,0.3-0.1h0.3c0.1,0,0.2,0,0.3,0.1c0.1,0.1,0.1,0.2,0.1,0.3c-0.1,0.4-0.2,0.7-0.5,1
		c-0.4,0.4-0.9,0.8-1.5,1c-0.7,0.3-1.4,0.4-2.1,0.4C1151.3,58.4,1150.2,57.9,1149.4,57z M1155.6,52.3L1155.6,52.3
		c0-1-0.3-1.9-0.9-2.6c-0.6-0.7-1.4-1-2.3-1c-0.9,0-1.7,0.3-2.3,1c-0.6,0.7-0.9,1.6-0.8,2.5v0.1L1155.6,52.3z"/>
	<path class="st0" d="M1159.6,58c-0.1-0.1-0.1-0.2-0.1-0.3v-9.5c0-0.1,0-0.2,0.1-0.3c0.1-0.1,0.2-0.1,0.3-0.1h0.3
		c0.1,0,0.2,0,0.3,0.1c0.1,0.1,0.1,0.2,0.1,0.3v0.9c0.5-1,1.6-1.5,2.7-1.4h0.7c0.1,0,0.2,0,0.3,0.1c0.1,0.1,0.1,0.2,0.1,0.3v0.3
		c0,0.2-0.2,0.4-0.4,0.4c0,0,0,0-0.1,0h-0.9c-1.3-0.1-2.5,0.9-2.6,2.2c0,0.1,0,0.2,0,0.4v6.2c0,0.1,0,0.2-0.1,0.3
		c-0.1,0.1-0.2,0.1-0.3,0.1h-0.3C1159.8,58.1,1159.7,58.1,1159.6,58z"/>
	<path class="st0" d="M982.9,188.4c2.1,0,4,1.3,4.8,3.2l30.8,73.6l31.6-73.6c0.8-2,2.7-3.2,4.8-3.2H982.9z"/>
	<polyline class="st3" points="343.3,260.8 343.3,383.4 326.5,383.4 	"/>
	<path class="st0" d="M244.2,387.2c-0.9-1.1-1.4-2.5-1.4-4c0-0.4,0-1,0-1.8s0-1.4,0-1.8c0-1.4,0.5-2.8,1.4-4c1-1,2.4-1.6,3.9-1.5
		c1,0,2.1,0.2,3,0.6c0.7,0.4,1.3,0.9,1.8,1.6c0.4,0.6,0.6,1.3,0.6,2l0,0c0,0.1,0,0.2-0.1,0.3c-0.1,0.1-0.2,0.1-0.3,0.1h-0.4
		c-0.2,0-0.4-0.1-0.4-0.4c-0.1-0.9-0.6-1.8-1.4-2.4c-0.8-0.5-1.7-0.8-2.7-0.7c-1.1-0.1-2.1,0.3-2.9,1.1c-0.8,0.9-1.2,2.1-1.1,3.3
		c0,0.4,0,0.9,0,1.7s0,1.3,0,1.7c0,1.2,0.4,2.4,1.1,3.3c0.8,0.7,1.8,1.1,2.9,1.1c1,0,1.9-0.2,2.7-0.7c0.7-0.6,1.2-1.5,1.4-2.4
		c0-0.3,0.2-0.4,0.4-0.4h0.4c0.1,0,0.2,0,0.3,0.1c0.1,0.1,0.1,0.2,0.1,0.3c-0.1,0.7-0.3,1.4-0.6,2c-0.4,0.7-1.1,1.3-1.8,1.7
		c-0.9,0.5-2,0.7-3,0.6C246.6,388.7,245.2,388.2,244.2,387.2z"/>
	<path class="st0" d="M256.2,388.3c-0.1-0.1-0.1-0.2-0.1-0.3v-9.5c0-0.1,0-0.2,0.1-0.3c0.1-0.1,0.2-0.1,0.3-0.1h0.3
		c0.1,0,0.2,0,0.3,0.1c0.1,0.1,0.1,0.2,0.1,0.3v0.9c0.6-1,1.6-1.5,2.7-1.4h0.7c0.1,0,0.2,0,0.3,0.1c0.1,0.1,0.1,0.2,0.1,0.3v0.3
		c0,0.2-0.2,0.4-0.4,0.4c0,0,0,0-0.1,0h-0.9c-1.3-0.1-2.5,0.9-2.6,2.2c0,0.1,0,0.2,0,0.4v6.2c0,0.1,0,0.2-0.1,0.3
		c-0.1,0.1-0.2,0.1-0.3,0.1h-0.3C256.4,388.5,256.3,388.4,256.2,388.3z"/>
	<path class="st0" d="M263.5,387.4c-0.8-0.9-1.2-2.1-1.2-3.3v-0.8v-0.8c0-1.2,0.4-2.4,1.2-3.3c1.8-1.7,4.6-1.7,6.5,0
		c0.8,0.9,1.2,2.1,1.2,3.3c0,0.1,0,0.4,0,0.8s0,0.7,0,0.8c0,1.2-0.4,2.4-1.2,3.3C268.2,389.1,265.4,389.1,263.5,387.4z M269.1,386.6
		c0.6-0.7,1-1.6,0.9-2.6c0-0.1,0-0.4,0-0.7s0-0.6,0-0.7c0-0.9-0.3-1.9-0.9-2.6c-1.3-1.2-3.3-1.2-4.6,0c-0.6,0.7-1,1.6-0.9,2.6v0.7
		v0.7c0,0.9,0.3,1.9,0.9,2.6C265.8,387.8,267.8,387.8,269.1,386.6L269.1,386.6z"/>
	<path class="st0" d="M275.1,388.2c-0.5-0.2-1-0.6-1.3-1c-0.2-0.2-0.4-0.6-0.5-0.9c0-0.1,0.1-0.2,0.1-0.3c0.1-0.1,0.2-0.1,0.3-0.1
		h0.3c0.1,0,0.2,0,0.2,0c0.1,0.1,0.2,0.1,0.2,0.2c0.3,0.4,0.6,0.8,1.1,1c0.5,0.3,1.1,0.4,1.7,0.4c0.7,0,1.4-0.1,2-0.5
		c0.5-0.3,0.8-0.8,0.8-1.4c0-0.3-0.1-0.6-0.3-0.9c-0.3-0.3-0.6-0.5-1-0.6c-0.7-0.2-1.4-0.4-2-0.6c-0.9-0.1-1.7-0.5-2.4-1.1
		c-0.4-0.5-0.7-1.1-0.6-1.8c0-0.5,0.1-1,0.4-1.4c0.3-0.5,0.7-0.8,1.2-1.1c0.6-0.3,1.3-0.4,2-0.4c0.7,0,1.4,0.1,2,0.4
		c0.5,0.2,0.9,0.6,1.2,1c0.2,0.2,0.4,0.6,0.4,0.9c0,0.1,0,0.2-0.1,0.3c-0.1,0.1-0.2,0.1-0.3,0.1h-0.3c-0.2,0-0.4-0.1-0.4-0.3
		c-0.2-0.4-0.5-0.7-0.9-0.9c-0.5-0.2-1-0.3-1.6-0.3c-0.6,0-1.2,0.1-1.8,0.5c-0.4,0.3-0.6,0.8-0.6,1.3c0,0.3,0.1,0.6,0.2,0.8
		c0.2,0.3,0.6,0.5,0.9,0.6c0.6,0.2,1.3,0.4,1.9,0.5c1,0.2,1.9,0.5,2.6,1.1c0.5,0.5,0.8,1.2,0.8,1.9c0,0.5-0.2,1.1-0.5,1.5
		c-0.3,0.5-0.8,0.9-1.4,1.1c-0.7,0.3-1.4,0.4-2.2,0.4C276.5,388.7,275.8,388.6,275.1,388.2z"/>
	<path class="st0" d="M1050.2,424.7c-0.5-0.2-1-0.6-1.3-1c-0.2-0.2-0.4-0.6-0.4-0.9c0-0.1,0.1-0.2,0.1-0.3c0.1-0.1,0.2-0.1,0.3-0.1
		h0.3c0.1,0,0.2,0,0.2,0c0.1,0.1,0.2,0.1,0.2,0.2c0.3,0.4,0.6,0.8,1.1,1c0.5,0.3,1.1,0.4,1.7,0.4c0.7,0,1.4-0.1,2-0.5
		c0.5-0.3,0.8-0.8,0.8-1.4c0-0.3-0.1-0.6-0.3-0.9c-0.3-0.3-0.6-0.5-1-0.6c-0.7-0.2-1.4-0.4-2.1-0.6c-0.9-0.1-1.7-0.5-2.4-1.1
		c-0.4-0.5-0.7-1.1-0.7-1.8c0-0.5,0.1-1,0.4-1.4c0.3-0.5,0.7-0.8,1.2-1.1c0.6-0.3,1.3-0.4,1.9-0.4c0.7,0,1.4,0.1,2,0.4
		c0.5,0.2,0.9,0.6,1.2,1c0.2,0.2,0.4,0.6,0.4,0.9c0,0.1,0,0.2-0.1,0.3c-0.1,0.1-0.2,0.1-0.3,0.1h-0.3c-0.2,0-0.4-0.1-0.4-0.3
		c-0.2-0.4-0.5-0.7-0.9-0.9c-0.5-0.2-1-0.3-1.6-0.3c-0.6,0-1.2,0.1-1.8,0.5c-0.4,0.3-0.6,0.8-0.6,1.3c0,0.3,0.1,0.6,0.2,0.8
		c0.2,0.3,0.6,0.5,0.9,0.6c0.6,0.2,1.3,0.4,1.9,0.5c1,0.2,1.9,0.5,2.6,1.1c0.5,0.5,0.8,1.2,0.8,1.9c0,0.5-0.2,1.1-0.5,1.5
		c-0.3,0.5-0.8,0.9-1.4,1.1c-0.7,0.3-1.4,0.4-2.2,0.4C1051.7,425.2,1050.9,425,1050.2,424.7z"/>
	<path class="st0" d="M284.9,388.2c-0.5-0.2-1-0.6-1.3-1c-0.2-0.2-0.4-0.6-0.5-0.9c0-0.1,0.1-0.2,0.1-0.3c0.1-0.1,0.2-0.1,0.3-0.1
		h0.3c0.1,0,0.2,0,0.2,0c0.1,0.1,0.2,0.1,0.2,0.2c0.3,0.4,0.6,0.8,1.1,1c0.5,0.3,1.1,0.4,1.7,0.4c0.7,0,1.4-0.1,2-0.5
		c0.5-0.3,0.8-0.8,0.8-1.4c0-0.3-0.1-0.6-0.3-0.9c-0.3-0.3-0.6-0.5-1-0.6c-0.7-0.2-1.4-0.4-2-0.6c-0.9-0.1-1.7-0.5-2.4-1.1
		c-0.4-0.5-0.7-1.1-0.6-1.8c0-0.5,0.1-1,0.4-1.4c0.3-0.5,0.7-0.8,1.2-1.1c0.6-0.3,1.3-0.4,2-0.4c0.7,0,1.4,0.1,2,0.4
		c0.5,0.2,0.9,0.6,1.2,1c0.2,0.2,0.4,0.6,0.4,0.9c0,0.1,0,0.2-0.1,0.3c-0.1,0.1-0.2,0.1-0.3,0.1H290c-0.2,0-0.4-0.1-0.4-0.3
		c-0.2-0.4-0.5-0.7-0.9-0.9c-0.5-0.3-1.1-0.4-1.6-0.4c-0.6,0-1.2,0.1-1.8,0.5c-0.4,0.3-0.6,0.8-0.6,1.3c0,0.3,0.1,0.6,0.2,0.8
		c0.2,0.3,0.6,0.5,0.9,0.6c0.6,0.2,1.3,0.4,1.9,0.5c1,0.2,1.9,0.5,2.6,1.1c0.5,0.5,0.8,1.2,0.8,1.9c0,0.5-0.2,1.1-0.5,1.5
		c-0.3,0.5-0.8,0.9-1.4,1.1c-0.7,0.3-1.4,0.4-2.2,0.4C286.4,388.7,285.6,388.5,284.9,388.2z"/>
	<path class="st0" d="M294.9,387.1v0.9c0,0.2-0.2,0.4-0.4,0.4c0,0,0,0-0.1,0h-0.3c-0.2,0-0.4-0.2-0.4-0.4c0,0,0,0,0-0.1v-13.3
		c0-0.1,0-0.2,0.1-0.3c0.1-0.1,0.2-0.1,0.3-0.1h0.3c0.1,0,0.2,0,0.3,0.1c0.1,0.1,0.1,0.2,0.1,0.3v4.7c0.8-1.1,2-1.6,3.4-1.6
		c1.2-0.1,2.4,0.4,3.2,1.4c0.7,1,1.1,2.2,1.1,3.4c0,0.1,0,0.3,0,0.6s0,0.4,0,0.6c0,1.2-0.4,2.4-1.1,3.4c-0.8,1-2,1.5-3.2,1.4
		C296.9,388.7,295.7,388.1,294.9,387.1z M300.5,386.5c0.5-0.8,0.8-1.7,0.8-2.6c0-0.1,0-0.3,0-0.6c0-1.1-0.2-2.1-0.7-3
		c-0.5-0.8-1.5-1.3-2.5-1.2c-0.6,0-1.3,0.2-1.8,0.5c-0.5,0.3-0.8,0.8-1.1,1.3c-0.2,0.5-0.4,1.1-0.4,1.6v0.8v0.8
		c0,0.9,0.3,1.8,0.9,2.5c0.6,0.7,1.5,1.1,2.4,1C299,387.6,299.9,387.2,300.5,386.5z"/>
	<path class="st0" d="M306.3,388.3c-0.5-0.2-1-0.6-1.3-1.1c-0.3-0.4-0.5-1-0.5-1.5c0-0.9,0.4-1.7,1.1-2.2c0.8-0.6,1.8-1,2.9-1.1
		l3.2-0.4v-0.7c0-0.6-0.2-1.3-0.7-1.7c-0.6-0.4-1.3-0.7-2-0.6c-0.6,0-1.2,0.1-1.7,0.4c-0.4,0.2-0.7,0.6-0.8,1c0,0.1-0.1,0.2-0.2,0.3
		c-0.1,0.1-0.2,0.1-0.3,0.1h-0.3c-0.1,0-0.2,0-0.3-0.1c-0.1-0.1-0.1-0.2-0.1-0.3c0-0.4,0.2-0.7,0.4-1c0.3-0.4,0.7-0.8,1.2-1
		c0.6-0.3,1.3-0.5,2.1-0.4c1.1-0.1,2.2,0.3,3,1c0.6,0.7,0.9,1.6,0.9,2.5v6.6c0,0.2-0.2,0.4-0.4,0.4c0,0,0,0-0.1,0H312
		c-0.2,0-0.4-0.2-0.4-0.4c0,0,0,0,0-0.1v-0.9c-0.3,0.5-0.8,0.9-1.3,1.1c-0.7,0.3-1.5,0.5-2.2,0.5
		C307.4,388.6,306.8,388.5,306.3,388.3z M310.6,386.5c0.7-0.8,1-1.8,0.9-2.8v-0.7l-2.6,0.4c-0.9,0.1-1.7,0.3-2.5,0.8
		c-0.5,0.3-0.8,0.8-0.8,1.4c0,0.6,0.3,1.1,0.8,1.4C307.8,387.8,309.5,387.6,310.6,386.5z"/>
	<path class="st0" d="M316.1,388.3c-0.1-0.1-0.1-0.2-0.1-0.3v-9.5c0-0.1,0-0.2,0.1-0.3c0.1-0.1,0.2-0.1,0.3-0.1h0.3
		c0.1,0,0.2,0,0.3,0.1c0.1,0.1,0.1,0.2,0.1,0.3v0.9c0.6-1,1.6-1.5,2.7-1.4h0.7c0.1,0,0.2,0,0.3,0.1c0.1,0.1,0.1,0.2,0.1,0.3v0.3
		c0,0.2-0.2,0.4-0.4,0.4c0,0,0,0-0.1,0h-0.9c-1.3-0.1-2.5,0.9-2.6,2.2c0,0.1,0,0.2,0,0.4v6.2c0,0.1,0,0.2-0.1,0.3
		c-0.1,0.1-0.2,0.1-0.3,0.1h-0.3C316.3,388.5,316.2,388.4,316.1,388.3z"/>
	<path class="st0" d="M316.9,243.6h54.8l5.6,16.6h-66.2L316.9,243.6z"/>
	<polyline class="st3" points="576.9,294.5 576.9,403.9 560.1,403.9 	"/>
	<path class="st0" d="M512.6,410.2c-0.1-0.1-0.1-0.2-0.1-0.3v-13.1c0-0.1,0-0.2,0.1-0.3c0.1-0.1,0.2-0.1,0.3-0.1h5.2
		c1.1-0.1,2.2,0.3,3,1c0.7,0.7,1,1.6,1,2.6c0,0.7-0.2,1.4-0.5,1.9c-0.3,0.5-0.7,0.9-1.2,1.1c0.6,0.3,1.1,0.8,1.5,1.3
		c0.4,0.6,0.6,1.3,0.6,2.1c0,0.7-0.2,1.4-0.5,2c-0.3,0.6-0.8,1.1-1.4,1.5c-0.7,0.4-1.5,0.6-2.2,0.5h-5.4
		C512.8,410.3,512.7,410.2,512.6,410.2z M517.9,402.4c0.8,0.1,1.6-0.2,2.2-0.6c0.5-0.5,0.8-1.1,0.8-1.9c0-0.7-0.2-1.3-0.8-1.8
		c-0.7-0.4-1.5-0.7-2.2-0.6h-4.1v4.9H517.9z M518.1,409.1c0.8,0.1,1.7-0.2,2.3-0.8c1.1-1.1,1.1-2.9,0-4c-0.6-0.5-1.5-0.8-2.3-0.8
		h-4.3v5.5L518.1,409.1z"/>
	<path class="st0" d="M526,409.2c-0.8-0.9-1.2-2.1-1.2-3.3v-0.8v-0.8c0-1.2,0.4-2.3,1.2-3.2c1.8-1.7,4.6-1.7,6.5,0
		c0.8,0.9,1.2,2.1,1.2,3.3c0,0.1,0,0.4,0,0.8s0,0.7,0,0.8c0,1.2-0.4,2.4-1.2,3.3C530.6,411,527.8,411,526,409.2L526,409.2z
		 M531.5,408.4c0.6-0.7,1-1.6,0.9-2.6c0-0.1,0-0.4,0-0.7s0-0.6,0-0.7c0-0.9-0.3-1.9-0.9-2.6c-1.3-1.2-3.3-1.2-4.6,0
		c-0.6,0.7-1,1.6-0.9,2.6v0.7v0.7c0,0.9,0.3,1.9,0.9,2.6C528.2,409.6,530.2,409.6,531.5,408.4z"/>
	<path class="st0" d="M538.5,410.2c-0.1-0.1-0.2-0.2-0.2-0.4l-2.8-9.3v-0.2c0-0.1,0-0.2,0.1-0.3c0.1-0.1,0.2-0.1,0.3-0.1h0.4
		c0.1,0,0.2,0,0.3,0.1c0.1,0.1,0.1,0.1,0.1,0.2l2.5,8.3l2.6-8.2c0-0.1,0.1-0.2,0.2-0.3c0.1-0.1,0.2-0.1,0.4-0.1h0.4
		c0.1,0,0.3,0,0.4,0.1c0.1,0.1,0.1,0.2,0.2,0.3l2.6,8.2l2.5-8.3c0-0.1,0.1-0.2,0.1-0.2c0.1-0.1,0.2-0.1,0.3-0.1h0.4
		c0.2,0,0.4,0.2,0.4,0.4v0.2l-2.8,9.3c-0.1,0.1-0.1,0.3-0.2,0.4c-0.1,0.1-0.3,0.1-0.4,0.1h-0.3c-0.3,0-0.6-0.2-0.7-0.5l-2.5-7.9
		l-2.5,7.9c-0.1,0.3-0.4,0.5-0.7,0.5h-0.3C538.8,410.3,538.6,410.3,538.5,410.2z"/>
	<path class="st0" d="M552,410.2c-0.1-0.1-0.1-0.2-0.1-0.3v-13.3c0-0.1,0-0.2,0.1-0.3c0.1-0.1,0.2-0.1,0.3-0.1h0.3
		c0.2,0,0.4,0.2,0.4,0.4c0,0,0,0,0,0.1v13.3c0,0.1,0,0.2-0.1,0.3c-0.1,0.1-0.2,0.1-0.3,0.1h-0.3C552.2,410.3,552.1,410.2,552,410.2z
		"/>
	<path class="st0" d="M598.2,279c-3.3,4.7-7.7,8.5-12.8,11c-5.6,2.9-12.8,4.4-21.6,4.4c-6.3,0.1-12.5-1.3-18.1-4
		c-5.3-2.4-9.8-6.2-13.2-10.9c-3.2-4.5-4.9-9.8-4.9-15.3c0-8.8,3.6-16,10.8-21.6c7.2-5.6,17-9.3,29.4-11.2l30-4.2L598.2,279z
		 M589.4,271.2c5.6-5.7,8.4-14.1,8.4-25v-5.6l-23.4,3.4c-9.6,1.3-16.9,3.6-21.8,6.8c-4.9,3.2-7.4,7.2-7.4,12
		c-0.2,5.1,2.4,9.9,6.7,12.6c4.7,3,10.3,4.5,15.9,4.4C576.6,279.8,583.8,277,589.4,271.2L589.4,271.2z"/>
	<path class="st0" d="M641.1,188.4V155c0-1.2,0.4-2.4,1.2-3.3c0.8-0.9,2-1.3,3.2-1.3h8.8c2.5-0.1,4.5,1.8,4.6,4.3c0,0.1,0,0.2,0,0.3
		v33.4L641.1,188.4z"/>
	<polyline class="st3" points="748.4,186.4 748.4,108.9 765.2,108.9 	"/>
	<path class="st0" d="M774.1,113.4c-0.9-1.1-1.4-2.5-1.4-4c0-0.4,0-1,0-1.8s0-1.4,0-1.8c0-1.5,0.5-2.9,1.4-4c1-1,2.4-1.6,3.9-1.5
		c1,0,2.1,0.2,3,0.7c0.7,0.4,1.3,0.9,1.8,1.6c0.4,0.6,0.6,1.3,0.6,2l0,0c0,0.1,0,0.2-0.1,0.3c-0.1,0.1-0.2,0.1-0.3,0.1h-0.4
		c-0.2,0-0.4-0.1-0.4-0.4c-0.1-0.9-0.6-1.8-1.4-2.4c-0.8-0.5-1.8-0.8-2.7-0.7c-1.1-0.1-2.1,0.3-2.9,1.1c-0.8,1-1.2,2.2-1.1,3.5
		c0,0.4,0,0.9,0,1.7s0,1.3,0,1.7c0,1.2,0.4,2.4,1.1,3.3c0.8,0.7,1.8,1.1,2.9,1.1c1,0,1.9-0.2,2.7-0.7c0.7-0.6,1.2-1.5,1.4-2.4
		c0-0.3,0.2-0.4,0.4-0.4h0.4c0.1,0,0.2,0,0.3,0.1c0.1,0.1,0.1,0.2,0.1,0.3c-0.1,0.7-0.3,1.4-0.6,2c-0.4,0.7-1,1.3-1.8,1.6
		c-0.9,0.5-2,0.7-3,0.7C776.5,115,775.1,114.4,774.1,113.4z"/>
	<path class="st0" d="M786.2,114.5c-0.1-0.1-0.1-0.2-0.1-0.3v-13.3c0-0.1,0-0.2,0.1-0.3c0.1-0.1,0.2-0.1,0.3-0.1h0.3
		c0.2,0,0.4,0.2,0.4,0.4c0,0,0,0,0,0.1v13.3c0,0.1,0,0.2-0.1,0.3c-0.1,0.1-0.2,0.1-0.3,0.1h-0.3
		C786.4,114.6,786.2,114.6,786.2,114.5z"/>
	<path class="st0" d="M791.2,113.6c-0.8-0.9-1.2-2.1-1.2-3.3v-0.8v-0.8c0-1.2,0.4-2.4,1.2-3.3c1.8-1.7,4.6-1.7,6.5,0
		c0.8,0.9,1.2,2.1,1.2,3.3c0,0.3,0,0.6,0,0.8c0,0.3,0,0.6,0,0.8c0,1.2-0.4,2.4-1.2,3.3C795.9,115.3,793.1,115.3,791.2,113.6z
		 M796.8,112.8c0.6-0.7,1-1.6,0.9-2.6c0-0.2,0-0.5,0-0.7c0-0.2,0-0.5,0-0.7c0-0.9-0.3-1.9-0.9-2.6c-1.3-1.2-3.3-1.2-4.6,0
		c-0.6,0.7-1,1.6-0.9,2.6v0.7v0.7c0,0.9,0.3,1.9,0.9,2.6C793.5,114,795.5,114,796.8,112.8z"/>
	<path class="st0" d="M802.8,114.4c-0.5-0.2-1-0.6-1.3-1c-0.2-0.2-0.4-0.6-0.5-0.9c0-0.1,0.1-0.2,0.1-0.3c0.1-0.1,0.2-0.1,0.3-0.1
		h0.3c0.1,0,0.2,0,0.2,0.1c0.1,0.1,0.2,0.1,0.2,0.2c0.3,0.4,0.6,0.7,1.1,1c0.5,0.3,1.1,0.4,1.7,0.3c0.7,0,1.4-0.1,2-0.5
		c0.5-0.3,0.8-0.8,0.8-1.3c0-0.3-0.1-0.6-0.3-0.9c-0.3-0.3-0.6-0.5-1-0.6c-0.7-0.2-1.3-0.4-2-0.6c-0.9-0.1-1.7-0.5-2.4-1.1
		c-0.4-0.5-0.7-1.1-0.7-1.8c0-0.5,0.1-1,0.4-1.4c0.3-0.5,0.7-0.8,1.2-1.1c0.6-0.3,1.3-0.4,2-0.4c0.7,0,1.4,0.1,2,0.4
		c0.5,0.2,0.9,0.6,1.2,1c0.2,0.2,0.4,0.6,0.4,0.9c0,0.1,0,0.2-0.1,0.3c-0.1,0.1-0.2,0.1-0.3,0.1h-0.3c-0.2,0-0.4-0.1-0.4-0.3
		c-0.2-0.4-0.5-0.7-0.9-0.9c-0.5-0.2-1-0.3-1.6-0.3c-0.6,0-1.2,0.1-1.8,0.5c-0.4,0.3-0.6,0.8-0.6,1.3c0,0.3,0.1,0.6,0.2,0.8
		c0.2,0.3,0.6,0.5,0.9,0.6c0.6,0.2,1.3,0.4,1.9,0.6c0.9,0.1,1.8,0.5,2.6,1c0.5,0.5,0.8,1.2,0.8,1.9c0,0.5-0.2,1.1-0.5,1.5
		c-0.3,0.5-0.8,0.9-1.4,1.1c-0.7,0.3-1.4,0.4-2.2,0.4C804.2,114.9,803.5,114.7,802.8,114.4z"/>
	<path class="st0" d="M812.3,113.6c-0.8-0.9-1.3-2.1-1.3-3.3v-0.8v-0.8c0-1.2,0.5-2.4,1.3-3.3c0.8-0.8,1.9-1.3,3.1-1.3
		c1.2-0.1,2.4,0.4,3.2,1.4c0.8,1.1,1.2,2.4,1.2,3.8v0.3c0,0.1,0,0.2-0.1,0.3c-0.1,0.1-0.2,0.1-0.3,0.1h-7.1v0.2
		c0,0.6,0.2,1.2,0.4,1.8c0.2,0.5,0.6,1,1.1,1.3c0.5,0.3,1.1,0.5,1.6,0.5c1.1,0.1,2.1-0.4,2.8-1.3c0.1-0.1,0.2-0.2,0.3-0.3
		c0.1,0,0.2-0.1,0.3-0.1h0.3c0.1,0,0.2,0,0.3,0.1c0.1,0.1,0.1,0.2,0.1,0.3c-0.1,0.4-0.2,0.7-0.5,1c-0.4,0.4-0.9,0.8-1.5,1
		c-0.7,0.3-1.4,0.4-2.1,0.4C814.2,114.9,813.1,114.4,812.3,113.6z M818.6,108.8L818.6,108.8c0-1-0.3-1.9-0.9-2.6
		c-0.6-0.7-1.4-1-2.3-1c-0.9,0-1.7,0.3-2.3,1c-0.6,0.7-0.9,1.6-0.8,2.5v0.1H818.6z"/>
	<path class="st0" d="M823,113.4c-0.7-1-1.1-2.2-1.1-3.4v-0.6v-0.6c0-1.2,0.4-2.4,1.1-3.4c0.8-1,2-1.5,3.2-1.4
		c1.3-0.1,2.6,0.5,3.4,1.6v-4.7c0-0.1,0-0.2,0.1-0.3c0.1-0.1,0.2-0.1,0.3-0.1h0.3c0.2,0,0.4,0.2,0.4,0.4c0,0,0,0,0,0.1v13.3
		c0,0.1,0,0.2-0.1,0.3c-0.1,0.1-0.2,0.1-0.3,0.1H830c-0.2,0-0.4-0.2-0.4-0.4c0,0,0,0,0-0.1v-0.9c-0.8,1.1-2,1.7-3.4,1.6
		C825,114.9,823.8,114.4,823,113.4z M828.7,112.6c0.5-0.7,0.8-1.6,0.9-2.5c0-0.3,0-0.5,0-0.8c0-0.3,0-0.5,0-0.8
		c0-0.6-0.1-1.1-0.4-1.6c-0.2-0.5-0.6-1-1.1-1.3c-0.5-0.3-1.1-0.5-1.8-0.5c-0.9-0.1-1.8,0.3-2.4,1c-0.5,0.8-0.8,1.7-0.8,2.7v0.6
		c0,1,0.2,2.1,0.7,3c0.5,0.8,1.5,1.3,2.5,1.2C827.2,113.7,828.1,113.3,828.7,112.6z"/>
	<path class="st0" d="M840.3,113.4c-0.9-1.1-1.4-2.5-1.4-4c0-0.4,0-1,0-1.8s0-1.4,0-1.8c0-1.5,0.5-2.9,1.4-4c1-1,2.4-1.6,3.9-1.5
		c1,0,2.1,0.2,3,0.7c0.7,0.4,1.3,0.9,1.8,1.6c0.4,0.6,0.6,1.3,0.6,2l0,0c0,0.1,0,0.2-0.1,0.3c-0.1,0.1-0.2,0.1-0.3,0.1h-0.4
		c-0.2,0-0.4-0.1-0.4-0.4c-0.1-0.9-0.6-1.8-1.4-2.4c-0.8-0.5-1.7-0.8-2.7-0.7c-1.1-0.1-2.1,0.3-2.9,1.1c-0.8,0.9-1.2,2.1-1.1,3.3
		c0,0.4,0,0.9,0,1.7s0,1.3,0,1.7c0,1.2,0.4,2.3,1.1,3.3c0.8,0.7,1.8,1.1,2.9,1.1c1,0,1.9-0.2,2.7-0.7c0.7-0.6,1.2-1.5,1.4-2.4
		c0.1-0.3,0.2-0.4,0.4-0.4h0.4c0.1,0,0.2,0,0.3,0.1c0.1,0.1,0.1,0.2,0.1,0.3c-0.1,0.7-0.3,1.4-0.6,2c-0.4,0.7-1,1.3-1.8,1.6
		c-0.9,0.5-2,0.7-3,0.7C842.8,114.8,841.3,114.3,840.3,113.4z"/>
	<path class="st0" d="M852.9,113.6c-0.8-0.9-1.2-2.1-1.2-3.3v-0.8v-0.8c0-1.2,0.4-2.4,1.2-3.3c1.8-1.7,4.6-1.7,6.5,0
		c0.8,0.9,1.2,2.1,1.2,3.3c0,0.3,0,0.6,0,0.8c0,0.3,0,0.6,0,0.8c0,1.2-0.4,2.4-1.2,3.3C857.6,115.3,854.8,115.3,852.9,113.6z
		 M858.5,112.8c0.6-0.7,1-1.6,0.9-2.6c0-0.2,0-0.5,0-0.7c0-0.2,0-0.5,0-0.7c0-0.9-0.3-1.9-0.9-2.6c-1.3-1.2-3.3-1.2-4.6,0
		c-0.6,0.7-1,1.6-0.9,2.6v0.7v0.7c0,0.9,0.3,1.9,0.9,2.6C855.2,114,857.2,114,858.5,112.8z"/>
	<path class="st0" d="M864.3,113.6c-0.7-0.9-1.1-2.1-1-3.2v-5.7c0-0.1,0-0.2,0.1-0.3c0.1-0.1,0.2-0.1,0.3-0.1h0.3
		c0.2,0,0.4,0.2,0.4,0.4c0,0,0,0,0,0.1v5.6c0,2.3,1,3.4,3,3.4c0.9,0,1.7-0.3,2.3-0.9c0.6-0.7,0.9-1.6,0.8-2.5v-5.6
		c0-0.1,0-0.2,0.1-0.3c0.1-0.1,0.2-0.1,0.3-0.1h0.3c0.2,0,0.4,0.2,0.4,0.4c0,0,0,0,0,0.1v9.5c0,0.1,0,0.2-0.1,0.3
		c-0.1,0.1-0.2,0.1-0.3,0.1h-0.3c-0.2,0-0.4-0.2-0.4-0.4c0,0,0,0,0-0.1v-0.9c-0.4,0.5-0.8,0.9-1.4,1.2c-0.6,0.3-1.3,0.4-2,0.4
		C866.1,114.9,865,114.5,864.3,113.6z"/>
	<path class="st0" d="M875.2,114.5c-0.1-0.1-0.1-0.2-0.1-0.3v-9.5c0-0.1,0-0.2,0.1-0.3c0.1-0.1,0.2-0.1,0.3-0.1h0.3
		c0.2,0,0.4,0.2,0.4,0.4c0,0,0,0,0,0.1v0.9c0.4-0.5,0.8-0.9,1.4-1.2c0.6-0.3,1.3-0.4,2-0.4c1.1-0.1,2.2,0.4,3,1.2
		c0.7,0.9,1.1,2.1,1.1,3.2v5.7c0,0.1,0,0.2-0.1,0.3c-0.1,0.1-0.2,0.1-0.3,0.1H883c-0.2,0-0.4-0.2-0.4-0.4c0,0,0,0,0-0.1v-5.6
		c0.1-0.9-0.2-1.8-0.8-2.5c-0.6-0.6-1.4-1-2.3-0.9c-0.9,0-1.7,0.3-2.3,0.9c-0.6,0.7-0.9,1.6-0.9,2.5v5.6c0,0.1,0,0.2-0.1,0.3
		c-0.1,0.1-0.2,0.1-0.3,0.1h-0.3C875.4,114.7,875.3,114.6,875.2,114.5z"/>
	<path class="st0" d="M888.1,113.8c-0.4-0.7-0.7-1.6-0.6-2.4v-5.9h-1.6c-0.2,0-0.4-0.2-0.4-0.4c0,0,0,0,0-0.1v-0.3
		c0-0.1,0-0.2,0.1-0.3c0.1-0.1,0.2-0.1,0.3-0.1h1.6v-3.4c0-0.1,0-0.2,0.1-0.3c0.1-0.1,0.2-0.1,0.3-0.1h0.3c0.2,0,0.4,0.2,0.4,0.4
		c0,0,0,0,0,0.1v3.4h2.5c0.2,0,0.4,0.2,0.4,0.4c0,0,0,0,0,0.1v0.3c0,0.1,0,0.2-0.1,0.3c-0.1,0.1-0.2,0.1-0.3,0.1h-2.5v5.8
		c0,0.6,0.1,1.2,0.4,1.7c0.3,0.4,0.7,0.6,1.2,0.6h1.1c0.2,0,0.4,0.2,0.4,0.4c0,0,0,0,0,0.1v0.3c0,0.1,0,0.2-0.1,0.3
		c-0.1,0.1-0.2,0.1-0.3,0.1h-1.2C889.4,114.7,888.6,114.4,888.1,113.8z"/>
	<path class="st0" d="M894.7,113.6c-0.8-0.9-1.3-2.1-1.3-3.3v-0.8v-0.8c0-1.2,0.5-2.4,1.3-3.3c0.8-0.8,1.9-1.3,3.1-1.3
		c1.2-0.1,2.4,0.4,3.2,1.4c0.8,1.1,1.2,2.4,1.2,3.8v0.3c0,0.1,0,0.2-0.1,0.3c-0.1,0.1-0.2,0.1-0.3,0.1h-7.1v0.2
		c0,0.6,0.2,1.2,0.4,1.8c0.2,0.5,0.6,1,1.1,1.3c0.5,0.3,1.1,0.5,1.6,0.5c1.1,0.1,2.1-0.4,2.8-1.3c0.1-0.1,0.2-0.2,0.3-0.3
		c0.1,0,0.2-0.1,0.3-0.1h0.3c0.1,0,0.2,0,0.3,0.1c0.1,0.1,0.1,0.2,0.1,0.3c-0.1,0.4-0.2,0.7-0.5,1c-0.4,0.4-0.9,0.8-1.5,1
		c-0.7,0.3-1.4,0.4-2.1,0.4C896.6,114.9,895.5,114.4,894.7,113.6z M901,108.8L901,108.8c0-1-0.3-1.9-0.9-2.6c-0.6-0.7-1.4-1-2.3-1
		c-0.9,0-1.7,0.3-2.3,1c-0.6,0.7-0.9,1.6-0.8,2.5v0.1H901z"/>
	<path class="st0" d="M904.9,114.5c-0.1-0.1-0.1-0.2-0.1-0.3v-9.5c0-0.1,0-0.2,0.1-0.3c0.1-0.1,0.2-0.1,0.3-0.1h0.3
		c0.2,0,0.4,0.2,0.5,0.4c0,0,0,0,0,0v0.9c0.6-1,1.6-1.5,2.7-1.4h0.7c0.2,0,0.4,0.2,0.4,0.4c0,0,0,0,0,0.1v0.3c0,0.1,0,0.2-0.1,0.3
		c-0.1,0.1-0.2,0.1-0.3,0.1h-0.9c-1.3-0.1-2.5,0.9-2.6,2.2c0,0.1,0,0.2,0,0.4v6.2c0,0.1,0,0.2-0.1,0.3c-0.1,0.1-0.2,0.1-0.3,0.1
		h-0.3C905.1,114.6,905,114.6,904.9,114.5z"/>
	<path class="st0" d="M768.2,271.3c5-5.4,7.7-13.2,8.1-23.3c0.1-1.3,0.2-3.9,0.2-7.6s-0.1-6.3-0.2-7.6c-0.4-10.1-3.1-17.9-8.1-23.3
		s-11.8-8.1-20.3-8.1c-8.5,0-15.3,2.7-20.3,8.1c-5,5.4-7.7,13.2-8.1,23.3l-0.2,7.6l0.2,7.6c0.4,10.1,3.1,17.9,8.1,23.3
		c5,5.4,11.8,8.1,20.3,8.1C756.5,279.4,763.2,276.7,768.2,271.3z"/>
	<polyline class="st3" points="1000.8,330.5 1000.8,421.8 1017.6,421.8 	"/>
	<path class="st0" d="M1024.6,425.1c-0.1-0.1-0.1-0.2-0.1-0.3v-13.1c0-0.1,0-0.2,0.1-0.3c0.1-0.1,0.2-0.1,0.3-0.1h4.3
		c1.1-0.1,2.3,0.2,3.3,0.6c0.8,0.4,1.4,1,1.7,1.8c0.4,1,0.6,2,0.6,3c0,0.4,0,0.9,0,1.6s0,1.2,0,1.6c0,1.1-0.2,2.1-0.6,3.1
		c-0.3,0.8-0.9,1.4-1.7,1.8c-1,0.4-2.1,0.6-3.2,0.6h-4.4C1024.8,425.2,1024.7,425.2,1024.6,425.1z M1029.2,424
		c0.9,0,1.7-0.1,2.5-0.4c0.6-0.3,1.1-0.8,1.3-1.4c0.3-0.8,0.5-1.7,0.4-2.5c0-0.4,0-0.9,0-1.5s0-1.1,0-1.5c0.1-1.2-0.3-2.3-1-3.3
		c-0.9-0.8-2.1-1.1-3.3-1h-3.3V424L1029.2,424z"/>
	<path class="st0" d="M1038.5,424c-0.8-0.9-1.3-2.1-1.3-3.4v-0.8V419c0-1.2,0.5-2.4,1.3-3.3c0.8-0.8,1.9-1.3,3.1-1.3
		c1.2-0.1,2.4,0.4,3.2,1.4c0.8,1.1,1.2,2.4,1.2,3.8v0.3c0,0.1,0,0.2-0.1,0.3c-0.1,0.1-0.2,0.1-0.3,0.1h-7.1v0.2
		c0,0.6,0.2,1.2,0.4,1.8c0.2,0.5,0.6,1,1.1,1.3c0.5,0.3,1.1,0.5,1.6,0.5c0.6,0,1.2-0.1,1.8-0.4c0.4-0.2,0.7-0.5,1-0.9
		c0.1-0.1,0.2-0.2,0.3-0.3c0.1,0,0.2-0.1,0.3-0.1h0.3c0.1,0,0.2,0,0.3,0.1c0.1,0.1,0.1,0.2,0.1,0.3c-0.1,0.4-0.2,0.7-0.5,1
		c-0.4,0.4-0.9,0.8-1.5,1c-0.7,0.3-1.4,0.4-2.1,0.4C1040.5,425.3,1039.3,424.8,1038.5,424z M1044.8,419.2L1044.8,419.2
		c0-1-0.3-1.9-0.9-2.6c-0.6-0.7-1.4-1-2.3-1c-0.9,0-1.7,0.3-2.3,1c-0.6,0.7-0.9,1.6-0.8,2.5v0.1H1044.8z"/>
	<path class="st0" d="M1060,424c-0.8-0.9-1.2-2.2-1.2-3.4v-0.8V419c0-1.2,0.4-2.5,1.2-3.4c0.9-0.8,2-1.3,3.2-1.2
		c0.8,0,1.5,0.1,2.2,0.5c0.6,0.3,1,0.7,1.4,1.2c0.3,0.5,0.5,1,0.5,1.5c0,0.1,0,0.2-0.1,0.3c-0.1,0.1-0.2,0.1-0.3,0.1h-0.3
		c-0.1,0-0.2,0-0.3-0.1c-0.1-0.1-0.1-0.2-0.2-0.3c-0.2-0.6-0.6-1.2-1.1-1.6c-0.5-0.3-1.2-0.5-1.8-0.5c-0.9,0-1.7,0.3-2.3,0.9
		c-0.6,0.7-1,1.7-0.9,2.7v0.7v0.7c0,1,0.3,1.9,0.9,2.7c0.6,0.6,1.4,0.9,2.3,0.9c0.6,0,1.3-0.1,1.8-0.5c0.5-0.4,0.9-0.9,1.1-1.6
		c0-0.1,0.1-0.2,0.2-0.3c0.1-0.1,0.2-0.1,0.3-0.1h0.3c0.1,0,0.2,0,0.3,0.1c0.1,0.1,0.1,0.2,0.1,0.3c0,0.5-0.2,1.1-0.5,1.5
		c-0.3,0.5-0.8,0.9-1.4,1.2c-0.7,0.3-1.5,0.5-2.2,0.5C1062,425.3,1060.9,424.8,1060,424z"/>
	<path class="st0" d="M1071.1,424c-0.8-0.9-1.3-2.1-1.3-3.4v-0.8V419c0-1.2,0.5-2.4,1.3-3.3c0.8-0.8,1.9-1.3,3.1-1.3
		c1.2-0.1,2.4,0.4,3.2,1.4c0.8,1.1,1.2,2.4,1.2,3.8v0.3c0,0.1,0,0.2-0.1,0.3c-0.1,0.1-0.2,0.1-0.3,0.1h-7.1v0.2
		c0,0.6,0.2,1.2,0.4,1.8c0.2,0.5,0.6,1,1.1,1.3c0.5,0.3,1.1,0.5,1.6,0.5c0.6,0,1.2-0.1,1.8-0.4c0.4-0.2,0.7-0.5,1-0.9
		c0.1-0.1,0.2-0.2,0.3-0.3c0.1,0,0.2-0.1,0.3-0.1h0.3c0.1,0,0.2,0,0.3,0.1c0.1,0.1,0.1,0.2,0.1,0.3c-0.1,0.4-0.2,0.7-0.5,1
		c-0.4,0.4-0.9,0.8-1.5,1c-0.7,0.3-1.4,0.4-2.1,0.4C1073,425.3,1071.9,424.8,1071.1,424z M1077.4,419.2L1077.4,419.2
		c0-1-0.3-1.9-0.9-2.6c-0.6-0.7-1.4-1-2.3-1c-0.9,0-1.7,0.3-2.3,1c-0.6,0.7-0.9,1.6-0.8,2.5v0.1H1077.4z"/>
	<path class="st0" d="M1081.1,425.1c-0.1-0.1-0.1-0.2-0.1-0.3v-9.5c0-0.2,0.2-0.4,0.4-0.4c0,0,0,0,0.1,0h0.3c0.2,0,0.4,0.2,0.4,0.4
		c0,0,0,0,0,0.1v0.9c0.4-0.5,0.8-0.9,1.4-1.2c0.6-0.3,1.3-0.4,2-0.4c1.1-0.1,2.2,0.4,3,1.2c0.7,0.9,1.1,2.1,1.1,3.2v5.7
		c0,0.2-0.2,0.4-0.4,0.4c0,0,0,0-0.1,0h-0.3c-0.2,0-0.4-0.2-0.4-0.4c0,0,0,0,0-0.1v-5.6c0.1-0.9-0.2-1.8-0.8-2.5
		c-0.6-0.6-1.4-1-2.3-0.9c-0.9,0-1.7,0.3-2.3,0.9c-0.6,0.7-0.9,1.6-0.9,2.5v5.6c0,0.2-0.2,0.4-0.4,0.4c0,0,0,0-0.1,0h-0.3
		C1081.3,425.2,1081.2,425.2,1081.1,425.1z"/>
	<path class="st0" d="M1093.2,423.8c-0.7-1-1.1-2.2-1.1-3.4v-0.6v-0.6c0-1.2,0.4-2.4,1.1-3.4c0.8-1,2-1.5,3.2-1.4
		c1.3-0.1,2.6,0.5,3.4,1.6v-4.7c0-0.1,0-0.2,0.1-0.3c0.1-0.1,0.2-0.1,0.3-0.1h0.3c0.1,0,0.2,0,0.3,0.1c0.1,0.1,0.1,0.2,0.1,0.3v13.3
		c0,0.2-0.2,0.4-0.4,0.4c0,0,0,0-0.1,0h-0.3c-0.2,0-0.4-0.2-0.4-0.4c0,0,0,0,0-0.1v-0.9c-0.8,1.1-2,1.7-3.4,1.6
		C1095.2,425.3,1094,424.8,1093.2,423.8z M1098.9,423c0.5-0.7,0.8-1.6,0.9-2.5c0-0.1,0-0.4,0-0.8s0-0.6,0-0.8c0-0.6-0.1-1.1-0.4-1.6
		c-0.2-0.5-0.6-1-1.1-1.3c-0.5-0.3-1.1-0.5-1.8-0.5c-0.9-0.1-1.8,0.3-2.4,1c-0.5,0.8-0.8,1.7-0.8,2.6v0.6c0,1.1,0.2,2.1,0.7,3
		c0.5,0.8,1.5,1.3,2.5,1.2C1097.4,424.1,1098.3,423.7,1098.9,423z"/>
	<path class="st0" d="M1104.7,424c-0.8-0.9-1.3-2.1-1.3-3.4v-0.8V419c0-1.2,0.5-2.4,1.3-3.3c0.8-0.8,1.9-1.3,3.1-1.3
		c1.2-0.1,2.4,0.4,3.2,1.4c0.8,1.1,1.2,2.4,1.2,3.8v0.3c0,0.1,0,0.2-0.1,0.3c-0.1,0.1-0.2,0.1-0.3,0.1h-7.1v0.2
		c0,0.6,0.2,1.2,0.4,1.8c0.2,0.5,0.6,1,1.1,1.3c0.5,0.3,1.1,0.5,1.6,0.5c0.6,0,1.2-0.1,1.8-0.4c0.4-0.2,0.7-0.5,1-0.9
		c0.1-0.1,0.2-0.2,0.3-0.3c0.1,0,0.2-0.1,0.3-0.1h0.3c0.1,0,0.2,0,0.3,0.1c0.1,0.1,0.1,0.2,0.1,0.3c-0.1,0.4-0.2,0.7-0.5,1
		c-0.4,0.4-0.9,0.8-1.5,1c-0.7,0.3-1.4,0.4-2.1,0.4C1106.6,425.3,1105.5,424.8,1104.7,424z M1111,419.2L1111,419.2
		c0-1-0.3-1.9-0.9-2.6c-0.6-0.7-1.4-1-2.3-1c-0.9,0-1.7,0.3-2.3,1c-0.6,0.7-0.9,1.6-0.8,2.5v0.1H1111z"/>
	<path class="st0" d="M1114.7,425.1c-0.1-0.1-0.1-0.2-0.1-0.3v-9.5c0-0.1,0-0.2,0.1-0.3c0.1-0.1,0.2-0.1,0.3-0.1h0.3
		c0.1,0,0.2,0,0.3,0.1c0.1,0.1,0.1,0.2,0.1,0.3v0.9c0.6-1,1.6-1.5,2.7-1.4h0.7c0.2,0,0.4,0.2,0.4,0.4c0,0,0,0,0,0.1v0.3
		c0,0.2-0.2,0.4-0.4,0.4c0,0,0,0-0.1,0h-0.9c-1.3-0.1-2.5,0.9-2.6,2.2c0,0.1,0,0.2,0,0.4v6.2c0,0.1,0,0.2-0.1,0.3
		c-0.1,0.1-0.2,0.1-0.3,0.1h-0.3C1114.9,425.2,1114.8,425.2,1114.7,425.1z"/>
	<path class="st0" d="M1218.2,321c-0.5-0.2-1-0.6-1.3-1c-0.2-0.2-0.4-0.6-0.5-0.9c0-0.1,0.1-0.2,0.1-0.3c0.1-0.1,0.2-0.1,0.3-0.1
		h0.3c0.1,0,0.2,0,0.2,0c0.1,0.1,0.2,0.1,0.2,0.2c0.3,0.4,0.6,0.8,1.1,1c0.5,0.3,1.1,0.4,1.7,0.4c0.7,0,1.4-0.1,2-0.5
		c0.5-0.3,0.8-0.8,0.8-1.4c0-0.3-0.1-0.6-0.3-0.9c-0.3-0.3-0.6-0.5-1-0.6c-0.7-0.2-1.4-0.4-2-0.6c-0.9-0.1-1.7-0.5-2.4-1.1
		c-0.4-0.5-0.7-1.1-0.7-1.8c0-0.5,0.1-1,0.4-1.4c0.3-0.5,0.7-0.8,1.2-1.1c0.6-0.3,1.3-0.4,2-0.4c0.7,0,1.4,0.1,2,0.4
		c0.5,0.2,0.9,0.6,1.2,1c0.2,0.2,0.4,0.6,0.4,0.9c0,0.1,0,0.2-0.1,0.3c-0.1,0.1-0.2,0.1-0.3,0.1h-0.3c-0.2,0-0.4-0.1-0.4-0.3
		c-0.2-0.4-0.5-0.7-0.9-0.9c-0.5-0.2-1-0.3-1.6-0.3c-0.6,0-1.2,0.1-1.8,0.5c-0.4,0.3-0.6,0.8-0.6,1.3c0,0.3,0.1,0.6,0.2,0.8
		c0.2,0.3,0.6,0.5,0.9,0.6c0.6,0.2,1.3,0.4,1.9,0.5c1,0.2,1.9,0.5,2.6,1.1c0.5,0.5,0.8,1.2,0.8,1.9c0,0.5-0.2,1.1-0.5,1.5
		c-0.3,0.5-0.8,0.9-1.4,1.1c-0.7,0.3-1.4,0.4-2.2,0.4C1219.6,321.5,1218.9,321.3,1218.2,321z"/>
	<path class="st0" d="M1217.1,147.1c-0.5-0.2-1-0.6-1.3-1c-0.2-0.2-0.4-0.6-0.4-0.9c0-0.1,0.1-0.2,0.1-0.3c0.1-0.1,0.2-0.1,0.3-0.1
		h0.3c0.1,0,0.2,0,0.2,0c0.1,0.1,0.2,0.1,0.2,0.2c0.3,0.4,0.6,0.8,1.1,1c0.5,0.3,1.1,0.4,1.7,0.4c0.7,0,1.4-0.1,2-0.5
		c0.5-0.3,0.8-0.8,0.8-1.4c0-0.3-0.1-0.6-0.3-0.9c-0.3-0.3-0.6-0.5-1-0.6c-0.7-0.2-1.4-0.4-2.1-0.6c-0.9-0.1-1.7-0.5-2.4-1.1
		c-0.4-0.5-0.7-1.1-0.7-1.8c0-0.5,0.1-1,0.4-1.4c0.3-0.5,0.7-0.8,1.2-1.1c0.6-0.3,1.3-0.4,1.9-0.4c0.7,0,1.4,0.1,2,0.4
		c0.5,0.2,0.9,0.6,1.2,1c0.2,0.2,0.4,0.6,0.4,0.9c0,0.1,0,0.2-0.1,0.3c-0.1,0.1-0.2,0.1-0.3,0.1h-0.3c-0.2,0-0.4-0.1-0.4-0.3
		c-0.2-0.4-0.5-0.7-0.9-0.9c-0.5-0.2-1-0.3-1.6-0.3c-0.6,0-1.2,0.1-1.8,0.5c-0.4,0.3-0.6,0.8-0.6,1.3c0,0.3,0.1,0.6,0.2,0.8
		c0.2,0.3,0.6,0.5,0.9,0.6c0.6,0.2,1.3,0.4,1.9,0.5c1,0.2,1.9,0.5,2.6,1.1c0.5,0.5,0.8,1.2,0.8,1.9c0,0.5-0.2,1.1-0.5,1.5
		c-0.3,0.5-0.8,0.9-1.4,1.1c-0.7,0.3-1.4,0.4-2.2,0.4C1218.5,147.6,1217.8,147.4,1217.1,147.1z"/>
	<path class="st0" d="M829.2,65.7c-0.1-0.1-0.1-0.2-0.1-0.3v-0.2l5.1-13c0.1-0.2,0.3-0.4,0.6-0.4h0.7c0.3,0,0.5,0.1,0.6,0.4l5.1,13
		v0.2c0,0.1,0,0.2-0.1,0.3c-0.1,0.1-0.2,0.1-0.3,0.1h-0.4c-0.1,0-0.2,0-0.3-0.1c-0.1-0.1-0.1-0.1-0.2-0.2l-1.2-3.2h-6.9l-1.2,3.2
		c0,0.1-0.1,0.1-0.2,0.2c-0.1,0.1-0.2,0.1-0.3,0.1h-0.4C829.4,65.8,829.3,65.8,829.2,65.7z M832.1,61.1h6.1l-3.1-7.9L832.1,61.1z"/>
	<path class="st0" d="M853.9,64.6c-0.8-0.9-1.2-2.2-1.2-3.4v-0.8v-0.8c0-1.2,0.4-2.5,1.2-3.4c0.9-0.8,2-1.3,3.2-1.2
		c0.8,0,1.5,0.1,2.2,0.5c0.6,0.3,1,0.7,1.4,1.2c0.3,0.4,0.5,1,0.5,1.5c0,0.1,0,0.2-0.1,0.3c-0.1,0.1-0.2,0.1-0.3,0.1h-0.3
		c-0.1,0-0.2,0-0.3-0.1c-0.1-0.1-0.1-0.2-0.2-0.3c-0.2-0.6-0.6-1.2-1.1-1.6c-0.5-0.3-1.2-0.5-1.8-0.5c-0.9,0-1.7,0.3-2.3,0.9
		c-0.6,0.7-0.9,1.7-0.9,2.7v0.7v0.7c0,1,0.3,1.9,0.9,2.7c0.6,0.6,1.4,0.9,2.3,0.9c0.6,0,1.3-0.1,1.8-0.5c0.5-0.4,0.9-0.9,1.1-1.6
		c0-0.1,0.1-0.2,0.2-0.3c0.1-0.1,0.2-0.1,0.3-0.1h0.3c0.1,0,0.2,0,0.3,0.1c0.1,0.1,0.1,0.2,0.1,0.3c0,0.5-0.2,1.1-0.5,1.5
		c-0.3,0.5-0.8,0.9-1.4,1.2c-0.7,0.3-1.5,0.5-2.2,0.5C856,65.9,854.8,65.4,853.9,64.6z"/>
	<path class="st0" d="M864.7,64.6c-0.8-0.9-1.3-2.1-1.3-3.4v-0.8v-0.8c0.1-1.2,0.5-2.4,1.3-3.3c0.8-0.8,1.9-1.3,3.1-1.3
		c1.2-0.1,2.4,0.4,3.2,1.4c0.8,1.1,1.2,2.4,1.2,3.8v0.3c0,0.1,0,0.2-0.1,0.3c-0.1,0.1-0.2,0.1-0.3,0.1h-7.1v0.2
		c0,0.6,0.2,1.2,0.4,1.8c0.2,0.5,0.6,1,1.1,1.3c0.5,0.3,1.1,0.5,1.6,0.5c1.1,0.1,2.1-0.4,2.8-1.3c0.1-0.1,0.2-0.2,0.3-0.3
		c0.1-0.1,0.2-0.1,0.3-0.1h0.3c0.1,0,0.2,0,0.3,0.1c0.1,0.1,0.1,0.2,0.1,0.3c-0.1,0.4-0.2,0.7-0.5,1c-0.4,0.4-0.9,0.8-1.5,1
		c-0.7,0.3-1.4,0.4-2.1,0.4C866.6,65.9,865.5,65.4,864.7,64.6z M871,59.8L871,59.8c0-1-0.3-1.9-0.9-2.6c-0.6-0.7-1.4-1-2.3-1
		c-0.9,0-1.7,0.3-2.3,1c-0.6,0.7-0.9,1.6-0.8,2.5v0.1H871z"/>
	<path class="st0" d="M875,65.7c-0.1-0.1-0.1-0.2-0.1-0.3v-9.5c0-0.1,0-0.2,0.1-0.3c0.1-0.1,0.2-0.1,0.3-0.1h0.3
		c0.1,0,0.2,0,0.3,0.1c0.1,0.1,0.1,0.2,0.1,0.3v0.9c0.4-0.5,0.8-0.9,1.4-1.2c0.6-0.3,1.3-0.4,2-0.4c1.1-0.1,2.2,0.4,3,1.2
		c0.7,0.9,1.1,2.1,1.1,3.2v5.7c0,0.1,0,0.2-0.1,0.3c-0.1,0.1-0.2,0.1-0.3,0.1h-0.3c-0.1,0-0.2,0-0.3-0.1c-0.1-0.1-0.1-0.2-0.1-0.3
		v-5.6c0.1-0.9-0.2-1.8-0.8-2.5c-0.6-0.6-1.4-1-2.3-0.9c-0.9,0-1.7,0.3-2.3,0.9c-0.6,0.7-0.9,1.6-0.9,2.5v5.6c0,0.1,0,0.2-0.1,0.3
		c-0.1,0.1-0.2,0.1-0.3,0.1h-0.3C875.2,65.8,875.1,65.8,875,65.7z"/>
	<path class="st0" d="M887.2,64.4c-0.7-1-1.1-2.2-1.1-3.4v-0.6v-0.6c0-1.2,0.4-2.4,1.1-3.4c0.8-1,2-1.5,3.2-1.4
		c1.3-0.1,2.6,0.5,3.4,1.6v-4.7c0-0.1,0-0.2,0.1-0.3c0.1-0.1,0.2-0.1,0.3-0.1h0.3c0.1,0,0.2,0,0.3,0.1c0.1,0.1,0.1,0.2,0.1,0.3v13.3
		c0,0.1,0,0.2-0.1,0.3c-0.1,0.1-0.2,0.1-0.3,0.1h-0.3c-0.1,0-0.2,0-0.3-0.1c-0.1-0.1-0.1-0.2-0.1-0.3v-0.9c-0.8,1.1-2,1.7-3.4,1.6
		C889.2,65.9,888,65.4,887.2,64.4z M892.9,63.6c0.5-0.7,0.8-1.6,0.9-2.5c0-0.3,0-0.5,0-0.8c0-0.3,0-0.5,0-0.8c0-0.6-0.1-1.1-0.4-1.6
		c-0.2-0.5-0.6-1-1.1-1.3c-0.5-0.3-1.1-0.5-1.8-0.5c-0.9-0.1-1.8,0.3-2.4,1c-0.5,0.8-0.8,1.7-0.8,2.7v0.6c0,1,0.2,2.1,0.7,3
		c0.5,0.8,1.5,1.3,2.5,1.2C891.4,64.6,892.3,64.2,892.9,63.6L892.9,63.6z"/>
	<path class="st0" d="M899.1,64.6c-0.8-0.9-1.3-2.1-1.3-3.4v-0.8v-0.8c0-1.2,0.5-2.4,1.3-3.3c0.8-0.8,1.9-1.3,3.1-1.3
		c1.2-0.1,2.4,0.4,3.2,1.4c0.8,1.1,1.2,2.4,1.2,3.8v0.3c0,0.1,0,0.2-0.1,0.3c-0.1,0.1-0.2,0.1-0.3,0.1H899v0.2
		c0,0.6,0.2,1.2,0.4,1.8c0.2,0.5,0.6,1,1.1,1.3c0.5,0.3,1.1,0.5,1.6,0.5c0.6,0,1.2-0.1,1.8-0.4c0.4-0.2,0.7-0.5,1-0.9
		c0.1-0.1,0.2-0.2,0.3-0.3c0.1-0.1,0.2-0.1,0.3-0.1h0.3c0.1,0,0.2,0,0.3,0.1c0.1,0.1,0.1,0.2,0.1,0.3c-0.1,0.4-0.2,0.7-0.5,1
		c-0.4,0.4-0.9,0.8-1.5,1c-0.7,0.3-1.4,0.4-2.1,0.4C901,65.9,899.9,65.4,899.1,64.6z M905.3,59.8L905.3,59.8c0-1-0.3-1.9-0.9-2.6
		c-0.6-0.7-1.4-1-2.3-1c-0.9,0-1.7,0.3-2.3,1c-0.6,0.7-0.9,1.6-0.8,2.5v0.1H905.3z"/>
	<path class="st0" d="M909.3,65.7c-0.1-0.1-0.1-0.2-0.1-0.3v-9.5c0-0.1,0-0.2,0.1-0.3c0.1-0.1,0.2-0.1,0.3-0.1h0.3
		c0.1,0,0.2,0,0.3,0.1c0.1,0.1,0.1,0.2,0.1,0.3v0.9c0.5-1,1.6-1.5,2.7-1.4h0.7c0.1,0,0.2,0,0.3,0.1c0.1,0.1,0.1,0.2,0.1,0.3v0.3
		c0,0.1,0,0.2-0.1,0.3c-0.1,0.1-0.2,0.1-0.3,0.1H913c-1.3-0.1-2.5,0.9-2.6,2.2c0,0.1,0,0.2,0,0.4v6.2c0,0.1,0,0.2-0.1,0.3
		c-0.1,0.1-0.2,0.1-0.3,0.1h-0.3C909.5,65.8,909.4,65.8,909.3,65.7z"/>
	<path class="st0" d="M844.8,65.3c-0.5-0.2-1-0.6-1.3-1c-0.2-0.2-0.4-0.6-0.5-0.9c0-0.1,0.1-0.2,0.1-0.3c0.1-0.1,0.2-0.1,0.3-0.1
		h0.3c0.1,0,0.2,0,0.2,0c0.1,0.1,0.2,0.1,0.2,0.2c0.3,0.4,0.6,0.8,1.1,1c0.5,0.3,1.1,0.4,1.7,0.4c0.7,0,1.4-0.1,2-0.5
		c0.5-0.3,0.8-0.8,0.8-1.4c0-0.3-0.1-0.6-0.3-0.9c-0.3-0.3-0.6-0.5-1-0.6c-0.7-0.2-1.4-0.4-2-0.6c-0.9-0.1-1.7-0.5-2.4-1.1
		c-0.4-0.5-0.7-1.1-0.7-1.8c0-0.5,0.1-1,0.4-1.4c0.3-0.5,0.7-0.8,1.2-1.1c0.6-0.3,1.3-0.4,2-0.4c0.7,0,1.4,0.1,2,0.4
		c0.5,0.2,0.9,0.6,1.2,1c0.2,0.2,0.4,0.6,0.4,0.9c0,0.1,0,0.2-0.1,0.3c-0.1,0.1-0.2,0.1-0.3,0.1h-0.3c-0.2,0-0.4-0.1-0.4-0.3
		c-0.2-0.4-0.5-0.7-0.9-0.9c-0.5-0.2-1-0.3-1.6-0.3c-0.6,0-1.2,0.1-1.8,0.5c-0.4,0.3-0.6,0.8-0.6,1.3c0,0.3,0.1,0.6,0.2,0.8
		c0.2,0.3,0.6,0.5,0.9,0.6c0.6,0.2,1.3,0.4,1.9,0.5c1,0.2,1.9,0.5,2.6,1.1c0.5,0.5,0.8,1.2,0.8,1.9c0,0.5-0.2,1.1-0.5,1.5
		c-0.3,0.5-0.8,0.9-1.4,1.1c-0.7,0.3-1.4,0.4-2.2,0.4C846.3,65.8,845.5,65.6,844.8,65.3z"/>
	<path class="st0" d="M544.8,77.2c-0.1-0.1-0.1-0.2-0.1-0.3v-0.2l5.1-13c0.1-0.2,0.3-0.4,0.6-0.4h0.7c0.3,0,0.5,0.1,0.6,0.4l5.1,13
		V77c0,0.1,0,0.2-0.1,0.3c-0.1,0.1-0.2,0.1-0.3,0.1h-0.4c-0.1,0-0.2,0-0.3-0.1c-0.1-0.1-0.1-0.1-0.2-0.2l-1.2-3.2h-6.9l-1.2,3.2
		c0,0.1-0.1,0.1-0.2,0.2c-0.1,0.1-0.2,0.1-0.3,0.1h-0.4C545,77.4,544.9,77.3,544.8,77.2z M547.7,72.7h6.1l-3.1-7.9L547.7,72.7z"/>
	<path class="st0" d="M569.5,76.2c-0.8-0.9-1.2-2.2-1.2-3.4V72v-0.8c0-1.2,0.4-2.5,1.2-3.4c0.9-0.8,2-1.3,3.2-1.2
		c0.8,0,1.5,0.1,2.2,0.5c0.6,0.3,1,0.7,1.4,1.2c0.3,0.4,0.5,1,0.5,1.5c0,0.1,0,0.2-0.1,0.3c-0.1,0.1-0.2,0.1-0.3,0.1h-0.3
		c-0.1,0-0.2,0-0.3-0.1c-0.1-0.1-0.1-0.2-0.2-0.3c-0.2-0.6-0.6-1.2-1.1-1.6c-0.5-0.3-1.2-0.5-1.8-0.5c-0.9,0-1.7,0.3-2.3,0.9
		c-0.6,0.7-0.9,1.7-0.9,2.7V72v0.7c0,1,0.3,1.9,0.9,2.7c0.6,0.6,1.4,0.9,2.3,0.9c0.6,0,1.3-0.1,1.8-0.5c0.5-0.4,0.9-0.9,1.1-1.6
		c0-0.1,0.1-0.2,0.2-0.3c0.1-0.1,0.2-0.1,0.3-0.1h0.3c0.1,0,0.2,0,0.3,0.1c0.1,0.1,0.1,0.2,0.1,0.3c0,0.5-0.2,1.1-0.5,1.5
		c-0.3,0.5-0.8,0.9-1.4,1.2c-0.7,0.3-1.5,0.5-2.2,0.5C571.6,77.4,570.4,77,569.5,76.2z"/>
	<path class="st0" d="M580.3,76.1c-0.8-0.9-1.3-2.1-1.3-3.4V72v-0.8c0.1-1.2,0.5-2.4,1.3-3.3c0.8-0.8,1.9-1.3,3.1-1.3
		c1.2-0.1,2.4,0.4,3.2,1.4c0.8,1.1,1.2,2.4,1.2,3.8V72c0,0.1,0,0.2-0.1,0.3c-0.1,0.1-0.2,0.1-0.3,0.1h-7.1v0.2
		c0,0.6,0.2,1.2,0.4,1.8c0.2,0.5,0.6,1,1.1,1.3c0.5,0.3,1.1,0.5,1.6,0.5c1.1,0.1,2.1-0.4,2.8-1.3c0.1-0.1,0.2-0.2,0.3-0.3
		c0.1-0.1,0.2-0.1,0.3-0.1h0.3c0.1,0,0.2,0,0.3,0.1c0.1,0.1,0.1,0.2,0.1,0.3c-0.1,0.4-0.2,0.7-0.5,1c-0.4,0.4-0.9,0.8-1.5,1
		c-0.7,0.3-1.4,0.4-2.1,0.4C582.2,77.4,581.1,77,580.3,76.1z M586.6,71.3L586.6,71.3c0-1-0.3-1.9-0.9-2.6c-0.6-0.7-1.4-1-2.3-1
		c-0.9,0-1.7,0.3-2.3,1c-0.6,0.7-0.9,1.6-0.8,2.5v0.1H586.6z"/>
	<path class="st0" d="M590.6,77.2c-0.1-0.1-0.1-0.2-0.1-0.3v-9.5c0-0.1,0-0.2,0.1-0.3c0.1-0.1,0.2-0.1,0.3-0.1h0.3
		c0.1,0,0.2,0,0.3,0.1c0.1,0.1,0.1,0.2,0.1,0.3v0.9c0.4-0.5,0.8-0.9,1.4-1.2c0.6-0.3,1.3-0.4,2-0.4c1.1-0.1,2.2,0.4,3,1.2
		c0.7,0.9,1.1,2.1,1.1,3.2v5.7c0,0.1,0,0.2-0.1,0.3c-0.1,0.1-0.2,0.1-0.3,0.1h-0.3c-0.1,0-0.2,0-0.3-0.1c-0.1-0.1-0.1-0.2-0.1-0.3
		v-5.6c0.1-0.9-0.2-1.8-0.8-2.5c-0.6-0.6-1.4-1-2.3-0.9c-0.9,0-1.7,0.3-2.3,0.9c-0.6,0.7-0.9,1.6-0.9,2.5v5.6c0,0.1,0,0.2-0.1,0.3
		c-0.1,0.1-0.2,0.1-0.3,0.1h-0.3C590.8,77.4,590.7,77.3,590.6,77.2z"/>
	<path class="st0" d="M602.8,75.9c-0.7-1-1.1-2.2-1.1-3.4v-0.6v-0.6c0-1.2,0.4-2.4,1.1-3.4c0.8-1,2-1.5,3.2-1.4
		c1.3-0.1,2.6,0.5,3.4,1.6v-4.7c0-0.1,0-0.2,0.1-0.3c0.1-0.1,0.2-0.1,0.3-0.1h0.3c0.1,0,0.2,0,0.3,0.1c0.1,0.1,0.1,0.2,0.1,0.3v13.3
		c0,0.1,0,0.2-0.1,0.3c-0.1,0.1-0.2,0.1-0.3,0.1h-0.3c-0.1,0-0.2,0-0.3-0.1c-0.1-0.1-0.1-0.2-0.1-0.3v-0.9c-0.8,1.1-2,1.7-3.4,1.6
		C604.8,77.4,603.6,76.9,602.8,75.9z M608.5,75.1c0.5-0.7,0.8-1.6,0.9-2.5c0-0.3,0-0.5,0-0.8c0-0.3,0-0.5,0-0.8
		c0-0.6-0.1-1.1-0.4-1.6c-0.2-0.5-0.6-1-1.1-1.3c-0.5-0.3-1.1-0.5-1.8-0.5c-0.9-0.1-1.8,0.3-2.4,1c-0.5,0.8-0.8,1.7-0.8,2.7v0.6
		c0,1,0.2,2.1,0.7,3c0.5,0.8,1.5,1.3,2.5,1.2C607,76.1,607.9,75.8,608.5,75.1L608.5,75.1z"/>
	<path class="st0" d="M614.7,76.1c-0.8-0.9-1.3-2.1-1.3-3.4V72v-0.8c0-1.2,0.5-2.4,1.3-3.3c0.8-0.8,1.9-1.3,3.1-1.3
		c1.2-0.1,2.4,0.4,3.2,1.4c0.8,1.1,1.2,2.4,1.2,3.8V72c0,0.1,0,0.2-0.1,0.3c-0.1,0.1-0.2,0.1-0.3,0.1h-7.1v0.2
		c0,0.6,0.2,1.2,0.4,1.8c0.2,0.5,0.6,1,1.1,1.3c0.5,0.3,1.1,0.5,1.6,0.5c0.6,0,1.2-0.1,1.8-0.4c0.4-0.2,0.7-0.5,1-0.9
		c0.1-0.1,0.2-0.2,0.3-0.3c0.1-0.1,0.2-0.1,0.3-0.1h0.3c0.1,0,0.2,0,0.3,0.1c0.1,0.1,0.1,0.2,0.1,0.3c-0.1,0.4-0.2,0.7-0.5,1
		c-0.4,0.4-0.9,0.8-1.5,1c-0.7,0.3-1.4,0.4-2.1,0.4C616.6,77.4,615.5,77,614.7,76.1z M620.9,71.4L620.9,71.4c0-1-0.3-1.9-0.9-2.6
		c-0.6-0.7-1.4-1-2.3-1c-0.9,0-1.7,0.3-2.3,1c-0.6,0.7-0.9,1.6-0.8,2.5v0.1H620.9z"/>
	<path class="st0" d="M624.9,77.2c-0.1-0.1-0.1-0.2-0.1-0.3v-9.5c0-0.1,0-0.2,0.1-0.3c0.1-0.1,0.2-0.1,0.3-0.1h0.3
		c0.1,0,0.2,0,0.3,0.1c0.1,0.1,0.1,0.2,0.1,0.3v0.9c0.5-1,1.6-1.5,2.7-1.4h0.7c0.1,0,0.2,0,0.3,0.1c0.1,0.1,0.1,0.2,0.1,0.3v0.3
		c0,0.1,0,0.2-0.1,0.3c-0.1,0.1-0.2,0.1-0.3,0.1h-0.9c-1.3-0.1-2.5,0.9-2.6,2.2c0,0.1,0,0.2,0,0.4v6.2c0,0.1,0,0.2-0.1,0.3
		c-0.1,0.1-0.2,0.1-0.3,0.1h-0.3C625.1,77.4,625,77.3,624.9,77.2z"/>
	<path class="st0" d="M560.4,76.9c-0.5-0.2-1-0.6-1.3-1c-0.2-0.2-0.4-0.6-0.5-0.9c0-0.1,0.1-0.2,0.1-0.3c0.1-0.1,0.2-0.1,0.3-0.1
		h0.3c0.1,0,0.2,0,0.2,0c0.1,0.1,0.2,0.1,0.2,0.2c0.3,0.4,0.6,0.8,1.1,1c0.5,0.3,1.1,0.4,1.7,0.4c0.7,0,1.4-0.1,2-0.5
		c0.5-0.3,0.8-0.8,0.8-1.4c0-0.3-0.1-0.6-0.3-0.9c-0.3-0.3-0.6-0.5-1-0.6c-0.7-0.2-1.4-0.4-2-0.6c-0.9-0.1-1.7-0.5-2.4-1.1
		c-0.4-0.5-0.7-1.1-0.6-1.8c0-0.5,0.1-1,0.4-1.4c0.3-0.5,0.7-0.8,1.2-1.1c0.6-0.3,1.3-0.4,2-0.4c0.7,0,1.4,0.1,2,0.4
		c0.5,0.2,0.9,0.6,1.2,1c0.2,0.2,0.4,0.6,0.4,0.9c0,0.1,0,0.2-0.1,0.3c-0.1,0.1-0.2,0.1-0.3,0.1h-0.3c-0.2,0-0.4-0.1-0.4-0.3
		c-0.2-0.4-0.5-0.7-0.9-0.9c-0.5-0.2-1-0.3-1.6-0.3c-0.6,0-1.2,0.1-1.8,0.5c-0.4,0.3-0.6,0.8-0.6,1.3c0,0.3,0.1,0.6,0.2,0.8
		c0.2,0.3,0.6,0.5,0.9,0.6c0.6,0.2,1.3,0.4,1.9,0.5c1,0.2,1.9,0.5,2.6,1.1c0.5,0.5,0.8,1.2,0.8,1.9c0,0.5-0.2,1.1-0.5,1.5
		c-0.3,0.5-0.8,0.9-1.4,1.1c-0.7,0.3-1.4,0.4-2.2,0.4C561.9,77.4,561.1,77.2,560.4,76.9z"/>
	<path class="st0" d="M1192.6,321.4c-0.1-0.1-0.1-0.2-0.1-0.3v-13.1c0-0.1,0-0.2,0.1-0.3c0.1-0.1,0.2-0.1,0.3-0.1h4.3
		c1.1-0.1,2.3,0.2,3.3,0.6c0.8,0.4,1.4,1,1.7,1.8c0.4,1,0.6,2,0.6,3c0,0.4,0,0.9,0,1.6s0,1.2,0,1.6c0,1.1-0.2,2.1-0.6,3.1
		c-0.3,0.8-0.9,1.4-1.7,1.8c-1,0.4-2.1,0.6-3.2,0.6h-4.4C1192.8,321.5,1192.6,321.4,1192.6,321.4z M1197.1,320.3
		c0.9,0,1.7-0.1,2.5-0.4c0.6-0.3,1.1-0.8,1.3-1.4c0.3-0.8,0.5-1.7,0.4-2.5c0-0.4,0-0.9,0-1.5s0-1.1,0-1.5c0.1-1.2-0.3-2.3-1-3.3
		c-0.9-0.8-2.1-1.1-3.3-1h-3.3v11.6L1197.1,320.3z"/>
	<path class="st0" d="M1206.5,320.3c-0.8-0.9-1.3-2.1-1.3-3.4v-0.8v-0.8c0-1.2,0.5-2.4,1.3-3.3c0.8-0.8,1.9-1.3,3.1-1.3
		c1.2-0.1,2.4,0.4,3.2,1.4c0.8,1.1,1.2,2.4,1.2,3.8v0.3c0,0.1,0,0.2-0.1,0.3c-0.1,0.1-0.2,0.1-0.3,0.1h-7.1v0.2
		c0,0.6,0.2,1.2,0.4,1.8c0.2,0.5,0.6,1,1.1,1.3c0.5,0.3,1.1,0.5,1.6,0.5c0.6,0,1.2-0.1,1.8-0.4c0.4-0.2,0.7-0.5,1-0.9
		c0.1-0.1,0.2-0.2,0.3-0.3c0.1,0,0.2-0.1,0.3-0.1h0.3c0.1,0,0.2,0,0.3,0.1c0.1,0.1,0.1,0.2,0.1,0.3c-0.1,0.4-0.2,0.7-0.5,1
		c-0.4,0.4-0.9,0.8-1.5,1c-0.7,0.3-1.4,0.4-2.1,0.4C1208.4,321.5,1207.3,321.1,1206.5,320.3z M1212.8,315.5L1212.8,315.5
		c0-1-0.3-1.9-0.9-2.6c-0.6-0.7-1.4-1-2.3-1c-0.9,0-1.7,0.3-2.3,1c-0.6,0.7-0.9,1.6-0.8,2.5v0.1H1212.8z"/>
	<path class="st0" d="M1228,320.3c-0.8-0.9-1.2-2.2-1.2-3.4v-0.8v-0.8c0-1.2,0.4-2.5,1.2-3.4c0.9-0.8,2-1.3,3.2-1.2
		c0.8,0,1.5,0.1,2.2,0.5c0.6,0.3,1,0.7,1.4,1.2c0.3,0.5,0.5,1,0.5,1.5c0,0.1,0,0.2-0.1,0.3c-0.1,0.1-0.2,0.1-0.3,0.1h-0.3
		c-0.1,0-0.2,0-0.3-0.1c-0.1-0.1-0.1-0.2-0.2-0.3c-0.2-0.6-0.6-1.2-1.1-1.6c-0.5-0.3-1.2-0.5-1.8-0.5c-0.9,0-1.7,0.3-2.3,0.9
		c-0.6,0.7-1,1.7-0.9,2.7v0.7v0.7c0,1,0.3,1.9,0.9,2.7c0.6,0.6,1.4,0.9,2.3,0.9c0.6,0,1.3-0.1,1.8-0.5c0.5-0.4,0.9-0.9,1.1-1.6
		c0-0.1,0.1-0.2,0.2-0.3c0.1-0.1,0.2-0.1,0.3-0.1h0.3c0.1,0,0.2,0,0.3,0.1c0.1,0.1,0.1,0.2,0.1,0.3c0,0.5-0.2,1.1-0.5,1.5
		c-0.3,0.5-0.8,0.9-1.4,1.2c-0.7,0.3-1.5,0.5-2.2,0.5C1230,321.5,1228.8,321.1,1228,320.3z"/>
	<path class="st0" d="M1239.1,320.3c-0.8-0.9-1.3-2.1-1.3-3.4v-0.8v-0.8c0-1.2,0.5-2.4,1.3-3.3c0.8-0.8,1.9-1.3,3.1-1.3
		c1.2-0.1,2.4,0.4,3.2,1.4c0.8,1.1,1.2,2.4,1.2,3.8v0.3c0,0.1,0,0.2-0.1,0.3c-0.1,0.1-0.2,0.1-0.3,0.1h-7.1v0.2
		c0,0.6,0.2,1.2,0.4,1.8c0.2,0.5,0.6,1,1.1,1.3c0.5,0.3,1.1,0.5,1.6,0.5c0.6,0,1.2-0.1,1.8-0.4c0.4-0.2,0.7-0.5,1-0.9
		c0.1-0.1,0.2-0.2,0.3-0.3c0.1,0,0.2-0.1,0.3-0.1h0.3c0.1,0,0.2,0,0.3,0.1c0.1,0.1,0.1,0.2,0.1,0.3c-0.1,0.4-0.2,0.7-0.5,1
		c-0.4,0.4-0.9,0.8-1.5,1c-0.7,0.3-1.4,0.4-2.1,0.4C1241,321.5,1239.9,321.1,1239.1,320.3z M1245.4,315.5L1245.4,315.5
		c0-1-0.3-1.9-0.9-2.6c-0.6-0.7-1.4-1-2.3-1c-0.9,0-1.7,0.3-2.3,1c-0.6,0.7-0.9,1.6-0.8,2.5v0.1H1245.4z"/>
	<path class="st0" d="M1249.1,321.4c-0.1-0.1-0.1-0.2-0.1-0.3v-9.5c0-0.2,0.2-0.4,0.4-0.4c0,0,0,0,0.1,0h0.3c0.2,0,0.4,0.2,0.4,0.4
		c0,0,0,0,0,0.1v0.9c0.4-0.5,0.8-0.9,1.4-1.2c0.6-0.3,1.3-0.4,2-0.4c1.1-0.1,2.2,0.4,3,1.2c0.7,0.9,1.1,2.1,1.1,3.2v5.7
		c0,0.2-0.2,0.4-0.4,0.4c0,0,0,0-0.1,0h-0.3c-0.2,0-0.4-0.2-0.4-0.4c0,0,0,0,0-0.1v-5.6c0.1-0.9-0.2-1.8-0.8-2.5
		c-0.6-0.6-1.4-1-2.3-0.9c-0.9,0-1.7,0.3-2.3,0.9c-0.6,0.7-0.9,1.6-0.9,2.5v5.6c0,0.2-0.2,0.4-0.4,0.4c0,0,0,0-0.1,0h-0.3
		C1249.3,321.5,1249.2,321.4,1249.1,321.4z"/>
	<path class="st0" d="M1261.2,320.1c-0.7-1-1.1-2.2-1.1-3.4v-0.6v-0.6c0-1.2,0.4-2.4,1.1-3.4c0.8-1,2-1.5,3.2-1.4
		c1.3-0.1,2.6,0.5,3.4,1.6v-4.7c0-0.1,0-0.2,0.1-0.3c0.1-0.1,0.2-0.1,0.3-0.1h0.3c0.1,0,0.2,0,0.3,0.1c0.1,0.1,0.1,0.2,0.1,0.3v13.3
		c0,0.2-0.2,0.4-0.4,0.4c0,0,0,0-0.1,0h-0.3c-0.2,0-0.4-0.2-0.4-0.4c0,0,0,0,0-0.1v-0.9c-0.8,1.1-2,1.7-3.4,1.6
		C1263.1,321.6,1261.9,321,1261.2,320.1z M1266.9,319.3c0.5-0.7,0.8-1.6,0.9-2.5c0-0.1,0-0.4,0-0.8s0-0.6,0-0.8
		c0-0.6-0.1-1.1-0.4-1.6c-0.2-0.5-0.6-1-1.1-1.3c-0.5-0.3-1.1-0.5-1.8-0.5c-0.9-0.1-1.8,0.3-2.4,1c-0.5,0.8-0.8,1.7-0.8,2.6v0.6
		c0,1.1,0.2,2.1,0.7,3c0.5,0.8,1.5,1.3,2.5,1.2C1265.4,320.3,1266.3,320,1266.9,319.3z"/>
	<path class="st0" d="M1272.7,320.3c-0.8-0.9-1.3-2.1-1.3-3.4v-0.8v-0.8c0-1.2,0.5-2.4,1.3-3.3c0.8-0.8,1.9-1.3,3.1-1.3
		c1.2-0.1,2.4,0.4,3.2,1.4c0.8,1.1,1.2,2.4,1.2,3.8v0.3c0,0.1,0,0.2-0.1,0.3c-0.1,0.1-0.2,0.1-0.3,0.1h-7.1v0.2
		c0,0.6,0.2,1.2,0.4,1.8c0.2,0.5,0.6,1,1.1,1.3c0.5,0.3,1.1,0.5,1.6,0.5c0.6,0,1.2-0.1,1.8-0.4c0.4-0.2,0.7-0.5,1-0.9
		c0.1-0.1,0.2-0.2,0.3-0.3c0.1,0,0.2-0.1,0.3-0.1h0.3c0.1,0,0.2,0,0.3,0.1c0.1,0.1,0.1,0.2,0.1,0.3c-0.1,0.4-0.2,0.7-0.5,1
		c-0.4,0.4-0.9,0.8-1.5,1c-0.7,0.3-1.4,0.4-2.1,0.4C1274.6,321.5,1273.5,321.1,1272.7,320.3z M1278.9,315.5L1278.9,315.5
		c0-1-0.3-1.9-0.9-2.6c-0.6-0.7-1.4-1-2.3-1c-0.9,0-1.7,0.3-2.3,1c-0.6,0.7-0.9,1.6-0.8,2.5v0.1H1278.9z"/>
	<path class="st0" d="M1282.7,321.4c-0.1-0.1-0.1-0.2-0.1-0.3v-9.5c0-0.1,0-0.2,0.1-0.3c0.1-0.1,0.2-0.1,0.3-0.1h0.3
		c0.1,0,0.2,0,0.3,0.1c0.1,0.1,0.1,0.2,0.1,0.3v0.9c0.6-1,1.6-1.5,2.7-1.4h0.7c0.2,0,0.4,0.2,0.4,0.4c0,0,0,0,0,0.1v0.3
		c0,0.2-0.2,0.4-0.4,0.4c0,0,0,0-0.1,0h-0.9c-1.3-0.1-2.5,0.9-2.6,2.2c0,0.1,0,0.2,0,0.4v6.2c0,0.1,0,0.2-0.1,0.3
		c-0.1,0.1-0.2,0.1-0.3,0.1h-0.3C1282.9,321.5,1282.8,321.4,1282.7,321.4z"/>
	<path class="st0" d="M1028,286.2l-17.7,41c-0.5,0.9-1.2,1.7-2.1,2.4c-0.9,0.6-1.9,0.8-2.9,0.8h-8.8c-1.1,0-2.2-0.4-3-1.2
		c-0.8-0.7-1.2-1.7-1.2-2.8c0.2-1.2,0.5-2.4,1-3.6l15.6-36.6L1028,286.2z"/>
	<polygon class="st0" points="811,417 808,415.2 808,418.8 	"/>
	<polygon class="st0" points="795.6,417 798.7,418.8 798.7,415.2 	"/>
	<line class="st3" x1="812.2" y1="244" x2="812.2" y2="425.9"/>
	<line class="st3" x1="794.8" y1="243.6" x2="794.8" y2="425.9"/>
	<line class="st3" x1="796.9" y1="416.9" x2="809.3" y2="416.9"/>
	<path class="st0" d="M769.8,443c-0.1-0.1-0.1-0.2-0.1-0.3v-13.1c0-0.1,0-0.2,0.1-0.3c0.1-0.1,0.2-0.1,0.3-0.1h0.4
		c0.2,0,0.4,0.1,0.5,0.4c0,0,0,0.1,0,0.1v5.2l6.1-5.4l0.3-0.2c0.1-0.1,0.3-0.1,0.4-0.1h0.3c0.2,0,0.4,0.2,0.4,0.4
		c0,0.1,0,0.2-0.1,0.3l-6.8,6l7.2,6.6c0.2,0.2,0.2,0.4,0,0.6c-0.1,0.1-0.2,0.1-0.3,0.1h-0.3c-0.1,0-0.3,0-0.4-0.1l-0.3-0.2l-6.5-5.9
		v5.8c0,0.1,0,0.2-0.1,0.3c-0.1,0.1-0.2,0.1-0.3,0.1H770C769.9,443.1,769.8,443.1,769.8,443z"/>
	<path class="st0" d="M781.1,442.1c-0.8-0.9-1.3-2.1-1.3-3.4V438v-0.8c0-1.2,0.5-2.4,1.3-3.3c0.8-0.8,1.9-1.3,3.1-1.3
		c1.2-0.1,2.4,0.4,3.2,1.4c0.8,1.1,1.2,2.4,1.2,3.8v0.3c0,0.1,0,0.2-0.1,0.3c-0.1,0.1-0.2,0.1-0.3,0.1H781v0.2
		c0,0.6,0.2,1.2,0.4,1.8c0.2,0.5,0.6,1,1.1,1.3c0.5,0.3,1.1,0.5,1.6,0.5c0.6,0,1.2-0.1,1.8-0.4c0.4-0.2,0.7-0.5,1-0.9
		c0.1-0.1,0.2-0.2,0.3-0.3c0.1,0,0.2-0.1,0.3-0.1h0.3c0.1,0,0.2,0,0.3,0.1c0.1,0.1,0.1,0.2,0.1,0.3c-0.1,0.4-0.2,0.7-0.5,1
		c-0.4,0.4-0.9,0.8-1.5,1c-0.7,0.3-1.4,0.4-2.1,0.4C783,443.4,781.9,442.9,781.1,442.1z M787.3,437.3L787.3,437.3
		c0-1-0.3-1.9-0.9-2.6c-0.6-0.7-1.4-1-2.3-1c-0.9,0-1.7,0.3-2.3,1c-0.6,0.7-0.9,1.6-0.8,2.5v0.1H787.3z"/>
	<path class="st0" d="M791.3,443c-0.1-0.1-0.1-0.2-0.1-0.3v-9.5c0-0.1,0-0.2,0.1-0.3c0.1-0.1,0.2-0.1,0.3-0.1h0.4
		c0.1,0,0.2,0,0.3,0.1c0.1,0.1,0.1,0.2,0.1,0.3v0.9c0.6-1,1.6-1.5,2.7-1.4h0.7c0.1,0,0.2,0,0.3,0.1c0.1,0.1,0.1,0.2,0.1,0.3v0.3
		c0,0.1,0,0.2-0.1,0.3c-0.1,0.1-0.2,0.1-0.3,0.1H795c-0.7,0-1.4,0.2-1.9,0.7c-0.5,0.5-0.7,1.2-0.7,1.9v6.2c0,0.1,0,0.2-0.1,0.3
		c-0.1,0.1-0.2,0.1-0.3,0.1h-0.3C791.5,443.1,791.4,443.1,791.3,443z"/>
	<path class="st0" d="M798.3,443c-0.1-0.1-0.1-0.2-0.1-0.3v-9.5c0-0.2,0.2-0.4,0.4-0.4c0,0,0,0,0.1,0h0.3c0.1,0,0.2,0,0.3,0.1
		c0.1,0.1,0.1,0.2,0.1,0.3v0.9c0.4-0.5,0.8-0.9,1.4-1.2c0.6-0.3,1.3-0.4,2-0.4c1.1-0.1,2.2,0.4,3,1.2c0.7,0.9,1.1,2.1,1.1,3.2v5.7
		c0,0.1,0,0.2-0.1,0.3c-0.1,0.1-0.2,0.1-0.3,0.1H806c-0.2,0-0.4-0.2-0.4-0.4c0,0,0,0,0-0.1v-5.6c0.1-0.9-0.2-1.8-0.8-2.5
		c-0.6-0.6-1.4-1-2.3-0.9c-0.9,0-1.7,0.3-2.3,0.9c-0.6,0.7-0.9,1.6-0.9,2.5v5.6c0,0.1,0,0.2-0.1,0.3c-0.1,0.1-0.2,0.1-0.3,0.1h-0.3
		C798.4,443.1,798.3,443.1,798.3,443z"/>
	<path class="st0" d="M809.9,430.5c-0.1-0.1-0.1-0.2-0.1-0.3v-0.8c0-0.1,0-0.2,0.1-0.3c0.1-0.1,0.2-0.1,0.3-0.1h0.8
		c0.1,0,0.2,0,0.3,0.1c0.1,0.1,0.1,0.2,0.1,0.3v0.8c0,0.1,0,0.2-0.1,0.3c-0.1,0.1-0.2,0.1-0.3,0.1h-0.8
		C810.1,430.6,809.9,430.6,809.9,430.5z M810.1,443c-0.1-0.1-0.1-0.2-0.1-0.3v-9.5c0-0.2,0.2-0.4,0.4-0.4c0,0,0,0,0.1,0h0.3
		c0.1,0,0.2,0,0.3,0.1c0.1,0.1,0.1,0.2,0.1,0.3v9.5c0,0.1,0,0.2-0.1,0.3c-0.1,0.1-0.2,0.1-0.3,0.1h-0.3
		C810.3,443.2,810.2,443.1,810.1,443L810.1,443z"/>
	<path class="st0" d="M814.5,443c-0.1-0.1-0.1-0.2-0.1-0.3v-9.5c0-0.2,0.2-0.4,0.4-0.4c0,0,0,0,0.1,0h0.3c0.1,0,0.2,0,0.3,0.1
		c0.1,0.1,0.1,0.2,0.1,0.3v0.9c0.4-0.5,0.8-0.9,1.4-1.1c0.6-0.3,1.3-0.4,2-0.4c1.1-0.1,2.2,0.4,3,1.2c0.7,0.9,1.1,2.1,1.1,3.2v5.7
		c0,0.1,0,0.2-0.1,0.3c-0.1,0.1-0.2,0.1-0.3,0.1h-0.3c-0.2,0-0.4-0.2-0.4-0.4c0,0,0,0,0-0.1v-5.6c0.1-0.9-0.2-1.8-0.8-2.5
		c-0.6-0.6-1.4-1-2.3-0.9c-0.9,0-1.7,0.3-2.3,0.9c-0.6,0.7-0.9,1.6-0.9,2.5v5.6c0,0.1,0,0.2-0.1,0.3c-0.1,0.1-0.2,0.1-0.3,0.1h-0.3
		C814.7,443.2,814.6,443.1,814.5,443z"/>
	<path class="st0" d="M827.6,447c-0.5-0.3-1-0.7-1.3-1.2c-0.2-0.4-0.3-0.8-0.4-1.2c0-0.1,0-0.2,0.1-0.3c0.1-0.1,0.2-0.1,0.3-0.1h0.3
		c0.1,0,0.2,0,0.3,0.1c0.1,0.1,0.2,0.2,0.2,0.3c0.4,1.2,1.6,2,2.9,1.8c0.9,0.1,1.8-0.2,2.5-0.7c0.6-0.7,0.9-1.6,0.8-2.5v-1.4
		c-0.8,1.1-2,1.7-3.4,1.6c-1.2,0.1-2.4-0.4-3.2-1.4c-0.7-1-1.1-2.2-1.1-3.4V438v-0.6c0-1.2,0.4-2.4,1.1-3.4c0.8-1,2-1.5,3.2-1.4
		c1.3-0.1,2.6,0.5,3.4,1.6v-0.9c0-0.1,0-0.2,0.1-0.3c0.1-0.1,0.2-0.1,0.3-0.1h0.3c0.1,0,0.2,0,0.3,0.1c0.1,0.1,0.1,0.2,0.1,0.3v9.8
		c0.1,1.2-0.3,2.4-1,3.4c-0.9,0.9-2.2,1.4-3.5,1.2C829.2,447.6,828.4,447.4,827.6,447z M832.5,441.1c0.5-0.7,0.8-1.6,0.9-2.5
		c0-0.1,0-0.4,0-0.7s0-0.6,0-0.7c0-0.9-0.3-1.8-0.9-2.5c-0.6-0.7-1.5-1.1-2.4-1c-0.9-0.1-1.8,0.3-2.4,1c-0.5,0.8-0.8,1.7-0.8,2.6
		v0.6v0.6c0,0.9,0.3,1.9,0.8,2.6c0.6,0.7,1.5,1.1,2.4,1C831,442.2,831.9,441.9,832.5,441.1L832.5,441.1z"/>
	<rect x="794.8" y="243.6" class="st0" width="17.3" height="32"/>
</g>
</svg>
