<?xml version="1.0" encoding="utf-8"?>
<!-- Generator: Adobe Illustrator 23.1.0, SVG Export Plug-In . SVG Version: 6.00 Build 0)  -->
<svg version="1.1" xmlns="http://www.w3.org/2000/svg" xmlns:xlink="http://www.w3.org/1999/xlink" x="0px" y="0px"
	 viewBox="0 0 47.25 703.48" style="enable-background:new 0 0 47.25 703.48;" xml:space="preserve">
<style type="text/css">
	.st0{filter:url(#Adobe_OpacityMaskFilter);}
	.st1{fill:#0E1033;}
	.st2{fill:#FFFFFF;}
	.st3{mask:url(#Layer_6_1_);}
	.st4{fill:url(#SVGID_1_);}
	.st5{fill:#040504;}
	.st6{fill:#232323;}
	.st7{fill:#1D1D1D;}
	.st8{fill:#EE2E30;}
	.st9{fill:#2C2C2C;}
	.st10{fill:#A6A6A6;}
	.st11{fill:#434242;}
	.st12{fill:#181818;}
	.st13{fill:#009A4D;}
	.st14{fill:#7C7C7C;}
	.st15{fill:#212121;}
	.st16{fill:#3D3D3D;}
	.st17{fill:#B1B3B6;}
	.st18{opacity:0.9;fill:#00AFB9;}
	.st19{opacity:0.12;fill:#FFFFFF;}
	.st20{opacity:0.15;fill:#FFFFFF;}
	.st21{opacity:0.75;fill:#FFFFFF;}
	.st22{fill:#FFC906;}
	.st23{fill:#EE2D2F;}
	.st24{fill:#434DA1;}
	.st25{fill:#F26640;}
	.st26{clip-path:url(#SVGID_3_);}
	.st27{clip-path:url(#SVGID_5_);}
	.st28{fill:none;stroke:#EE2D2F;stroke-width:7.3893;stroke-linecap:round;stroke-linejoin:round;stroke-miterlimit:10;}
	.st29{fill:none;stroke:#B1B3B6;stroke-width:10.2686;stroke-linecap:round;stroke-linejoin:round;stroke-miterlimit:10;}
	.st30{clip-path:url(#SVGID_13_);}
	.st31{clip-path:url(#SVGID_15_);}
	.st32{opacity:0.08;}
	.st33{fill:none;stroke:#F57F37;stroke-width:1.7585;stroke-linecap:round;stroke-miterlimit:10;stroke-dasharray:8.7923,17.5846;}
	.st34{fill:none;stroke:#848484;stroke-width:1.7585;stroke-linecap:round;stroke-miterlimit:10;stroke-dasharray:8.7923,17.5846;}
	.st35{fill:none;stroke:#F57F37;stroke-linecap:round;stroke-miterlimit:10;}
	.st36{fill:#F57F37;}
	.st37{fill:#404FA2;stroke:#40403F;stroke-width:2.2819;stroke-linejoin:round;stroke-miterlimit:10;}
	.st38{fill:#EE2B33;stroke:#40403F;stroke-width:2.2819;stroke-linejoin:round;stroke-miterlimit:10;}
	.st39{fill:#FFCC0A;stroke:#40403F;stroke-width:2.2819;stroke-linejoin:round;stroke-miterlimit:10;}
	.st40{fill:#F0EFEF;stroke:#40403F;stroke-width:2.2819;stroke-linejoin:round;stroke-miterlimit:10;}
	.st41{fill:#F16640;stroke:#40403F;stroke-width:2.2819;stroke-linejoin:round;stroke-miterlimit:10;}
	.st42{fill:#404FA2;stroke:#40403F;stroke-width:2.2896;stroke-linejoin:round;stroke-miterlimit:10;}
	.st43{opacity:0.9;}
	.st44{fill:#404FA2;stroke:#484847;stroke-width:2.2896;stroke-linejoin:round;stroke-miterlimit:10;}
	.st45{opacity:0.7;}
	.st46{fill:#404FA2;stroke:#383838;stroke-width:2.2896;stroke-linejoin:round;stroke-miterlimit:10;}
	.st47{opacity:0.6;}
	.st48{opacity:0.5;}
	.st49{fill:#404FA2;stroke:#666766;stroke-width:2.2896;stroke-linejoin:round;stroke-miterlimit:10;}
	.st50{opacity:0.4;}
	.st51{fill:#404FA2;stroke:#727373;stroke-width:2.2896;stroke-linejoin:round;stroke-miterlimit:10;}
	.st52{fill:#404FA2;stroke:#7D7D7D;stroke-width:2.2896;stroke-linejoin:round;stroke-miterlimit:10;}
	.st53{fill:none;stroke:#434DA1;stroke-width:7;stroke-linecap:round;stroke-linejoin:round;stroke-miterlimit:10;}
	.st54{fill:#151723;}
	.st55{fill:#24283A;}
	.st56{fill:none;stroke:#FFC906;stroke-width:5.1381;stroke-linecap:round;stroke-linejoin:round;stroke-miterlimit:10;}
	.st57{fill:none;stroke:#FFC906;stroke-width:16;stroke-linejoin:round;stroke-miterlimit:10;}
	.st58{fill:url(#SVGID_20_);}
	.st59{opacity:0.22;}
	.st60{opacity:0.25;}
	.st61{opacity:0.85;fill:#FFFFFF;}
	.st62{opacity:0.91;clip-path:url(#SVGID_22_);}
	.st63{fill:#8E8E8E;}
	.st64{clip-path:url(#SVGID_24_);}
	.st65{opacity:0.91;clip-path:url(#SVGID_26_);}
	.st66{clip-path:url(#SVGID_28_);}
</style>
<defs>
	<filter id="Adobe_OpacityMaskFilter" filterUnits="userSpaceOnUse">
		<feColorMatrix  type="matrix" values="1 0 0 0 0  0 1 0 0 0  0 0 1 0 0  0 0 0 1 0"/>
	</filter>
</defs>
<mask maskUnits="userSpaceOnUse" id="Layer_6_1_">
</mask>
<g id="Layer_6" class="st3">
</g>
<g id="Layer_14">
</g>
<g id="Extra_shit">
</g>
<g id="Layer_10">
</g>
<g id="section5">
</g>
<g id="Section4">
</g>
<g id="Section3">
</g>
<g id="Scnd_x5F_Section_x5F_Background">
</g>
<g id="Second_Section_Graphics">
</g>
<g id="First_Section">
</g>
<g id="Export">
	<g>
		<path class="st42" d="M12.68,16.13H4.6c-1.91,0-3.46-1.55-3.46-3.46V4.6c0-1.91,1.55-3.46,3.46-3.46h8.08
			c1.91,0,3.46,1.55,3.46,3.46v8.08C16.13,14.58,14.58,16.13,12.68,16.13z"/>
		<path class="st42" d="M27.66,16.13h-8.08c-1.91,0-3.46-1.55-3.46-3.46V4.6c0-1.91,1.55-3.46,3.46-3.46h8.08
			c1.91,0,3.46,1.55,3.46,3.46v8.08C31.12,14.58,29.57,16.13,27.66,16.13z"/>
		<path class="st42" d="M42.65,16.13h-8.08c-1.91,0-3.46-1.55-3.46-3.46V4.6c0-1.91,1.55-3.46,3.46-3.46h8.08
			c1.91,0,3.46,1.55,3.46,3.46v8.08C46.1,14.58,44.56,16.13,42.65,16.13z"/>
		<path class="st42" d="M12.68,31.12H4.6c-1.91,0-3.46-1.55-3.46-3.46v-8.08c0-1.91,1.55-3.46,3.46-3.46h8.08
			c1.91,0,3.46,1.55,3.46,3.46v8.08C16.13,29.57,14.58,31.12,12.68,31.12z"/>
		<path class="st42" d="M27.66,31.12h-8.08c-1.91,0-3.46-1.55-3.46-3.46v-8.08c0-1.91,1.55-3.46,3.46-3.46h8.08
			c1.91,0,3.46,1.55,3.46,3.46v8.08C31.12,29.57,29.57,31.12,27.66,31.12z"/>
		<path class="st42" d="M42.65,31.12h-8.08c-1.91,0-3.46-1.55-3.46-3.46v-8.08c0-1.91,1.55-3.46,3.46-3.46h8.08
			c1.91,0,3.46,1.55,3.46,3.46v8.08C46.1,29.57,44.56,31.12,42.65,31.12z"/>
		<path class="st42" d="M12.68,46.13H4.6c-1.91,0-3.46-1.55-3.46-3.46V34.6c0-1.91,1.55-3.46,3.46-3.46h8.08
			c1.91,0,3.46,1.55,3.46,3.46v8.08C16.13,44.58,14.58,46.13,12.68,46.13z"/>
		<path class="st42" d="M27.66,46.13h-8.08c-1.91,0-3.46-1.55-3.46-3.46V34.6c0-1.91,1.55-3.46,3.46-3.46h8.08
			c1.91,0,3.46,1.55,3.46,3.46v8.08C31.12,44.58,29.57,46.13,27.66,46.13z"/>
		<path class="st42" d="M42.65,46.13h-8.08c-1.91,0-3.46-1.55-3.46-3.46V34.6c0-1.91,1.55-3.46,3.46-3.46h8.08
			c1.91,0,3.46,1.55,3.46,3.46v8.08C46.1,44.58,44.56,46.13,42.65,46.13z"/>
		<path class="st42" d="M12.68,63.05H4.6c-1.91,0-3.46-1.55-3.46-3.46v-8.08c0-1.91,1.55-3.46,3.46-3.46h8.08
			c1.91,0,3.46,1.55,3.46,3.46v8.08C16.13,61.5,14.58,63.05,12.68,63.05z"/>
		<path class="st42" d="M27.66,63.05h-8.08c-1.91,0-3.46-1.55-3.46-3.46v-8.08c0-1.91,1.55-3.46,3.46-3.46h8.08
			c1.91,0,3.46,1.55,3.46,3.46v8.08C31.12,61.5,29.57,63.05,27.66,63.05z"/>
		<path class="st42" d="M42.65,63.05h-8.08c-1.91,0-3.46-1.55-3.46-3.46v-8.08c0-1.91,1.55-3.46,3.46-3.46h8.08
			c1.91,0,3.46,1.55,3.46,3.46v8.08C46.1,61.5,44.56,63.05,42.65,63.05z"/>
		<path class="st42" d="M12.68,78.02H4.6c-1.91,0-3.46-1.55-3.46-3.46v-8.08c0-1.91,1.55-3.46,3.46-3.46h8.08
			c1.91,0,3.46,1.55,3.46,3.46v8.08C16.13,76.47,14.58,78.02,12.68,78.02z"/>
		<path class="st42" d="M27.66,78.02h-8.08c-1.91,0-3.46-1.55-3.46-3.46v-8.08c0-1.91,1.55-3.46,3.46-3.46h8.08
			c1.91,0,3.46,1.55,3.46,3.46v8.08C31.12,76.47,29.57,78.02,27.66,78.02z"/>
		<path class="st42" d="M42.65,78.02h-8.08c-1.91,0-3.46-1.55-3.46-3.46v-8.08c0-1.91,1.55-3.46,3.46-3.46h8.08
			c1.91,0,3.46,1.55,3.46,3.46v8.08C46.1,76.47,44.56,78.02,42.65,78.02z"/>
		<path class="st42" d="M12.68,93.02H4.6c-1.91,0-3.46-1.55-3.46-3.46v-8.08c0-1.91,1.55-3.46,3.46-3.46h8.08
			c1.91,0,3.46,1.55,3.46,3.46v8.08C16.13,91.47,14.58,93.02,12.68,93.02z"/>
		<path class="st42" d="M27.66,93.02h-8.08c-1.91,0-3.46-1.55-3.46-3.46v-8.08c0-1.91,1.55-3.46,3.46-3.46h8.08
			c1.91,0,3.46,1.55,3.46,3.46v8.08C31.12,91.47,29.57,93.02,27.66,93.02z"/>
		<path class="st42" d="M42.65,93.02h-8.08c-1.91,0-3.46-1.55-3.46-3.46v-8.08c0-1.91,1.55-3.46,3.46-3.46h8.08
			c1.91,0,3.46,1.55,3.46,3.46v8.08C46.1,91.47,44.56,93.02,42.65,93.02z"/>
		<path class="st42" d="M12.68,110.01H4.6c-1.91,0-3.46-1.55-3.46-3.46v-8.08c0-1.91,1.55-3.46,3.46-3.46h8.08
			c1.91,0,3.46,1.55,3.46,3.46v8.08C16.13,108.46,14.58,110.01,12.68,110.01z"/>
		<path class="st42" d="M27.66,110.01h-8.08c-1.91,0-3.46-1.55-3.46-3.46v-8.08c0-1.91,1.55-3.46,3.46-3.46h8.08
			c1.91,0,3.46,1.55,3.46,3.46v8.08C31.12,108.46,29.57,110.01,27.66,110.01z"/>
		<path class="st42" d="M42.65,110.01h-8.08c-1.91,0-3.46-1.55-3.46-3.46v-8.08c0-1.91,1.55-3.46,3.46-3.46h8.08
			c1.91,0,3.46,1.55,3.46,3.46v8.08C46.1,108.46,44.56,110.01,42.65,110.01z"/>
		<path class="st42" d="M12.68,125.06H4.6c-1.91,0-3.46-1.55-3.46-3.46v-8.08c0-1.91,1.55-3.46,3.46-3.46h8.08
			c1.91,0,3.46,1.55,3.46,3.46v8.08C16.13,123.51,14.58,125.06,12.68,125.06z"/>
		<path class="st42" d="M27.66,125.06h-8.08c-1.91,0-3.46-1.55-3.46-3.46v-8.08c0-1.91,1.55-3.46,3.46-3.46h8.08
			c1.91,0,3.46,1.55,3.46,3.46v8.08C31.12,123.51,29.57,125.06,27.66,125.06z"/>
		<path class="st42" d="M42.65,125.06h-8.08c-1.91,0-3.46-1.55-3.46-3.46v-8.08c0-1.91,1.55-3.46,3.46-3.46h8.08
			c1.91,0,3.46,1.55,3.46,3.46v8.08C46.1,123.51,44.56,125.06,42.65,125.06z"/>
		<path class="st42" d="M12.68,140.02H4.6c-1.91,0-3.46-1.55-3.46-3.46v-8.08c0-1.91,1.55-3.46,3.46-3.46h8.08
			c1.91,0,3.46,1.55,3.46,3.46v8.08C16.13,138.47,14.58,140.02,12.68,140.02z"/>
		<path class="st42" d="M27.66,140.02h-8.08c-1.91,0-3.46-1.55-3.46-3.46v-8.08c0-1.91,1.55-3.46,3.46-3.46h8.08
			c1.91,0,3.46,1.55,3.46,3.46v8.08C31.12,138.47,29.57,140.02,27.66,140.02z"/>
		<path class="st42" d="M42.65,140.02h-8.08c-1.91,0-3.46-1.55-3.46-3.46v-8.08c0-1.91,1.55-3.46,3.46-3.46h8.08
			c1.91,0,3.46,1.55,3.46,3.46v8.08C46.1,138.47,44.56,140.02,42.65,140.02z"/>
		<path class="st42" d="M12.68,156.96H4.6c-1.91,0-3.46-1.55-3.46-3.46v-8.08c0-1.91,1.55-3.46,3.46-3.46h8.08
			c1.91,0,3.46,1.55,3.46,3.46v8.08C16.13,155.41,14.58,156.96,12.68,156.96z"/>
		<path class="st42" d="M27.66,156.96h-8.08c-1.91,0-3.46-1.55-3.46-3.46v-8.08c0-1.91,1.55-3.46,3.46-3.46h8.08
			c1.91,0,3.46,1.55,3.46,3.46v8.08C31.12,155.41,29.57,156.96,27.66,156.96z"/>
		<path class="st42" d="M42.65,156.96h-8.08c-1.91,0-3.46-1.55-3.46-3.46v-8.08c0-1.91,1.55-3.46,3.46-3.46h8.08
			c1.91,0,3.46,1.55,3.46,3.46v8.08C46.1,155.41,44.56,156.96,42.65,156.96z"/>
		<path class="st42" d="M12.68,171.94H4.6c-1.91,0-3.46-1.55-3.46-3.46v-8.08c0-1.91,1.55-3.46,3.46-3.46h8.08
			c1.91,0,3.46,1.55,3.46,3.46v8.08C16.13,170.39,14.58,171.94,12.68,171.94z"/>
		<path class="st42" d="M27.66,171.94h-8.08c-1.91,0-3.46-1.55-3.46-3.46v-8.08c0-1.91,1.55-3.46,3.46-3.46h8.08
			c1.91,0,3.46,1.55,3.46,3.46v8.08C31.12,170.39,29.57,171.94,27.66,171.94z"/>
		<path class="st42" d="M42.65,171.94h-8.08c-1.91,0-3.46-1.55-3.46-3.46v-8.08c0-1.91,1.55-3.46,3.46-3.46h8.08
			c1.91,0,3.46,1.55,3.46,3.46v8.08C46.1,170.39,44.56,171.94,42.65,171.94z"/>
		<path class="st42" d="M12.68,186.87H4.6c-1.91,0-3.46-1.55-3.46-3.46v-8.08c0-1.91,1.55-3.46,3.46-3.46h8.08
			c1.91,0,3.46,1.55,3.46,3.46v8.08C16.13,185.33,14.58,186.87,12.68,186.87z"/>
		<path class="st42" d="M27.66,186.87h-8.08c-1.91,0-3.46-1.55-3.46-3.46v-8.08c0-1.91,1.55-3.46,3.46-3.46h8.08
			c1.91,0,3.46,1.55,3.46,3.46v8.08C31.12,185.33,29.57,186.87,27.66,186.87z"/>
		<path class="st42" d="M42.65,186.87h-8.08c-1.91,0-3.46-1.55-3.46-3.46v-8.08c0-1.91,1.55-3.46,3.46-3.46h8.08
			c1.91,0,3.46,1.55,3.46,3.46v8.08C46.1,185.33,44.56,186.87,42.65,186.87z"/>
		<path class="st42" d="M12.68,203.85H4.6c-1.91,0-3.46-1.55-3.46-3.46v-8.08c0-1.91,1.55-3.46,3.46-3.46h8.08
			c1.91,0,3.46,1.55,3.46,3.46v8.08C16.13,202.31,14.58,203.85,12.68,203.85z"/>
		<path class="st42" d="M27.66,203.85h-8.08c-1.91,0-3.46-1.55-3.46-3.46v-8.08c0-1.91,1.55-3.46,3.46-3.46h8.08
			c1.91,0,3.46,1.55,3.46,3.46v8.08C31.12,202.31,29.57,203.85,27.66,203.85z"/>
		<path class="st42" d="M42.65,203.85h-8.08c-1.91,0-3.46-1.55-3.46-3.46v-8.08c0-1.91,1.55-3.46,3.46-3.46h8.08
			c1.91,0,3.46,1.55,3.46,3.46v8.08C46.1,202.31,44.56,203.85,42.65,203.85z"/>
		<path class="st42" d="M12.68,218.83H4.6c-1.91,0-3.46-1.55-3.46-3.46v-8.08c0-1.91,1.55-3.46,3.46-3.46h8.08
			c1.91,0,3.46,1.55,3.46,3.46v8.08C16.13,217.28,14.58,218.83,12.68,218.83z"/>
		<path class="st42" d="M27.66,218.83h-8.08c-1.91,0-3.46-1.55-3.46-3.46v-8.08c0-1.91,1.55-3.46,3.46-3.46h8.08
			c1.91,0,3.46,1.55,3.46,3.46v8.08C31.12,217.28,29.57,218.83,27.66,218.83z"/>
		<path class="st42" d="M42.65,218.83h-8.08c-1.91,0-3.46-1.55-3.46-3.46v-8.08c0-1.91,1.55-3.46,3.46-3.46h8.08
			c1.91,0,3.46,1.55,3.46,3.46v8.08C46.1,217.28,44.56,218.83,42.65,218.83z"/>
		<path class="st42" d="M12.68,233.82H4.6c-1.91,0-3.46-1.55-3.46-3.46v-8.08c0-1.91,1.55-3.46,3.46-3.46h8.08
			c1.91,0,3.46,1.55,3.46,3.46v8.08C16.13,232.27,14.58,233.82,12.68,233.82z"/>
		<path class="st42" d="M27.66,233.82h-8.08c-1.91,0-3.46-1.55-3.46-3.46v-8.08c0-1.91,1.55-3.46,3.46-3.46h8.08
			c1.91,0,3.46,1.55,3.46,3.46v8.08C31.12,232.27,29.57,233.82,27.66,233.82z"/>
		<path class="st42" d="M42.65,233.82h-8.08c-1.91,0-3.46-1.55-3.46-3.46v-8.08c0-1.91,1.55-3.46,3.46-3.46h8.08
			c1.91,0,3.46,1.55,3.46,3.46v8.08C46.1,232.27,44.56,233.82,42.65,233.82z"/>
		<path class="st42" d="M12.68,250.79H4.6c-1.91,0-3.46-1.55-3.46-3.46v-8.08c0-1.91,1.55-3.46,3.46-3.46h8.08
			c1.91,0,3.46,1.55,3.46,3.46v8.08C16.13,249.24,14.58,250.79,12.68,250.79z"/>
		<path class="st42" d="M27.66,250.79h-8.08c-1.91,0-3.46-1.55-3.46-3.46v-8.08c0-1.91,1.55-3.46,3.46-3.46h8.08
			c1.91,0,3.46,1.55,3.46,3.46v8.08C31.12,249.24,29.57,250.79,27.66,250.79z"/>
		<path class="st42" d="M42.65,250.79h-8.08c-1.91,0-3.46-1.55-3.46-3.46v-8.08c0-1.91,1.55-3.46,3.46-3.46h8.08
			c1.91,0,3.46,1.55,3.46,3.46v8.08C46.1,249.24,44.56,250.79,42.65,250.79z"/>
		<path class="st42" d="M12.68,265.78H4.6c-1.91,0-3.46-1.55-3.46-3.46v-8.08c0-1.91,1.55-3.46,3.46-3.46h8.08
			c1.91,0,3.46,1.55,3.46,3.46v8.08C16.13,264.23,14.58,265.78,12.68,265.78z"/>
		<path class="st42" d="M27.66,265.78h-8.08c-1.91,0-3.46-1.55-3.46-3.46v-8.08c0-1.91,1.55-3.46,3.46-3.46h8.08
			c1.91,0,3.46,1.55,3.46,3.46v8.08C31.12,264.23,29.57,265.78,27.66,265.78z"/>
		<path class="st42" d="M42.65,265.78h-8.08c-1.91,0-3.46-1.55-3.46-3.46v-8.08c0-1.91,1.55-3.46,3.46-3.46h8.08
			c1.91,0,3.46,1.55,3.46,3.46v8.08C46.1,264.23,44.56,265.78,42.65,265.78z"/>
		<path class="st42" d="M12.68,280.76H4.6c-1.91,0-3.46-1.55-3.46-3.46v-8.08c0-1.91,1.55-3.46,3.46-3.46h8.08
			c1.91,0,3.46,1.55,3.46,3.46v8.08C16.13,279.22,14.58,280.76,12.68,280.76z"/>
		<path class="st42" d="M27.66,280.76h-8.08c-1.91,0-3.46-1.55-3.46-3.46v-8.08c0-1.91,1.55-3.46,3.46-3.46h8.08
			c1.91,0,3.46,1.55,3.46,3.46v8.08C31.12,279.22,29.57,280.76,27.66,280.76z"/>
		<path class="st42" d="M42.65,280.76h-8.08c-1.91,0-3.46-1.55-3.46-3.46v-8.08c0-1.91,1.55-3.46,3.46-3.46h8.08
			c1.91,0,3.46,1.55,3.46,3.46v8.08C46.1,279.22,44.56,280.76,42.65,280.76z"/>
		<path class="st42" d="M12.68,297.73H4.6c-1.91,0-3.46-1.55-3.46-3.46v-8.08c0-1.91,1.55-3.46,3.46-3.46h8.08
			c1.91,0,3.46,1.55,3.46,3.46v8.08C16.13,296.19,14.58,297.73,12.68,297.73z"/>
		<path class="st42" d="M27.66,297.73h-8.08c-1.91,0-3.46-1.55-3.46-3.46v-8.08c0-1.91,1.55-3.46,3.46-3.46h8.08
			c1.91,0,3.46,1.55,3.46,3.46v8.08C31.12,296.19,29.57,297.73,27.66,297.73z"/>
		<path class="st42" d="M42.65,297.73h-8.08c-1.91,0-3.46-1.55-3.46-3.46v-8.08c0-1.91,1.55-3.46,3.46-3.46h8.08
			c1.91,0,3.46,1.55,3.46,3.46v8.08C46.1,296.19,44.56,297.73,42.65,297.73z"/>
		<path class="st42" d="M12.68,312.72H4.6c-1.91,0-3.46-1.55-3.46-3.46v-8.08c0-1.91,1.55-3.46,3.46-3.46h8.08
			c1.91,0,3.46,1.55,3.46,3.46v8.08C16.13,311.17,14.58,312.72,12.68,312.72z"/>
		<path class="st42" d="M27.66,312.72h-8.08c-1.91,0-3.46-1.55-3.46-3.46v-8.08c0-1.91,1.55-3.46,3.46-3.46h8.08
			c1.91,0,3.46,1.55,3.46,3.46v8.08C31.12,311.17,29.57,312.72,27.66,312.72z"/>
		<path class="st42" d="M42.65,312.72h-8.08c-1.91,0-3.46-1.55-3.46-3.46v-8.08c0-1.91,1.55-3.46,3.46-3.46h8.08
			c1.91,0,3.46,1.55,3.46,3.46v8.08C46.1,311.17,44.56,312.72,42.65,312.72z"/>
		<path class="st42" d="M12.68,327.71H4.6c-1.91,0-3.46-1.55-3.46-3.46v-8.08c0-1.91,1.55-3.46,3.46-3.46h8.08
			c1.91,0,3.46,1.55,3.46,3.46v8.08C16.13,326.16,14.58,327.71,12.68,327.71z"/>
		<path class="st42" d="M27.66,327.71h-8.08c-1.91,0-3.46-1.55-3.46-3.46v-8.08c0-1.91,1.55-3.46,3.46-3.46h8.08
			c1.91,0,3.46,1.55,3.46,3.46v8.08C31.12,326.16,29.57,327.71,27.66,327.71z"/>
		<path class="st42" d="M42.65,327.71h-8.08c-1.91,0-3.46-1.55-3.46-3.46v-8.08c0-1.91,1.55-3.46,3.46-3.46h8.08
			c1.91,0,3.46,1.55,3.46,3.46v8.08C46.1,326.16,44.56,327.71,42.65,327.71z"/>
		<path class="st42" d="M12.68,344.68H4.6c-1.91,0-3.46-1.55-3.46-3.46v-8.08c0-1.91,1.55-3.46,3.46-3.46h8.08
			c1.91,0,3.46,1.55,3.46,3.46v8.08C16.13,343.13,14.58,344.68,12.68,344.68z"/>
		<path class="st42" d="M27.66,344.68h-8.08c-1.91,0-3.46-1.55-3.46-3.46v-8.08c0-1.91,1.55-3.46,3.46-3.46h8.08
			c1.91,0,3.46,1.55,3.46,3.46v8.08C31.12,343.13,29.57,344.68,27.66,344.68z"/>
		<path class="st42" d="M42.65,344.68h-8.08c-1.91,0-3.46-1.55-3.46-3.46v-8.08c0-1.91,1.55-3.46,3.46-3.46h8.08
			c1.91,0,3.46,1.55,3.46,3.46v8.08C46.1,343.13,44.56,344.68,42.65,344.68z"/>
		<path class="st42" d="M12.68,359.67H4.6c-1.91,0-3.46-1.55-3.46-3.46v-8.08c0-1.91,1.55-3.46,3.46-3.46h8.08
			c1.91,0,3.46,1.55,3.46,3.46v8.08C16.13,358.12,14.58,359.67,12.68,359.67z"/>
		<path class="st42" d="M27.66,359.67h-8.08c-1.91,0-3.46-1.55-3.46-3.46v-8.08c0-1.91,1.55-3.46,3.46-3.46h8.08
			c1.91,0,3.46,1.55,3.46,3.46v8.08C31.12,358.12,29.57,359.67,27.66,359.67z"/>
		<path class="st42" d="M42.65,359.67h-8.08c-1.91,0-3.46-1.55-3.46-3.46v-8.08c0-1.91,1.55-3.46,3.46-3.46h8.08
			c1.91,0,3.46,1.55,3.46,3.46v8.08C46.1,358.12,44.56,359.67,42.65,359.67z"/>
		<path class="st42" d="M12.68,374.65H4.6c-1.91,0-3.46-1.55-3.46-3.46v-8.08c0-1.91,1.55-3.46,3.46-3.46h8.08
			c1.91,0,3.46,1.55,3.46,3.46v8.08C16.13,373.1,14.58,374.65,12.68,374.65z"/>
		<path class="st42" d="M27.66,374.65h-8.08c-1.91,0-3.46-1.55-3.46-3.46v-8.08c0-1.91,1.55-3.46,3.46-3.46h8.08
			c1.91,0,3.46,1.55,3.46,3.46v8.08C31.12,373.1,29.57,374.65,27.66,374.65z"/>
		<path class="st42" d="M42.65,374.65h-8.08c-1.91,0-3.46-1.55-3.46-3.46v-8.08c0-1.91,1.55-3.46,3.46-3.46h8.08
			c1.91,0,3.46,1.55,3.46,3.46v8.08C46.1,373.1,44.56,374.65,42.65,374.65z"/>
		<path class="st42" d="M12.68,390.76H4.6c-1.91,0-3.46-1.55-3.46-3.46v-8.08c0-1.91,1.55-3.46,3.46-3.46h8.08
			c1.91,0,3.46,1.55,3.46,3.46v8.08C16.13,389.21,14.58,390.76,12.68,390.76z"/>
		<path class="st42" d="M27.66,390.76h-8.08c-1.91,0-3.46-1.55-3.46-3.46v-8.08c0-1.91,1.55-3.46,3.46-3.46h8.08
			c1.91,0,3.46,1.55,3.46,3.46v8.08C31.12,389.21,29.57,390.76,27.66,390.76z"/>
		<path class="st42" d="M42.65,390.76h-8.08c-1.91,0-3.46-1.55-3.46-3.46v-8.08c0-1.91,1.55-3.46,3.46-3.46h8.08
			c1.91,0,3.46,1.55,3.46,3.46v8.08C46.1,389.21,44.56,390.76,42.65,390.76z"/>
		<path class="st42" d="M12.68,405.75H4.6c-1.91,0-3.46-1.55-3.46-3.46v-8.08c0-1.91,1.55-3.46,3.46-3.46h8.08
			c1.91,0,3.46,1.55,3.46,3.46v8.08C16.13,404.2,14.58,405.75,12.68,405.75z"/>
		<path class="st42" d="M27.66,405.75h-8.08c-1.91,0-3.46-1.55-3.46-3.46v-8.08c0-1.91,1.55-3.46,3.46-3.46h8.08
			c1.91,0,3.46,1.55,3.46,3.46v8.08C31.12,404.2,29.57,405.75,27.66,405.75z"/>
		<path class="st42" d="M42.65,405.75h-8.08c-1.91,0-3.46-1.55-3.46-3.46v-8.08c0-1.91,1.55-3.46,3.46-3.46h8.08
			c1.91,0,3.46,1.55,3.46,3.46v8.08C46.1,404.2,44.56,405.75,42.65,405.75z"/>
		<path class="st42" d="M12.68,420.76H4.6c-1.91,0-3.46-1.55-3.46-3.46v-8.08c0-1.91,1.55-3.46,3.46-3.46h8.08
			c1.91,0,3.46,1.55,3.46,3.46v8.08C16.13,419.21,14.58,420.76,12.68,420.76z"/>
		<path class="st42" d="M27.66,420.76h-8.08c-1.91,0-3.46-1.55-3.46-3.46v-8.08c0-1.91,1.55-3.46,3.46-3.46h8.08
			c1.91,0,3.46,1.55,3.46,3.46v8.08C31.12,419.21,29.57,420.76,27.66,420.76z"/>
		<path class="st42" d="M42.65,420.76h-8.08c-1.91,0-3.46-1.55-3.46-3.46v-8.08c0-1.91,1.55-3.46,3.46-3.46h8.08
			c1.91,0,3.46,1.55,3.46,3.46v8.08C46.1,419.21,44.56,420.76,42.65,420.76z"/>
		<path class="st42" d="M12.68,437.68H4.6c-1.91,0-3.46-1.55-3.46-3.46v-8.08c0-1.91,1.55-3.46,3.46-3.46h8.08
			c1.91,0,3.46,1.55,3.46,3.46v8.08C16.13,436.13,14.58,437.68,12.68,437.68z"/>
		<path class="st42" d="M27.66,437.68h-8.08c-1.91,0-3.46-1.55-3.46-3.46v-8.08c0-1.91,1.55-3.46,3.46-3.46h8.08
			c1.91,0,3.46,1.55,3.46,3.46v8.08C31.12,436.13,29.57,437.68,27.66,437.68z"/>
		<path class="st42" d="M42.65,437.68h-8.08c-1.91,0-3.46-1.55-3.46-3.46v-8.08c0-1.91,1.55-3.46,3.46-3.46h8.08
			c1.91,0,3.46,1.55,3.46,3.46v8.08C46.1,436.13,44.56,437.68,42.65,437.68z"/>
		<path class="st42" d="M12.68,452.65H4.6c-1.91,0-3.46-1.55-3.46-3.46v-8.08c0-1.91,1.55-3.46,3.46-3.46h8.08
			c1.91,0,3.46,1.55,3.46,3.46v8.08C16.13,451.1,14.58,452.65,12.68,452.65z"/>
		<path class="st42" d="M27.66,452.65h-8.08c-1.91,0-3.46-1.55-3.46-3.46v-8.08c0-1.91,1.55-3.46,3.46-3.46h8.08
			c1.91,0,3.46,1.55,3.46,3.46v8.08C31.12,451.1,29.57,452.65,27.66,452.65z"/>
		<path class="st42" d="M42.65,452.65h-8.08c-1.91,0-3.46-1.55-3.46-3.46v-8.08c0-1.91,1.55-3.46,3.46-3.46h8.08
			c1.91,0,3.46,1.55,3.46,3.46v8.08C46.1,451.1,44.56,452.65,42.65,452.65z"/>
		<path class="st42" d="M12.68,467.65H4.6c-1.91,0-3.46-1.55-3.46-3.46v-8.08c0-1.91,1.55-3.46,3.46-3.46h8.08
			c1.91,0,3.46,1.55,3.46,3.46v8.08C16.13,466.1,14.58,467.65,12.68,467.65z"/>
		<path class="st42" d="M27.66,467.65h-8.08c-1.91,0-3.46-1.55-3.46-3.46v-8.08c0-1.91,1.55-3.46,3.46-3.46h8.08
			c1.91,0,3.46,1.55,3.46,3.46v8.08C31.12,466.1,29.57,467.65,27.66,467.65z"/>
		<path class="st42" d="M42.65,467.65h-8.08c-1.91,0-3.46-1.55-3.46-3.46v-8.08c0-1.91,1.55-3.46,3.46-3.46h8.08
			c1.91,0,3.46,1.55,3.46,3.46v8.08C46.1,466.1,44.56,467.65,42.65,467.65z"/>
		<path class="st42" d="M12.68,484.64H4.6c-1.91,0-3.46-1.55-3.46-3.46v-8.08c0-1.91,1.55-3.46,3.46-3.46h8.08
			c1.91,0,3.46,1.55,3.46,3.46v8.08C16.13,483.09,14.58,484.64,12.68,484.64z"/>
		<path class="st42" d="M27.66,484.64h-8.08c-1.91,0-3.46-1.55-3.46-3.46v-8.08c0-1.91,1.55-3.46,3.46-3.46h8.08
			c1.91,0,3.46,1.55,3.46,3.46v8.08C31.12,483.09,29.57,484.64,27.66,484.64z"/>
		<path class="st42" d="M42.65,484.64h-8.08c-1.91,0-3.46-1.55-3.46-3.46v-8.08c0-1.91,1.55-3.46,3.46-3.46h8.08
			c1.91,0,3.46,1.55,3.46,3.46v8.08C46.1,483.09,44.56,484.64,42.65,484.64z"/>
		<path class="st42" d="M12.68,499.69H4.6c-1.91,0-3.46-1.55-3.46-3.46v-8.08c0-1.91,1.55-3.46,3.46-3.46h8.08
			c1.91,0,3.46,1.55,3.46,3.46v8.08C16.13,498.14,14.58,499.69,12.68,499.69z"/>
		<path class="st42" d="M27.66,499.69h-8.08c-1.91,0-3.46-1.55-3.46-3.46v-8.08c0-1.91,1.55-3.46,3.46-3.46h8.08
			c1.91,0,3.46,1.55,3.46,3.46v8.08C31.12,498.14,29.57,499.69,27.66,499.69z"/>
		<path class="st42" d="M42.65,499.69h-8.08c-1.91,0-3.46-1.55-3.46-3.46v-8.08c0-1.91,1.55-3.46,3.46-3.46h8.08
			c1.91,0,3.46,1.55,3.46,3.46v8.08C46.1,498.14,44.56,499.69,42.65,499.69z"/>
		<path class="st42" d="M12.68,514.65H4.6c-1.91,0-3.46-1.55-3.46-3.46v-8.08c0-1.91,1.55-3.46,3.46-3.46h8.08
			c1.91,0,3.46,1.55,3.46,3.46v8.08C16.13,513.1,14.58,514.65,12.68,514.65z"/>
		<path class="st42" d="M27.66,514.65h-8.08c-1.91,0-3.46-1.55-3.46-3.46v-8.08c0-1.91,1.55-3.46,3.46-3.46h8.08
			c1.91,0,3.46,1.55,3.46,3.46v8.08C31.12,513.1,29.57,514.65,27.66,514.65z"/>
		<path class="st42" d="M42.65,514.65h-8.08c-1.91,0-3.46-1.55-3.46-3.46v-8.08c0-1.91,1.55-3.46,3.46-3.46h8.08
			c1.91,0,3.46,1.55,3.46,3.46v8.08C46.1,513.1,44.56,514.65,42.65,514.65z"/>
		<path class="st42" d="M12.68,531.59H4.6c-1.91,0-3.46-1.55-3.46-3.46v-8.08c0-1.91,1.55-3.46,3.46-3.46h8.08
			c1.91,0,3.46,1.55,3.46,3.46v8.08C16.13,530.04,14.58,531.59,12.68,531.59z"/>
		<path class="st42" d="M27.66,531.59h-8.08c-1.91,0-3.46-1.55-3.46-3.46v-8.08c0-1.91,1.55-3.46,3.46-3.46h8.08
			c1.91,0,3.46,1.55,3.46,3.46v8.08C31.12,530.04,29.57,531.59,27.66,531.59z"/>
		<path class="st42" d="M42.65,531.59h-8.08c-1.91,0-3.46-1.55-3.46-3.46v-8.08c0-1.91,1.55-3.46,3.46-3.46h8.08
			c1.91,0,3.46,1.55,3.46,3.46v8.08C46.1,530.04,44.56,531.59,42.65,531.59z"/>
		<path class="st42" d="M12.68,546.57H4.6c-1.91,0-3.46-1.55-3.46-3.46v-8.08c0-1.91,1.55-3.46,3.46-3.46h8.08
			c1.91,0,3.46,1.55,3.46,3.46v8.08C16.13,545.02,14.58,546.57,12.68,546.57z"/>
		<path class="st42" d="M27.66,546.57h-8.08c-1.91,0-3.46-1.55-3.46-3.46v-8.08c0-1.91,1.55-3.46,3.46-3.46h8.08
			c1.91,0,3.46,1.55,3.46,3.46v8.08C31.12,545.02,29.57,546.57,27.66,546.57z"/>
		<path class="st42" d="M42.65,546.57h-8.08c-1.91,0-3.46-1.55-3.46-3.46v-8.08c0-1.91,1.55-3.46,3.46-3.46h8.08
			c1.91,0,3.46,1.55,3.46,3.46v8.08C46.1,545.02,44.56,546.57,42.65,546.57z"/>
		<path class="st42" d="M12.68,561.5H4.6c-1.91,0-3.46-1.55-3.46-3.46v-8.08c0-1.91,1.55-3.46,3.46-3.46h8.08
			c1.91,0,3.46,1.55,3.46,3.46v8.08C16.13,559.96,14.58,561.5,12.68,561.5z"/>
		<path class="st42" d="M27.66,561.5h-8.08c-1.91,0-3.46-1.55-3.46-3.46v-8.08c0-1.91,1.55-3.46,3.46-3.46h8.08
			c1.91,0,3.46,1.55,3.46,3.46v8.08C31.12,559.96,29.57,561.5,27.66,561.5z"/>
		<path class="st42" d="M42.65,561.5h-8.08c-1.91,0-3.46-1.55-3.46-3.46v-8.08c0-1.91,1.55-3.46,3.46-3.46h8.08
			c1.91,0,3.46,1.55,3.46,3.46v8.08C46.1,559.96,44.56,561.5,42.65,561.5z"/>
		<path class="st42" d="M12.68,578.48H4.6c-1.91,0-3.46-1.55-3.46-3.46v-8.08c0-1.91,1.55-3.46,3.46-3.46h8.08
			c1.91,0,3.46,1.55,3.46,3.46v8.08C16.13,576.94,14.58,578.48,12.68,578.48z"/>
		<path class="st42" d="M27.66,578.48h-8.08c-1.91,0-3.46-1.55-3.46-3.46v-8.08c0-1.91,1.55-3.46,3.46-3.46h8.08
			c1.91,0,3.46,1.55,3.46,3.46v8.08C31.12,576.94,29.57,578.48,27.66,578.48z"/>
		<path class="st42" d="M42.65,578.48h-8.08c-1.91,0-3.46-1.55-3.46-3.46v-8.08c0-1.91,1.55-3.46,3.46-3.46h8.08
			c1.91,0,3.46,1.55,3.46,3.46v8.08C46.1,576.94,44.56,578.48,42.65,578.48z"/>
		<path class="st42" d="M12.68,593.46H4.6c-1.91,0-3.46-1.55-3.46-3.46v-8.08c0-1.91,1.55-3.46,3.46-3.46h8.08
			c1.91,0,3.46,1.55,3.46,3.46v8.08C16.13,591.91,14.58,593.46,12.68,593.46z"/>
		<path class="st42" d="M27.66,593.46h-8.08c-1.91,0-3.46-1.55-3.46-3.46v-8.08c0-1.91,1.55-3.46,3.46-3.46h8.08
			c1.91,0,3.46,1.55,3.46,3.46v8.08C31.12,591.91,29.57,593.46,27.66,593.46z"/>
		<path class="st42" d="M42.65,593.46h-8.08c-1.91,0-3.46-1.55-3.46-3.46v-8.08c0-1.91,1.55-3.46,3.46-3.46h8.08
			c1.91,0,3.46,1.55,3.46,3.46v8.08C46.1,591.91,44.56,593.46,42.65,593.46z"/>
		<path class="st42" d="M12.68,608.45H4.6c-1.91,0-3.46-1.55-3.46-3.46v-8.08c0-1.91,1.55-3.46,3.46-3.46h8.08
			c1.91,0,3.46,1.55,3.46,3.46v8.08C16.13,606.9,14.58,608.45,12.68,608.45z"/>
		<path class="st42" d="M27.66,608.45h-8.08c-1.91,0-3.46-1.55-3.46-3.46v-8.08c0-1.91,1.55-3.46,3.46-3.46h8.08
			c1.91,0,3.46,1.55,3.46,3.46v8.08C31.12,606.9,29.57,608.45,27.66,608.45z"/>
		<path class="st42" d="M42.65,608.45h-8.08c-1.91,0-3.46-1.55-3.46-3.46v-8.08c0-1.91,1.55-3.46,3.46-3.46h8.08
			c1.91,0,3.46,1.55,3.46,3.46v8.08C46.1,606.9,44.56,608.45,42.65,608.45z"/>
		<path class="st42" d="M12.68,625.42H4.6c-1.91,0-3.46-1.55-3.46-3.46v-8.08c0-1.91,1.55-3.46,3.46-3.46h8.08
			c1.91,0,3.46,1.55,3.46,3.46v8.08C16.13,623.87,14.58,625.42,12.68,625.42z"/>
		<path class="st42" d="M27.66,625.42h-8.08c-1.91,0-3.46-1.55-3.46-3.46v-8.08c0-1.91,1.55-3.46,3.46-3.46h8.08
			c1.91,0,3.46,1.55,3.46,3.46v8.08C31.12,623.87,29.57,625.42,27.66,625.42z"/>
		<path class="st42" d="M42.65,625.42h-8.08c-1.91,0-3.46-1.55-3.46-3.46v-8.08c0-1.91,1.55-3.46,3.46-3.46h8.08
			c1.91,0,3.46,1.55,3.46,3.46v8.08C46.1,623.87,44.56,625.42,42.65,625.42z"/>
		<path class="st42" d="M12.68,640.41H4.6c-1.91,0-3.46-1.55-3.46-3.46v-8.08c0-1.91,1.55-3.46,3.46-3.46h8.08
			c1.91,0,3.46,1.55,3.46,3.46v8.08C16.13,638.86,14.58,640.41,12.68,640.41z"/>
		<path class="st42" d="M27.66,640.41h-8.08c-1.91,0-3.46-1.55-3.46-3.46v-8.08c0-1.91,1.55-3.46,3.46-3.46h8.08
			c1.91,0,3.46,1.55,3.46,3.46v8.08C31.12,638.86,29.57,640.41,27.66,640.41z"/>
		<path class="st42" d="M42.65,640.41h-8.08c-1.91,0-3.46-1.55-3.46-3.46v-8.08c0-1.91,1.55-3.46,3.46-3.46h8.08
			c1.91,0,3.46,1.55,3.46,3.46v8.08C46.1,638.86,44.56,640.41,42.65,640.41z"/>
		<path class="st42" d="M12.68,655.39H4.6c-1.91,0-3.46-1.55-3.46-3.46v-8.08c0-1.91,1.55-3.46,3.46-3.46h8.08
			c1.91,0,3.46,1.55,3.46,3.46v8.08C16.13,653.85,14.58,655.39,12.68,655.39z"/>
		<path class="st42" d="M27.66,655.39h-8.08c-1.91,0-3.46-1.55-3.46-3.46v-8.08c0-1.91,1.55-3.46,3.46-3.46h8.08
			c1.91,0,3.46,1.55,3.46,3.46v8.08C31.12,653.85,29.57,655.39,27.66,655.39z"/>
		<path class="st42" d="M42.65,655.39h-8.08c-1.91,0-3.46-1.55-3.46-3.46v-8.08c0-1.91,1.55-3.46,3.46-3.46h8.08
			c1.91,0,3.46,1.55,3.46,3.46v8.08C46.1,653.85,44.56,655.39,42.65,655.39z"/>
		<path class="st42" d="M12.68,672.36H4.6c-1.91,0-3.46-1.55-3.46-3.46v-8.08c0-1.91,1.55-3.46,3.46-3.46h8.08
			c1.91,0,3.46,1.55,3.46,3.46v8.08C16.13,670.82,14.58,672.36,12.68,672.36z"/>
		<path class="st42" d="M27.66,672.36h-8.08c-1.91,0-3.46-1.55-3.46-3.46v-8.08c0-1.91,1.55-3.46,3.46-3.46h8.08
			c1.91,0,3.46,1.55,3.46,3.46v8.08C31.12,670.82,29.57,672.36,27.66,672.36z"/>
		<path class="st42" d="M42.65,672.36h-8.08c-1.91,0-3.46-1.55-3.46-3.46v-8.08c0-1.91,1.55-3.46,3.46-3.46h8.08
			c1.91,0,3.46,1.55,3.46,3.46v8.08C46.1,670.82,44.56,672.36,42.65,672.36z"/>
		<path class="st42" d="M12.68,687.35H4.6c-1.91,0-3.46-1.55-3.46-3.46v-8.08c0-1.91,1.55-3.46,3.46-3.46h8.08
			c1.91,0,3.46,1.55,3.46,3.46v8.08C16.13,685.8,14.58,687.35,12.68,687.35z"/>
		<path class="st42" d="M27.66,687.35h-8.08c-1.91,0-3.46-1.55-3.46-3.46v-8.08c0-1.91,1.55-3.46,3.46-3.46h8.08
			c1.91,0,3.46,1.55,3.46,3.46v8.08C31.12,685.8,29.57,687.35,27.66,687.35z"/>
		<path class="st42" d="M42.65,687.35h-8.08c-1.91,0-3.46-1.55-3.46-3.46v-8.08c0-1.91,1.55-3.46,3.46-3.46h8.08
			c1.91,0,3.46,1.55,3.46,3.46v8.08C46.1,685.8,44.56,687.35,42.65,687.35z"/>
		<path class="st42" d="M12.68,702.34H4.6c-1.91,0-3.46-1.55-3.46-3.46v-8.08c0-1.91,1.55-3.46,3.46-3.46h8.08
			c1.91,0,3.46,1.55,3.46,3.46v8.08C16.13,700.79,14.58,702.34,12.68,702.34z"/>
		<path class="st42" d="M27.66,702.34h-8.08c-1.91,0-3.46-1.55-3.46-3.46v-8.08c0-1.91,1.55-3.46,3.46-3.46h8.08
			c1.91,0,3.46,1.55,3.46,3.46v8.08C31.12,700.79,29.57,702.34,27.66,702.34z"/>
		<path class="st42" d="M42.65,702.34h-8.08c-1.91,0-3.46-1.55-3.46-3.46v-8.08c0-1.91,1.55-3.46,3.46-3.46h8.08
			c1.91,0,3.46,1.55,3.46,3.46v8.08C46.1,700.79,44.56,702.34,42.65,702.34z"/>
	</g>
</g>
</svg>
