<svg xmlns="http://www.w3.org/2000/svg" xmlns:xlink="http://www.w3.org/1999/xlink" viewBox="0 0 73.73 76.3">
  <defs>
    <style>
      .ae0f1ff1-6e51-4007-a98e-268c1afd7580 {
        mask: url(#f9eddcba-d69f-49c7-8704-7fb9452686f2);
      }

      .be75b155-71bf-4a96-a94d-bf9039f9f38e {
        fill: #232323;
      }

      .f9cf3773-eab4-4a11-9ca3-6ddc91b72789 {
        fill: #7c7c7c;
      }

      .a4626fda-cbc2-4978-975b-8725ba845009 {
        fill: #1d1d1d;
      }

      .a26a37e6-4339-40a4-b5a4-ecf4d17c9e4e {
        fill: #181818;
      }

      .b2d22587-7bfe-47fc-9cdf-ed5628edfb00 {
        fill: #2c2c2c;
      }

      .f0583fbe-148f-4b35-9800-e1ed7021d8d9 {
        fill: #009a4d;
      }

      .e0c166a2-03e1-4b59-8120-e60e0e0d107e {
        fill: #434da1;
      }

      .f908e20b-13ab-4305-8a11-ab46113d8469 {
        fill: #a6a6a6;
      }

      .be2ac26d-4a8a-42a2-95e7-c5f021f1d0d8 {
        fill: #ffc906;
      }

      .a46a2e2b-17cd-42d4-bd80-da529ef15ed8 {
        fill: #ee2d2f;
      }

      .a0578af3-5bbf-40c2-8086-cfa93747104a {
        fill: #f26640;
      }
    </style>
    <mask id="f9eddcba-d69f-49c7-8704-7fb9452686f2" x="-4311.95" y="1181.61" width="2152.71" height="1542.6" maskUnits="userSpaceOnUse"/>
  </defs>
  <title>-</title>
  <g id="b5ad03a0-6a63-46ce-82cb-66a9216fefc1" data-name="Layer 10">
    <g>
      <path class="be75b155-71bf-4a96-a94d-bf9039f9f38e" d="M71.37,25.94l-.22.08c1.71-.65,2.74,1.23,2.37,3.41l.1-.51a7.2,7.2,0,0,0-1.25-5.49C73,24.38,72.83,25.32,71.37,25.94Z"/>
      <path d="M30.29,73.74v0c-.46,1.81-1.66,2.14-2.93,1.48a7.34,7.34,0,0,0,2.29,1,7.14,7.14,0,0,0,2.8,0C31.07,76.28,30.07,75.58,30.29,73.74Z"/>
      <path class="f9cf3773-eab4-4a11-9ca3-6ddc91b72789" d="M39.19,37.09a4.73,4.73,0,0,0-2.83,3.74,4.48,4.48,0,0,0-1.62-4.55A3.87,3.87,0,0,0,39.19,37.09Z"/>
      <path d="M10.35,11c-1.92.85-2.69,2.94-1.21,4-1.4-1.29-3.08.16-3.53,2.36l.18-1a7.2,7.2,0,0,1,3-4.61A7.34,7.34,0,0,1,10.35,11Z"/>
      <path class="a4626fda-cbc2-4978-975b-8725ba845009" d="M71.35,25.94l-.19.09h-.09L40.38,36.71l-1.19.38a3.86,3.86,0,0,1-4.45-.82l-1-.82L10.82,16.38,9.14,15c-1.48-1.09-.71-3.18,1.21-4a.13.13,0,0,1,.09,0l.05,0L12,10.37,16.18,8.9s0,0,.05,0L40.17.38A6.46,6.46,0,0,1,42,0c.22,0,.43,0,.6,0,.42,0,.9,0,1.31.11a4.54,4.54,0,0,1,.69.22,7,7,0,0,1,1,.31c.31.18.62.37,1,.6a5.12,5.12,0,0,1,.65.42l24,20.48a8.63,8.63,0,0,1,1.14,1.28C73,24.39,72.84,25.31,71.35,25.94Z"/>
      <path class="a26a37e6-4339-40a4-b5a4-ecf4d17c9e4e" d="M36.36,40.83l-6,32.91c-.47,1.8-1.69,2.14-2.94,1.48-.3-.23-.62-.37-.88-.59l-3.38-2.86L2.61,54.3l-.15-.11a8.61,8.61,0,0,1-.6-.71,6.14,6.14,0,0,1-.71-.82,5.89,5.89,0,0,1-.47-.94c-.09-.23-.26-.44-.35-.67a6.46,6.46,0,0,1-.15-.84A7.35,7.35,0,0,1,.1,47.4l5.51-30c.45-2.2,2.13-3.65,3.53-2.36l1.68,1.38L33.73,35.45l1,.82A4.5,4.5,0,0,1,36.36,40.83Z"/>
      <path class="b2d22587-7bfe-47fc-9cdf-ed5628edfb00" d="M73.54,29.44,68.33,57.56l-.41,2.29a8.54,8.54,0,0,1-1.08,2.59c-.17.23-.31.5-.49.77l-.46.43a8.06,8.06,0,0,1-.87.79c-.25.17-.58.32-.87.48a5.26,5.26,0,0,1-.89.44L51.45,69.54,37.7,74.45l-4.18,1.46a7,7,0,0,1-1.07.24c-1.4.13-2.39-.57-2.14-2.41v0l6-32.87a4.72,4.72,0,0,1,2.84-3.74l1.18-.38L71.16,26C72.87,25.36,73.9,27.27,73.54,29.44Z"/>
      <g>
        <path class="f0583fbe-148f-4b35-9800-e1ed7021d8d9" d="M67.67,48.55,65.52,60.26a3.44,3.44,0,0,1-1.85,2.45L51.81,66.88c-.82.35-1.35-.25-1.16-1.29L52.8,53.87a3.61,3.61,0,0,1,1.85-2.45l11.86-4.16C67.34,46.9,67.86,47.5,67.67,48.55Z"/>
        <path class="e0c166a2-03e1-4b59-8120-e60e0e0d107e" d="M70.92,30.82,68.76,42.6A3.37,3.37,0,0,1,66.93,45L55.05,49.21c-.81.3-1.33-.31-1.15-1.29l2.16-11.78a3.37,3.37,0,0,1,1.83-2.39l11.87-4.22C70.58,29.24,71.1,29.84,70.92,30.82Z"/>
        <path class="f908e20b-13ab-4305-8a11-ab46113d8469" d="M49.34,53.14,37.51,57.35a3.39,3.39,0,0,0-1.88,2.4L33.47,71.5c-.18,1,.35,1.61,1.2,1.31L46.5,68.6a3.39,3.39,0,0,0,1.88-2.4l2.16-11.76C50.72,53.42,50.19,52.83,49.34,53.14Z"/>
        <path class="be2ac26d-4a8a-42a2-95e7-c5f021f1d0d8" d="M53.79,36.74,51.63,48.52a3.34,3.34,0,0,1-1.89,2.38L37.93,55.14c-.88.28-1.4-.33-1.22-1.31l2.16-11.77a3.23,3.23,0,0,1,1.89-2.38l11.81-4.24C53.45,35.16,54,35.7,53.79,36.74Z"/>
      </g>
      <g>
        <path class="a46a2e2b-17cd-42d4-bd80-da529ef15ed8" d="M4.54,37,2.39,48.68a3.46,3.46,0,0,0,.86,2.94l9.61,8.11c.64.62,1.35.25,1.54-.8l2.15-11.71a3.57,3.57,0,0,0-.86-2.95l-9.6-8.1C5.44,35.54,4.74,35.92,4.54,37Z"/>
        <path class="a0578af3-5bbf-40c2-8086-cfa93747104a" d="M7.8,19.24,5.64,31A3.36,3.36,0,0,0,6.5,33.9l9.6,8.16c.66.57,1.36.19,1.54-.79L19.8,29.49a3.36,3.36,0,0,0-.86-2.88l-9.6-8.17C8.68,17.88,8,18.25,7.8,19.24Z"/>
        <path class="a46a2e2b-17cd-42d4-bd80-da529ef15ed8" d="M20.05,47.76l9.56,8.14a3.4,3.4,0,0,1,.91,2.91L28.36,70.56c-.19,1-.9,1.39-1.59.8l-9.56-8.13a3.41,3.41,0,0,1-.9-2.92l2.16-11.75C18.65,47.53,19.36,47.18,20.05,47.76Z"/>
        <path class="a0578af3-5bbf-40c2-8086-cfa93747104a" d="M21.71,30.85,19.55,42.63a3.33,3.33,0,0,0,.92,2.9L30,53.68c.72.58,1.42.2,1.6-.78l2.16-11.78a3.25,3.25,0,0,0-.93-2.9l-9.53-8.15C22.59,29.5,21.9,29.81,21.71,30.85Z"/>
      </g>
      <g>
        <path class="f0583fbe-148f-4b35-9800-e1ed7021d8d9" d="M26.74,26.28l9,7.64a3.5,3.5,0,0,0,3,.71l11.73-4.29c.86-.25.88-1,.07-1.72l-9-7.64a3.56,3.56,0,0,0-3-.71L26.81,24.56C26,24.81,25.93,25.6,26.74,26.28Z"/>
        <path class="f908e20b-13ab-4305-8a11-ab46113d8469" d="M13.05,14.73l9.09,7.67a3.34,3.34,0,0,0,2.92.68l11.78-4.25c.81-.29.83-1.09.07-1.72L27.82,9.43a3.34,3.34,0,0,0-2.92-.68L13.12,13C12.31,13.29,12.29,14.09,13.05,14.73Z"/>
        <path class="be2ac26d-4a8a-42a2-95e7-c5f021f1d0d8" d="M43.84,18.32l11.81-4.26a3.39,3.39,0,0,1,3,.67l9.13,7.7c.8.67.75,1.47-.1,1.77l-11.8,4.26a3.38,3.38,0,0,1-3-.66l-9.14-7.7C43,19.42,43,18.63,43.84,18.32Z"/>
        <path class="f0583fbe-148f-4b35-9800-e1ed7021d8d9" d="M29.93,8.46,39,16.13a3.28,3.28,0,0,0,2.95.63l11.74-4.2c.86-.34.88-1.13.12-1.77l-9.1-7.68a3.19,3.19,0,0,0-3-.62L30.05,6.69C29.2,7,29.13,7.78,29.93,8.46Z"/>
      </g>
    </g>
  </g>
</svg>
