<svg xmlns="http://www.w3.org/2000/svg" xmlns:xlink="http://www.w3.org/1999/xlink" viewBox="0 0 145.08 137">
  <defs>
    <style>
      .e8fa4c25-6a4e-43f4-8243-21beb41b1abe {
        mask: url(#a2505ed5-ed06-4480-9b03-4ca591bf554f);
      }

      .be49669d-e87c-496a-bf92-ce4526c74ae3 {
        fill: #232323;
      }

      .e4326af8-29d3-4b59-8f1e-00cf1674d18a {
        fill: #7c7c7c;
      }

      .a176a434-5f33-4cd0-aef3-ae26f8feae0a {
        fill: #1d1d1d;
      }

      .b4b742f9-78bc-417c-b4ec-bf70052575ad {
        fill: #181818;
      }

      .eaf009a7-e73d-495c-bd5a-8aa316c711ae {
        fill: #2c2c2c;
      }

      .a3eae56b-b72c-4e0e-948a-02bd531e5dfe {
        fill: #b1b3b6;
      }

      .a22106b1-bf25-4865-91ac-4518e906442a {
        fill: #ee2d2f;
      }

      .aa4c996b-6fcd-46b0-b168-fd6f7da5afd5 {
        fill: #ffc906;
      }

      .a9b4d891-c8eb-4d5d-96bb-325f182b2c35 {
        fill: #009a4d;
      }

      .a7cec9ad-3763-425b-87eb-e28ba6ad3d81 {
        fill: #f26640;
      }

      .a46d93f0-81ff-4d25-8844-60f7a243c183 {
        fill: #434da1;
      }
    </style>
    <mask id="a2505ed5-ed06-4480-9b03-4ca591bf554f" x="-4467.32" y="580.64" width="2152.71" height="1542.6" maskUnits="userSpaceOnUse"/>
  </defs>
  <title>-</title>
  <g id="f14f042f-6287-404d-a22e-8fcc0088b10e" data-name="Layer 10">
    <g>
      <path class="be49669d-e87c-496a-bf92-ce4526c74ae3" d="M114.86,13.74l-.27.35c2-2.78,5.61-.86,7.27,3l-.38-.91a13.62,13.62,0,0,0-7.61-7.44C115.77,9.65,116.55,11.26,114.86,13.74Z"/>
      <path d="M98.63,131.59l0-.06c1.18,3.43-.35,5.2-3,5.4a12.52,12.52,0,0,0,4.57-.72,12.68,12.68,0,0,0,4.3-2.92C102.46,135,100.19,134.8,98.63,131.59Z"/>
      <path class="e4326af8-29d3-4b59-8f1e-00cf1674d18a" d="M75.22,64.4a8.93,8.93,0,0,0-.68,8.83c-1.52-3.69-3.73-4.85-7.22-5.57C70.84,68,72.88,67.53,75.22,64.4Z"/>
      <path d="M2.69,52.48c-2.17,3.32-1.25,7.43,2.2,7.64-3.53-.61-4.72,3.42-3.18,7.36L1,65.78a13.55,13.55,0,0,1,0-10.37A13.12,13.12,0,0,1,2.69,52.48Z"/>
      <path class="a176a434-5f33-4cd0-aef3-ae26f8feae0a" d="M114.7,13.82l-.21.34-.14.06L76.58,62.63l-1.49,1.83c-2.34,3.12-4.38,3.62-7.89,3.26l-2.46-.29L8.84,60.65l-4.08-.47C1.31,60,.39,55.85,2.56,52.54a.26.26,0,0,1,.12-.14l0-.1,1.85-2.41L9.7,43.28c0-.07,0-.07,0-.1L39,5.18a13,13,0,0,1,2.54-2.43,6.85,6.85,0,0,1,.94-.64A24.44,24.44,0,0,1,44.71.94,9.4,9.4,0,0,1,46,.57,16.45,16.45,0,0,1,47.88.06c.69,0,1.36,0,2.15,0A10.3,10.3,0,0,1,51.5,0l59.11,7.88a15.58,15.58,0,0,1,3.13.87C115.67,9.7,116.42,11.29,114.7,13.82Z"/>
      <path class="b4b742f9-78bc-417c-b4ec-bf70052575ad" d="M74.54,73.23l24.13,58.41c1.12,3.34-.47,5.12-3.14,5.36-.71-.05-1.36.05-2,0l-8.3-1.06L34.8,129.19l-.36,0c-.56-.11-1.08-.33-1.68-.51a14.25,14.25,0,0,1-2-.57,13.17,13.17,0,0,1-1.72-1c-.37-.28-.86-.42-1.23-.7a11.08,11.08,0,0,1-1.1-1.19,14,14,0,0,1-3-4.36l-22-53.33c-1.54-3.94-.35-8,3.18-7.36L9,60.59l55.9,6.79,2.46.28C70.82,68.38,73,69.54,74.54,73.23Z"/>
      <path class="eaf009a7-e73d-495c-bd5a-8aa316c711ae" d="M121.89,17.06l20.55,50,1.67,4.06a15.74,15.74,0,0,1,.95,5.22c0,.53,0,1.11,0,1.72l-.3,1.16a14.07,14.07,0,0,1-.58,2.14c-.22.52-.58,1.1-.87,1.65a9.89,9.89,0,0,1-1,1.61l-14.44,18.75-16.79,21.87L106,131.82a14.44,14.44,0,0,1-1.46,1.47c-2.09,1.63-4.37,1.54-5.86-1.65l0-.07L74.55,73.23a8.9,8.9,0,0,1,.67-8.83l1.49-1.82,37.91-48.47C116.65,11.28,120.23,13.26,121.89,17.06Z"/>
      <path class="a3eae56b-b72c-4e0e-948a-02bd531e5dfe" d="M11.06,78.83l3.27,7.92A2.46,2.46,0,0,0,16,88.18L25,89.35c.66.07,1-.39.66-1.1l-3.29-8a2.35,2.35,0,0,0-1.69-1.39L11.7,77.69C11,77.62,10.76,78.12,11.06,78.83Z"/>
      <g>
        <path class="a22106b1-bf25-4865-91ac-4518e906442a" d="M29.16,91.43l9,1.19A2.4,2.4,0,0,1,39.8,94l3.29,8c.28.69,0,1.18-.65,1.1l-9-1.19a2.45,2.45,0,0,1-1.68-1.41l-3.29-8C28.23,91.84,28.52,91.34,29.16,91.43Z"/>
        <path class="a3eae56b-b72c-4e0e-948a-02bd531e5dfe" d="M23.57,80.55l3.29,8a2.4,2.4,0,0,0,1.69,1.39l9,1.21c.66.06.94-.44.66-1.1l-3.29-8a2.34,2.34,0,0,0-1.69-1.39l-8.95-1.21C23.57,79.38,23.28,79.85,23.57,80.55Z"/>
        <path class="a3eae56b-b72c-4e0e-948a-02bd531e5dfe" d="M18.94,68.48l3.27,7.92a2.46,2.46,0,0,0,1.71,1.43L32.85,79c.66.07,1-.39.66-1.1l-3.29-8a2.4,2.4,0,0,0-1.69-1.39l-9-1.2C18.92,67.27,18.65,67.77,18.94,68.48Z"/>
        <path class="a3eae56b-b72c-4e0e-948a-02bd531e5dfe" d="M6.17,67l3.27,7.92a2.52,2.52,0,0,0,1.71,1.44l8.93,1.16c.66.07,1-.39.67-1.1l-3.29-8a2.39,2.39,0,0,0-1.69-1.39L6.82,65.86C6.16,65.79,5.88,66.3,6.17,67Z"/>
        <path class="aa4c996b-6fcd-46b0-b168-fd6f7da5afd5" d="M16,90.75l3.27,7.92A2.46,2.46,0,0,0,21,100.1l8.93,1.17c.66.07,1-.39.67-1.1l-3.29-8a2.39,2.39,0,0,0-1.7-1.39l-8.95-1.21C16,89.54,15.69,90,16,90.75Z"/>
        <path class="a9b4d891-c8eb-4d5d-96bb-325f182b2c35" d="M42.14,93l9,1.19a2.48,2.48,0,0,1,1.69,1.41l3.28,8c.29.7,0,1.19-.65,1.1l-9-1.18a2.44,2.44,0,0,1-1.68-1.42L41.5,94.15C41.21,93.45,41.5,93,42.14,93Z"/>
        <path class="a7cec9ad-3763-425b-87eb-e28ba6ad3d81" d="M34.09,103.36l9,1.19A2.45,2.45,0,0,1,44.73,106l3.29,8c.28.69,0,1.19-.65,1.1l-9-1.19a2.4,2.4,0,0,1-1.68-1.41l-3.29-8C33.16,103.77,33.45,103.28,34.09,103.36Z"/>
        <path class="a7cec9ad-3763-425b-87eb-e28ba6ad3d81" d="M20.91,102.68l3.27,7.93A2.49,2.49,0,0,0,25.89,112l8.93,1.16c.66.07,1-.39.66-1.09l-3.29-8a2.4,2.4,0,0,0-1.69-1.39l-8.95-1.21C20.89,101.47,20.62,102,20.91,102.68Z"/>
        <path class="aa4c996b-6fcd-46b0-b168-fd6f7da5afd5" d="M47.07,105l9,1.19a2.4,2.4,0,0,1,1.68,1.41l3.29,8c.28.69,0,1.18-.65,1.1l-9-1.19A2.45,2.45,0,0,1,49.71,114l-3.29-8C46.14,105.39,46.43,104.89,47.07,105Z"/>
        <path class="a3eae56b-b72c-4e0e-948a-02bd531e5dfe" d="M36.63,82.2l3.27,7.92a2.5,2.5,0,0,0,1.67,1.45l9,1.15c.63.13.91-.38.62-1.08l-3.28-7.93a2.56,2.56,0,0,0-1.66-1.44l-9-1.15C36.62,81,36.34,81.49,36.63,82.2Z"/>
        <path class="a3eae56b-b72c-4e0e-948a-02bd531e5dfe" d="M31.81,70.15l3.29,8a2.44,2.44,0,0,0,1.65,1.41l9,1.19c.62.08.9-.42.62-1.08l-3.29-8a2.41,2.41,0,0,0-1.65-1.41l-9-1.19C31.82,69,31.54,69.49,31.81,70.15Z"/>
        <path class="a46d93f0-81ff-4d25-8844-60f7a243c183" d="M54.51,95.74l3.29,8a2.35,2.35,0,0,0,1.7,1.39l8.84,1.2h.1a.6.6,0,0,0,.69-.33,1.14,1.14,0,0,0,0-.77l-3.29-8a2.34,2.34,0,0,0-1.69-1.39l-8.95-1.21C54.52,94.58,54.22,95,54.51,95.74Z"/>
        <path class="a46d93f0-81ff-4d25-8844-60f7a243c183" d="M59.35,107.46l3.29,8a2.36,2.36,0,0,0,1.69,1.39l8.85,1.2h.1a.6.6,0,0,0,.69-.34,1.11,1.11,0,0,0,0-.76l-3.29-8A2.34,2.34,0,0,0,69,107.57L60,106.36C59.36,106.29,59.06,106.76,59.35,107.46Z"/>
        <path class="a22106b1-bf25-4865-91ac-4518e906442a" d="M50.22,82.68l9,1.18a2.46,2.46,0,0,1,1.69,1.41l3.28,8c.29.7,0,1.19-.65,1.1l-9-1.18a2.45,2.45,0,0,1-1.69-1.42l-3.28-7.94C49.29,83.08,49.58,82.59,50.22,82.68Z"/>
        <path class="a3eae56b-b72c-4e0e-948a-02bd531e5dfe" d="M44.63,71.8l3.29,8a2.4,2.4,0,0,0,1.69,1.39l9,1.21c.66.07.93-.44.66-1.1l-3.29-8a2.34,2.34,0,0,0-1.69-1.39l-9-1.2C44.63,70.64,44.34,71.1,44.63,71.8Z"/>
        <path class="a7cec9ad-3763-425b-87eb-e28ba6ad3d81" d="M67.51,97.28l3.29,8a2.34,2.34,0,0,0,1.69,1.39l8.85,1.2h.1a.59.59,0,0,0,.69-.33,1.21,1.21,0,0,0,0-.77l-3.29-8a2.32,2.32,0,0,0-1.69-1.39l-9-1.21C67.51,96.11,67.22,96.57,67.51,97.28Z"/>
        <path class="aa4c996b-6fcd-46b0-b168-fd6f7da5afd5" d="M72.35,109l3.29,8a2.3,2.3,0,0,0,1.69,1.39l8.85,1.2h.1a.6.6,0,0,0,.69-.33,1.21,1.21,0,0,0,0-.77l-3.29-8A2.3,2.3,0,0,0,82,109.11L73,107.9C72.35,107.83,72.05,108.29,72.35,109Z"/>
        <path class="a7cec9ad-3763-425b-87eb-e28ba6ad3d81" d="M39,115.15l9,1.19a2.45,2.45,0,0,1,1.68,1.41l3.29,8c.28.69,0,1.19-.65,1.1l-9-1.19a2.4,2.4,0,0,1-1.68-1.41l-3.29-8C38,115.56,38.32,115.07,39,115.15Z"/>
        <path class="a7cec9ad-3763-425b-87eb-e28ba6ad3d81" d="M25.78,114.47l3.27,7.93a2.49,2.49,0,0,0,1.71,1.43L39.69,125c.66.07,1-.39.66-1.1l-3.29-8a2.38,2.38,0,0,0-1.69-1.39l-8.95-1.21C25.76,113.26,25.49,113.77,25.78,114.47Z"/>
        <path class="a9b4d891-c8eb-4d5d-96bb-325f182b2c35" d="M51.94,116.77l9,1.19a2.4,2.4,0,0,1,1.68,1.41l3.29,7.95c.28.69,0,1.18-.65,1.1l-9-1.19a2.45,2.45,0,0,1-1.68-1.41l-3.29-7.95C51,117.17,51.3,116.68,51.94,116.77Z"/>
        <path class="a3eae56b-b72c-4e0e-948a-02bd531e5dfe" d="M64.22,119.25l3.29,8a2.34,2.34,0,0,0,1.69,1.39l8.85,1.2h.1a.6.6,0,0,0,.69-.34,1.11,1.11,0,0,0,0-.76l-3.29-8a2.36,2.36,0,0,0-1.69-1.39l-9-1.21C64.23,118.08,63.93,118.55,64.22,119.25Z"/>
        <path class="a3eae56b-b72c-4e0e-948a-02bd531e5dfe" d="M77.22,120.79l3.29,8a2.32,2.32,0,0,0,1.69,1.39l8.85,1.2h.1a.58.58,0,0,0,.68-.33,1.14,1.14,0,0,0,0-.77l-3.29-8a2.3,2.3,0,0,0-1.69-1.39l-9-1.21C77.22,119.62,76.92,120.08,77.22,120.79Z"/>
        <path class="a9b4d891-c8eb-4d5d-96bb-325f182b2c35" d="M63.22,84.21l9,1.19a2.44,2.44,0,0,1,1.69,1.41l3.28,8c.29.69,0,1.19-.65,1.1l-8.95-1.19a2.44,2.44,0,0,1-1.69-1.41l-3.28-8C62.28,84.62,62.57,84.12,63.22,84.21Z"/>
        <path class="aa4c996b-6fcd-46b0-b168-fd6f7da5afd5" d="M57.62,73.34l3.29,8A2.4,2.4,0,0,0,62.6,82.7l8.95,1.2c.66.07.94-.43.66-1.09l-3.29-8a2.32,2.32,0,0,0-1.69-1.39l-9-1.21C57.62,72.17,57.33,72.63,57.62,73.34Z"/>
      </g>
      <g>
        <path class="a22106b1-bf25-4865-91ac-4518e906442a" d="M74.26,19.72l-5.42,7.22a2.44,2.44,0,0,1-2.06.78l-8.54-1c-.74-.09-1-.58-.64-1.1L63,18.36a2.44,2.44,0,0,1,2.06-.78l8.54,1C74.36,18.7,74.65,19.2,74.26,19.72Z"/>
        <path class="a9b4d891-c8eb-4d5d-96bb-325f182b2c35" d="M86.48,20.16l-8.55-1a2.38,2.38,0,0,0-2,.8l-5.44,7.21c-.38.54-.08,1,.63,1.11l8.56,1a2.34,2.34,0,0,0,2-.8l5.44-7.21C87.5,20.74,87.24,20.26,86.48,20.16Z"/>
        <path class="a46d93f0-81ff-4d25-8844-60f7a243c183" d="M99.28,22l-8.51-1a2.52,2.52,0,0,0-2.09.79L83.29,29c-.38.54-.12,1,.63,1.12l8.56,1a2.4,2.4,0,0,0,2-.8L100,23.16C100.34,22.62,100,22.13,99.28,22Z"/>
        <path class="a7cec9ad-3763-425b-87eb-e28ba6ad3d81" d="M106.82,11.63l-8.51-1a2.48,2.48,0,0,0-2.09.78l-5.39,7.22c-.38.54-.13,1,.63,1.12l8.56,1a2.39,2.39,0,0,0,2-.79l5.44-7.21C107.88,12.21,107.57,11.73,106.82,11.63Z"/>
        <path class="aa4c996b-6fcd-46b0-b168-fd6f7da5afd5" d="M94.11,10.1l-8.51-1a2.49,2.49,0,0,0-2.08.79l-5.4,7.22c-.38.54-.12,1,.64,1.11l8.55,1a2.38,2.38,0,0,0,2-.8l5.44-7.21C95.17,10.68,94.87,10.19,94.11,10.1Z"/>
        <path class="a9b4d891-c8eb-4d5d-96bb-325f182b2c35" d="M81.31,8.56l-8.51-1a2.49,2.49,0,0,0-2.09.79l-5.39,7.21c-.38.54-.12,1,.63,1.12l8.56,1a2.39,2.39,0,0,0,2-.79L82,9.68C82.37,9.14,82.07,8.65,81.31,8.56Z"/>
        <path class="a3eae56b-b72c-4e0e-948a-02bd531e5dfe" d="M66.49,30.24l-5.42,7.23a2.44,2.44,0,0,1-2.06.78l-8.53-1c-.75-.09-1-.59-.65-1.11l5.43-7.22a2.44,2.44,0,0,1,2.05-.78l8.54,1C66.6,29.23,66.88,29.72,66.49,30.24Z"/>
        <path class="aa4c996b-6fcd-46b0-b168-fd6f7da5afd5" d="M61.44,18.17,56,25.4a2.44,2.44,0,0,1-2.06.77l-8.54-1c-.74-.09-1-.58-.64-1.1l5.42-7.23A2.44,2.44,0,0,1,52.26,16l8.54,1C61.54,17.15,61.83,17.65,61.44,18.17Z"/>
        <path class="aa4c996b-6fcd-46b0-b168-fd6f7da5afd5" d="M68.49,7,60,6a2.49,2.49,0,0,0-2.09.79L52.5,14c-.38.54-.12,1,.64,1.11l8.55,1a2.41,2.41,0,0,0,2-.8l5.44-7.21C69.55,7.59,69.25,7.1,68.49,7Z"/>
        <path class="aa4c996b-6fcd-46b0-b168-fd6f7da5afd5" d="M53.68,28.7l-5.43,7.22a2.44,2.44,0,0,1-2,.78l-8.54-1c-.75-.09-1-.58-.64-1.1l5.42-7.23a2.44,2.44,0,0,1,2.05-.78l8.54,1C53.78,27.68,54.07,28.18,53.68,28.7Z"/>
        <path class="a7cec9ad-3763-425b-87eb-e28ba6ad3d81" d="M78.65,30.75l-8.51-1a2.49,2.49,0,0,0-2.08.75l-5.4,7.26c-.42.49-.12,1,.64,1.07l8.51,1a2.59,2.59,0,0,0,2.08-.75l5.4-7.26C79.71,31.33,79.41,30.84,78.65,30.75Z"/>
        <path class="a3eae56b-b72c-4e0e-948a-02bd531e5dfe" d="M91.51,32.45l-8.55-1a2.42,2.42,0,0,0-2,.75l-5.44,7.26c-.38.49-.08,1,.64,1.07l8.55,1a2.42,2.42,0,0,0,2-.75l5.44-7.25C92.53,33,92.22,32.53,91.51,32.45Z"/>
        <path class="a22106b1-bf25-4865-91ac-4518e906442a" d="M58.08,39.71l-8.56-1a2.36,2.36,0,0,0-2,.8L42.1,46.59l-.05.09a.58.58,0,0,0,0,.76,1.09,1.09,0,0,0,.68.35l8.56,1a2.31,2.31,0,0,0,2-.8l5.43-7.21C59.1,40.28,58.84,39.8,58.08,39.71Z"/>
        <path class="a3eae56b-b72c-4e0e-948a-02bd531e5dfe" d="M45.49,38.19l-8.55-1a2.34,2.34,0,0,0-2,.8l-5.38,7.13-.06.08a.61.61,0,0,0-.05.76,1.18,1.18,0,0,0,.69.36l8.55,1a2.31,2.31,0,0,0,2-.8l5.44-7.21C46.51,38.76,46.25,38.28,45.49,38.19Z"/>
        <path class="a22106b1-bf25-4865-91ac-4518e906442a" d="M71.58,42.37l-5.43,7.22a2.44,2.44,0,0,1-2.05.78l-8.54-1c-.75-.09-1-.58-.64-1.1L60.34,41a2.44,2.44,0,0,1,2.06-.78l8.53,1C71.68,41.35,72,41.85,71.58,42.37Z"/>
        <path class="a9b4d891-c8eb-4d5d-96bb-325f182b2c35" d="M83.8,42.81l-8.56-1a2.39,2.39,0,0,0-2,.79l-5.44,7.21c-.38.54-.08,1,.64,1.12l8.55,1a2.33,2.33,0,0,0,2-.79l5.44-7.21C84.81,43.38,84.55,42.9,83.8,42.81Z"/>
        <path class="a9b4d891-c8eb-4d5d-96bb-325f182b2c35" d="M50.38,50.28l-8.56-1a2.34,2.34,0,0,0-2,.79L34.4,57.17l0,.08a.6.6,0,0,0-.05.77,1.2,1.2,0,0,0,.68.35l8.56,1a2.36,2.36,0,0,0,2-.79L51,51.4C51.4,50.86,51.14,50.37,50.38,50.28Z"/>
        <path class="a22106b1-bf25-4865-91ac-4518e906442a" d="M37.79,48.76l-8.55-1a2.33,2.33,0,0,0-2,.79l-5.38,7.13-.06.08a.61.61,0,0,0-.05.77,1.23,1.23,0,0,0,.68.35l8.56,1a2.31,2.31,0,0,0,2-.79l5.44-7.21C38.81,49.34,38.55,48.85,37.79,48.76Z"/>
        <path class="a3eae56b-b72c-4e0e-948a-02bd531e5dfe" d="M48.78,16.64l-5.43,7.23a2.44,2.44,0,0,1-2.05.78l-8.54-1c-.74-.09-1-.59-.64-1.11l5.42-7.23a2.44,2.44,0,0,1,2.06-.77l8.53,1C48.88,15.63,49.17,16.12,48.78,16.64Z"/>
        <path class="a9b4d891-c8eb-4d5d-96bb-325f182b2c35" d="M55.83,5.48l-8.51-1a2.49,2.49,0,0,0-2.09.79l-5.39,7.22c-.38.54-.13,1,.63,1.11l8.56,1a2.42,2.42,0,0,0,2-.8L56.51,6.6C56.89,6.06,56.58,5.57,55.83,5.48Z"/>
        <path class="aa4c996b-6fcd-46b0-b168-fd6f7da5afd5" d="M41,27.17l-5.42,7.22a2.44,2.44,0,0,1-2.06.78l-8.53-1c-.75-.09-1-.58-.65-1.1l5.42-7.23A2.46,2.46,0,0,1,31.83,25l8.54,1C41.11,26.15,41.4,26.65,41,27.17Z"/>
        <path class="a46d93f0-81ff-4d25-8844-60f7a243c183" d="M32.83,36.66l-8.56-1a2.33,2.33,0,0,0-2,.79l-5.38,7.13-.05.08a.58.58,0,0,0-.05.76,1.15,1.15,0,0,0,.68.36l8.56,1A2.33,2.33,0,0,0,28,45l5.44-7.22C33.85,37.23,33.59,36.75,32.83,36.66Z"/>
        <path class="a9b4d891-c8eb-4d5d-96bb-325f182b2c35" d="M25.13,47.23l-8.56-1a2.32,2.32,0,0,0-2,.8L9.15,54.12l-.05.09a.58.58,0,0,0,0,.76,1.14,1.14,0,0,0,.68.35l8.56,1a2.36,2.36,0,0,0,2-.8l5.43-7.21C26.15,47.81,25.89,47.33,25.13,47.23Z"/>
        <path class="a46d93f0-81ff-4d25-8844-60f7a243c183" d="M63.87,52.94l-5.42,7.23A2.44,2.44,0,0,1,56.4,61l-8.54-1c-.75-.09-1-.59-.64-1.11l5.42-7.22a2.44,2.44,0,0,1,2-.78l8.54,1C64,51.93,64.26,52.42,63.87,52.94Z"/>
        <path class="a22106b1-bf25-4865-91ac-4518e906442a" d="M76.09,53.39l-8.55-1a2.38,2.38,0,0,0-2,.8l-5.44,7.21c-.38.54-.08,1,.63,1.11l8.56,1a2.34,2.34,0,0,0,2-.8l5.44-7.21C77.11,54,76.85,53.48,76.09,53.39Z"/>
      </g>
      <g>
        <path class="a9b4d891-c8eb-4d5d-96bb-325f182b2c35" d="M119.37,53.76l-5.51,7.16a2.45,2.45,0,0,0-.19,2.19l3.28,8c.29.69.84.84,1.23.32l5.51-7.16a2.42,2.42,0,0,0,.2-2.19l-3.28-8C120.32,53.39,119.77,53.24,119.37,53.76Z"/>
        <path class="a22106b1-bf25-4865-91ac-4518e906442a" d="M115.66,42.1l3.29,8a2.38,2.38,0,0,1-.22,2.18l-5.48,7.17c-.42.51-1,.35-1.25-.31l-3.29-8a2.34,2.34,0,0,1,.22-2.18l5.49-7.17C114.83,41.28,115.37,41.4,115.66,42.1Z"/>
        <path class="a22106b1-bf25-4865-91ac-4518e906442a" d="M110.42,30.28l3.27,7.93a2.44,2.44,0,0,1-.2,2.21L108,47.56c-.42.51-1,.39-1.25-.32l-3.29-8a2.41,2.41,0,0,1,.22-2.18l5.49-7.17C109.58,29.41,110.13,29.58,110.42,30.28Z"/>
        <path class="a3eae56b-b72c-4e0e-948a-02bd531e5dfe" d="M118.42,20.23l3.28,7.92a2.49,2.49,0,0,1-.2,2.22L116,37.5c-.42.51-.95.39-1.24-.31l-3.29-8a2.36,2.36,0,0,1,.21-2.17l5.49-7.18C117.58,19.36,118.13,19.52,118.42,20.23Z"/>
        <path class="a7cec9ad-3763-425b-87eb-e28ba6ad3d81" d="M123.31,32.05,126.58,40a2.5,2.5,0,0,1-.2,2.22l-5.5,7.13c-.42.51-1,.39-1.25-.31l-3.29-8a2.41,2.41,0,0,1,.22-2.18l5.49-7.17C122.47,31.19,123,31.35,123.31,32.05Z"/>
        <path class="a46d93f0-81ff-4d25-8844-60f7a243c183" d="M128.23,44l3.28,7.93a2.5,2.5,0,0,1-.2,2.22l-5.51,7.13c-.42.51-1,.39-1.25-.31l-3.29-8a2.41,2.41,0,0,1,.22-2.18L127,43.62C127.39,43.11,127.94,43.27,128.23,44Z"/>
        <path class="a22106b1-bf25-4865-91ac-4518e906442a" d="M111.31,64.06l-5.5,7.17a2.42,2.42,0,0,0-.2,2.19l3.28,7.94c.29.7.84.84,1.24.33l5.51-7.17a2.43,2.43,0,0,0,.19-2.18l-3.28-8C112.26,63.69,111.71,63.55,111.31,64.06Z"/>
        <path class="a9b4d891-c8eb-4d5d-96bb-325f182b2c35" d="M124.3,65.69l-5.51,7.16a2.49,2.49,0,0,0-.2,2.19L121.88,83c.28.7.84.84,1.23.33l5.51-7.17a2.42,2.42,0,0,0,.2-2.19L125.54,66C125.25,65.32,124.7,65.18,124.3,65.69Z"/>
        <path class="a9b4d891-c8eb-4d5d-96bb-325f182b2c35" d="M133.16,55.91l3.27,7.92a2.43,2.43,0,0,1-.2,2.22l-5.5,7.13c-.42.51-1,.4-1.25-.31l-3.29-8a2.39,2.39,0,0,1,.22-2.17l5.49-7.18C132.32,55,132.87,55.2,133.16,55.91Z"/>
        <path class="a46d93f0-81ff-4d25-8844-60f7a243c183" d="M116.24,76l-5.5,7.16a2.42,2.42,0,0,0-.2,2.19l3.28,8c.29.69.84.84,1.24.32l5.5-7.16a2.42,2.42,0,0,0,.2-2.19l-3.28-8C117.19,75.63,116.64,75.48,116.24,76Z"/>
        <path class="a7cec9ad-3763-425b-87eb-e28ba6ad3d81" d="M107.57,52.49l3.27,7.92a2.52,2.52,0,0,1-.16,2.21l-5.55,7.14c-.36.54-.91.38-1.2-.32l-3.27-7.93a2.54,2.54,0,0,1,.15-2.2l5.55-7.15C106.72,51.62,107.27,51.78,107.57,52.49Z"/>
        <path class="a22106b1-bf25-4865-91ac-4518e906442a" d="M102.48,40.55l3.29,8a2.44,2.44,0,0,1-.17,2.16l-5.53,7.19c-.38.5-.93.33-1.21-.33l-3.29-8a2.41,2.41,0,0,1,.18-2.16l5.53-7.18C101.66,39.73,102.21,39.89,102.48,40.55Z"/>
        <path class="a46d93f0-81ff-4d25-8844-60f7a243c183" d="M104.45,74.71l3.29,8a2.31,2.31,0,0,1-.21,2.18L102.1,92,102,92a.59.59,0,0,1-.72.25,1.12,1.12,0,0,1-.53-.56l-3.29-8a2.34,2.34,0,0,1,.22-2.18l5.49-7.17C103.63,73.88,104.16,74,104.45,74.71Z"/>
        <path class="a7cec9ad-3763-425b-87eb-e28ba6ad3d81" d="M109.29,86.42l3.29,8a2.31,2.31,0,0,1-.21,2.18l-5.43,7.09-.06.08a.59.59,0,0,1-.72.25,1.12,1.12,0,0,1-.53-.56l-3.29-8a2.34,2.34,0,0,1,.22-2.18l5.49-7.17C108.47,85.6,109,85.72,109.29,86.42Z"/>
        <path class="a46d93f0-81ff-4d25-8844-60f7a243c183" d="M98.27,62.42l-5.51,7.16a2.45,2.45,0,0,0-.19,2.19l3.28,8c.28.69.84.84,1.23.32l5.51-7.16a2.42,2.42,0,0,0,.2-2.19l-3.28-7.95C99.22,62.05,98.67,61.9,98.27,62.42Z"/>
        <path class="a22106b1-bf25-4865-91ac-4518e906442a" d="M94.57,50.77l3.29,8a2.41,2.41,0,0,1-.22,2.18l-5.49,7.17c-.42.52-1,.36-1.24-.31l-3.29-8a2.31,2.31,0,0,1,.21-2.18l5.49-7.17C93.74,49.94,94.28,50.06,94.57,50.77Z"/>
        <path class="aa4c996b-6fcd-46b0-b168-fd6f7da5afd5" d="M96.33,85l3.29,8a2.37,2.37,0,0,1-.21,2.18L94,102.2l-.06.08a.61.61,0,0,1-.73.25,1.19,1.19,0,0,1-.52-.56l-3.29-8a2.34,2.34,0,0,1,.22-2.18l5.49-7.17C95.51,84.14,96,84.26,96.33,85Z"/>
        <path class="a22106b1-bf25-4865-91ac-4518e906442a" d="M101.17,96.68l3.29,8a2.32,2.32,0,0,1-.22,2.17l-5.42,7.1-.06.08a.62.62,0,0,1-.73.25,1.17,1.17,0,0,1-.52-.57l-3.29-8a2.34,2.34,0,0,1,.22-2.18l5.49-7.17C100.35,95.86,100.88,96,101.17,96.68Z"/>
        <path class="aa4c996b-6fcd-46b0-b168-fd6f7da5afd5" d="M129.17,77.48l-5.51,7.16a2.49,2.49,0,0,0-.2,2.19l3.29,8c.28.7.84.84,1.23.33l5.51-7.17a2.42,2.42,0,0,0,.2-2.19l-3.28-8C130.12,77.11,129.57,77,129.17,77.48Z"/>
        <path class="aa4c996b-6fcd-46b0-b168-fd6f7da5afd5" d="M138,67.7l3.27,7.92a2.43,2.43,0,0,1-.2,2.22L135.6,85c-.42.51-1,.4-1.25-.31l-3.29-8a2.39,2.39,0,0,1,.22-2.17l5.49-7.18C137.19,66.83,137.74,67,138,67.7Z"/>
        <path class="a3eae56b-b72c-4e0e-948a-02bd531e5dfe" d="M121.11,87.79,115.61,95a2.42,2.42,0,0,0-.2,2.19l3.28,8c.29.69.84.84,1.24.32l5.5-7.16a2.42,2.42,0,0,0,.2-2.19l-3.28-8C122.06,87.42,121.51,87.27,121.11,87.79Z"/>
        <path class="a22106b1-bf25-4865-91ac-4518e906442a" d="M114.16,98.21l3.29,8a2.31,2.31,0,0,1-.21,2.18l-5.43,7.09-.06.08a.59.59,0,0,1-.72.25,1.16,1.16,0,0,1-.53-.56l-3.29-8a2.34,2.34,0,0,1,.22-2.18l5.49-7.17C113.34,97.39,113.87,97.51,114.16,98.21Z"/>
        <path class="a46d93f0-81ff-4d25-8844-60f7a243c183" d="M106,108.47l3.29,8a2.32,2.32,0,0,1-.22,2.17l-5.42,7.1-.06.08a.62.62,0,0,1-.73.25,1.22,1.22,0,0,1-.52-.57l-3.29-8a2.34,2.34,0,0,1,.22-2.18l5.49-7.17C105.22,107.64,105.75,107.76,106,108.47Z"/>
        <path class="a3eae56b-b72c-4e0e-948a-02bd531e5dfe" d="M90.15,72.68l-5.51,7.16a2.45,2.45,0,0,0-.2,2.19l3.29,8c.28.69.84.83,1.23.32l5.51-7.16a2.45,2.45,0,0,0,.2-2.19l-3.28-8C91.1,72.31,90.55,72.16,90.15,72.68Z"/>
        <path class="a46d93f0-81ff-4d25-8844-60f7a243c183" d="M86.44,61l3.29,8a2.38,2.38,0,0,1-.21,2.18L84,78.34c-.42.51-1,.35-1.25-.31l-3.29-8a2.34,2.34,0,0,1,.22-2.18l5.49-7.17C85.62,60.2,86.15,60.32,86.44,61Z"/>
      </g>
    </g>
  </g>
</svg>
