<svg xmlns="http://www.w3.org/2000/svg" xmlns:xlink="http://www.w3.org/1999/xlink" viewBox="0 0 218.92 240">
  <defs>
    <style>
      .bb1aad10-a574-4da0-9d45-b4ca84c89028 {
        mask: url(#f149596c-1785-4868-902c-2e3e0aba5fe2);
      }

      .a23e5b24-b9e3-47ab-b5b2-164f32a5d115 {
        fill: #232323;
      }

      .b78b25da-a168-425f-807c-523ceab99c8f {
        fill: #7c7c7c;
      }

      .bc20beda-5aaf-45d8-86f2-1909b2ab8cfa {
        fill: #1d1d1d;
      }

      .a7f76d4c-0a1c-4b65-beac-75e02019b480 {
        fill: #181818;
      }

      .a15f29e8-455a-423d-8ca0-c3093ee0d3c2 {
        fill: #2c2c2c;
      }

      .bf7b5ad6-4b00-49b3-b6d2-4765b8dc9c50 {
        fill: #009a4d;
      }

      .bf908a05-8932-4eba-8bdd-8ea4b20c6636 {
        fill: #434da1;
      }

      .e20aa6f4-2d9d-4872-b108-58750f9fe577 {
        fill: #ffc906;
      }

      .b6f7f7b8-0680-4195-b7a2-09b7a70eb3c0 {
        fill: #ee2d2f;
      }

      .a2d55660-8b8a-49bd-afcf-9e6447f44b40 {
        fill: #f26640;
      }

      .a19d0556-4442-47c9-805c-1a20b3b6ca88 {
        fill: #b1b3b6;
      }
    </style>
    <mask id="f149596c-1785-4868-902c-2e3e0aba5fe2" x="-4467.32" y="418.64" width="2152.71" height="1542.6" maskUnits="userSpaceOnUse"/>
  </defs>
  <title>-</title>
  <g id="e63114ff-9ee0-4d14-b9fb-7eba8cb430fc" data-name="Layer 10">
    <g>
      <path class="a23e5b24-b9e3-47ab-b5b2-164f32a5d115" d="M204.93,58.21l-.59.38c4.68-3.17,9.15,1.74,9.62,8.62l-.09-1.63a22.34,22.34,0,0,0-7.73-15.69C208.58,52.36,208.91,55.29,204.93,58.21Z"/>
      <path d="M115.35,232v-.09c0,6-3.38,7.86-7.61,6.73a21.14,21.14,0,0,0,7.48,1.37,20.86,20.86,0,0,0,8.25-2.17C119.45,239.29,116,237.82,115.35,232Z"/>
      <path class="b78b25da-a168-425f-807c-523ceab99c8f" d="M115.79,115.05c-4.68,3.4-6.13,8.34-5.87,13.31-.34-6.55-3.12-9.55-8.14-12.57C107,118.27,110.46,118.62,115.79,115.05Z"/>
      <path d="M9.9,56.92c-5.18,3.95-6,10.83-.76,13C4,67.08,0,72.68.19,79.63l-.16-3A22.33,22.33,0,0,1,5.75,60.56,21.39,21.39,0,0,1,9.9,56.92Z"/>
      <path class="bc20beda-5aaf-45d8-86f2-1909b2ab8cfa" d="M204.64,58.24l-.5.42h-.26l-85,54.38-3.31,2c-5.33,3.56-8.76,3.21-14,.73L97.9,114,15,72.94,8.91,70c-5.24-2.22-4.42-9.09.76-13.05a.41.41,0,0,1,.25-.14l.13-.14,4.19-2.71L25.79,46.5c0-.14,0-.14.13-.14L92.09,3.48A20.84,20.84,0,0,1,97.35,1.1,11.37,11.37,0,0,1,99.17.61c1.3-.2,2.72-.53,4-.6a13.68,13.68,0,0,1,2.23.14,28.14,28.14,0,0,1,3.17.22c1.07.34,2.13.68,3.34,1.14a17.72,17.72,0,0,1,2.28.8l87.31,44.53a25.69,25.69,0,0,1,4.37,3.06C208.41,52.39,208.69,55.26,204.64,58.24Z"/>
      <path class="a7f76d4c-0a1c-4b65-beac-75e02019b480" d="M109.92,128.37l5.46,103.72c-.09,5.79-3.54,7.68-7.8,6.59-1.07-.47-2.14-.68-3.08-1.15l-12.28-6.18-74.49-38-.54-.24a26.11,26.11,0,0,1-2.32-1.72,19.84,19.84,0,0,1-2.73-1.95A20.55,20.55,0,0,1,10,186.94c-.42-.64-1.1-1.12-1.53-1.75a21.49,21.49,0,0,1-1-2.45,23,23,0,0,1-2.28-8.41l-5-94.7C0,72.68,4,67.08,9.14,70l6.06,3L98.13,114l3.65,1.78C106.8,118.81,109.58,121.81,109.92,128.37Z"/>
      <path class="a15f29e8-455a-423d-8ca0-c3093ee0d3c2" d="M214,67.2l4.53,88.68.38,7.21a26.19,26.19,0,0,1-1.38,8.6c-.36.81-.57,1.74-.91,2.68l-1.1,1.63a23.46,23.46,0,0,1-2.07,3c-.62.69-1.5,1.39-2.26,2.09a16.86,16.86,0,0,1-2.39,2L176.17,204.2l-38,24.73-11.56,7.44a23.05,23.05,0,0,1-3.08,1.47c-4.12,1.4-7.62,0-8.18-5.74V232l-5.45-103.6c-.26-5,1.18-9.91,5.86-13.31l3.31-2,85.26-54.4C209.06,55.38,213.52,60.39,214,67.2Z"/>
      <path class="bf7b5ad6-4b00-49b3-b6d2-4765b8dc9c50" d="M8.46,102.33,9.2,116.4a4.09,4.09,0,0,0,1.87,3.15l13.2,6.7c1,.46,1.7-.09,1.63-1.34l-.74-14.15a4,4,0,0,0-1.86-3.08l-13.21-6.77C9.1,100.45,8.4,101.08,8.46,102.33Z"/>
      <g>
        <path class="bf908a05-8932-4eba-8bdd-8ea4b20c6636" d="M29.64,131.76l13.23,6.74a4,4,0,0,1,1.84,3.11l.74,14.11c.07,1.23-.65,1.84-1.6,1.35l-13.24-6.73a4,4,0,0,1-1.84-3.11L28,133.11C28,131.88,28.68,131.27,29.64,131.76Z"/>
        <path class="bf7b5ad6-4b00-49b3-b6d2-4765b8dc9c50" d="M26.91,111.84,27.65,126a4,4,0,0,0,1.87,3.08l13.21,6.76c1,.47,1.69-.16,1.63-1.34l-.75-14.15a3.81,3.81,0,0,0-1.86-3.07L28.54,110.5C27.55,110,26.84,110.59,26.91,111.84Z"/>
        <path class="e20aa6f4-2d9d-4872-b108-58750f9fe577" d="M26.34,90.59l.74,14.08a4.05,4.05,0,0,0,1.86,3.15l13.21,6.69c1,.47,1.69-.09,1.63-1.34L43,99A3.91,3.91,0,0,0,41.17,96L28,89.18C27,88.71,26.27,89.34,26.34,90.59Z"/>
        <path class="b6f7f7b8-0680-4195-b7a2-09b7a70eb3c0" d="M7.36,81.33,8.1,95.4A4.05,4.05,0,0,0,10,98.55l13.21,6.69c1,.47,1.69-.09,1.63-1.34l-.75-14.14a3.91,3.91,0,0,0-1.86-3.08L9,79.91C8,79.45,7.29,80.07,7.36,81.33Z"/>
        <path class="a2d55660-8b8a-49bd-afcf-9e6447f44b40" d="M9.58,123.5l.74,14.07a4.05,4.05,0,0,0,1.86,3.15l13.21,6.69c1,.47,1.69-.09,1.63-1.34l-.75-14.14a3.91,3.91,0,0,0-1.86-3.08L11.2,122.08C10.22,121.62,9.51,122.24,9.58,123.5Z"/>
        <path class="bf7b5ad6-4b00-49b3-b6d2-4765b8dc9c50" d="M48.87,141.36,62.1,148.1A4,4,0,0,1,64,151.21l.74,14.11c.06,1.24-.66,1.84-1.61,1.36l-13.23-6.74A4,4,0,0,1,48,156.83l-.74-14.12C47.2,141.48,47.92,140.88,48.87,141.36Z"/>
        <path class="bf908a05-8932-4eba-8bdd-8ea4b20c6636" d="M30.75,153,44,159.69a4,4,0,0,1,1.84,3.11l.75,14.11c.06,1.23-.66,1.84-1.61,1.36l-13.23-6.74a4,4,0,0,1-1.84-3.11l-.75-14.12C29.08,153.07,29.8,152.46,30.75,153Z"/>
        <path class="a19d0556-4442-47c9-805c-1a20b3b6ca88" d="M10.69,144.69l.74,14.07a4.11,4.11,0,0,0,1.86,3.15L26.5,168.6c1,.47,1.7-.08,1.63-1.34l-.74-14.14A4,4,0,0,0,25.53,150l-13.22-6.77C11.33,142.81,10.62,143.43,10.69,144.69Z"/>
        <path class="bf7b5ad6-4b00-49b3-b6d2-4765b8dc9c50" d="M50,162.55l13.23,6.74a4,4,0,0,1,1.84,3.11l.74,14.11c.07,1.24-.65,1.84-1.6,1.36L51,181.13A4,4,0,0,1,49.12,178l-.74-14.12C48.32,162.67,49,162.07,50,162.55Z"/>
        <path class="e20aa6f4-2d9d-4872-b108-58750f9fe577" d="M46.26,121.54,47,135.61a4.12,4.12,0,0,0,1.79,3.15l13.28,6.69c.92.55,1.62-.08,1.56-1.33L62.89,130a4.24,4.24,0,0,0-1.79-3.15L47.81,120.2C46.9,119.66,46.19,120.28,46.26,121.54Z"/>
        <path class="e20aa6f4-2d9d-4872-b108-58750f9fe577" d="M45.37,100.23l.75,14.15a3.93,3.93,0,0,0,1.79,3.08l13.28,6.76c.91.47,1.62-.16,1.56-1.33L62,108.74a3.93,3.93,0,0,0-1.79-3.08L46.93,98.89C46,98.42,45.31,99.05,45.37,100.23Z"/>
        <path class="a19d0556-4442-47c9-805c-1a20b3b6ca88" d="M66.57,152.31l.74,14.14a3.84,3.84,0,0,0,1.86,3.08l13.06,6.7.16.07a1,1,0,0,0,1.24-.14A1.87,1.87,0,0,0,84,175l-.74-14.15a3.87,3.87,0,0,0-1.86-3.08L68.2,151C67.21,150.5,66.5,151.06,66.57,152.31Z"/>
        <path class="e20aa6f4-2d9d-4872-b108-58750f9fe577" d="M67.66,173.12l.75,14.14a3.8,3.8,0,0,0,1.86,3.08L83.33,197l.15.07a1,1,0,0,0,1.25-.14,1.93,1.93,0,0,0,.38-1.2l-.75-14.15a3.82,3.82,0,0,0-1.86-3.08l-13.21-6.77C68.31,171.31,67.6,171.86,67.66,173.12Z"/>
        <path class="e20aa6f4-2d9d-4872-b108-58750f9fe577" d="M67.07,129.71l13.23,6.74a4,4,0,0,1,1.84,3.11l.74,14.11c.07,1.23-.65,1.84-1.6,1.35L68,148.28a4,4,0,0,1-1.84-3.1l-.74-14.12C65.4,129.83,66.12,129.22,67.07,129.71Z"/>
        <path class="e20aa6f4-2d9d-4872-b108-58750f9fe577" d="M64.33,109.8l.75,14.14A3.91,3.91,0,0,0,66.94,127l13.21,6.77c1,.47,1.69-.16,1.63-1.34L81,118.3a3.82,3.82,0,0,0-1.86-3.08L66,108.46C65,108,64.27,108.55,64.33,109.8Z"/>
        <path class="bf7b5ad6-4b00-49b3-b6d2-4765b8dc9c50" d="M85.87,161.79l.74,14.15A3.87,3.87,0,0,0,88.47,179l13.06,6.7.15.06a1,1,0,0,0,1.25-.14,1.83,1.83,0,0,0,.38-1.2l-.74-14.14a3.84,3.84,0,0,0-1.86-3.08L87.5,160.45C86.51,160,85.8,160.54,85.87,161.79Z"/>
        <path class="a2d55660-8b8a-49bd-afcf-9e6447f44b40" d="M87,182.6l.75,14.15a3.79,3.79,0,0,0,1.86,3.07l13.06,6.7.15.07a1,1,0,0,0,1.25-.14,2,2,0,0,0,.38-1.2l-.75-14.15A3.82,3.82,0,0,0,101.8,188l-13.21-6.76C87.61,180.79,86.9,181.35,87,182.6Z"/>
        <path class="bf7b5ad6-4b00-49b3-b6d2-4765b8dc9c50" d="M31.85,173.88l13.23,6.74a4,4,0,0,1,1.85,3.11l.74,14.12c.06,1.23-.66,1.84-1.61,1.35l-13.23-6.74A4,4,0,0,1,31,189.35l-.74-14.11C30.18,174,30.9,173.4,31.85,173.88Z"/>
        <path class="bf908a05-8932-4eba-8bdd-8ea4b20c6636" d="M11.79,165.62l.74,14.07a4.09,4.09,0,0,0,1.87,3.16l13.2,6.69c1,.46,1.7-.09,1.63-1.34l-.74-14.15A4,4,0,0,0,26.63,171l-13.21-6.76C12.43,163.74,11.73,164.37,11.79,165.62Z"/>
        <path class="bf7b5ad6-4b00-49b3-b6d2-4765b8dc9c50" d="M51.09,183.49l13.23,6.74a4,4,0,0,1,1.84,3.1l.74,14.12c.07,1.23-.65,1.84-1.6,1.35l-13.24-6.74A4,4,0,0,1,50.22,199l-.74-14.11C49.42,183.61,50.14,183,51.09,183.49Z"/>
        <path class="b6f7f7b8-0680-4195-b7a2-09b7a70eb3c0" d="M68.76,194.05l.75,14.15a3.82,3.82,0,0,0,1.86,3.08L84.43,218l.15.06a1,1,0,0,0,1.25-.14,1.89,1.89,0,0,0,.38-1.2l-.74-14.14a3.82,3.82,0,0,0-1.87-3.08l-13.21-6.77C69.41,192.24,68.7,192.8,68.76,194.05Z"/>
        <path class="e20aa6f4-2d9d-4872-b108-58750f9fe577" d="M88.06,203.53l.75,14.15a3.82,3.82,0,0,0,1.86,3.08l13.06,6.7.15.07a1,1,0,0,0,1.25-.14,2,2,0,0,0,.38-1.21L104.76,212A3.82,3.82,0,0,0,102.9,209l-13.21-6.77C88.71,201.73,88,202.28,88.06,203.53Z"/>
        <path class="b6f7f7b8-0680-4195-b7a2-09b7a70eb3c0" d="M86.37,139.19l13.23,6.74a4,4,0,0,1,1.84,3.11l.74,14.11c.07,1.24-.65,1.84-1.61,1.36l-13.23-6.74a4,4,0,0,1-1.84-3.11l-.74-14.12C84.69,139.31,85.41,138.71,86.37,139.19Z"/>
        <path class="a2d55660-8b8a-49bd-afcf-9e6447f44b40" d="M83.63,119.28l.75,14.15a3.93,3.93,0,0,0,1.86,3.08l13.21,6.76c1,.47,1.69-.16,1.63-1.34l-.75-14.14a3.79,3.79,0,0,0-1.86-3.08l-13.21-6.77C84.28,117.48,83.57,118,83.63,119.28Z"/>
      </g>
      <g>
        <path class="bf7b5ad6-4b00-49b3-b6d2-4765b8dc9c50" d="M138.74,45.27,126.39,53.5a4,4,0,0,1-3.62.09L110.1,47.32c-1.1-.55-1.28-1.47-.39-2.06L122.07,37a4,4,0,0,1,3.61-.08l12.67,6.26C139.46,43.75,139.63,44.67,138.74,45.27Z"/>
        <path class="bf7b5ad6-4b00-49b3-b6d2-4765b8dc9c50" d="M157.44,52.65l-12.69-6.28a3.93,3.93,0,0,0-3.6.11l-12.37,8.21c-.89.63-.69,1.55.37,2.07L141.85,63a3.83,3.83,0,0,0,3.6-.11l12.36-8.21C158.7,54.09,158.57,53.2,157.44,52.65Z"/>
        <path class="bf908a05-8932-4eba-8bdd-8ea4b20c6636" d="M176.25,62.55l-12.63-6.24a4.08,4.08,0,0,0-3.67.08l-12.3,8.23c-.89.63-.75,1.53.37,2.08L160.72,73a4,4,0,0,0,3.6-.11l12.37-8.21C177.57,64,177.37,63.11,176.25,62.55Z"/>
        <path class="e20aa6f4-2d9d-4872-b108-58750f9fe577" d="M193.62,50.54,181,44.3a4.05,4.05,0,0,0-3.66.08L165,52.61c-.89.64-.76,1.53.37,2.08L178.1,61a3.94,3.94,0,0,0,3.59-.11l12.37-8.21C195,52,194.75,51.1,193.62,50.54Z"/>
        <path class="a19d0556-4442-47c9-805c-1a20b3b6ca88" d="M174.77,41.22,162.14,35a4.09,4.09,0,0,0-3.66.09l-12.31,8.23c-.88.63-.75,1.52.38,2.08l12.69,6.28a4,4,0,0,0,3.6-.12l12.37-8.2C176.1,42.7,175.89,41.78,174.77,41.22Z"/>
        <path class="bf908a05-8932-4eba-8bdd-8ea4b20c6636" d="M155.77,31.82l-12.63-6.24a4.05,4.05,0,0,0-3.66.08L127.17,33.9c-.88.63-.75,1.52.38,2.07l12.69,6.28a3.93,3.93,0,0,0,3.6-.11l12.37-8.21C157.1,33.3,156.89,32.38,155.77,31.82Z"/>
        <path class="a19d0556-4442-47c9-805c-1a20b3b6ca88" d="M121,57.34l-12.36,8.23a4,4,0,0,1-3.61.09L92.31,59.39c-1.1-.55-1.28-1.47-.39-2.06l12.36-8.24a4,4,0,0,1,3.61-.08l12.67,6.26C121.66,55.82,121.84,56.74,121,57.34Z"/>
        <path class="a19d0556-4442-47c9-805c-1a20b3b6ca88" d="M119.72,35.86,107.36,44.1a4,4,0,0,1-3.61.08L91.08,37.92c-1.1-.55-1.28-1.48-.39-2.07l12.36-8.23a4,4,0,0,1,3.61-.09l12.67,6.27C120.43,34.34,120.61,35.27,119.72,35.86Z"/>
        <path class="bf7b5ad6-4b00-49b3-b6d2-4765b8dc9c50" d="M136.75,22.42l-12.63-6.25a4.12,4.12,0,0,0-3.66.08l-12.31,8.24c-.89.63-.75,1.52.37,2.08l12.7,6.28a4,4,0,0,0,3.6-.12l12.37-8.2C138.08,23.9,137.87,23,136.75,22.42Z"/>
        <path class="a2d55660-8b8a-49bd-afcf-9e6447f44b40" d="M101.93,47.93,89.57,56.17a4,4,0,0,1-3.61.08L73.29,50c-1.1-.54-1.28-1.47-.39-2.06l12.35-8.24a4.06,4.06,0,0,1,3.62-.08l12.67,6.27C102.64,46.41,102.82,47.34,101.93,47.93Z"/>
        <path class="a19d0556-4442-47c9-805c-1a20b3b6ca88" d="M139.51,64.77l-12.63-6.25a4.12,4.12,0,0,0-3.63,0l-12.33,8.3c-.92.53-.72,1.46.4,2L124,75.1a4.26,4.26,0,0,0,3.63,0l12.34-8.3C140.84,66.25,140.64,65.32,139.51,64.77Z"/>
        <path class="a2d55660-8b8a-49bd-afcf-9e6447f44b40" d="M158.52,74.43l-12.7-6.28a3.93,3.93,0,0,0-3.56,0l-12.4,8.27c-.86.56-.65,1.49.4,2L143,84.76a3.93,3.93,0,0,0,3.56-.05l12.41-8.27C159.78,75.88,159.58,75,158.52,74.43Z"/>
        <path class="b6f7f7b8-0680-4195-b7a2-09b7a70eb3c0" d="M102.74,67.4,90,61.13a3.83,3.83,0,0,0-3.6.11l-12.23,8.1-.14.1a1,1,0,0,0-.49,1.16,1.91,1.91,0,0,0,.87.92L87.14,77.8a3.83,3.83,0,0,0,3.6-.11l12.37-8.21C104,68.85,103.86,68,102.74,67.4Z"/>
        <path class="a19d0556-4442-47c9-805c-1a20b3b6ca88" d="M84.06,58.17l-12.7-6.28a3.81,3.81,0,0,0-3.59.11L55.53,60.11l-.13.1a1,1,0,0,0-.49,1.16,1.92,1.92,0,0,0,.86.92l12.7,6.27a3.81,3.81,0,0,0,3.59-.11l12.37-8.2C85.32,59.61,85.18,58.72,84.06,58.17Z"/>
        <path class="e20aa6f4-2d9d-4872-b108-58750f9fe577" d="M122.2,78.91l-12.36,8.23a4,4,0,0,1-3.61.09L93.56,81c-1.1-.55-1.28-1.47-.39-2.06l12.35-8.24a4,4,0,0,1,3.62-.08l12.67,6.26C122.91,77.39,123.09,78.31,122.2,78.91Z"/>
        <path class="b6f7f7b8-0680-4195-b7a2-09b7a70eb3c0" d="M140.9,86.27,128.2,80a4,4,0,0,0-3.6.12l-12.37,8.2c-.88.63-.68,1.56.38,2.08l12.69,6.28a3.8,3.8,0,0,0,3.6-.12l12.37-8.2C142.16,87.72,142,86.83,140.9,86.27Z"/>
        <path class="bf908a05-8932-4eba-8bdd-8ea4b20c6636" d="M85,79.59l-12.7-6.28a3.81,3.81,0,0,0-3.59.11L56.49,81.53l-.13.1a1,1,0,0,0-.49,1.15,1.84,1.84,0,0,0,.86.92L69.43,90A3.81,3.81,0,0,0,73,89.87l12.37-8.21C86.28,81,86.14,80.14,85,79.59Z"/>
        <path class="a2d55660-8b8a-49bd-afcf-9e6447f44b40" d="M66.34,70.35l-12.7-6.28a3.78,3.78,0,0,0-3.59.12l-12.24,8.1-.13.1a1,1,0,0,0-.49,1.16,1.93,1.93,0,0,0,.86.92l12.7,6.28a3.84,3.84,0,0,0,3.59-.12l12.37-8.2C67.6,71.8,67.47,70.91,66.34,70.35Z"/>
        <path class="e20aa6f4-2d9d-4872-b108-58750f9fe577" d="M100.93,26.57,88.57,34.81a4,4,0,0,1-3.61.08L72.29,28.62c-1.11-.54-1.28-1.47-.39-2.06l12.35-8.24a4,4,0,0,1,3.62-.08l12.67,6.27C101.64,25.05,101.82,26,100.93,26.57Z"/>
        <path class="bf908a05-8932-4eba-8bdd-8ea4b20c6636" d="M118,13.12,105.33,6.88a4.08,4.08,0,0,0-3.67.08L89.36,15.2c-.89.63-.75,1.52.37,2.07l12.7,6.28a3.93,3.93,0,0,0,3.6-.11l12.37-8.21C119.28,14.6,119.08,13.68,118,13.12Z"/>
        <path class="a19d0556-4442-47c9-805c-1a20b3b6ca88" d="M83.14,38.64,70.78,46.87a4,4,0,0,1-3.61.09L54.5,40.69c-1.11-.55-1.28-1.47-.39-2.06l12.35-8.24a4,4,0,0,1,3.61-.08l12.67,6.26C83.85,37.12,84,38,83.14,38.64Z"/>
        <path class="bf7b5ad6-4b00-49b3-b6d2-4765b8dc9c50" d="M65.27,48.88,52.57,42.6a3.81,3.81,0,0,0-3.59.11L36.74,50.82l-.13.1a1,1,0,0,0-.49,1.15A1.84,1.84,0,0,0,37,53l12.7,6.28a3.81,3.81,0,0,0,3.59-.11L65.64,51C66.53,50.32,66.39,49.43,65.27,48.88Z"/>
        <path class="a19d0556-4442-47c9-805c-1a20b3b6ca88" d="M47.55,61.06l-12.7-6.28a3.81,3.81,0,0,0-3.59.11L19,63l-.13.1a1,1,0,0,0-.49,1.15,1.84,1.84,0,0,0,.86.92L32,71.45a3.81,3.81,0,0,0,3.59-.11l12.37-8.21C48.81,62.5,48.67,61.61,47.55,61.06Z"/>
        <path class="bf908a05-8932-4eba-8bdd-8ea4b20c6636" d="M104.48,91.09,92.12,99.32a4,4,0,0,1-3.61.09L75.84,93.14c-1.1-.54-1.28-1.47-.39-2.06l12.36-8.24a4,4,0,0,1,3.61-.08L104.09,89C105.19,89.57,105.37,90.5,104.48,91.09Z"/>
        <path class="a19d0556-4442-47c9-805c-1a20b3b6ca88" d="M123.18,98.45l-12.7-6.27a3.93,3.93,0,0,0-3.6.11l-12.37,8.2c-.88.64-.68,1.56.38,2.08l12.69,6.28a3.83,3.83,0,0,0,3.6-.11l12.37-8.21C124.44,99.9,124.3,99,123.18,98.45Z"/>
      </g>
      <g>
        <path class="e20aa6f4-2d9d-4872-b108-58750f9fe577" d="M190.05,122.7l-12.45,8.09a4,4,0,0,0-1.51,3.28l.74,14.12c.07,1.23.85,1.76,1.74,1.17L191,141.27a4,4,0,0,0,1.5-3.28l-.74-14.12C191.72,122.64,191,122.11,190.05,122.7Z"/>
        <path class="b6f7f7b8-0680-4195-b7a2-09b7a70eb3c0" d="M190.67,102.6l.74,14.15a3.92,3.92,0,0,1-1.52,3.26l-12.43,8.11c-.93.57-1.7,0-1.76-1.16L175,112.81a3.86,3.86,0,0,1,1.53-3.26l12.43-8.11C189.84,100.87,190.61,101.35,190.67,102.6Z"/>
        <path class="a2d55660-8b8a-49bd-afcf-9e6447f44b40" d="M189,81.41l.74,14.07a4.06,4.06,0,0,1-1.52,3.34l-12.43,8c-.93.56-1.7.09-1.76-1.17l-.75-14.14a4,4,0,0,1,1.53-3.26l12.43-8.11C188.18,79.61,189,80.16,189,81.41Z"/>
        <path class="a2d55660-8b8a-49bd-afcf-9e6447f44b40" d="M206.92,70.21l.74,14.07a4.09,4.09,0,0,1-1.53,3.33l-12.43,8c-.93.57-1.69.09-1.76-1.16l-.74-14.15a3.92,3.92,0,0,1,1.52-3.26L205.15,69C206.08,68.4,206.85,69,206.92,70.21Z"/>
        <path class="a19d0556-4442-47c9-805c-1a20b3b6ca88" d="M208,91.21l.74,14.07a4.08,4.08,0,0,1-1.52,3.33l-12.44,8c-.93.57-1.69.09-1.76-1.16l-.74-14.15a3.92,3.92,0,0,1,1.53-3.25L206.26,90C207.19,89.4,208,90,208,91.21Z"/>
        <path class="e20aa6f4-2d9d-4872-b108-58750f9fe577" d="M209.13,112.38l.74,14.07a4.06,4.06,0,0,1-1.52,3.33l-12.43,8c-.93.57-1.7.09-1.76-1.16l-.75-14.15a4,4,0,0,1,1.53-3.26l12.43-8.11C208.3,110.57,209.07,111.12,209.13,112.38Z"/>
        <path class="b6f7f7b8-0680-4195-b7a2-09b7a70eb3c0" d="M171.93,134.26l-12.46,8.09a4.06,4.06,0,0,0-1.5,3.29l.74,14.11c.07,1.23.85,1.76,1.74,1.18l12.45-8.09a4,4,0,0,0,1.51-3.29l-.74-14.11C173.6,134.21,172.82,133.68,171.93,134.26Z"/>
        <path class="e20aa6f4-2d9d-4872-b108-58750f9fe577" d="M191.16,143.89,178.71,152a4,4,0,0,0-1.5,3.28l.74,14.12c.06,1.23.84,1.76,1.74,1.17l12.45-8.09a4,4,0,0,0,1.51-3.28l-.75-14.12C192.84,143.83,192.06,143.31,191.16,143.89Z"/>
        <path class="bf908a05-8932-4eba-8bdd-8ea4b20c6636" d="M210.25,133.57l.74,14.07a4.09,4.09,0,0,1-1.53,3.33L197,159c-.93.57-1.69.09-1.76-1.16l-.74-14.15a4,4,0,0,1,1.53-3.26l12.42-8.11C209.41,131.76,210.18,132.31,210.25,133.57Z"/>
        <path class="a2d55660-8b8a-49bd-afcf-9e6447f44b40" d="M173,155.45l-12.45,8.09a4,4,0,0,0-1.51,3.29l.75,14.11c.06,1.24.84,1.76,1.74,1.18L174,174a4,4,0,0,0,1.5-3.28l-.74-14.12C174.72,155.4,173.94,154.87,173,155.45Z"/>
        <path class="bf7b5ad6-4b00-49b3-b6d2-4765b8dc9c50" d="M172.45,114.27l.74,14.08a4.14,4.14,0,0,1-1.45,3.32l-12.51,8.05c-.85.63-1.62.08-1.69-1.17l-.74-14.07a4.28,4.28,0,0,1,1.45-3.33l12.51-8C171.61,112.47,172.38,113,172.45,114.27Z"/>
        <path class="bf908a05-8932-4eba-8bdd-8ea4b20c6636" d="M171.09,93l.75,14.15a4,4,0,0,1-1.46,3.25l-12.5,8.12c-.86.56-1.63,0-1.69-1.17l-.74-14.14A4,4,0,0,1,156.9,100l12.5-8.12C170.26,91.26,171,91.82,171.09,93Z"/>
        <path class="a19d0556-4442-47c9-805c-1a20b3b6ca88" d="M155.48,147l.74,14.14a3.83,3.83,0,0,1-1.53,3.26l-12.28,8-.15.09a1,1,0,0,1-1.25,0,1.92,1.92,0,0,1-.51-1.16l-.74-14.14a3.83,3.83,0,0,1,1.53-3.26l12.43-8.12C154.65,145.28,155.41,145.76,155.48,147Z"/>
        <path class="bf908a05-8932-4eba-8bdd-8ea4b20c6636" d="M156.57,167.81l.74,14.15a3.83,3.83,0,0,1-1.52,3.26l-12.29,8-.14.08a1,1,0,0,1-1.26,0,2,2,0,0,1-.5-1.16L140.85,178a3.83,3.83,0,0,1,1.53-3.25l12.43-8.12C155.74,166.09,156.5,166.56,156.57,167.81Z"/>
        <path class="bf7b5ad6-4b00-49b3-b6d2-4765b8dc9c50" d="M152.61,124.58l-12.45,8.09a4,4,0,0,0-1.51,3.29l.75,14.11c.06,1.23.84,1.76,1.73,1.18l12.46-8.09a4,4,0,0,0,1.5-3.29l-.74-14.11C154.28,124.53,153.51,124,152.61,124.58Z"/>
        <path class="e20aa6f4-2d9d-4872-b108-58750f9fe577" d="M153.24,104.5l.74,14.14a3.92,3.92,0,0,1-1.52,3.26L140,130c-.93.56-1.7,0-1.76-1.17l-.75-14.14a3.85,3.85,0,0,1,1.53-3.26l12.43-8.12C152.41,102.77,153.17,103.25,153.24,104.5Z"/>
        <path class="a19d0556-4442-47c9-805c-1a20b3b6ca88" d="M137.28,158.46l.74,14.15a3.83,3.83,0,0,1-1.52,3.26l-12.29,8-.14.08a1,1,0,0,1-1.26,0,1.83,1.83,0,0,1-.5-1.15l-.75-14.15a3.86,3.86,0,0,1,1.53-3.26l12.43-8.11C136.45,156.73,137.21,157.21,137.28,158.46Z"/>
        <path class="bf7b5ad6-4b00-49b3-b6d2-4765b8dc9c50" d="M138.37,179.27l.75,14.15a3.83,3.83,0,0,1-1.53,3.25l-12.28,8-.15.08a1,1,0,0,1-1.25,0,1.9,1.9,0,0,1-.51-1.16l-.74-14.14a3.84,3.84,0,0,1,1.53-3.26l12.42-8.11C137.54,177.54,138.31,178,138.37,179.27Z"/>
        <path class="e20aa6f4-2d9d-4872-b108-58750f9fe577" d="M192.27,164.82l-12.46,8.09a4,4,0,0,0-1.5,3.29l.74,14.11c.07,1.23.84,1.76,1.74,1.18l12.45-8.09a4,4,0,0,0,1.51-3.29L194,166C193.94,164.77,193.16,164.24,192.27,164.82Z"/>
        <path class="bf7b5ad6-4b00-49b3-b6d2-4765b8dc9c50" d="M211.35,154.5l.74,14.07a4.07,4.07,0,0,1-1.52,3.33l-12.44,8c-.93.57-1.69.09-1.76-1.16l-.74-14.14a3.94,3.94,0,0,1,1.53-3.26l12.42-8.12C210.52,152.7,211.28,153.25,211.35,154.5Z"/>
        <path class="b6f7f7b8-0680-4195-b7a2-09b7a70eb3c0" d="M174.14,176.39l-12.45,8.09a4,4,0,0,0-1.5,3.28l.74,14.12c.06,1.23.84,1.76,1.74,1.18L175.12,195a4,4,0,0,0,1.5-3.29l-.74-14.11C175.82,176.33,175,175.81,174.14,176.39Z"/>
        <path class="a19d0556-4442-47c9-805c-1a20b3b6ca88" d="M157.67,188.75l.75,14.15a3.83,3.83,0,0,1-1.53,3.25l-12.29,8-.14.08a1,1,0,0,1-1.26,0,2,2,0,0,1-.5-1.16L142,199a3.83,3.83,0,0,1,1.52-3.26l12.43-8.11C156.84,187,157.61,187.5,157.67,188.75Z"/>
        <path class="b6f7f7b8-0680-4195-b7a2-09b7a70eb3c0" d="M139.48,200.21l.74,14.14a3.86,3.86,0,0,1-1.53,3.26l-12.28,8-.15.08a1,1,0,0,1-1.25,0,1.92,1.92,0,0,1-.51-1.16l-.74-14.15a3.81,3.81,0,0,1,1.53-3.25L137.71,199C138.65,198.48,139.41,199,139.48,200.21Z"/>
        <path class="e20aa6f4-2d9d-4872-b108-58750f9fe577" d="M134.41,136,122,144.13a4,4,0,0,0-1.5,3.28l.74,14.12c.06,1.23.84,1.76,1.74,1.17l12.45-8.09a4,4,0,0,0,1.51-3.28l-.75-14.11C136.09,136,135.31,135.46,134.41,136Z"/>
        <path class="bf7b5ad6-4b00-49b3-b6d2-4765b8dc9c50" d="M135,116l.75,14.15a4,4,0,0,1-1.53,3.26l-12.43,8.11c-.93.57-1.7,0-1.76-1.16l-.74-14.15a3.81,3.81,0,0,1,1.53-3.26l12.42-8.11C134.21,114.22,135,114.7,135,116Z"/>
      </g>
    </g>
  </g>
</svg>
