<svg xmlns="http://www.w3.org/2000/svg" xmlns:xlink="http://www.w3.org/1999/xlink" viewBox="0 0 130.37 127.45">
  <defs>
    <style>
      .a22e6e49-8cf6-4108-8a0d-213620519459 {
        mask: url(#beaf9dfc-2580-4eec-b0ee-4ae1e0848418);
      }

      .fa1434bb-aa77-40fa-8c2c-63ab85c50675 {
        fill: #232323;
      }

      .ab4c2885-548c-4dc2-a54a-aa3f3051120b {
        fill: #7c7c7c;
      }

      .f8922cb6-9b81-498a-84c0-73cf9755f3f4 {
        fill: #1d1d1d;
      }

      .a4b10234-c32a-479d-b98a-93dedeeda268 {
        fill: #181818;
      }

      .f596387e-f4ad-47a2-9cf5-58ed37b640dc {
        fill: #009a4d;
      }

      .f5161237-a6e7-455d-9463-9dac47df46f4 {
        fill: #b1b3b6;
      }

      .a8639bb8-25d1-4367-91a6-5d505dffc3b9 {
        fill: #ffc906;
      }

      .f35ae3eb-6a39-4c6f-9e16-1e25e2ad1dac {
        fill: #434da1;
      }

      .beba4fbd-e3cb-4842-90db-d1750f9a2748 {
        fill: #f26640;
      }

      .b11d002d-b601-4d9b-adc4-0da776a4b7ee {
        fill: #ee2d2f;
      }

      .adc36c01-05e5-48f1-8fb6-aab44dedde05 {
        fill: #2c2c2c;
      }
    </style>
    <mask id="beaf9dfc-2580-4eec-b0ee-4ae1e0848418" x="-4311.95" y="313.9" width="2152.71" height="1542.6" maskUnits="userSpaceOnUse"/>
  </defs>
  <title>-</title>
  <g id="b2ddf5d6-8848-4a23-bf0f-14ea0db2dcc4" data-name="Layer 10">
    <g>
      <path class="fa1434bb-aa77-40fa-8c2c-63ab85c50675" d="M126.62,50.74l-.39.08c3-.72,4.39,2.7,3.27,6.35l.28-.86a12.36,12.36,0,0,0-.89-9.63C129.65,48.44,129.25,50,126.62,50.74Z"/>
      <path d="M46,122.87v-.05c-1.18,3-3.3,3.27-5.31,1.86a12.5,12.5,0,0,0,3.67,2.19,12.34,12.34,0,0,0,4.77.55C46.75,127.36,45.21,125.93,46,122.87Z"/>
      <path class="ab4c2885-548c-4dc2-a54a-aa3f3051120b" d="M69.36,62.49a8.1,8.1,0,0,0-5.66,5.72c1.12-3.45.27-5.55-1.72-8.1C64.2,62.43,65.9,63.28,69.36,62.49Z"/>
      <path d="M26.15,11.56c-3.46,1-5.24,4.41-3,6.59-2.09-2.51-5.28-.41-6.53,3.22l.51-1.58a12.37,12.37,0,0,1,6.13-7.17A11.88,11.88,0,0,1,26.15,11.56Z"/>
      <path class="f8922cb6-9b81-498a-84c0-73cf9755f3f4" d="M128.89,46.68a13.65,13.65,0,0,0-1.66-2.44L90.93,4a8.08,8.08,0,0,0-1-.86c-.54-.48-1-.86-1.51-1.25a15.3,15.3,0,0,0-1.59-.74A8.38,8.38,0,0,0,85.7.63C85,.41,84.2.3,83.49.15a7.23,7.23,0,0,0-1-.11,11.86,11.86,0,0,0-3.19.19L36.63,9.31c-.07,0-.07,0-.09,0L29.1,10.92l-2.7.57-.09,0a.28.28,0,0,0-.16,0c-3.46,1-5.24,4.41-3,6.59l2.55,2.73L60.45,58.47,62,60.11c2.22,2.32,3.92,3.17,7.38,2.38l2.1-.38,54.64-11.3.14,0,.34-.12C129.26,50,129.68,48.46,128.89,46.68Zm-28.64-27.4,9.68,11.06c.74.77.29,1.69-.92,1.91l-13.8,3.31a4.12,4.12,0,0,1-3.43-1L82.1,23.55c-.67-.75-.31-1.62.92-1.91L96.8,18.4A3.89,3.89,0,0,1,100.25,19.28ZM88.66,36.72,75,39.69a3.88,3.88,0,0,1-3.45-.88L61.77,28c-.74-.78-.31-1.63.9-1.85l13.71-3a3.88,3.88,0,0,1,3.45.88l9.76,10.85C90.26,35.56,89.9,36.44,88.66,36.72ZM69.14,6.1l13.8-3.31a4.1,4.1,0,0,1,3.43,1L96.05,14.8c.68.75.32,1.63-.92,1.91L81.35,20a3.87,3.87,0,0,1-3.44-.89L68.22,8C67.48,7.24,67.93,6.32,69.14,6.1ZM48.8,10.58l13.71-3a4.08,4.08,0,0,1,3.42,1l9.78,10.79c.72.84.31,1.62-.86,1.93l-13.71,3a3.68,3.68,0,0,1-3.42-1L47.94,12.51C47.2,11.74,47.63,10.89,48.8,10.58ZM36.61,27.52,28.2,18.17l-1.34-1.5c-.74-.77-.31-1.63.9-1.84l4.6-1,9.11-2a3.85,3.85,0,0,1,3.45.89l9.75,10.85c.67.75.31,1.62-.92,1.91l-13.69,3A3.91,3.91,0,0,1,36.61,27.52ZM51.36,43,41.61,32.11c-.74-.78-.31-1.63.85-1.94l13.69-3a3.93,3.93,0,0,1,3.45.89l9.75,10.85c.74.77.31,1.63-.83,1.87l-13.71,3A3.88,3.88,0,0,1,51.36,43ZM82.48,55.84l-13.71,3a4.09,4.09,0,0,1-3.42-.95L55.57,47.14c-.72-.84-.31-1.63.93-1.91l13.71-3a3.65,3.65,0,0,1,3.42,1l9.78,10.79C84.08,54.68,83.72,55.55,82.48,55.84Zm20.19-4-13.7,3A3.88,3.88,0,0,1,85.52,54L75.76,43.15c-.67-.75-.31-1.63.93-1.91l13.68-3a3.88,3.88,0,0,1,3.45.88L103.57,50C104.32,50.78,103.89,51.63,102.67,51.85Zm20.36-4-13.78,3.25a3.91,3.91,0,0,1-3.45-.89L96.11,39.13c-.71-.84-.29-1.69.88-2l13.78-3.24a3.79,3.79,0,0,1,3.49,1l9.71,11C124.62,46.67,124.19,47.52,123,47.83Z"/>
      <path class="a4b10234-c32a-479d-b98a-93dedeeda268" d="M62,60.11l-1.53-1.64L25.73,20.88l-2.55-2.73c-2.09-2.51-5.28-.41-6.53,3.22L.52,71.26A13,13,0,0,0,0,76.06,12,12,0,0,0,.1,77.52c.1.42.35.8.45,1.22a11.13,11.13,0,0,0,.59,1.71,11.2,11.2,0,0,0,1,1.55A15.68,15.68,0,0,0,3,83.35l.23.22,31,34.33,5.11,5.61c.4.44.91.75,1.37,1.21,2,1.4,4.14,1.11,5.32-1.86L63.7,68.21C64.82,64.76,64,62.66,62,60.11ZM48.36,53.42c.38-1.17,1.3-1.41,2-.66l9.75,10.85a3.77,3.77,0,0,1,.63,3.48L56.43,80.34c-.36,1.1-1.23,1.43-2,.66L44.71,70.15a3.93,3.93,0,0,1-.63-3.48ZM41.91,73.36c.38-1.17,1.32-1.48,2-.66l9.78,10.78a3.9,3.9,0,0,1,.6,3.55L50,100.21c-.38,1.17-1.25,1.5-2,.66L38.26,90.09a4.26,4.26,0,0,1-.61-3.55ZM14.93,89c-.38,1.17-1.25,1.5-2,.66L3.19,78.83a3.88,3.88,0,0,1-.61-3.55L6.84,62.1c.38-1.17,1.25-1.5,2-.66l9.77,10.78a4,4,0,0,1,.61,3.55Zm6.42-19.87c-.36,1.1-1.22,1.43-2,.66L9.63,58.89A3.9,3.9,0,0,1,9,55.41l4.29-13.25c.38-1.18,1.22-1.44,2-.66L25,52.35a3.76,3.76,0,0,1,.62,3.48ZM27.8,49.13c-.38,1.18-1.25,1.51-2,.66L16.05,39a4,4,0,0,1-.6-3.55l4.26-13.18c.38-1.17,1.25-1.5,2-.66l1.69,1.85,8.08,8.94A3.9,3.9,0,0,1,32.06,36Zm1.37,55.4c-.38,1.17-1.22,1.43-1.89.68L17.45,94.34a3.91,3.91,0,0,1-.56-3.46l4.29-13.25c.35-1.1,1.22-1.43,1.89-.68L32.9,87.82a4,4,0,0,1,.56,3.46ZM35.73,84.7c-.37,1.17-1.31,1.48-2,.66L24,74.58a3.9,3.9,0,0,1-.6-3.55l4.26-13.18c.38-1.17,1.24-1.5,2-.66L39.39,68a4.22,4.22,0,0,1,.6,3.55Zm6.43-19.87c-.38,1.17-1.3,1.41-2,.66L30.44,54.64a3.77,3.77,0,0,1-.63-3.48l4.28-13.25c.36-1.11,1.23-1.43,2-.66L45.81,48.1a4.07,4.07,0,0,1,.63,3.48Zm-.57,56-.67-.75L31.84,110a3.93,3.93,0,0,1-.63-3.48l4.28-13.25c.36-1.1,1.3-1.41,2-.66l9.75,10.85a3.77,3.77,0,0,1,.63,3.48l-4.28,13.25c-.09.28-.28.37-.5.6A.89.89,0,0,1,41.59,120.81Z"/>
      <g>
        <path class="f596387e-f4ad-47a2-9cf5-58ed37b640dc" d="M102.67,51.85l-13.7,3A3.88,3.88,0,0,1,85.52,54L75.76,43.15c-.67-.75-.31-1.63.93-1.91l13.68-3a3.88,3.88,0,0,1,3.45.88L103.57,50C104.32,50.78,103.89,51.63,102.67,51.85Z"/>
        <path class="f5161237-a6e7-455d-9463-9dac47df46f4" d="M68.52,40.81l-13.71,3A3.88,3.88,0,0,1,51.36,43L41.61,32.11c-.74-.78-.31-1.63.85-1.94l13.69-3a3.93,3.93,0,0,1,3.45.89l9.75,10.85C70.09,39.71,69.66,40.57,68.52,40.81Z"/>
        <path class="f5161237-a6e7-455d-9463-9dac47df46f4" d="M88.66,36.72,75,39.69a3.88,3.88,0,0,1-3.45-.88L61.77,28c-.74-.78-.31-1.63.9-1.85l13.71-3a3.88,3.88,0,0,1,3.45.88l9.76,10.85C90.26,35.56,89.9,36.44,88.66,36.72Z"/>
        <path class="a8639bb8-25d1-4367-91a6-5d505dffc3b9" d="M109,32.25l-13.8,3.31a4.12,4.12,0,0,1-3.43-1L82.1,23.55c-.67-.75-.31-1.62.92-1.91L96.8,18.4a3.89,3.89,0,0,1,3.45.88l9.68,11.06C110.67,31.11,110.22,32,109,32.25Z"/>
        <path class="f596387e-f4ad-47a2-9cf5-58ed37b640dc" d="M82.48,55.84l-13.71,3a4.09,4.09,0,0,1-3.42-.95L55.57,47.14c-.72-.84-.31-1.63.93-1.91l13.71-3a3.65,3.65,0,0,1,3.42,1l9.78,10.79C84.08,54.68,83.72,55.55,82.48,55.84Z"/>
        <path class="f35ae3eb-6a39-4c6f-9e16-1e25e2ad1dac" d="M96.1,39.12l9.7,11a3.82,3.82,0,0,0,3.44.93L123,47.83c1.2-.29,1.61-1.16.91-1.95l-9.69-11a3.82,3.82,0,0,0-3.44-.93L97,37.16C95.81,37.45,95.4,38.32,96.1,39.12Z"/>
        <path class="beba4fbd-e3cb-4842-90db-d1750f9a2748" d="M53.75,25.44l-13.69,3a3.91,3.91,0,0,1-3.45-.89L28.2,18.17l-1.34-1.5c-.74-.77-.31-1.63.9-1.84l4.6-1,9.11-2a3.85,3.85,0,0,1,3.45.89l9.75,10.85C55.34,24.28,55,25.15,53.75,25.44Z"/>
        <path class="b11d002d-b601-4d9b-adc4-0da776a4b7ee" d="M74.85,21.21l-13.71,3a3.68,3.68,0,0,1-3.42-1L47.94,12.51c-.74-.77-.31-1.62.86-1.93l13.71-3a4.08,4.08,0,0,1,3.42,1l9.78,10.79C76.43,20.12,76,20.9,74.85,21.21Z"/>
        <path class="b11d002d-b601-4d9b-adc4-0da776a4b7ee" d="M95.13,16.71,81.35,20a3.87,3.87,0,0,1-3.44-.89L68.22,8c-.74-.77-.29-1.69.92-1.91l13.8-3.31a4.1,4.1,0,0,1,3.43,1L96.05,14.8C96.73,15.55,96.37,16.43,95.13,16.71Z"/>
      </g>
      <g>
        <path class="f35ae3eb-6a39-4c6f-9e16-1e25e2ad1dac" d="M8.81,61.41c-.7-.78-1.58-.47-1.95.68L2.59,75.31a3.91,3.91,0,0,0,.6,3.5L13,89.64c.7.78,1.58.48,1.95-.68l4.27-13.22a3.91,3.91,0,0,0-.6-3.5Z"/>
        <path class="f35ae3eb-6a39-4c6f-9e16-1e25e2ad1dac" d="M15.25,41.5c-.71-.78-1.58-.48-1.95.67L9,55.39a4,4,0,0,0,.6,3.5l9.79,10.84c.7.78,1.57.47,1.95-.68l4.27-13.22a4,4,0,0,0-.6-3.5Z"/>
        <path class="f596387e-f4ad-47a2-9cf5-58ed37b640dc" d="M32.08,35.93,27.81,49.14c-.37,1.15-1.28,1.47-1.95.68L16,39a4,4,0,0,1-.6-3.51l4.27-13.2c.37-1.15,1.29-1.48,1.95-.68l1.71,1.86,8.11,9A4,4,0,0,1,32.08,35.93Z"/>
        <path class="f35ae3eb-6a39-4c6f-9e16-1e25e2ad1dac" d="M23.1,77c-.7-.78-1.58-.48-2,.68L16.88,90.88a3.91,3.91,0,0,0,.6,3.5l9.78,10.83c.7.78,1.58.48,1.95-.68l4.27-13.22a3.91,3.91,0,0,0-.6-3.5Z"/>
        <path class="f596387e-f4ad-47a2-9cf5-58ed37b640dc" d="M29.59,57.16c-.71-.78-1.58-.48-1.95.68L23.36,71.06a4,4,0,0,0,.6,3.5l9.79,10.83c.7.78,1.57.48,2-.68L40,71.49a4,4,0,0,0-.6-3.5Z"/>
        <path class="f35ae3eb-6a39-4c6f-9e16-1e25e2ad1dac" d="M36,37.25c-.7-.77-1.58-.47-2,.68L29.8,51.15a3.9,3.9,0,0,0,.6,3.5l9.78,10.83c.7.78,1.58.48,2-.67L46.4,51.59a3.9,3.9,0,0,0-.6-3.5Z"/>
        <path class="beba4fbd-e3cb-4842-90db-d1750f9a2748" d="M47.84,106.9l-4.28,13.25c-.09.28-.28.37-.5.6a.89.89,0,0,1-1.47.06l-.67-.75L31.84,110a3.93,3.93,0,0,1-.63-3.48l4.28-13.25c.36-1.1,1.3-1.41,2-.66l9.75,10.85A3.77,3.77,0,0,1,47.84,106.9Z"/>
        <path class="b11d002d-b601-4d9b-adc4-0da776a4b7ee" d="M48.06,100.9c.7.78,1.57.47,1.94-.68L54.28,87a4,4,0,0,0-.6-3.5L43.9,72.67c-.71-.78-1.58-.48-1.95.68L37.67,86.57a4,4,0,0,0,.6,3.5Z"/>
        <path class="b11d002d-b601-4d9b-adc4-0da776a4b7ee" d="M60.71,67.09,56.43,80.34c-.36,1.1-1.23,1.43-2,.66L44.71,70.15a3.93,3.93,0,0,1-.63-3.48l4.28-13.25c.38-1.17,1.3-1.41,2-.66l9.75,10.85A3.77,3.77,0,0,1,60.71,67.09Z"/>
      </g>
      <path class="adc36c01-05e5-48f1-8fb6-aab44dedde05" d="M126.24,50.85,71.46,62.11l-2.1.38a8.1,8.1,0,0,0-5.66,5.72L46.06,122.79l0,.07c-.84,3.08.69,4.49,3.1,4.58a12.77,12.77,0,0,0,1.88-.16l7.43-1.55,24.49-5.27L104,116a9.62,9.62,0,0,0,1.62-.54c.53-.22,1.12-.4,1.58-.64a13.21,13.21,0,0,0,1.66-1.14l.89-.62c.36-.42.66-.86,1-1.21a14.44,14.44,0,0,0,2.42-4.17l1.22-3.79,15.17-46.69C130.62,53.56,129.31,50.09,126.24,50.85ZM87.63,64.44A3.89,3.89,0,0,1,90.11,62l14.33-3.07c1-.21,1.49.56,1.13,1.67l-4.28,13.25a3.88,3.88,0,0,1-2.48,2.47L84.49,79.35c-1,.21-1.5-.56-1.14-1.67Zm-19.85,53.4a3.77,3.77,0,0,1-2.55,2.46l-14.1,3.06-.16,0a1,1,0,0,1-1.15-.45,1.9,1.9,0,0,1-.06-1.24L54,108.45A3.77,3.77,0,0,1,56.59,106l14.26-3.09c1.05-.19,1.59.51,1.21,1.69ZM74.22,97.9a4,4,0,0,1-2.57,2.53l-14.23,3c-1.06.2-1.59-.51-1.21-1.68l4.28-13.25A3.86,3.86,0,0,1,63,86.06L77.3,83c1-.19,1.56.58,1.18,1.75ZM80.64,78a3.85,3.85,0,0,1-2.54,2.45L63.84,83.57c-1.05.2-1.57-.58-1.21-1.68l4.28-13.25a3.79,3.79,0,0,1,2.55-2.46L83.72,63.1c1-.2,1.59.51,1.21,1.68Zm.54,6.35a4.18,4.18,0,0,1,2.5-2.55l14.31-3c1-.29,1.52.49,1.14,1.66L94.87,93.68a4,4,0,0,1-2.5,2.54l-14.31,3c-1,.28-1.51-.49-1.14-1.66Zm7.33,29.19A3.9,3.9,0,0,1,86,116.05l-14.33,3.07c-1,.21-1.52-.5-1.14-1.67l4.28-13.25a4,4,0,0,1,2.48-2.47l14.33-3.07c1-.21,1.49.56,1.14,1.66Zm20.74-4.27a4,4,0,0,1-2.57,2.53l-14.23,3c-1.08.27-1.59-.51-1.21-1.68L95.5,100a3.89,3.89,0,0,1,2.57-2.52l14.23-3c1.08-.26,1.59.51,1.21,1.68Zm6.43-19.87a3.89,3.89,0,0,1-2.55,2.45L98.87,95c-1.05.2-1.56-.58-1.21-1.68L101.94,80a3.79,3.79,0,0,1,2.55-2.46l14.26-3.08c1-.2,1.59.51,1.21,1.68Zm6.44-19.94A4,4,0,0,1,119.55,72l-14.23,3c-1.06.19-1.59-.51-1.21-1.69l4.28-13.24a3.88,3.88,0,0,1,2.55-2.46l14.26-3.09c1-.19,1.56.59,1.18,1.76Z"/>
      <g>
        <path class="f35ae3eb-6a39-4c6f-9e16-1e25e2ad1dac" d="M112.33,94.41,98.06,97.47A3.91,3.91,0,0,0,95.53,100l-4.28,13.22c-.37,1.15.16,1.91,1.19,1.69l14.27-3.06a4,4,0,0,0,2.54-2.49l4.27-13.22C113.89,95,113.36,94.19,112.33,94.41Z"/>
        <path class="beba4fbd-e3cb-4842-90db-d1750f9a2748" d="M120,76.18l-4.28,13.25a3.89,3.89,0,0,1-2.55,2.45L98.87,95c-1.05.2-1.56-.58-1.21-1.68L101.94,80a3.79,3.79,0,0,1,2.55-2.46l14.26-3.08C119.8,74.3,120.34,75,120,76.18Z"/>
        <path class="f5161237-a6e7-455d-9463-9dac47df46f4" d="M126.38,56.31l-4.26,13.18A4,4,0,0,1,119.55,72l-14.23,3c-1.06.19-1.59-.51-1.21-1.69l4.28-13.24a3.88,3.88,0,0,1,2.55-2.46l14.26-3.09C126.25,54.36,126.76,55.14,126.38,56.31Z"/>
        <path class="f5161237-a6e7-455d-9463-9dac47df46f4" d="M91.64,98.67l-14.28,3.06a3.94,3.94,0,0,0-2.53,2.48l-4.27,13.22c-.38,1.16.15,1.91,1.18,1.69L86,116.07a4,4,0,0,0,2.54-2.49l4.27-13.22C93.19,99.21,92.66,98.45,91.64,98.67Z"/>
        <path class="b11d002d-b601-4d9b-adc4-0da776a4b7ee" d="M99.13,80.5,94.87,93.68a4,4,0,0,1-2.5,2.54l-14.31,3c-1,.28-1.51-.49-1.14-1.66l4.26-13.18a4.18,4.18,0,0,1,2.5-2.55l14.31-3C99,78.55,99.51,79.33,99.13,80.5Z"/>
        <path class="a8639bb8-25d1-4367-91a6-5d505dffc3b9" d="M105.57,60.56l-4.28,13.25a3.88,3.88,0,0,1-2.48,2.47L84.49,79.35c-1,.21-1.5-.56-1.14-1.67l4.28-13.24A3.89,3.89,0,0,1,90.11,62l14.33-3.07C105.42,58.68,105.93,59.45,105.57,60.56Z"/>
        <path class="f35ae3eb-6a39-4c6f-9e16-1e25e2ad1dac" d="M72.06,104.6l-4.28,13.24a3.77,3.77,0,0,1-2.55,2.46l-14.1,3.06-.16,0a1,1,0,0,1-1.15-.45,1.9,1.9,0,0,1-.06-1.24L54,108.45A3.77,3.77,0,0,1,56.59,106l14.26-3.09C71.9,102.72,72.44,103.42,72.06,104.6Z"/>
        <path class="f5161237-a6e7-455d-9463-9dac47df46f4" d="M77.3,83,63,86.06a3.93,3.93,0,0,0-2.54,2.49l-4.27,13.22c-.38,1.15.15,1.91,1.18,1.69l14.27-3.06a3.93,3.93,0,0,0,2.54-2.49l4.27-13.22C78.85,83.54,78.33,82.78,77.3,83Z"/>
        <path class="f5161237-a6e7-455d-9463-9dac47df46f4" d="M84.93,64.78,80.64,78a3.85,3.85,0,0,1-2.54,2.45L63.84,83.57c-1.05.2-1.57-.58-1.21-1.68l4.28-13.25a3.79,3.79,0,0,1,2.55-2.46L83.72,63.1C84.77,62.9,85.31,63.61,84.93,64.78Z"/>
      </g>
    </g>
  </g>
</svg>
