<svg xmlns="http://www.w3.org/2000/svg" xmlns:xlink="http://www.w3.org/1999/xlink" viewBox="0 0 126.29 131.14">
  <defs>
    <style>
      .a53a4423-92cd-4711-b745-ddb36c0c7968 {
        mask: url(#f5ca4d34-8637-4b99-949e-0f48b5bbbf2a);
      }

      .bbf200a2-20b3-4c3b-b7b9-d8f5d3e254de {
        fill: #232323;
      }

      .a5fda668-6be4-4ab9-8a99-4d305e44f768 {
        fill: #7c7c7c;
      }

      .acc1f020-f530-43d9-9063-a8fe7003c22e {
        fill: #1d1d1d;
      }

      .b424d6a7-2bd9-4f03-8868-da8d5b539c35 {
        fill: #181818;
      }

      .aacc4f27-64b3-45c4-bdd6-77b97543ec33 {
        fill: #ffc906;
      }

      .bc93a67d-149d-4044-92c3-b89c3a052dee {
        fill: #ee2d2f;
      }

      .a4836ce9-2fcf-41eb-97c9-94bba9a6ae19 {
        fill: #a6a6a6;
      }

      .fa7fc3e6-11a0-4adc-881e-1675ae6f342d {
        fill: #434da1;
      }

      .b8a40bb9-cf27-4e6a-bb84-74b10ac2be20 {
        fill: #f26640;
      }

      .b385f8b5-9489-4de4-a024-51f0497b027b {
        fill: #009a4d;
      }

      .bc2ba588-be97-4999-9325-6088e111cee1 {
        fill: #2c2c2c;
      }

      .a758e5d7-4e1d-4bf8-b45e-05fb5f3b4382 {
        fill: #b1b3b6;
      }
    </style>
    <mask id="f5ca4d34-8637-4b99-949e-0f48b5bbbf2a" x="-4467.32" y="1127.31" width="2152.71" height="1542.6" maskUnits="userSpaceOnUse"/>
  </defs>
  <title>-</title>
  <g id="bb0eeea4-6a13-45e0-9609-7cb1f4635b36" data-name="Layer 10">
    <g>
      <path class="bbf200a2-20b3-4c3b-b7b9-d8f5d3e254de" d="M111.37,25.23l-.3.25c2.35-2.06,5.14.33,5.86,4.07l-.15-.88a12.4,12.4,0,0,0-5.31-8.09C113,21.77,113.35,23.36,111.37,25.23Z"/>
      <path d="M74,126.75v0c.36,3.19-1.38,4.44-3.82,4.13a12.35,12.35,0,0,0,4.28.21,12.58,12.58,0,0,0,4.47-1.74C76.77,130.37,74.75,129.82,74,126.75Z"/>
      <path class="a5fda668-6be4-4ab9-8a99-4d305e44f768" d="M66.31,62.47A8.1,8.1,0,0,0,64,70.17c-.63-3.57-2.37-5-5.32-6.35C61.73,64.83,63.63,64.79,66.31,62.47Z"/>
      <path d="M4.26,37.76C1.69,40.28,1.71,44.1,4.73,45c-3-1.24-4.85,2.11-4.25,5.91L.19,49.23A12.32,12.32,0,0,1,2.24,40,11.85,11.85,0,0,1,4.26,37.76Z"/>
      <path class="acc1f020-f530-43d9-9063-a8fe7003c22e" d="M111.47,20.58a14.35,14.35,0,0,0-2.6-1.38L57.93.69a8.9,8.9,0,0,0-1.3-.28c-.69-.17-1.3-.29-1.91-.4A14.44,14.44,0,0,0,53,.1a7.83,7.83,0,0,0-1.24.07C51,.3,50.25.58,49.55.78a5.87,5.87,0,0,0-1,.39,11.67,11.67,0,0,0-2.73,1.66l-33.4,28c-.07,0-.07,0-.05.09L6.57,35.8,4.45,37.58l-.06.08c-.07,0-.13.1-.13.1C1.69,40.28,1.71,44.1,4.73,45l3.53,1.21L56.56,63.1l2.12.72c3,1,5,1,7.63-1.35L68,61.14l43-35.61.14,0,.25-.27C113.36,23.34,113,21.78,111.47,20.58ZM73.32,9.82,87.06,15c1,.33,1.06,1.36.09,2.12l-10.64,9.4a4.05,4.05,0,0,1-3.47.76L59.3,22.1c-.95-.35-1-1.29-.08-2.12l10.64-9.33A3.86,3.86,0,0,1,73.32,9.82Zm-2,20.84-10.7,9a3.86,3.86,0,0,1-3.46.83l-13.7-5c-1-.34-1-1.29-.07-2.05L54,24.36a3.86,3.86,0,0,1,3.46-.83l13.7,5C72.14,28.88,72.23,29.82,71.28,30.66ZM39.67,12.77l10.64-9.4a4.05,4.05,0,0,1,3.47-.76L67.52,7.83c1,.35,1,1.29.08,2.12L57,19.28a3.86,3.86,0,0,1-3.46.83L39.76,14.89C38.74,14.56,38.7,13.53,39.67,12.77ZM23.8,26.26l10.69-9.11A4.09,4.09,0,0,1,38,16.39l13.69,4.93c1,.41,1,1.29.15,2.11L41.12,32.54a3.64,3.64,0,0,1-3.47.77L24,28.37C22.94,28,22.92,27.08,23.8,26.26ZM21,46.94,9.18,42.63l-1.89-.69c-1-.34-1-1.29-.07-2l3.58-3.07,7.1-6.05a3.86,3.86,0,0,1,3.46-.83l13.71,5c.94.35,1,1.29.08,2.13l-10.7,9A3.89,3.89,0,0,1,21,46.94Zm20.27,6.72-13.71-5c-1-.33-1-1.29-.15-2.11l10.7-9a3.88,3.88,0,0,1,3.46-.83l13.7,5c1,.34,1,1.29.14,2L44.72,52.82A3.87,3.87,0,0,1,41.26,53.66Zm33.52-3.23L64.1,59.55a4.06,4.06,0,0,1-3.47.76L46.94,55.38c-1-.41-1-1.29-.08-2.13l10.68-9.11A3.64,3.64,0,0,1,61,43.38L74.7,48.31C75.65,48.66,75.74,49.6,74.78,50.43Zm16-13L80.06,46.55a3.89,3.89,0,0,1-3.46.84l-13.7-5c-.95-.35-1-1.29-.08-2.12l10.69-9A3.9,3.9,0,0,1,77,30.38l13.71,5C91.69,35.72,91.71,36.68,90.74,37.44Zm16.09-13.09L96.19,33.67a3.87,3.87,0,0,1-3.46.84L79,29.29c-1-.41-1-1.36-.17-2.18l10.65-9.33A3.82,3.82,0,0,1,93,17l13.73,5.15C107.7,22.57,107.72,23.53,106.83,24.35Z"/>
      <path class="b424d6a7-2bd9-4f03-8868-da8d5b539c35" d="M58.68,63.82l-2.12-.72L8.26,46.18,4.73,45c-3-1.24-4.85,2.11-4.25,5.91L9.64,102.5A12.76,12.76,0,0,0,11.46,107a10.22,10.22,0,0,0,.74,1.27c.28.32.69.54,1,.86a10.34,10.34,0,0,0,1.33,1.24,11.63,11.63,0,0,0,1.63.89,15.09,15.09,0,0,0,1.39.78l.31.1,43.46,15.78,7.15,2.56c.55.2,1.15.24,1.77.42,2.41.31,4.18-1,3.83-4.14L64,70.17C63.37,66.6,61.63,65.14,58.68,63.82Zm-15.17.48c-.21-1.21.49-1.85,1.43-1.5l13.7,5a3.73,3.73,0,0,1,2.19,2.78L63.26,84.3c.21,1.14-.41,1.84-1.42,1.5l-13.71-5A3.94,3.94,0,0,1,46,78Zm3.67,20.64c-.22-1.21.46-1.92,1.42-1.51l13.69,4.94a3.9,3.9,0,0,1,2.2,2.85l2.42,13.64c.22,1.21-.39,1.91-1.42,1.5L51.8,101.43a4.21,4.21,0,0,1-2.2-2.85ZM30.65,111.37c.22,1.21-.39,1.91-1.42,1.5l-13.69-4.93a3.9,3.9,0,0,1-2.2-2.86L10.92,91.45c-.22-1.22.39-1.91,1.42-1.51L26,94.88a4,4,0,0,1,2.2,2.85ZM27,90.8c.21,1.14-.41,1.84-1.42,1.51l-13.71-5a3.89,3.89,0,0,1-2.18-2.78L7.26,70.81C7,69.6,7.67,69,8.68,69.31l13.71,5a3.78,3.78,0,0,1,2.18,2.78ZM23.34,70.17c.22,1.21-.39,1.91-1.42,1.5L8.23,66.74A4,4,0,0,1,6,63.89L3.61,50.25C3.39,49,4,48.34,5,48.74l2.36.84,11.33,4.1a3.88,3.88,0,0,1,2.2,2.85Zm27.2,48.27c.22,1.22-.41,1.84-1.35,1.5l-13.78-5a3.9,3.9,0,0,1-2.11-2.79L30.86,98.44c-.2-1.14.41-1.84,1.36-1.49l13.77,5a4,4,0,0,1,2.12,2.79ZM47,97.85c.21,1.22-.47,1.93-1.43,1.51L31.92,94.42a3.86,3.86,0,0,1-2.2-2.85L27.3,77.93c-.22-1.21.4-1.91,1.43-1.5l13.69,4.94a4.2,4.2,0,0,1,2.2,2.85ZM43.39,77.29c.21,1.21-.48,1.85-1.43,1.5l-13.7-5A3.79,3.79,0,0,1,26.07,71L23.64,57.3c-.2-1.14.41-1.84,1.43-1.51l13.7,5A4.12,4.12,0,0,1,41,63.58ZM69.15,127l-1-.35L55.44,122a3.94,3.94,0,0,1-2.18-2.78L50.82,105.5c-.2-1.14.49-1.85,1.43-1.5L66,109a3.74,3.74,0,0,1,2.19,2.77l2.43,13.71a1.47,1.47,0,0,1-.16.77A.88.88,0,0,1,69.15,127Z"/>
      <g>
        <path class="aacc4f27-64b3-45c4-bdd6-77b97543ec33" d="M90.74,37.44,80.06,46.55a3.89,3.89,0,0,1-3.46.84l-13.7-5c-.95-.35-1-1.29-.08-2.12l10.69-9A3.9,3.9,0,0,1,77,30.38l13.71,5C91.69,35.72,91.71,36.68,90.74,37.44Z"/>
        <path class="bc93a67d-149d-4044-92c3-b89c3a052dee" d="M55.4,43.71,44.72,52.82a3.87,3.87,0,0,1-3.46.84l-13.71-5c-1-.33-1-1.29-.15-2.11l10.7-9a3.88,3.88,0,0,1,3.46-.83l13.7,5C56.28,42,56.3,43,55.4,43.71Z"/>
        <path class="a4836ce9-2fcf-41eb-97c9-94bba9a6ae19" d="M71.28,30.66l-10.7,9a3.86,3.86,0,0,1-3.46.83l-13.7-5c-1-.34-1-1.29-.07-2.05L54,24.36a3.86,3.86,0,0,1,3.46-.83l13.7,5C72.14,28.88,72.23,29.82,71.28,30.66Z"/>
        <path class="fa7fc3e6-11a0-4adc-881e-1675ae6f342d" d="M87.15,17.16l-10.64,9.4a4.05,4.05,0,0,1-3.47.76L59.3,22.1c-.95-.35-1-1.29-.08-2.12l10.64-9.33a3.86,3.86,0,0,1,3.46-.83L87.06,15C88.08,15.37,88.12,16.4,87.15,17.16Z"/>
        <path class="fa7fc3e6-11a0-4adc-881e-1675ae6f342d" d="M74.78,50.43,64.1,59.55a4.06,4.06,0,0,1-3.47.76L46.94,55.38c-1-.41-1-1.29-.08-2.13l10.68-9.11A3.64,3.64,0,0,1,61,43.38L74.7,48.31C75.65,48.66,75.74,49.6,74.78,50.43Z"/>
        <path class="aacc4f27-64b3-45c4-bdd6-77b97543ec33" d="M79,29.28l13.74,5.2a3.82,3.82,0,0,0,3.47-.8l10.65-9.33c.93-.82.88-1.78-.11-2.16L93,17a3.87,3.87,0,0,0-3.48.8L78.86,27.13C77.93,27.94,78,28.91,79,29.28Z"/>
        <path class="b8a40bb9-cf27-4e6a-bb84-74b10ac2be20" d="M35.15,37.07l-10.7,9a3.89,3.89,0,0,1-3.46.83L9.18,42.63l-1.89-.69c-1-.34-1-1.29-.07-2l3.58-3.07,7.1-6.05a3.86,3.86,0,0,1,3.46-.83l13.71,5C36,35.29,36.1,36.23,35.15,37.07Z"/>
        <path class="fa7fc3e6-11a0-4adc-881e-1675ae6f342d" d="M51.8,23.43,41.12,32.54a3.64,3.64,0,0,1-3.47.77L24,28.37c-1-.33-1-1.29-.16-2.11l10.69-9.11A4.09,4.09,0,0,1,38,16.39l13.69,4.93C52.68,21.73,52.69,22.61,51.8,23.43Z"/>
        <path class="b385f8b5-9489-4de4-a024-51f0497b027b" d="M67.6,10,57,19.28a3.86,3.86,0,0,1-3.46.83L39.76,14.89c-1-.33-1.06-1.36-.09-2.12l10.64-9.4a4.05,4.05,0,0,1,3.47-.76L67.52,7.83C68.47,8.18,68.56,9.12,67.6,10Z"/>
      </g>
      <g>
        <path class="b8a40bb9-cf27-4e6a-bb84-74b10ac2be20" d="M12.33,89.92c-1-.36-1.61.32-1.4,1.51l2.43,13.68a3.94,3.94,0,0,0,2.17,2.81l13.72,5c1,.35,1.62-.32,1.4-1.52L28.23,97.7a4,4,0,0,0-2.17-2.81Z"/>
        <path class="b8a40bb9-cf27-4e6a-bb84-74b10ac2be20" d="M8.68,69.31c-1-.36-1.62.32-1.41,1.51L9.7,84.5a3.94,3.94,0,0,0,2.17,2.81l13.72,5c1,.36,1.62-.32,1.41-1.51L24.57,77.1a3.9,3.9,0,0,0-2.17-2.81Z"/>
        <path class="a4836ce9-2fcf-41eb-97c9-94bba9a6ae19" d="M20.93,56.5l2.43,13.67c.21,1.19-.45,1.9-1.41,1.51l-13.75-5A4,4,0,0,1,6,63.91L3.6,50.24c-.21-1.19.45-1.9,1.41-1.52l2.38.85,11.37,4.12A4,4,0,0,1,20.93,56.5Z"/>
        <path class="a4836ce9-2fcf-41eb-97c9-94bba9a6ae19" d="M32.26,97c-1-.36-1.62.32-1.41,1.52l2.43,13.67A3.9,3.9,0,0,0,35.45,115l13.72,5c1,.36,1.62-.32,1.41-1.51l-2.43-13.68A3.94,3.94,0,0,0,46,101.94Z"/>
        <path class="b385f8b5-9489-4de4-a024-51f0497b027b" d="M28.69,76.42c-1-.36-1.62.31-1.41,1.51l2.43,13.68a4,4,0,0,0,2.17,2.81l13.72,5c1,.35,1.62-.32,1.41-1.52L44.58,84.2a3.94,3.94,0,0,0-2.17-2.81Z"/>
        <path class="fa7fc3e6-11a0-4adc-881e-1675ae6f342d" d="M25,55.82c-1-.36-1.61.32-1.4,1.51L26.06,71a3.94,3.94,0,0,0,2.17,2.81L42,78.8c1,.36,1.62-.32,1.4-1.52L40.93,63.61a4,4,0,0,0-2.17-2.82Z"/>
        <path class="aacc4f27-64b3-45c4-bdd6-77b97543ec33" d="M68.14,111.78l2.43,13.71a1.47,1.47,0,0,1-.16.77.88.88,0,0,1-1.26.74l-1-.35L55.44,122a3.94,3.94,0,0,1-2.18-2.78L50.82,105.5c-.2-1.14.49-1.85,1.43-1.5L66,109A3.74,3.74,0,0,1,68.14,111.78Z"/>
        <path class="aacc4f27-64b3-45c4-bdd6-77b97543ec33" d="M65.52,106.38c1,.36,1.61-.32,1.4-1.51L64.49,91.19a3.9,3.9,0,0,0-2.17-2.81l-13.72-5c-1-.36-1.62.32-1.4,1.51l2.42,13.68a4,4,0,0,0,2.17,2.81Z"/>
        <path class="a4836ce9-2fcf-41eb-97c9-94bba9a6ae19" d="M60.83,70.59,63.26,84.3c.21,1.14-.41,1.84-1.42,1.5l-13.71-5A3.94,3.94,0,0,1,46,78L43.51,64.3c-.21-1.21.49-1.85,1.43-1.5l13.7,5A3.73,3.73,0,0,1,60.83,70.59Z"/>
      </g>
      <path class="bc2ba588-be97-4999-9325-6088e111cee1" d="M111.09,25.51,68,61.14l-1.68,1.33A8.1,8.1,0,0,0,64,70.17l10,56.48v.07c.7,3.12,2.71,3.65,4.88,2.6a13.13,13.13,0,0,0,1.59-1l5.84-4.87,19.16-16.14L122,93.47a9.85,9.85,0,0,0,1.18-1.24c.36-.43.8-.88,1.1-1.3a15.12,15.12,0,0,0,.93-1.79c.16-.32.33-.64.49-1,.13-.53.18-1.06.32-1.53a14.3,14.3,0,0,0,.17-4.81l-.69-3.93L117,29.55C116.23,25.85,113.44,23.4,111.09,25.51ZM83.36,55.61a3.89,3.89,0,0,1,1-3.34l11.22-9.43c.76-.65,1.58-.21,1.78.93l2.43,13.71a3.88,3.88,0,0,1-1,3.35L87.58,70.26c-.77.65-1.58.21-1.78-.94Zm7.52,56.49a3.76,3.76,0,0,1-1.1,3.36l-11,9.32-.13.09a1,1,0,0,1-1.23.15,1.92,1.92,0,0,1-.63-1.07l-2.43-13.71a3.75,3.75,0,0,1,1.1-3.36l11.14-9.42c.84-.66,1.64-.29,1.86.93ZM87.22,91.46a4,4,0,0,1-1.09,3.43L75,104.24c-.84.66-1.64.29-1.86-.92L70.69,89.61a3.86,3.86,0,0,1,1.1-3.37l11.14-9.41c.84-.67,1.65-.22,1.87,1ZM83.57,70.9a3.88,3.88,0,0,1-1.1,3.36L71.33,83.67c-.84.67-1.66.22-1.86-.92L67,69a3.76,3.76,0,0,1,1.1-3.36l11.14-9.41c.84-.67,1.64-.3,1.86.92ZM87,76.25a4.16,4.16,0,0,1,1-3.42l11.23-9.36c.75-.72,1.57-.28,1.78.94L103.47,78a4,4,0,0,1-1,3.43L91.23,90.82c-.75.73-1.57.28-1.79-.93ZM107.19,98.6a3.89,3.89,0,0,1-1,3.34L95,111.37c-.77.66-1.57.28-1.79-.93L90.73,96.73a4,4,0,0,1,1-3.35L103,84c.77-.65,1.59-.21,1.79.94ZM123.5,85.1a4,4,0,0,1-1.08,3.43l-11.16,9.34c-.82.74-1.64.3-1.86-.92L107,83.31a3.89,3.89,0,0,1,1.08-3.43l11.16-9.34c.82-.74,1.64-.3,1.85.92Zm-3.64-20.57a3.87,3.87,0,0,1-1.1,3.36l-11.15,9.42c-.84.66-1.65.22-1.85-.92l-2.44-13.71a3.77,3.77,0,0,1,1.1-3.36l11.15-9.42c.84-.66,1.64-.29,1.85.92ZM116.19,43.9a4,4,0,0,1-1.08,3.43L104,56.68c-.84.66-1.64.29-1.85-.93L99.66,42a3.88,3.88,0,0,1,1.1-3.36l11.14-9.41c.84-.67,1.66-.22,1.88,1Z"/>
      <g>
        <path class="a758e5d7-4e1d-4bf8-b45e-05fb5f3b4382" d="M119.24,70.5l-11.17,9.39A4,4,0,0,0,107,83.28L109.43,97c.21,1.19,1,1.61,1.83.94l11.18-9.4a4,4,0,0,0,1.07-3.38l-2.43-13.68C120.87,70.24,120.05,69.82,119.24,70.5Z"/>
        <path class="aacc4f27-64b3-45c4-bdd6-77b97543ec33" d="M117.42,50.82l2.44,13.71a3.87,3.87,0,0,1-1.1,3.36l-11.15,9.42c-.84.66-1.65.22-1.85-.92l-2.44-13.71a3.77,3.77,0,0,1,1.1-3.36l11.15-9.42C116.41,49.24,117.21,49.61,117.42,50.82Z"/>
        <path class="fa7fc3e6-11a0-4adc-881e-1675ae6f342d" d="M113.78,30.26l2.41,13.64a4,4,0,0,1-1.08,3.43L104,56.68c-.84.66-1.64.29-1.85-.93L99.66,42a3.88,3.88,0,0,1,1.1-3.36l11.14-9.41C112.74,28.6,113.56,29.05,113.78,30.26Z"/>
        <path class="b385f8b5-9489-4de4-a024-51f0497b027b" d="M103,84,91.79,93.36a3.92,3.92,0,0,0-1.07,3.39l2.42,13.68c.21,1.19,1,1.61,1.84.94l11.17-9.4a3.89,3.89,0,0,0,1.07-3.38L104.8,84.91C104.59,83.71,103.76,83.29,103,84Z"/>
        <path class="bc93a67d-149d-4044-92c3-b89c3a052dee" d="M101.05,64.41,103.47,78a4,4,0,0,1-1,3.43L91.23,90.82c-.75.73-1.57.28-1.79-.93L87,76.25a4.16,4.16,0,0,1,1-3.42l11.23-9.36C100,62.75,100.84,63.19,101.05,64.41Z"/>
        <path class="bc93a67d-149d-4044-92c3-b89c3a052dee" d="M97.39,43.77l2.43,13.71a3.88,3.88,0,0,1-1,3.35L87.58,70.26c-.77.65-1.58.21-1.78-.94L83.36,55.61a3.89,3.89,0,0,1,1-3.34l11.22-9.43C96.37,42.19,97.19,42.63,97.39,43.77Z"/>
        <path class="b385f8b5-9489-4de4-a024-51f0497b027b" d="M88.45,98.39l2.43,13.71a3.76,3.76,0,0,1-1.1,3.36l-11,9.32-.13.09a1,1,0,0,1-1.23.15,1.92,1.92,0,0,1-.63-1.07l-2.43-13.71a3.75,3.75,0,0,1,1.1-3.36l11.14-9.42C87.43,96.8,88.23,97.17,88.45,98.39Z"/>
        <path class="b385f8b5-9489-4de4-a024-51f0497b027b" d="M83,76.86,71.78,86.25a3.94,3.94,0,0,0-1.08,3.39l2.43,13.68c.21,1.19,1,1.61,1.84.93l11.17-9.39a3.94,3.94,0,0,0,1.07-3.39L84.79,77.8C84.57,76.6,83.75,76.18,83,76.86Z"/>
        <path class="bc93a67d-149d-4044-92c3-b89c3a052dee" d="M81.14,57.19,83.57,70.9a3.88,3.88,0,0,1-1.1,3.36L71.33,83.67c-.84.67-1.66.22-1.86-.92L67,69a3.76,3.76,0,0,1,1.1-3.36l11.14-9.41C80.12,55.6,80.92,56,81.14,57.19Z"/>
      </g>
    </g>
  </g>
</svg>
