<svg xmlns="http://www.w3.org/2000/svg" xmlns:xlink="http://www.w3.org/1999/xlink" viewBox="0 0 95 95"><defs><style>.cls-1{mask:url(#mask);}.cls-2{fill:#151723;}.cls-3{fill:#24283a;}</style><mask id="mask" x="-2365.43" y="-1126.26" width="2152.71" height="1542.6" maskUnits="userSpaceOnUse"/></defs><title>Website Illustrations</title><g id="Export"><rect class="cls-2" width="95" height="95"/><path class="cls-3" d="M88.19,47.5H69.53q-21.27,0-22-18.59c0-1.27-.07-3-.07-5.16s0-3.91.07-5.23q.28-9,6-13.74T69.74,0H88.19a1.69,1.69,0,0,1,1.27.51A1.78,1.78,0,0,1,90,1.77V19.41h3.22a1.89,1.89,0,0,1,1.3.47A1.59,1.59,0,0,1,95,21.1v5a1.58,1.58,0,0,1-.53,1.22,1.84,1.84,0,0,1-1.3.47H90v18A1.6,1.6,0,0,1,89.42,47,1.71,1.71,0,0,1,88.19,47.5ZM76.75,37.32V27.75h-6.1a1.67,1.67,0,0,1-1.26-.51,1.63,1.63,0,0,1-.5-1.18v-5a1.64,1.64,0,0,1,.5-1.22,1.75,1.75,0,0,1,1.26-.47h6.1V10.18H69.81q-4.35,0-6.53,2.07T61,18.66c-.1,1.27-.14,2.94-.14,5s0,3.78.14,5.09q.14,4.49,2.24,6.52t6.53,2Z"/><path class="cls-3" d="M40.7,47.5H22Q.77,47.5.07,28.91c0-1.27-.07-3-.07-5.16s0-3.91.07-5.23q.29-9,6-13.74T22.25,0H40.7A1.65,1.65,0,0,1,42,.51a1.74,1.74,0,0,1,.5,1.26V19.41h3.22a1.89,1.89,0,0,1,1.3.47,1.59,1.59,0,0,1,.53,1.22v5A1.58,1.58,0,0,1,47,27.28a1.84,1.84,0,0,1-1.3.47H42.46v18A1.6,1.6,0,0,1,41.93,47,1.71,1.71,0,0,1,40.7,47.5ZM29.26,37.32V27.75h-6.1a1.69,1.69,0,0,1-1.27-.51,1.66,1.66,0,0,1-.49-1.18v-5a1.67,1.67,0,0,1,.49-1.22,1.78,1.78,0,0,1,1.27-.47h6.1V10.18H22.32q-4.35,0-6.53,2.07t-2.32,6.41c-.09,1.27-.14,2.94-.14,5s.05,3.78.14,5.09q.15,4.49,2.25,6.52t6.53,2Z"/><path class="cls-3" d="M6.81,47.5H25.47q21.27,0,22,18.59c0,1.27.07,3,.07,5.16s0,3.91-.07,5.23q-.28,9-6,13.74T25.26,95H6.81a1.69,1.69,0,0,1-1.27-.51,1.78,1.78,0,0,1-.49-1.26V75.59H1.83a1.89,1.89,0,0,1-1.3-.47A1.59,1.59,0,0,1,0,73.9v-5a1.58,1.58,0,0,1,.53-1.22,1.84,1.84,0,0,1,1.3-.47H5.05v-18A1.6,1.6,0,0,1,5.58,48,1.71,1.71,0,0,1,6.81,47.5ZM19.23,57.68v9.57h6.1a1.69,1.69,0,0,1,1.27.51,1.66,1.66,0,0,1,.49,1.18v5a1.67,1.67,0,0,1-.49,1.22,1.78,1.78,0,0,1-1.27.47h-6.1v9.23h6.94q4.35,0,6.53-2.07T35,76.34c.09-1.27.14-2.94.14-5s0-3.78-.14-5.09q-.15-4.48-2.25-6.52t-6.53-2Z"/><path class="cls-3" d="M54.3,47.5H73q21.25,0,22,18.59c0,1.27.07,3,.07,5.16s0,3.91-.07,5.23q-.29,9-6,13.74T72.75,95H54.3A1.65,1.65,0,0,1,53,94.49a1.74,1.74,0,0,1-.5-1.26V75.59H49.32a1.89,1.89,0,0,1-1.3-.47,1.59,1.59,0,0,1-.53-1.22v-5A1.58,1.58,0,0,1,48,67.72a1.84,1.84,0,0,1,1.3-.47h3.22v-18A1.6,1.6,0,0,1,53.07,48,1.71,1.71,0,0,1,54.3,47.5ZM65.74,57.68v9.57h6.1a1.69,1.69,0,0,1,1.27.51,1.66,1.66,0,0,1,.49,1.18v5a1.67,1.67,0,0,1-.49,1.22,1.78,1.78,0,0,1-1.27.47h-6.1v9.23h6.94q4.35,0,6.53-2.07t2.32-6.41c.09-1.27.14-2.94.14-5s0-3.78-.14-5.09q-.15-4.48-2.25-6.52t-6.53-2Z"/></g></svg>